<svg width="281" height="277" viewBox="0 0 281 277" fill="none" xmlns="http://www.w3.org/2000/svg"><g filter="url(#filter0_d_667_4)"><path d="M149.385 45.864c-47.512-12.605-49.79-.36-61.386 4.906-23.516 10.985-21.513 24.937-35.296 79.494-13.784 54.558 39.255 69.629 99.663 84.778 52.324 13.182 75.48-60.477 77.597-89.06 2.338-28.7-33.067-67.512-80.578-80.118z" fill="#fff"/></g><circle cx="168" cy="155" r="64" fill="url(#paint0_radial_667_4)" fill-opacity=".5"/><path d="M137.897 92.152h4.917c.2.046.384.107.584.123 6.7.507 12.847 2.612 18.456 6.27.492.322.968.645 1.429.952 2.966-1.767 5.932-1.567 8.191.523 2.32 2.151 2.628 5.025.876 8.559.061.092.123.215.199.307 3.381 4.826 5.609 10.143 6.562 15.967.231 1.429.384 2.874.569 4.318v4.764c-.046.2-.092.399-.123.599-.261 1.814-.43 3.658-.815 5.456-3.165 15.259-16.197 27.737-31.548 30.227-1.46.23-2.935.399-4.395.599h-4.764c-.231-.046-.446-.108-.676-.123-6.531-.476-12.555-2.489-18.072-5.993a96.987 96.987 0 01-1.89-1.245c-2.966 1.767-5.932 1.568-8.191-.522-2.32-2.152-2.628-5.041-.876-8.56-.107-.153-.215-.338-.323-.507-3.288-4.764-5.47-9.973-6.423-15.69-.231-1.414-.4-2.827-.584-4.241v-4.918c.046-.245.123-.491.138-.753.538-6.715 2.69-12.877 6.408-18.502.584-.891 1.46-1.121 2.229-.63.753.492.891 1.383.353 2.29-.522.876-1.091 1.737-1.583 2.628-.568 1.045-1.06 2.12-1.629 3.273 5.025 0 9.897 0 14.768-.015.185 0 .461-.262.538-.461.907-2.398 2.597-3.888 5.133-4.334.491-.092.614-.323.691-.738.185-.922.384-1.859.6-2.766 1.121-4.625 2.566-9.112 5.363-13.046.015-.031-.016-.092-.046-.17-.246.047-.492.078-.738.124-4.933.983-9.466 2.935-13.6 5.793-.876.615-1.783.476-2.305-.277-.523-.753-.323-1.644.553-2.243 4.733-3.289 9.927-5.47 15.613-6.44 1.475-.23 2.951-.399 4.411-.598zm37.004 50.389c2.289-7.377 2.289-14.722.03-22.052h-20.93c.123 1.813.308 3.58.338 5.347.046 3.811.016 7.623 0 11.434 0 .491.123.737.584.983.707.384 1.46.815 1.967 1.414.707.83 1.23 1.844 1.875 2.874h16.136zm-69.091-22.114c-2.29 7.407-2.29 14.753-.015 22.083h20.93c-.123-1.829-.308-3.612-.338-5.394-.047-3.78-.016-7.576 0-11.356 0-.492-.077-.769-.584-.984-1.722-.722-2.889-1.998-3.504-3.75-.169-.476-.384-.614-.861-.614-3.765.015-7.53.015-11.295.015h-4.333zm40.139 22.114c.784-2.49 2.351-4.104 4.856-4.718.476-.123.461-.384.461-.722 0-3.919.031-7.822-.031-11.741-.031-1.629-.23-3.258-.353-4.841-.139-.046-.185-.076-.246-.076-5.194 0-10.388-.016-15.582.015-.2 0-.492.307-.569.522-.553 1.46-1.444 2.659-2.812 3.427-.676.384-1.429.63-2.198.968a103.474 103.474 0 00.385 17.166h16.089zm4.579-25.218c-.276-1.567-.507-3.073-.799-4.579-.845-4.272-1.951-8.468-3.949-12.371-.799-1.552-1.721-3.043-3.089-4.165-1.598-1.306-3.135-1.382-4.625.031a15.952 15.952 0 00-2.782 3.535c-2.29 3.964-3.365 8.375-4.257 12.831-.03.185.231.523.446.646 1.398.83 2.428 1.967 2.951 3.503.169.508.399.646.922.646 4.81-.016 9.619-.016 14.445-.016.215-.03.445-.046.737-.061zm-20.315 28.337c.169 1.045.307 2.013.476 2.966.799 4.518 1.875 8.959 3.827 13.139.891 1.89 1.89 3.688 3.534 5.04 1.568 1.291 3.089 1.368 4.564-.015a15.966 15.966 0 002.828-3.581c2.274-3.949 3.334-8.329 4.241-12.739.031-.169-.092-.476-.23-.538-1.783-.907-2.92-2.351-3.489-4.272h-15.751zm16.643 21.499c5.178-.922 10.019-2.951 14.414-6.07 5.578-3.965 9.697-9.098 12.463-15.429h-15.198c-.031.077-.077.154-.093.215-.845 2.52-2.551 4.088-5.178 4.564-.538.092-.507.477-.6.83-.876 3.15-1.613 6.347-2.704 9.42-.799 2.244-2.059 4.318-3.104 6.47zm6.761-49.851h20.3c-1.337-2.367-2.582-4.595-3.826-6.808-2.782 1.153-5.21.907-7.284-.984-2.321-2.12-2.69-4.748-1.537-7.606-3.12-2.659-12.094-6.347-14.537-5.993 4.287 6.469 5.701 13.861 6.884 21.391zm-34.176 43.75c3.273 2.705 12.263 6.393 14.552 5.993-4.303-6.469-5.716-13.892-6.9-21.376h-20.284c1.321 2.352 2.566 4.564 3.811 6.793 2.981-1.199 5.578-.861 7.699 1.367 1.951 2.09 2.213 4.564 1.122 7.223zm5.547-42.198c-.015 1.844 1.491 3.38 3.335 3.411 1.844.031 3.396-1.475 3.427-3.304.03-1.89-1.491-3.442-3.366-3.442a3.375 3.375 0 00-3.396 3.335zm38.725-14.138c-.015 1.844 1.491 3.381 3.335 3.396a3.404 3.404 0 003.427-3.396c0-1.844-1.521-3.365-3.381-3.365-1.844.015-3.365 1.521-3.381 3.365zm-53.477 53.493c0 1.844 1.506 3.381 3.35 3.396 1.844.016 3.38-1.49 3.411-3.335.031-1.874-1.506-3.426-3.381-3.426-1.859 0-3.365 1.521-3.38 3.365zm45.363-14.046c.031-1.874-1.413-3.411-3.273-3.457-1.875-.046-3.457 1.46-3.473 3.334-.03 1.829 1.491 3.397 3.335 3.412a3.328 3.328 0 003.411-3.289z" fill="#000"/><path d="M114.846 105.045a1.525 1.525 0 01-1.536 1.552c-.815 0-1.506-.692-1.522-1.506-.015-.83.707-1.568 1.552-1.552.815 0 1.491.691 1.506 1.506z" fill="#000"/><defs><radialGradient id="paint0_radial_667_4" cx="0" cy="0" r="1" gradientUnits="userSpaceOnUse" gradientTransform="matrix(0 64 -64 0 168 155)"><stop stop-color="#007DE7"/><stop offset="1" stop-color="#007DE7" stop-opacity="0"/></radialGradient><filter id="filter0_d_667_4" x=".5" y=".354" width="279.572" height="276.252" filterUnits="userSpaceOnUse" color-interpolation-filters="sRGB"><feFlood flood-opacity="0" result="BackgroundImageFix"/><feColorMatrix in="SourceAlpha" values="0 0 0 0 0 0 0 0 0 0 0 0 0 0 0 0 0 0 127 0" result="hardAlpha"/><feOffset dy="10"/><feGaussianBlur stdDeviation="25"/><feComposite in2="hardAlpha" operator="out"/><feColorMatrix values="0 0 0 0 0.191111 0 0 0 0 0.2304 0 0 0 0 0.266667 0 0 0 0.15 0"/><feBlend in2="BackgroundImageFix" result="effect1_dropShadow_667_4"/><feBlend in="SourceGraphic" in2="effect1_dropShadow_667_4" result="shape"/></filter></defs></svg>