<svg width="281" height="277" viewBox="0 0 281 277" fill="none" xmlns="http://www.w3.org/2000/svg"><g filter="url(#filter0_d_667_3)"><path d="M149.385 45.864c-47.512-12.605-49.79-.36-61.386 4.906-23.516 10.985-21.513 24.937-35.296 79.494-13.784 54.558 39.255 69.629 99.663 84.778 52.324 13.182 75.48-60.477 77.597-89.06 2.338-28.7-33.067-67.512-80.578-80.118z" fill="#fff"/></g><circle cx="151" cy="115" r="84" fill="url(#paint0_radial_667_3)" fill-opacity=".5"/><path d="M178.68 107.979V150.7c-.415 1.644-1.122 3.135-2.597 4.057-.799.507-1.737.784-2.628 1.168h-68.23c-.861-.369-1.767-.63-2.566-1.122-1.522-.922-2.229-2.443-2.659-4.103v-42.721c.43-1.659 1.153-3.181 2.659-4.103.783-.476 1.705-.753 2.566-1.121h9.527c.907.614 1.23 1.198 1.015 1.921-.231.783-.815 1.137-1.937 1.137h-7.883c.277.292.43.476.599.645 9.298 9.313 18.61 18.61 27.923 27.922 2.889 2.889 6.838 2.874 9.758-.031 6.853-6.838 13.692-13.692 20.53-20.53.169-.169.323-.353.584-.645h-16.258c-.262 0-.507.015-.769-.016-.814-.077-1.429-.768-1.429-1.537.016-.783.63-1.429 1.46-1.506.261-.015.507-.015.768-.015h18.672c.276 0 .63.015.799-.138 1.367-1.322 2.704-2.689 4.164-4.165h-44.073c-.277 0-.568.016-.845-.015-.676-.092-1.137-.461-1.322-1.122-.184-.661.046-1.198.569-1.629.138-.107.292-.2.43-.307h45.948c.814.338 1.69.584 2.443 1.029 1.568.969 2.336 2.505 2.782 4.226zm-51.603 23.359c-7.192 7.191-14.307 14.322-21.422 21.421h67.354l-21.421-21.421c-1.66 1.659-3.381 3.396-5.133 5.132-4.211 4.211-10.05 4.195-14.276-.015-1.721-1.737-3.458-3.473-5.102-5.117zm-2.597-2.29l-21.407-21.407c-.015 14.338 0 28.537 0 42.829 7.269-7.284 14.399-14.415 21.407-21.422zm51.065 21.36c.015-.323.061-.599.061-.86v-40.477c0-.446-.107-.876-.169-1.307l-21.268 21.268c7.038 7.054 14.169 14.169 21.376 21.376z" fill="#000"/><path d="M121.668 102.754c.139.108.262.216.4.323.692.569.784 1.583.2 2.228a1.523 1.523 0 01-2.29-.015c-.584-.661-.492-1.644.215-2.228.139-.108.277-.215.4-.323.353.015.722.015 1.075.015zm21.836 8.898a1.506 1.506 0 01-1.537 1.552c-.814-.015-1.521-.691-1.536-1.506-.016-.845.722-1.567 1.567-1.552a1.49 1.49 0 011.506 1.506z" fill="#000"/><defs><radialGradient id="paint0_radial_667_3" cx="0" cy="0" r="1" gradientUnits="userSpaceOnUse" gradientTransform="matrix(0 84 -84 0 151 115)"><stop stop-color="#FED23D"/><stop offset="1" stop-color="#FED23D" stop-opacity="0"/></radialGradient><filter id="filter0_d_667_3" x=".5" y=".354" width="279.572" height="276.252" filterUnits="userSpaceOnUse" color-interpolation-filters="sRGB"><feFlood flood-opacity="0" result="BackgroundImageFix"/><feColorMatrix in="SourceAlpha" values="0 0 0 0 0 0 0 0 0 0 0 0 0 0 0 0 0 0 127 0" result="hardAlpha"/><feOffset dy="10"/><feGaussianBlur stdDeviation="25"/><feComposite in2="hardAlpha" operator="out"/><feColorMatrix values="0 0 0 0 0.191111 0 0 0 0 0.2304 0 0 0 0 0.266667 0 0 0 0.15 0"/><feBlend in2="BackgroundImageFix" result="effect1_dropShadow_667_3"/><feBlend in="SourceGraphic" in2="effect1_dropShadow_667_3" result="shape"/></filter></defs></svg>