<svg width="280" height="277" fill="none" xmlns="http://www.w3.org/2000/svg"><g filter="url(#filter0_d_667_2)"><path d="M148.976 45.865c-47.512-12.606-49.79-.36-61.387 4.905-23.516 10.986-21.512 24.937-35.296 79.495-13.783 54.557 39.256 69.628 99.663 84.777 52.325 13.182 75.481-60.476 77.598-89.06 2.338-28.7-33.067-67.512-80.578-80.117z" fill="#fff"/></g><circle cx="112" cy="103" r="64" fill="url(#paint0_radial_667_2)" fill-opacity=".5"/><path d="M148.714 168.68c-.984-.185-1.967-.323-2.935-.538-2.859-.661-5.363-2.121-7.868-3.535-15.997-9.005-27.876-21.913-36.067-38.279a17.301 17.301 0 01-1.706-5.778c-.015-.138-.092-.292-.138-.43v-3.381c.169-.876.307-1.752.522-2.628a18.19 18.19 0 014.565-8.314 116.57 116.57 0 013.365-3.38c1.89-1.844 4.503-1.844 6.377.03 4.057 4.027 8.083 8.068 12.11 12.11 1.859 1.874 1.844 4.487 0 6.377-1.583 1.614-3.181 3.196-4.78 4.779-1.552 1.552-1.705 2.843-.491 4.641.707 1.06 1.46 2.105 2.197 3.15.646.907.569 1.829-.2 2.367-.722.507-1.644.307-2.259-.538-.875-1.229-1.767-2.443-2.581-3.719-1.614-2.489-1.291-5.532.799-7.683 1.629-1.675 3.288-3.304 4.933-4.949.937-.937.937-1.536 0-2.474a4286.612 4286.612 0 00-11.679-11.679c-.938-.937-1.552-.953-2.474-.015-1.43 1.475-3.012 2.827-4.211 4.456-3.611 4.949-4.211 10.312-1.491 15.844 4.902 9.958 11.48 18.686 19.747 26.109 5.794 5.194 12.171 9.512 19.194 12.862 5.624 2.705 12.278 1.629 16.842-2.628 1.183-1.106 2.305-2.259 3.427-3.411.738-.753.738-1.46-.015-2.213-3.98-3.996-7.961-7.976-11.956-11.956-.768-.768-1.46-.737-2.259.046-1.614 1.614-3.212 3.227-4.841 4.826-2.382 2.351-5.394 2.673-8.16.799-1.721-1.168-3.365-2.413-5.025-3.658-.891-.661-1.06-1.598-.507-2.32.569-.753 1.46-.784 2.367-.108 1.629 1.199 3.242 2.398 4.902 3.565 1.46 1.015 2.889.876 4.164-.368 1.66-1.629 3.289-3.289 4.949-4.933 1.997-1.983 4.594-1.983 6.607.015 3.981 3.965 7.945 7.93 11.895 11.894 1.997 1.998 1.997 4.595.015 6.608-1.245 1.26-2.474 2.536-3.78 3.719-2.92 2.628-6.362 4.134-10.281 4.549-.169.015-.338.077-.522.123-.907.046-1.829.046-2.751.046zM147.023 90c1.368.2 2.72.369 4.088.6 12.893 2.304 23.819 12.723 26.647 25.478.368 1.675.538 3.381.799 5.071.03.169.092.338.123.507v2.766c-.062.077-.139.139-.2.216-.43.66-1.03.922-1.783.706-.753-.215-1.029-.799-1.106-1.567-.261-2.413-.307-4.887-.938-7.207-3.242-12.017-10.987-19.624-23.066-22.697-2.013-.508-4.149-.584-6.223-.769-.861-.077-1.66-.123-2.013-1.06-.277-.722 0-1.322.906-2.044h2.766z" fill="#000"/><path d="M145.44 99.236c11.987.276 22.083 9.328 23.742 21.283.139 1.014.216 2.044.246 3.058.046 1.107-.584 1.814-1.521 1.829-.937.015-1.521-.661-1.552-1.798-.307-9.927-6.762-18.195-16.197-20.592-1.629-.415-3.319-.599-4.994-.676-1.399-.062-1.937-.891-1.906-1.629.031-.953.753-1.49 1.952-1.475h.23z" fill="#000"/><path d="M145.763 108.517c6.747.384 12.648 5.332 14.077 12.202.2.968.292 1.967.338 2.965.046 1.045-.615 1.737-1.537 1.737-.876 0-1.49-.63-1.521-1.66-.169-6.331-4.61-10.741-9.482-11.832-.891-.2-1.813-.277-2.735-.354-1.014-.092-1.66-.661-1.66-1.537 0-.922.692-1.536 1.737-1.536.276-.016.522 0 .783.015zm-.692 9.236a6.111 6.111 0 015.855 5.886c.031 1.014-.507 1.705-1.398 1.767-.861.061-1.491-.492-1.645-1.46-.307-2.075-1.075-2.858-3.119-3.15-1.014-.139-1.583-.784-1.506-1.675.107-.892.784-1.414 1.813-1.368zm-17.809 20.623c.86 0 1.506.63 1.521 1.49.015.876-.692 1.583-1.537 1.568a1.546 1.546 0 01-1.506-1.537c0-.845.676-1.506 1.522-1.521z" fill="#000"/><defs><radialGradient id="paint0_radial_667_2" cx="0" cy="0" r="1" gradientUnits="userSpaceOnUse" gradientTransform="matrix(0 64 -64 0 112 103)"><stop stop-color="#007DE7"/><stop offset="1" stop-color="#007DE7" stop-opacity="0"/></radialGradient><filter id="filter0_d_667_2" x=".091" y=".354" width="279.572" height="276.252" filterUnits="userSpaceOnUse" color-interpolation-filters="sRGB"><feFlood flood-opacity="0" result="BackgroundImageFix"/><feColorMatrix in="SourceAlpha" values="0 0 0 0 0 0 0 0 0 0 0 0 0 0 0 0 0 0 127 0" result="hardAlpha"/><feOffset dy="10"/><feGaussianBlur stdDeviation="25"/><feComposite in2="hardAlpha" operator="out"/><feColorMatrix values="0 0 0 0 0.191111 0 0 0 0 0.2304 0 0 0 0 0.266667 0 0 0 0.15 0"/><feBlend in2="BackgroundImageFix" result="effect1_dropShadow_667_2"/><feBlend in="SourceGraphic" in2="effect1_dropShadow_667_2" result="shape"/></filter></defs></svg>