<svg width="20" height="20" fill="none" xmlns="http://www.w3.org/2000/svg"><g clip-path="url(#clip0_1_536)" fill="#007DE7"><path d="M10 5.879A4.126 4.126 0 005.879 10 4.126 4.126 0 0010 14.121 4.126 4.126 0 0014.121 10 4.126 4.126 0 0010 5.879z"/><path d="M17.985 2.015A6.813 6.813 0 0013.138 0H6.862a6.813 6.813 0 00-4.847 2.015A6.813 6.813 0 000 6.862v6.276c0 1.826.716 3.547 2.015 4.847A6.813 6.813 0 006.862 20h6.276a6.813 6.813 0 004.847-2.015A6.814 6.814 0 0020 13.138V6.862a6.814 6.814 0 00-2.015-4.847zM10 15.293A5.299 5.299 0 014.707 10 5.299 5.299 0 0110 4.707 5.299 5.299 0 0115.293 10 5.3 5.3 0 0110 15.293zm5.864-10.328a.59.59 0 01-.829 0 .589.589 0 010-.829.59.59 0 01.829 0 .59.59 0 010 .83z"/></g><defs><clipPath id="clip0_1_536"><path fill="#fff" d="M0 0h20v20H0z"/></clipPath></defs></svg>