<svg width="179" height="22" viewBox="0 0 179 22" fill="none" xmlns="http://www.w3.org/2000/svg"><g clip-path="url(#clip0_1_544)"><path d="M158.52 13.498c-1.549 1.156-2.84 2.116-4.118 3.076-.738.553-1.561.996-2.446 1.206-1.734.393-3.295-.948-2.815-2.597 1.352-4.65 2.925-9.228 5.556-13.362.098-.16.332-.246.492-.37.479.407.147.74-.025 1.096-1.918 3.839-3.344 7.862-4.524 11.984-.172.628-.479 1.304.049 1.76.591.504 1.414.332 1.955-.136 2.938-2.534 6.528-4.405 8.027-8.391.763-2.018 1.66-4.036 3-5.783.43-.566.824-1.144 1.463-1.489.676-.369 1.364-.8 2.151-.221.824.615.258 1.328.049 1.907-.983 2.756-2.79 4.995-4.585 7.272-2.545 3.248-3.319 7-2.557 11.049.098.517.627 1.095-.197 1.402-.848.32-1.045-.393-1.303-.984-.565-1.267-.455-2.62-.455-3.95.013-1.033.16-2.079.283-3.47zm5.594-8.49c.934-1.095 1.856-2.227 2.052-3.753-1.118.997-1.843 2.215-2.052 3.753zm11.113 5.549c-1.525 2.215-3.233 3.655-5.114 4.91-1.094.738-2.287 1.402-3.504.492-1.143-.861-.823-2.178-.442-3.322a20.821 20.821 0 015.114-8.404 9.755 9.755 0 012.741-1.944c1.352-.652 2.791-.862 3.934.27 1.057 1.046.627 2.388.147 3.556-.959 2.363-1.45 4.836-1.745 7.346-.185 1.624-.049 3.138 2.028 3.544.295.061.762.184.566.676-.111.271-.431.283-.726.296-1.942.061-3.233-1.378-3.184-3.63.025-1.132.467-2.215.185-3.79zm2.446-5.98c.025-1.44-.627-1.698-1.389-1.673-1.5.037-2.692.812-3.7 1.821-2.422 2.412-4.229 5.217-5.323 8.478-.246.726-.713 1.5.061 2.116.873.689 1.598-.037 2.262-.517 2.951-2.128 5.126-4.921 6.847-8.071.468-.85 1.242-1.575 1.242-2.154zM4.868 11.75H2.975v6.239H0V2.412h4.635c4.118 0 6.17 1.525 6.17 4.577 0 1.033-.258 1.895-.761 2.571-.517.677-1.304 1.23-2.385 1.65l4.08 6.779H8.31L4.868 11.75zM2.975 9.61h1.844c.946 0 1.66-.21 2.151-.616.492-.418.738-1.082.738-1.993 0-.837-.246-1.452-.75-1.833-.504-.382-1.29-.579-2.373-.579H2.987v5.02h-.012zm19.816-7.198l-.32 2.214h-5.74v4.356h5.003v2.215h-5.003v4.577h6.146v2.227h-9.121V2.411h9.035zm5.877 0v13.14H34.9l-.332 2.437h-8.875V2.412h2.975zm17.05.615c1.02.628 1.807 1.55 2.348 2.768.553 1.219.823 2.683.823 4.393 0 1.698-.282 3.15-.836 4.368-.553 1.218-1.34 2.153-2.36 2.793-1.02.64-2.225.972-3.602.972-1.401 0-2.606-.32-3.626-.947-1.02-.628-1.807-1.55-2.36-2.769-.554-1.218-.836-2.682-.836-4.392 0-1.686.282-3.138.836-4.356.553-1.23 1.352-2.166 2.372-2.805 1.033-.64 2.237-.972 3.614-.972 1.39 0 2.606.32 3.627.947zm-6.38 2.732c-.627.935-.947 2.423-.947 4.454 0 3.888 1.23 5.832 3.688 5.832 1.205 0 2.114-.468 2.741-1.403.627-.935.935-2.424.935-4.466 0-2.03-.308-3.507-.935-4.442S43.284 4.33 42.08 4.33c-1.193.025-2.102.492-2.741 1.428zm20.763-3.273c.701.27 1.402.689 2.078 1.243l-1.512 1.76c-.922-.74-1.88-1.108-2.877-1.108-1.155 0-2.077.467-2.778 1.402-.7.935-1.045 2.4-1.045 4.393 0 1.956.344 3.408 1.033 4.356.688.947 1.623 1.415 2.79 1.415.615 0 1.168-.111 1.648-.333a8.56 8.56 0 001.536-.935l1.402 1.76c-.529.541-1.193.997-1.992 1.353-.799.357-1.696.542-2.692.542-1.352 0-2.545-.32-3.577-.948-1.033-.627-1.844-1.562-2.41-2.78-.565-1.23-.86-2.707-.86-4.43 0-1.698.295-3.15.885-4.368.59-1.218 1.401-2.141 2.434-2.768 1.032-.628 2.188-.948 3.479-.948.934-.012 1.758.123 2.458.394zm12.612 15.503l-.97-3.605h-5.164l-.971 3.605h-3.086l4.844-15.577h3.688l4.819 15.577h-3.16zm-5.531-5.857h3.958l-1.98-7.444-1.978 7.444zm19.288-9.72l-.32 2.362h-4.056v13.215h-3V4.786h-4.192V2.412H86.47zm4.917 0v15.577h-2.975V2.412h2.975zm13.24.615c1.02.628 1.807 1.55 2.348 2.768.553 1.219.823 2.683.823 4.393 0 1.698-.282 3.15-.836 4.368-.553 1.218-1.34 2.153-2.36 2.793-1.02.64-2.225.972-3.602.972-1.401 0-2.606-.32-3.626-.947-1.02-.628-1.807-1.55-2.36-2.769-.554-1.218-.837-2.682-.837-4.392 0-1.686.283-3.138.836-4.356.554-1.23 1.353-2.166 2.373-2.805 1.033-.64 2.237-.972 3.614-.972 1.402 0 2.606.32 3.627.947zm-6.368 2.732c-.627.935-.947 2.423-.947 4.454 0 3.888 1.23 5.832 3.688 5.832 1.205 0 2.115-.468 2.742-1.403.626-.935.934-2.424.934-4.466 0-2.03-.308-3.507-.934-4.442-.627-.935-1.537-1.403-2.742-1.403-1.205.025-2.114.492-2.741 1.428zm23.824 12.23h-3.848l-5.347-12.6c.135 1.108.233 2.117.307 3.015.061.898.098 1.98.098 3.223v6.362h-2.704V2.412h3.762l5.421 12.624a43.42 43.42 0 01-.271-2.375 33.864 33.864 0 01-.135-2.94V2.41h2.705v15.58h.012z" fill="#3C4044"/><path d="M136.281.11c-1.352-.43-3.601.85-4.708 3.003-1.106 2.153-.565 2.387-.43 3.002.27 1.243.971 1.317 3.43 2.572 2.458 1.255 3.761-1.12 5.138-3.864 1.193-2.374-2.077-4.294-3.43-4.712z" fill="#007DE7"/><path d="M136.81 13.412c-1.782-1.637-2.164-1.157-2.791-1.194-1.278-.062-1.512.59-3.368 2.645-1.856 2.055.111 3.925 2.397 5.968 1.98 1.772 4.684-.898 5.434-2.092.762-1.193.111-3.691-1.672-5.328z" fill="#FED23D"/></g><defs><clipPath id="clip0_1_544"><path fill="#fff" d="M0 0h179v22H0z"/></clipPath></defs></svg>