<svg width="782" height="96" viewBox="0 0 782 96" fill="none" xmlns="http://www.w3.org/2000/svg"><g clip-path="url(#clip0_1_509)"><path d="M692.527 58.9c-6.767 5.046-12.406 9.234-17.991 13.422-3.222 2.416-6.82 4.35-10.687 5.262-7.573 1.718-14.393-4.134-12.299-11.329 5.908-20.295 12.782-40.268 24.275-58.309.43-.698 1.45-1.074 2.148-1.61 2.095 1.771.645 3.221-.107 4.778-8.378 16.752-14.608 34.309-19.764 52.295-.752 2.739-2.094 5.692.215 7.678 2.578 2.202 6.176 1.45 8.539-.59 12.836-11.06 28.518-19.222 35.07-36.618 3.329-8.805 7.25-17.61 13.104-25.235 1.879-2.47 3.598-4.993 6.391-6.496 2.953-1.611 5.961-3.49 9.398-.967 3.598 2.685 1.128 5.799.215 8.322-4.297 12.027-12.191 21.799-20.032 31.732-11.117 14.174-14.501 30.55-11.171 48.215.43 2.255 2.739 4.778-.859 6.12-3.706 1.397-4.565-1.718-5.693-4.295-2.47-5.53-1.987-11.436-1.987-17.235.054-4.51.698-9.074 1.235-15.14zm24.436-37.048c4.082-4.778 8.11-9.718 8.969-16.375-4.887 4.349-8.056 9.664-8.969 16.375zm48.55 24.215c-6.66 9.665-14.125 15.947-22.342 21.423-4.78 3.222-9.989 6.12-15.306 2.148-4.994-3.759-3.598-9.504-1.933-14.497 4.511-13.96 11.922-26.201 22.341-36.671 3.491-3.544 7.519-6.336 11.976-8.483 5.908-2.846 12.191-3.759 17.186 1.18 4.619 4.565 2.739 10.417.645 15.518-4.189 10.308-6.338 21.1-7.627 32.053-.805 7.088-.214 13.692 8.862 15.463 1.289.269 3.329.806 2.47 2.954-.483 1.18-1.879 1.234-3.168 1.288-8.486.269-14.125-6.013-13.91-15.839.107-4.94 2.041-9.664.806-16.537zM776.2 19.973c.107-6.282-2.739-7.41-6.069-7.302-6.552.161-11.761 3.544-16.165 7.947-10.58 10.523-18.475 22.765-23.254 36.993-1.074 3.168-3.115 6.55.268 9.235 3.813 3.007 6.982-.161 9.882-2.255 12.889-9.289 22.395-21.477 29.914-35.222 2.04-3.704 5.424-6.872 5.424-9.396zM21.267 51.275h-8.27v27.222H0V10.523h20.247c17.991 0 26.96 6.658 26.96 19.974 0 4.51-1.128 8.268-3.33 11.221-2.256 2.953-5.693 5.37-10.419 7.195l17.83 29.584H36.305L21.267 51.275zm-8.27-9.342h8.055c4.136 0 7.25-.913 9.399-2.685 2.148-1.825 3.222-4.725 3.222-8.698 0-3.65-1.074-6.335-3.276-8-2.202-1.664-5.639-2.523-10.365-2.523H13.05v21.906h-.053zm86.572-31.41l-1.396 9.665h-25.08v19.007H94.95v9.664H73.092v19.973h26.853v9.718h-39.85V10.523H99.57zm25.672 0v57.343h27.228l-1.45 10.63h-38.775V10.524h12.997zm74.488 2.685c4.458 2.738 7.895 6.765 10.258 12.08 2.417 5.316 3.598 11.705 3.598 19.168 0 7.41-1.235 13.745-3.652 19.06-2.416 5.316-5.854 9.397-10.311 12.189-4.458 2.791-9.721 4.241-15.736 4.241-6.122 0-11.385-1.396-15.843-4.134-4.457-2.738-7.894-6.765-10.311-12.08-2.417-5.316-3.652-11.705-3.652-19.168 0-7.356 1.235-13.692 3.652-19.007 2.417-5.37 5.907-9.45 10.365-12.242 4.511-2.792 9.774-4.241 15.789-4.241 6.069 0 11.386 1.396 15.843 4.134zm-27.873 11.92c-2.739 4.08-4.135 10.577-4.135 19.436 0 16.966 5.371 25.45 16.112 25.45 5.263 0 9.237-2.041 11.976-6.121 2.739-4.081 4.081-10.578 4.081-19.49 0-8.86-1.342-15.302-4.081-19.383-2.739-4.08-6.713-6.12-11.976-6.12-5.21.107-9.184 2.147-11.977 6.227zm90.708-14.283c3.061 1.182 6.122 3.007 9.076 5.423l-6.606 7.678c-4.027-3.221-8.216-4.832-12.567-4.832-5.048 0-9.076 2.04-12.137 6.12-3.061 4.081-4.565 10.47-4.565 19.169 0 8.537 1.504 14.872 4.511 19.006 3.008 4.134 7.089 6.175 12.191 6.175 2.686 0 5.102-.484 7.197-1.45 2.094-.966 4.35-2.309 6.713-4.08l6.122 7.677c-2.309 2.363-5.209 4.35-8.7 5.907-3.491 1.556-7.411 2.362-11.761 2.362-5.908 0-11.117-1.396-15.628-4.134-4.512-2.739-8.056-6.82-10.527-12.135-2.47-5.369-3.759-11.812-3.759-19.328 0-7.41 1.289-13.745 3.867-19.06 2.578-5.316 6.122-9.343 10.633-12.081 4.512-2.739 9.56-4.135 15.199-4.135 4.082-.053 7.68.537 10.741 1.718zm55.102 67.652l-4.243-15.732h-22.556l-4.242 15.732h-13.48l21.159-67.974h16.112l21.052 67.974h-13.802zM293.499 52.94h17.293l-8.647-32.484-8.646 32.484zm84.263-42.417l-1.396 10.31h-17.723v57.664h-13.104V20.886h-18.313V10.523h50.536zm21.482 0v67.974h-12.997V10.523h12.997zm57.84 2.685c4.458 2.738 7.895 6.765 10.258 12.08 2.416 5.316 3.598 11.705 3.598 19.168 0 7.41-1.235 13.745-3.652 19.06-2.417 5.316-5.854 9.397-10.311 12.189-4.458 2.791-9.721 4.241-15.736 4.241-6.122 0-11.385-1.396-15.843-4.134-4.458-2.738-7.895-6.765-10.311-12.08-2.417-5.316-3.652-11.705-3.652-19.168 0-7.356 1.235-13.692 3.652-19.007 2.416-5.37 5.907-9.45 10.365-12.242 4.511-2.792 9.774-4.241 15.789-4.241 6.122 0 11.386 1.396 15.843 4.134zm-27.819 11.92c-2.739 4.08-4.136 10.577-4.136 19.436 0 16.966 5.371 25.45 16.112 25.45 5.263 0 9.237-2.041 11.976-6.121 2.739-4.081 4.082-10.578 4.082-19.49 0-8.86-1.343-15.302-4.082-19.383-2.739-4.08-6.713-6.12-11.976-6.12-5.263.107-9.237 2.147-11.976 6.227zm104.08 53.369h-16.809l-23.362-54.98c.591 4.832 1.02 9.235 1.343 13.154.268 3.92.429 8.644.429 14.067v27.759h-11.815V10.523h16.434l23.684 55.088a189.504 189.504 0 01-1.182-10.363c-.376-4.295-.591-8.59-.591-12.832V10.523h11.816v67.974h.053z" fill="#3C4044"/><path d="M595.375.483c-5.908-1.88-15.736 3.705-20.569 13.1-4.833 9.397-2.47 10.417-1.88 13.101 1.182 5.423 4.243 5.745 14.984 11.222 10.741 5.477 16.434-4.886 22.449-16.86 5.209-10.361-9.076-18.737-14.984-20.563z" fill="#007DE7"/><path d="M597.685 58.523c-7.788-7.14-9.453-5.047-12.192-5.208-5.585-.268-6.605 2.578-14.715 11.544-8.109 8.967.484 17.128 10.473 26.04 8.646 7.732 20.461-3.92 23.737-9.127 3.33-5.208.484-16.108-7.303-23.249z" fill="#FED23D"/></g><defs><clipPath id="clip0_1_509"><path fill="#fff" d="M0 0h782v96H0z"/></clipPath></defs></svg>