<svg width="281" height="277" fill="none" xmlns="http://www.w3.org/2000/svg"><g filter="url(#filter0_d_1_1149)"><path d="M149.494 45.917c-47.55-12.616-49.83-.36-61.436 4.91-23.535 10.994-21.53 24.956-35.324 79.558-13.795 54.601 39.287 69.684 99.743 84.846 52.367 13.192 75.541-60.526 77.66-89.132 2.34-28.724-33.093-67.567-80.643-80.182z" fill="#fff"/></g><ellipse cx="111.5" cy="98" rx="63.5" ry="64" fill="url(#paint0_radial_1_1149)" fill-opacity=".5"/><ellipse cx="169" cy="170.5" rx="53" ry="53.5" fill="url(#paint1_radial_1_1149)" fill-opacity=".5"/><g clip-path="url(#clip0_1_1149)" fill="#000"><path d="M140.437 92c1.448.198 2.91.366 4.358.594 15.264 2.499 28.137 14.823 31.276 29.966.365 1.783.533 3.611.807 5.408.031.198.092.396.122.594v4.876c-.198 1.432-.366 2.864-.594 4.28-.488 3.062-1.417 6.018-2.651 8.867-.381.883-.96 1.203-1.63.914-.686-.305-.853-.914-.472-1.798 2.193-5.088 3.321-10.405 3.016-15.935-.777-14.016-7.389-24.466-19.652-31.26-5.759-3.2-12.051-4.465-18.632-4.16-8.744.411-16.407 3.565-22.958 9.4-.213.183-.411.381-.625.563-.624.534-1.295.534-1.752.016-.457-.518-.411-1.158.198-1.676 1.432-1.219 2.834-2.468 4.357-3.55 5.561-3.946 11.761-6.185 18.525-6.916l1.585-.183h4.722zm-4.875 78c-1.477-.198-2.97-.335-4.433-.625-12.157-2.361-21.282-8.973-27.391-19.743-.427-.762-.274-1.448.35-1.768.64-.335 1.219-.106 1.676.701 3.184 5.774 7.572 10.39 13.208 13.818 16.987 10.329 39.229 5.164 49.939-11.609.106-.167.213-.35.335-.518.457-.655 1.066-.822 1.63-.472.579.35.716 1.051.274 1.737-.64.975-1.264 1.965-1.98 2.879-6.612 8.592-15.296 13.665-26.021 15.234-.899.137-1.797.229-2.712.335-1.63.031-3.244.031-4.875.031zM99 128.715c.198-1.478.35-2.971.61-4.433 1.142-6.521 3.777-12.371 7.891-17.566.594-.761 1.234-.899 1.813-.426.548.457.548 1.127-.046 1.874-3.824 4.859-6.307 10.328-7.389 16.407-1.158 6.429-.594 12.721 1.585 18.875.411 1.158.259 1.798-.518 2.042-.747.244-1.234-.122-1.646-1.249-1.173-3.337-1.934-6.764-2.178-10.299-.015-.213-.076-.442-.122-.655v-4.57z"/><path d="M137.909 151.627c-6.49-.076-12.371-4.067-14.778-10.1-.335-.838-.152-1.447.488-1.737.67-.304 1.249.016 1.63.899 1.965 4.555 5.362 7.358 10.222 8.333 6.033 1.204 12.386-2.148 14.869-7.815.076-.183.167-.366.244-.564.365-.837.929-1.142 1.584-.868.655.274.868.914.533 1.722-1.737 4.189-4.677 7.19-8.881 8.912-.884.365-1.829.639-2.758.822-1.021.198-2.102.259-3.153.396zm-11.289-31.474a3.633 3.633 0 01-3.641 3.687c-2.011.015-3.687-1.661-3.672-3.672.016-1.995 1.63-3.625 3.626-3.641a3.61 3.61 0 013.687 3.626zm22.76.046c-.015-2.026 1.569-3.656 3.58-3.672 2.042-.03 3.717 1.585 3.733 3.611.015 2.011-1.661 3.702-3.672 3.687a3.638 3.638 0 01-3.641-3.626z"/></g><defs><radialGradient id="paint0_radial_1_1149" cx="0" cy="0" r="1" gradientUnits="userSpaceOnUse" gradientTransform="matrix(0 64 -63.5 0 111.5 98)"><stop stop-color="#007DE7"/><stop offset="1" stop-color="#007DE7" stop-opacity="0"/></radialGradient><radialGradient id="paint1_radial_1_1149" cx="0" cy="0" r="1" gradientUnits="userSpaceOnUse" gradientTransform="matrix(0 53.5 -53 0 169 170.5)"><stop stop-color="#FED23D"/><stop offset="1" stop-color="#FED23D" stop-opacity="0"/></radialGradient><clipPath id="clip0_1_1149"><path fill="#fff" transform="translate(99 92)" d="M0 0h78v78H0z"/></clipPath><filter id="filter0_d_1_1149" x=".53" y=".402" width="279.717" height="276.394" filterUnits="userSpaceOnUse" color-interpolation-filters="sRGB"><feFlood flood-opacity="0" result="BackgroundImageFix"/><feColorMatrix in="SourceAlpha" values="0 0 0 0 0 0 0 0 0 0 0 0 0 0 0 0 0 0 127 0" result="hardAlpha"/><feOffset dy="10"/><feGaussianBlur stdDeviation="25"/><feComposite in2="hardAlpha" operator="out"/><feColorMatrix values="0 0 0 0 0.191111 0 0 0 0 0.2304 0 0 0 0 0.266667 0 0 0 0.15 0"/><feBlend in2="BackgroundImageFix" result="effect1_dropShadow_1_1149"/><feBlend in="SourceGraphic" in2="effect1_dropShadow_1_1149" result="shape"/></filter></defs></svg>