<svg width="272" height="46" viewBox="0 0 272 46" fill="none" xmlns="http://www.w3.org/2000/svg"><path d="M39.606.012c0 .9-.012 1.8-.012 2.713 0 12.095 0 24.19.012 36.284 0 .53-.098.715-.689.715a2171.67 2171.67 0 00-17.94 0c-.54 0-.688-.123-.676-.665.037-1.702.074-3.415-.012-5.117-.197-3.464-.971-6.769-3.185-9.555-1.758-2.207-4.107-3.55-6.8-4.278a22.215 22.215 0 00-6.037-.752c-1.414.012-2.828 0-4.242 0 0-6.288 0-12.576-.012-18.864C0 .086.087 0 .505 0c13.033.012 26.067.012 39.101.012zm-19.809 8.26c-3.689 0-7.378.013-11.054-.011-.443 0-.664.061-.627.579.05.715.024 1.443.012 2.158-.012.333.099.443.443.493 1.082.172 2.164.345 3.221.616 4.402 1.122 8.239 3.194 11.227 6.707 3.012 3.539 4.525 7.706 5.14 12.255.049.407.16.53.553.518.7-.024 1.39-.037 2.09 0 .48.025.615-.11.615-.604a6629.08 6629.08 0 010-22.118c0-.481-.123-.617-.603-.604-3.689.012-7.353.012-11.017.012zM72.313 46c0-7.644 0-15.288-.012-22.932 0-.518.123-.654.64-.641 1.536.037 3.073.024 4.61 0 .443-.013.578.123.53.554a7.471 7.471 0 00-.025 1.048c0 .136-.148.296.012.395.184.099.295-.086.406-.197.787-.802 1.709-1.369 2.742-1.776 3.197-1.27 8.177-.74 10.685 2.06 1.168 1.294 1.844 2.823 2.14 4.512.344 2.01.233 3.982-.53 5.893-.97 2.417-2.704 4.032-5.176 4.82-2.877.925-5.68.802-8.374-.653-.516-.283-.97-.666-1.487-1.134v8.05h-6.16zm15.493-14.672c.013-1.27-.11-2.219-.455-3.12-.774-2.009-2.324-2.995-4.525-2.946-2.04.05-3.48.974-4.217 2.898-.492 1.257-.529 2.564-.406 3.908.246 2.762 1.832 5.006 5.14 4.808 1.303-.074 2.434-.53 3.258-1.64.922-1.257 1.156-2.7 1.205-3.908z" fill="#3CB43B"/><path d="M.013 24.177c.221.013.442.038.676.038 4.71 0 9.419.012 14.128-.013.553 0 .676.148.664.678-.024 4.747-.024 9.481 0 14.228 0 .48-.11.617-.602.617-4.956-.025-9.91-.013-14.866-.013V24.177z" fill="#1B1A1A"/><path d="M272 39.712c-2.09-.012-4.181-.037-6.271 0-.652.012-1.045-.222-1.451-.678-1.992-2.293-4.008-4.574-6.037-6.88-.246.198-.148.432-.148.641a560.04 560.04 0 000 6.35c0 .407-.086.567-.528.567a175.722 175.722 0 00-5.103 0c-.394 0-.517-.099-.517-.505.013-5.425.013-10.85 0-16.262 0-.37.086-.494.48-.481 1.721.024 3.443.024 5.164 0 .394 0 .517.098.517.505-.025 2.108-.013 4.23-.013 6.313.824-.777 1.685-1.53 2.472-2.343 1.377-1.405 2.705-2.848 4.058-4.278.098-.099.196-.197.356-.197h6.665a489 489 0 01-3.001 2.872c-1.512 1.443-3.025 2.873-4.537 4.316-.934.9-.934.887-.012 1.837 2.471 2.515 4.93 5.042 7.402 7.557.148.16.258.383.504.42v.246zM181.035 27.79c0-3.76.012-7.52-.013-11.281 0-.481.111-.617.603-.617 6.984.013 13.968.013 20.952 0 .468 0 .578.124.566.58a44.572 44.572 0 000 3.39c.024.543-.172.617-.652.617-4.672-.013-9.345 0-14.017-.025-.566 0-.787.086-.75.715.061 1.023.037 2.06 0 3.082-.013.444.123.543.553.543 2.545-.025 5.078-.05 7.624 0 2.336.05 4.598.518 6.59 1.85 1.783 1.183 2.644 2.897 2.853 5.005.184 1.85-.172 3.538-1.377 4.969-1.119 1.319-2.644 1.997-4.279 2.44-1.599.445-3.246.593-4.894.605-4.402.025-8.804 0-13.218.025-.517 0-.591-.185-.591-.63.062-3.747.05-7.508.05-11.268zm10.402 7.262h1.599c1.155 0 2.324 0 3.442-.395 1.906-.678 2.374-2.848.91-4.253-.873-.826-1.992-.999-3.098-1.036-2.029-.062-4.058-.012-6.087-.025-.344 0-.455.087-.455.444.025 1.603.025 3.206 0 4.809 0 .407.148.468.492.468 1.07-.025 2.14-.012 3.197-.012zM56.943 15.917c3.787 0 7.587.012 11.374-.012.504 0 .688.061.688.653a3430.07 3430.07 0 000 22.5c0 .494-.098.666-.627.654a131.862 131.862 0 00-5.41 0c-.529.012-.627-.16-.627-.653.012-5.943 0-11.873.024-17.816 0-.653-.184-.777-.799-.777-3.135.037-6.27.025-9.406 0-.517 0-.652.148-.652.654.012 5.955 0 11.922.025 17.877 0 .567-.136.715-.701.703a161.76 161.76 0 00-5.472 0c-.369 0-.492-.087-.492-.481.012-7.62.012-15.251 0-22.87 0-.518.27-.444.578-.444 3.836.012 7.673.012 11.497.012zm76.395 14.832c.48.11.972.197 1.451.345 1.463.456 2.791 1.085 3.234 2.725.381 1.393.32 2.774-.615 3.957-.725.925-1.795 1.307-2.902 1.554a15.766 15.766 0 01-3.393.345c-4.058.025-8.116 0-12.161.025-.43 0-.553-.111-.541-.543.012-5.4.012-10.8 0-16.2 0-.395.086-.518.504-.518 4.341.012 8.681-.012 13.022.025 1.155.012 2.299.21 3.381.715 1.34.629 2.078 1.664 2.164 3.144.098 1.627-.627 2.823-2.029 3.624-.664.358-1.377.592-2.115.802zm-6 1.677c-.898 0-1.635.012-2.373 0-.271 0-.418.037-.406.357.012 1.048.012 2.096 0 3.144 0 .271.098.358.357.345 1.647-.05 3.307.111 4.955-.135.811-.124 1.635-.309 1.943-1.221.369-1.11-.332-2.084-1.648-2.342-.984-.222-1.992-.111-2.828-.148zm-.246-6.523c-.775 0-1.402.025-2.041-.012-.418-.024-.517.136-.492.518.025.777.025 1.553 0 2.343-.012.357.061.505.467.493 1.427-.05 2.865.086 4.279-.136.64-.099 1.291-.234 1.672-.85.554-.913-.061-1.961-1.278-2.22-.898-.21-1.82-.11-2.607-.136zm99.536 4.587v6.707c0 .42.099.801.197 1.196.098.431.393.703.775.9.123.062.307.062.258.271-.037.173-.185.123-.295.123-1.943 0-3.886-.012-5.841.013-.32 0-.344-.185-.43-.395-.172-.431-.136-1.11-.504-1.245-.357-.136-.652.505-1.033.74-1.402.85-2.914 1.257-4.537 1.43-1.833.197-3.616.074-5.349-.53-1.918-.666-3.111-2.035-3.21-4.106-.098-1.973.689-3.489 2.939-4.475 1.795-.79 3.738-1.048 5.669-1.27 1.291-.148 2.594-.198 3.873-.444.725-.136 1.365-.382 1.475-1.208.123-.962-.012-1.911-.959-2.392-1.684-.85-3.418-.777-5.078.123-.664.358-.984 1.023-1.07 1.775-.024.284-.135.333-.369.321a361.345 361.345 0 00-5.164 0c-.32 0-.369-.11-.332-.395.308-2.453 1.722-4.031 3.959-4.894 1.587-.617 3.247-.863 4.943-.888 2.14-.024 4.279.025 6.321.752 1.77.629 3.16 1.665 3.688 3.576.123.456.222.912.209 1.38-.012.987 0 1.973 0 2.96-.049-.025-.098-.025-.135-.025zm-6.013.962c-1.315.53-2.631.727-3.959.887-.996.124-1.98.309-2.877.888-1.033.666-1.217 2.614.209 3.206.455.184.91.345 1.389.394 1.759.185 3.296-.246 4.464-1.677.885-1.072.799-2.342.774-3.698zm-63.484 8.235c-.922 0-1.845-.012-2.767 0-.32 0-.479-.086-.553-.419-.099-.431-.16-1.11-.418-1.208-.357-.136-.676.456-1.045.69-1.328.839-2.792 1.258-4.353 1.455-1.648.21-3.271.148-4.857-.283-1.881-.506-3.381-1.48-3.824-3.576-.455-2.108.393-4.007 2.287-4.993 1.352-.703 2.803-1.011 4.291-1.27 1.918-.333 3.886-.37 5.804-.703.811-.148 1.389-.505 1.475-1.368.087-.826-.098-1.579-.799-2.121a2.725 2.725 0 00-1.279-.53c-1.278-.173-2.545-.222-3.75.382-.75.382-1.205.974-1.254 1.812-.025.42-.221.444-.553.432a159.19 159.19 0 00-4.857.012c-.48.013-.554-.185-.492-.58.32-2.108 1.475-3.575 3.369-4.475 1.685-.801 3.48-1.097 5.324-1.134 2.078-.037 4.156-.025 6.173.629 1.451.456 2.729 1.171 3.553 2.515.566.937.763 1.985.726 3.045-.111 2.787-.062 5.585-.111 8.372-.012.678-.061 1.356.148 2.01.123.382.319.69.701.875.11.05.332.05.282.259-.049.234-.258.16-.405.16-.923.025-1.869.012-2.816.012zm-3.935-8.235c-1.316.53-2.668.727-4.033.9-.922.11-1.844.27-2.656.776-.639.395-1.008.974-1.021 1.702-.012.715.394 1.22 1.009 1.553 1.623.875 4.107.518 5.447-.727 1.242-1.147 1.352-2.602 1.254-4.204zm76.261-.37c0-2.688.012-5.388-.013-8.076 0-.468.123-.58.578-.567 1.685.024 3.357.037 5.042 0 .491-.012.565.16.553.592-.025 1.763 0 3.538-.025 5.301 0 .432.074.604.566.592 2.127-.025 4.267-.025 6.394 0 .479 0 .578-.16.565-.604-.024-1.788 0-3.576-.012-5.363 0-.383.074-.53.504-.518 1.722.024 3.443.024 5.165 0 .381 0 .479.099.479.48-.012 5.425-.012 10.85 0 16.275 0 .42-.135.518-.529.506a175.653 175.653 0 00-5.102 0c-.394 0-.517-.099-.517-.506.025-2.071 0-4.155.025-6.226 0-.456-.099-.604-.578-.592-2.127.025-4.267.025-6.394 0-.492-.012-.553.185-.553.604.024 2.06-.013 4.106.024 6.165.013.48-.135.58-.59.567a171.478 171.478 0 00-5.041 0c-.431.012-.541-.123-.541-.543.012-2.7 0-5.4 0-8.087zM109.57 37.58c-1.18 1.047-2.373 1.861-3.812 2.293-2.004.591-4.02.64-6.012.037-2.164-.654-3.37-2.22-3.824-4.414a10.373 10.373 0 01-.21-2.133c-.012-3.452 0-6.905-.012-10.357 0-.456.111-.591.578-.58 1.697.025 3.406.025 5.103 0 .443-.011.541.124.541.556a1187.55 1187.55 0 000 9.246c0 .69 0 1.381.148 2.072.27 1.356.959 2.256 2.397 2.49 1.832.296 3.517-.172 4.452-1.775.491-.839.664-1.788.676-2.75.012-3.082.012-6.164 0-9.246 0-.444.086-.592.565-.58 1.697.037 3.406.025 5.103 0 .406 0 .504.111.504.518-.012 5.4-.012 10.8 0 16.2 0 .432-.11.555-.541.543a175.653 175.653 0 00-5.102 0c-.394 0-.554-.086-.517-.506-.012-.505-.037-1.01-.037-1.615zm60.373-15.129c3.111 0 6.222.013 9.333-.012.492 0 .627.136.602.616a24.734 24.734 0 000 2.343c.013.407-.11.518-.516.518-1.881-.025-3.763.012-5.656-.025-.529-.012-.713.099-.713.69.024 4.143 0 8.298.036 12.44 0 .592-.172.703-.713.691a106.277 106.277 0 00-4.857 0c-.491.012-.614-.123-.602-.604.024-4.192 0-8.371.024-12.563 0-.506-.11-.654-.627-.642-1.905.037-3.811 0-5.717.025-.394 0-.541-.086-.529-.505.037-.826.037-1.64 0-2.466-.025-.432.16-.493.529-.493 3.135-.013 6.271-.013 9.406-.013z" fill="#3CB43B"/></svg>