<svg width="280" height="80" fill="none" xmlns="http://www.w3.org/2000/svg"><path d="M280 39.619c-2.897-.045-6.241.807-8.559-.404-2.184-1.122-3.299-4.352-4.948-6.686-.892-1.256-1.828-2.467-2.63-3.589-3.566 1.705-3.923 4.8-3.522 8.121.223 1.84-.223 2.647-2.318 2.558-5.216-.135-5.216-.045-5.216-5.25 0-10.768.045-21.492-.044-32.26 0-1.66.356-2.109 2.05-2.109 5.528.18 5.528.09 5.528 5.609v18.037c2.898-3.366 5.394-6.327 7.98-9.243.936-1.077 1.56-2.917 2.942-3.096 2.541-.36 5.171-.27 7.757-.045 1.292.134.267.987-.045 1.39-2.541 2.962-5.171 5.879-7.757 8.885-2.451 2.871-2.407 2.243-.223 5.07 3.032 3.903 5.662 8.076 9.005 11.71v1.302z" fill="#070707"/><path d="M5.394 80c-1.159-1.256-3.031-1.256-4.146-2.737-.713-.942-1.203-1.84-1.203-3.006 0-4.711.044-9.423-.045-14.134-.045-1.39.446-1.794 1.783-1.794 1.293 0 1.828.314 1.828 1.75-.09 3.903-.045 7.762.044 11.665.045 2.917 1.694 4.801 4.057 4.98 2.497.18 4.235-1.256 4.77-4.262.624-3.904.134-7.897.268-11.845.044-2.064.936-2.737 2.942-2.199.58.18.936.449.891 1.077-.089 4.487.268 8.974-.178 13.416-.357 2.826-1.694 4.935-4.369 6.057-.445.18-1.203.314-1.293 1.077C8.96 80 7.177 80 5.394 80zm156.472 0c-.714-.718-1.561-1.301-2.14-2.109-1.694-2.378-.803-5.743 2.05-7.134 1.516-.762 3.21-1.121 4.815-1.705.446-.18 1.159-.045 1.204-.673.044-.628-.446-1.077-.937-1.39-1.381-.898-2.719-.36-4.056.09-.847.313-1.694.941-2.229-.27-.535-1.256.624-1.526 1.337-1.885 2.452-1.3 5.038-1.166 7.489-.179 2.007.852 2.586 2.692 2.631 4.756.044 2.961-.223 5.968.267 8.929.089.493.134.987-.49.987-1.115 0-2.764.673-3.299-.449-.892-1.884-1.56-.763-2.452-.269-.802.449-1.605.897-2.452 1.301h-1.738zm6.152-7.627c-.134-.45.356-1.66-.892-1.346-1.248.314-2.63.538-3.477 1.75-.936 1.3-1.204 2.826.089 3.813 1.382 1.032 2.63 0 3.433-1.301.49-.853.936-1.705.847-2.916zM111.492 80a7.743 7.743 0 00-.535-.628c-3.655-2.647-3.254-6.91.847-8.794 1.516-.718 3.165-1.256 4.815-1.66 1.203-.314 1.025-.763.446-1.436-.937-1.077-2.14-1.256-3.433-.808-.713.225-1.382.539-2.095.763-.669.27-1.07-.045-1.427-.673-.401-.718-.089-.942.491-1.346 2.63-1.884 7.043-1.884 9.361-.045.892.718 1.338 1.526 1.516 2.602.624 3.545-.268 7.18.579 10.68.09.448-.223.852-.579.717-1.293-.404-3.21 1.301-3.834-1.211-.178-.718-.713-.27-1.025-.09-.981.628-1.917 1.301-2.898 1.93h-2.229zm6.018-9.153c-1.382.135-2.63.718-3.744 1.391-1.159.673-1.382 1.93-1.159 3.14.133.719.356 1.481 1.337 1.526 1.248.09 2.006-.493 2.719-1.525.936-1.391 1.159-2.827.847-4.532zM70.48 80c-.045-.897-.892-.897-1.427-1.166-2.898-1.66-4.102-4.128-4.012-7.404.044-3.05 1.382-5.205 4.056-6.64 4.592-2.423 9.852.583 10.209 5.788.089 1.3-.446 1.75-1.65 1.705-2.229-.045-4.458.045-6.686 0-1.605-.045-1.739.673-1.249 1.974.981 2.512 3.477 3.544 6.509 2.423 1.114-.404 1.917-.539 2.318.583.49 1.346-.847 1.212-1.516 1.705-.757.583-1.961.135-2.54 1.077C73.153 80 71.816 80 70.478 80zm2.139-13.73c-1.516 0-3.254 1.526-3.076 2.917.268 1.84 1.783.628 2.675.897.624.18 1.337.045 2.006.045.624 0 .936-.27 1.025-.897a2.649 2.649 0 00-2.63-2.962zM97.673 80c-.268-.942-1.248-.942-1.873-1.391-.49-.359-1.025-.583-.534-1.39.4-.629.757-1.123 1.56-.719 1.159.584 2.273 1.122 3.566.494 1.115-.494 1.427-1.167.713-2.288-.668-1.122-1.738-1.795-2.808-2.468-1.828-1.212-3.254-2.603-2.586-5.115.49-1.795 2.363-3.096 4.859-3.096 1.159 0 2.319.314 3.478.583.535.135 1.069.583.713 1.346-.312.628-.669 1.212-1.516.808a4.727 4.727 0 00-.847-.314c-.981-.27-2.006-.404-2.54.673-.536 1.077.222 1.84.98 2.468.847.717 1.872 1.211 2.63 1.974 3.076 2.871 2.407 6.281-1.426 7.852-.313.134-.758.09-.847.583h-3.522z" fill="#616161"/><path d="M6.91 14.403c2.006-1.795 4.101-3.186 6.687-3.724 4.057-.853 7.534-.27 9.852 3.59.758 1.255 1.203.403 1.783-.135 3.299-3.32 7.177-4.622 11.769-3.366 2.898.763 4.68 2.693 4.993 5.609.758 7.314.178 14.627.356 21.94 0 .943-.445 1.257-1.337 1.347-6.286.583-6.241.583-6.241-5.609V21.941c-.045-3.41-1.471-4.98-4.324-4.936-3.255.09-5.75 2.289-5.75 5.16 0 5.16-.046 10.32.044 15.48.044 1.57-.446 2.019-2.006 2.019-5.662 0-5.662.09-5.662-5.52 0-4.037.045-8.075 0-12.114-.045-3.006-1.025-4.486-3.165-4.89-2.318-.449-6.107 1.256-6.865 3.185-.223.539-.134 1.167-.134 1.75 0 5.25-.044 10.455.045 15.704 0 1.436-.357 1.885-1.828 1.885-4.904 0-4.904.044-4.904-4.801 0-7.269.045-14.493-.044-21.761 0-1.57.4-2.199 1.961-1.93.49.09 1.026 0 1.56 0 2.943 0 2.943 0 3.21 3.23zm152.37.314c1.873-2.109 3.656-3.32 5.84-3.994 4.592-1.39 10.967.629 13.463 5.61 3.076 6.056 3.343 12.203-.089 18.126-3.879 6.73-11.992 7.897-17.876 2.871-.357-.314-.669-.718-1.115-.448-.223.134-.267.673-.223.987.268 1.66-.624 1.75-1.961 1.794-5.617 0-5.617.045-5.617-5.518 0-10.634.045-21.223-.045-31.857 0-1.84.535-2.333 2.229-2.153 1.694.18 3.968-.539 4.949.314 1.159 1.032.312 3.365.356 5.115.134 2.826.089 5.653.089 9.153zm0 11.037c.312 1.481-.758 3.59.491 5.07 3.7 4.308 10.03 3.814 12.348-1.166 1.516-3.276 1.248-6.506-.579-9.557-1.472-2.468-4.681-3.634-7.579-2.782-3.611 1.032-4.681 2.468-4.681 6.102v2.333zm-28.307 14.537c-8.426.404-15.113-6.55-14.934-14.94.178-8.75 6.419-15.076 15.067-15.031 8.916.044 15.113 6.326 15.202 15.165.044 7.717-5.974 15.255-15.335 14.806zm-7.044-15.21c-.089 5.923 3.923 9.647 8.961 8.346 2.942-.763 5.082-3.365 5.438-6.596.446-4.038-1.114-7.717-3.834-9.063-5.215-2.558-10.476 1.076-10.565 7.313zm79.484 12.069c-3.12 2.603-6.419 3.41-10.03 3.097-4.993-.449-8.604-4.128-8.782-8.929-.134-5.115 2.853-8.704 8.113-9.467 3.79-.583 7.311.224 10.432 2.692 1.605-5.474-1.828-9.063-7.489-7.942-1.873.36-3.745.943-5.216 2.289-1.07.987-1.694.583-2.363-.539-2.14-3.769-2.273-3.903 1.828-5.922 4.993-2.468 10.253-2.917 15.469-.808 3.834 1.525 5.617 4.8 5.751 8.794.178 5.968.089 11.935.133 17.947 0 .987-.356 1.346-1.293 1.346-1.694 0-3.432-.044-5.126 0-1.516 0-1.204-1.256-1.427-2.557zm-5.617-1.973c.58-.045 1.204 0 1.784-.09 2.853-.449 4.056-1.75 4.012-4.263-.045-2.288-1.382-3.544-4.191-3.858-1.248-.135-2.496-.27-3.744.045-2.096.538-3.477 2.153-3.433 4.083.045 1.84 1.56 3.59 3.566 3.948.669.135 1.338.09 2.006.135zM62.9 40.291c-8.558.404-15.111-6.505-15.067-14.85.045-8.705 6.33-15.077 14.979-15.121 8.737-.045 15.156 6.281 15.29 14.806.09 8.166-6.018 15.57-15.201 15.165zm-.044-23.286c-4.235.045-7.222 3.544-7.177 8.48.045 4.756 3.12 8.3 7.222 8.256 4.28-.045 7.444-3.77 7.4-8.615-.09-4.711-3.254-8.166-7.445-8.121zm28.396-2.557c3.879-3.455 8.114-4.936 13.062-3.68 3.522.898 5.84 3.365 5.929 7.09.134 6.775.089 13.595.134 20.415 0 1.031-.312 1.39-1.382 1.435-6.063.36-6.063.404-6.063-5.743V23.421c0-2.198.045-4.487-2.229-5.698-2.54-1.346-5.037-.718-7.4.673-1.56.942-2.362 2.154-2.273 4.173.178 5.07 0 10.14.089 15.255.044 1.48-.446 1.884-1.873 1.884-5.617 0-5.617.045-5.617-5.518 0-6.955.045-13.91-.044-20.864 0-1.615.267-2.423 2.05-2.154.67.09 1.338 0 2.007 0 3.21 0 3.21 0 3.61 3.276zM218.66 25.44c0-4.038.089-8.076-.045-12.114-.089-1.84.58-2.378 2.274-2.154.936.135 1.917.045 2.897 0 1.427-.09 2.586-.134 2.408 2.02-.134 1.435.668.762 1.337.269 3.878-2.962 8.113-4.083 12.883-2.334 3.522 1.302 4.815 4.039 4.904 7.449.178 6.55.045 13.146.134 19.742 0 1.121-.446 1.346-1.471 1.39-5.974.315-5.974.36-5.974-5.563 0-3.68-.045-7.314 0-10.993.045-2.109-.267-4.262-2.184-5.294-2.408-1.301-4.993-.987-7.4.493-1.739 1.077-2.452 2.468-2.363 4.622.178 4.935 0 9.87.089 14.806 0 1.391-.267 1.974-1.828 1.974-5.661.09-5.661.135-5.661-5.518V25.44z" fill="#070707"/><path d="M151.167 67.84c.758 1.078 2.006.898 2.764 1.66 2.808 2.783 2.095 7.045-1.56 8.885-3.522 1.794-7.311.852-10.967 1.032-.981.045-.891-.808-.891-1.48V59.988c0-1.167.445-1.57 1.604-1.57 2.096.044 4.146-.09 6.241.044 2.408.135 4.86.584 5.84 3.186.803 2.154-.223 4.128-3.031 6.192zm-4.636 8.974c3.209.045 4.814-1.39 4.636-3.903-.178-2.064-1.828-3.141-4.547-3.186-2.497-.045-1.516 1.795-1.694 2.962-.089.717.044 1.48-.045 2.198-.089 1.436.223 2.288 1.65 1.93zm-1.65-12.697c.58.897-1.159 3.006 1.516 2.961 2.184 0 4.012-1.57 3.834-3.455-.179-2.109-1.605-2.512-3.433-2.647-2.63-.135-1.738 1.75-1.917 3.14zm54.832 8.256c0 1.884-.044 3.724 0 5.608.045 1.884-1.292 1.39-2.318 1.48-1.159.09-1.783-.179-1.738-1.57.044-6.281.089-12.563 0-18.844 0-1.57.713-1.705 1.872-1.616 1.115.045 2.274-.269 2.229 1.57-.089 3.5-.045 6.955-.045 10.814 1.828-1.032 2.72-2.468 3.745-3.724.936-1.122 1.739-2.468 3.566-2.109.402.09.937-.135 1.159.404.179.449-.089.808-.401 1.166-1.203 1.391-2.318 2.872-3.655 4.173-.981.943-.713 1.526.044 2.423 1.65 1.93 3.165 3.904 4.77 5.878.268.314.758.583.491 1.122-.223.403-.624.269-.981.314-1.917.224-3.522-.045-4.592-2.11-.98-1.839-2.452-3.454-3.744-5.159a3.508 3.508 0 01-.402.18zm-178.271-.494c0-1.795-.044-3.59 0-5.384.045-.718-.445-1.93.714-2.02 1.07-.09 2.496-.807 3.165.539.535 1.077.936.359 1.293.09 1.114-.853 2.451-1.032 3.789-1.122 3.254-.224 5.305 1.436 5.483 4.666.178 3.141.09 6.282.134 9.378.044 1.75-1.204 1.3-2.185 1.346-1.025.045-1.916.09-1.827-1.436.089-2.513.044-5.07 0-7.628-.045-2.467-.981-3.589-2.987-3.634-2.23-.045-3.477 1.167-3.522 3.634a101.55 101.55 0 000 7.404c.09 1.525-.713 1.705-1.917 1.66-1.07-.09-2.318.314-2.229-1.57.134-1.93.09-3.949.09-5.923zm155.09-.09c0-1.705-.045-3.455.045-5.16.044-.763-.491-1.93.49-2.154 1.07-.269 2.586-.673 3.299.315.758 1.076 1.114.448 1.694.09 2.675-1.526 5.795-1.167 7.801.672 1.427 1.301 1.115 3.051 1.248 4.577.223 2.512 0 5.07.089 7.627.09 1.75-.98 1.616-2.184 1.66-1.337.045-2.051-.224-1.961-1.84.133-2.242.044-4.486 0-6.73-.045-2.916-.892-4.082-2.898-4.172-2.229-.09-3.477 1.256-3.611 4.128-.089 2.243-.134 4.487 0 6.73.089 1.795-.847 1.84-2.184 1.885-1.427.044-2.006-.36-1.873-1.885.134-1.84.045-3.769.045-5.743zM55.5 74.66c1.294-3.275 2.453-5.922 3.344-8.659.535-1.795 1.694-1.795 3.076-1.705.847.045 1.248.27.847 1.211-1.961 4.353-3.923 8.66-5.84 13.012-.446.987-1.248.853-2.05.853-.847 0-1.338-.314-1.694-1.122-1.694-4.128-3.388-8.21-5.216-12.294-.58-1.256-.446-1.615 1.025-1.75 2.095-.224 3.076.584 3.656 2.558.668 2.557 1.738 4.935 2.853 7.897zm74.671-6.28c0 3.14-.09 6.28.044 9.422.045 1.525-.669 1.75-1.872 1.66-1.07-.09-2.274.314-2.274-1.526.045-6.371.045-12.698 0-19.069 0-1.93 1.382-1.301 2.363-1.39 1.114-.135 1.783.134 1.783 1.525-.089 3.096-.044 6.236-.044 9.377zm-42.752-2.244c1.382-1.436 2.496-2.782 4.413-1.75.758.359 1.337.852.847 1.705-.357.718-.312 1.75-1.694 1.615-2.72-.18-3.566.539-3.79 3.275a45.292 45.292 0 00-.088 6.506c.133 1.93-.936 1.93-2.318 1.975-1.472.044-1.917-.404-1.873-1.885.09-3.59 0-7.179.09-10.768 0-.808-.714-2.244.713-2.423 1.293-.09 3.21-.853 3.7 1.75zM40.745 71.7c0-1.93.089-3.86-.045-5.789-.089-1.615.847-1.57 1.962-1.57 1.114.045 2.229-.224 2.184 1.57a269.82 269.82 0 000 12.07c.045 1.705-1.07 1.436-2.05 1.436-1.07 0-2.14.18-2.051-1.481.044-2.064 0-4.128 0-6.237zm4.458-11.89c-.178 1.435-.758 2.557-2.274 2.602-1.604.09-2.54-1.077-2.54-2.513-.045-1.256.802-2.288 2.228-2.333 1.427 0 2.274.852 2.586 2.243z" fill="#616161"/></svg>