<svg version="1.0" id="katman_1" xmlns="http://www.w3.org/2000/svg" x="0" y="0" viewBox="0 0 560 400" xml:space="preserve"><path d="M164.1 178.4h-27.3c0-4.8-.5-8.1-1.6-9.7-1.6-2.4-6.1-3.7-13.4-3.7-7.1 0-11.8.7-14.1 2.1-2.3 1.4-3.5 4.5-3.5 9.2 0 4.3 1 7.1 3.1 8.4 1.5 1 3.4 1.5 5.8 1.7l5.5.4c11.8.8 19.2 1.4 22.1 1.8 9.3 1 16.1 3.7 20.3 8 3.3 3.4 5.3 7.8 5.9 13.2.4 3.3.6 7 .6 11.1 0 9.5-.8 16.4-2.5 20.8-3 8.1-9.9 13.1-20.5 15.3-4.5.9-11.3 1.4-20.4 1.4-15.3 0-25.9-1-31.9-3-7.4-2.4-12.2-7.3-14.6-14.7-1.3-4.1-2-10.9-2-20.5h27.3v2.4c0 5.1 1.4 8.4 4.1 9.8 1.9 1 4.2 1.5 6.8 1.6h10c5.1 0 8.4-.3 9.8-.9 2.5-1.1 4.2-2.8 4.9-5.1.4-1.5.6-3.3.6-5.6 0-5.2-1.8-8.3-5.2-9.4-1.3-.4-7.4-1.1-18.2-1.9-8.7-.7-14.8-1.3-18.2-1.9-8.9-1.8-14.9-5.5-17.8-11.1-2.6-4.8-3.9-12-3.9-21.7 0-7.4.7-13.3 2.1-17.7 1.4-4.4 3.7-7.8 6.8-10.1 4.6-3.5 10.5-5.6 17.6-6.2 6.6-.6 13.2-.9 19.8-.8 11.4 0 19.6.7 24.5 2.1 11.9 3.4 17.8 13.1 17.8 28.9-.1 1.3-.2 3.2-.3 5.8zm155.6 21.5h18.7c5.9-.2 9.6-.7 10.9-1.4 1.8-1 3-3 3.6-6 .4-2 .6-5 .6-8.9 0-4.8-.4-8.4-1.1-10.8-1.1-3.3-3.7-5.3-7.8-6-.8-.1-2.8-.2-5.8-.2h-19l-.1 33.3zm-30.1 56V141.6h56c7.7 0 13.5.6 17.6 1.9 9.2 3 15.4 9 18.6 18.1 1.6 4.8 2.4 12 2.4 21.7 0 11.6-.9 19.9-2.7 25-3.6 10-11 15.8-22.2 17.3-1.3.2-6.9.4-16.8.6l-5 .2h-17.9v29.5h-30zm152.7-42l-14.1-49.6-13.7 49.6h27.8zm6 22.3h-40.2l-5.4 19.8h-31.1l33.6-114.3h45.3l34 114.3h-30.4l-5.8-19.8zm-202.1-79.4c12.7 0 24 5.9 31.5 15.2l6.6-14.4c-10.8-10.3-25.1-16.1-40.1-16-24.2 0-45 14.8-53.5 35.8h-12.9l-7.6 16.6h16.6c-.1 1.5-.2 3.1-.2 4.6 0 1.9.1 3.8.3 5.6h-8.4l-7.6 16.6h20.3c8.8 20.4 29.2 34.8 53.1 34.8 12 0 23.2-3.6 32.4-9.9v-20.3c-7.4 8.6-18.3 14-30.5 14-14.2 0-26.7-7.4-33.9-18.6h42.4l7.6-16.6H206c-.5-3.4-.6-6.9-.2-10.3H267l7.6-16.6H211c7.1-12.2 20.2-20.5 35.2-20.5z" fill-rule="evenodd" clip-rule="evenodd"/></svg>