<svg xmlns="http://www.w3.org/2000/svg" height="800" width="1200" viewBox="-45.976 -16 398.458 96.001"><path fill="#f7931a" d="M63.035 39.742c-4.273 17.143-21.636 27.576-38.781 23.3C7.115 58.77-3.318 41.406.958 24.263 5.232 7.119 22.595-3.315 39.735.959c17.143 4.274 27.575 21.64 23.301 38.784z"/><path fill="#FFF" d="M46.105 27.442c.638-4.258-2.604-6.547-7.037-8.074l1.437-5.768-3.51-.875-1.4 5.616c-.924-.23-1.872-.447-2.814-.662l1.41-5.653-3.509-.875-1.439 5.766c-.764-.174-1.514-.346-2.242-.527l.004-.018-4.842-1.21-.934 3.75s2.605.598 2.55.635c1.422.355 1.68 1.296 1.636 2.042l-1.638 6.57c.098.026.225.062.365.118l-.37-.092-2.297 9.205c-.174.432-.615 1.08-1.609.834.035.05-2.552-.637-2.552-.637l-1.743 4.019 4.57 1.139c.85.213 1.682.436 2.502.646l-1.453 5.834 3.507.875 1.44-5.772c.957.26 1.887.5 2.797.726L27.5 50.799l3.511.875 1.453-5.823c5.987 1.133 10.49.676 12.384-4.74 1.527-4.36-.076-6.874-3.226-8.514 2.294-.53 4.022-2.038 4.483-5.155zM38.084 38.69c-1.086 4.36-8.427 2.003-10.807 1.412l1.929-7.73c2.38.595 10.012 1.77 8.878 6.318zm1.085-11.312c-.99 3.966-7.1 1.95-9.081 1.457l1.747-7.01c1.982.494 8.365 1.416 7.334 5.553z"/><path d="M93.775 19.362c2.595 0 4.837.465 6.721 1.378 1.894.922 3.456 2.164 4.709 3.726 1.235 1.57 2.155 3.405 2.75 5.508.59 2.109.885 4.376.885 6.803 0 3.728-.683 7.25-2.062 10.57-1.379 3.325-3.25 6.209-5.63 8.669-2.377 2.457-5.185 4.394-8.423 5.825-3.233 1.432-6.748 2.148-10.522 2.148-.489 0-1.347-.014-2.559-.04-1.212-.024-2.605-.15-4.165-.36a48.879 48.879 0 01-4.983-.977 24.966 24.966 0 01-4.983-1.781L79.525 1.955 92.075.01l-5.017 20.893a19.51 19.51 0 013.236-1.132 14.375 14.375 0 013.481-.41zm-10.527 34.67c1.89 0 3.671-.464 5.344-1.377a14.067 14.067 0 004.34-3.685 18.59 18.59 0 002.872-5.226c.7-1.943 1.054-3.97 1.054-6.08 0-2.59-.433-4.611-1.296-6.072-.863-1.455-2.46-2.187-4.779-2.187-.76 0-1.739.145-2.953.404-1.218.275-2.308.846-3.285 1.705l-5.342 22.188c.322.057.607.11.85.162.238.055.501.094.763.12.277.032.594.048.977.048h1.455zm38.607 8.83h-11.987l10.124-42.597h12.068zm5.833-47.787a7.438 7.438 0 01-4.536-1.496c-1.357-.992-2.029-2.52-2.029-4.577 0-1.132.23-2.194.686-3.196a8.55 8.55 0 011.827-2.593 8.967 8.967 0 012.63-1.743 8.031 8.031 0 013.203-.645c1.672 0 3.181.498 4.532 1.496 1.346 1.003 2.023 2.53 2.023 4.577a7.565 7.565 0 01-.689 3.202 8.43 8.43 0 01-1.82 2.593 8.805 8.805 0 01-2.63 1.738c-1.002.437-2.064.644-3.196.644zm14.877-5.423l12.555-1.945-3.083 12.556h13.446l-2.428 9.878H149.69l-3.56 14.9c-.328 1.242-.514 2.402-.566 3.48-.059 1.083.078 2.013.402 2.796.322.785.901 1.39 1.741 1.818.836.435 2.033.654 3.603.654 1.293 0 2.553-.123 3.771-.367a26.739 26.739 0 003.68-1.011l.894 9.236a43.015 43.015 0 01-5.264 1.535c-1.893.436-4.134.646-6.724.646-3.724 0-6.61-.553-8.668-1.654-2.054-1.11-3.506-2.624-4.375-4.542-.857-1.911-1.24-4.114-1.133-6.596.111-2.488.486-5.103 1.133-7.857zm22.39 36.2c0-3.67.594-7.13 1.781-10.368 1.185-3.242 2.892-6.077 5.107-8.51 2.207-2.421 4.896-4.34 8.061-5.747 3.15-1.4 6.677-2.106 10.564-2.106 2.433 0 4.606.23 6.518.69 1.92.466 3.657 1.067 5.228 1.82l-4.134 9.4a38.71 38.71 0 00-3.36-1.173c-1.16-.357-2.576-.53-4.25-.53-4.002 0-7.165 1.38-9.519 4.129-2.345 2.75-3.526 6.454-3.526 11.099 0 2.753.594 4.979 1.786 6.682 1.186 1.703 3.377 2.55 6.558 2.55 1.57 0 3.085-.164 4.536-.484 1.462-.324 2.753-.732 3.89-1.214l.895 9.636a43.381 43.381 0 01-5.022 1.584c-1.838.449-4.026.682-6.563.682-3.349 0-6.184-.49-8.503-1.455-2.32-.98-4.237-2.281-5.747-3.93-1.518-1.651-2.608-3.58-3.282-5.794a23.772 23.772 0 01-1.018-6.961zm53.25 18.14c-2.86 0-5.346-.436-7.454-1.3-2.102-.862-3.843-2.073-5.22-3.643-1.379-1.562-2.41-3.413-3.118-5.546-.707-2.132-1.047-4.493-1.047-7.08 0-3.245.521-6.49 1.574-9.724 1.048-3.242 2.603-6.155 4.661-8.744 2.042-2.593 4.561-4.713 7.527-6.366 2.963-1.642 6.371-2.468 10.2-2.468 2.808 0 5.28.437 7.417 1.3 2.127.86 3.88 2.082 5.264 3.644 1.37 1.57 2.412 3.413 3.112 5.549.704 2.128 1.052 4.495 1.052 7.084 0 3.235-.514 6.479-1.534 9.724-1.02 3.229-2.536 6.149-4.536 8.744-1.996 2.589-4.492 4.708-7.49 6.354-2.994 1.646-6.466 2.472-10.408 2.472zm5.991-34.662c-1.777 0-3.348.516-4.693 1.535-1.35 1.03-2.484 2.327-3.398 3.89-.924 1.57-1.609 3.282-2.072 5.143-.459 1.865-.684 3.628-.684 5.303 0 2.703.436 4.808 1.293 6.323.87 1.507 2.43 2.265 4.7 2.265 1.782 0 3.345-.512 4.698-1.542 1.342-1.023 2.477-2.32 3.398-3.886a19.235 19.235 0 002.072-5.143c.453-1.86.684-3.632.684-5.304 0-2.696-.434-4.806-1.299-6.32-.864-1.506-2.432-2.264-4.699-2.264zm31.04 33.532h-11.998l10.123-42.597h12.075zm5.823-47.787a7.424 7.424 0 01-4.532-1.496c-1.35-.992-2.028-2.52-2.028-4.577 0-1.132.233-2.194.69-3.196a8.442 8.442 0 011.824-2.593 8.95 8.95 0 012.632-1.743 7.976 7.976 0 013.194-.645c1.676 0 3.19.498 4.538 1.496 1.35 1.003 2.03 2.53 2.03 4.577a7.677 7.677 0 01-.695 3.202 8.405 8.405 0 01-1.817 2.593 8.894 8.894 0 01-2.63 1.738c-1.004.437-2.068.644-3.206.644zm13.016 7.127c.91-.266 1.926-.586 3.031-.934a40.19 40.19 0 013.732-.964c1.37-.301 2.914-.545 4.613-.734 1.7-.193 3.635-.287 5.786-.287 6.322 0 10.68 1.84 13.086 5.512 2.405 3.67 2.82 8.695 1.26 15.063l-5.514 23h-12.066l5.345-22.516c.326-1.406.582-2.765.77-4.093.192-1.316.18-2.476-.042-3.48a4.168 4.168 0 00-1.494-2.433c-.791-.62-1.986-.93-3.607-.93a24.36 24.36 0 00-4.777.492l-7.857 32.959h-12.07z" fill="#4d4d4d"/></svg>