<svg width="380" height="383" viewBox="0 0 380 383" fill="none" xmlns="http://www.w3.org/2000/svg"><g filter="url(#filter0_d_542_4)"><path d="M206.611 62.431c-72.411-19.211-75.884-.548-93.557 7.477-35.84 16.742-32.787 38.005-53.793 121.155-21.007 83.149 59.828 106.118 151.893 129.206 79.746 20.091 115.037-92.17 118.264-135.733 3.563-43.741-50.396-102.893-122.807-122.105z" fill="#fff"/></g><circle cx="147" cy="167" r="97" fill="url(#paint0_radial_542_4)" fill-opacity=".5"/><path d="M145.282 248.309h-4.57c-2.031-.508-3.892-1.016-5.923-1.524-.169 0-.339 0-.508.17a7.478 7.478 0 00-1.861 1.354H52.708A5.288 5.288 0 0150 245.6v-15.238c0-.169.17-.338.17-.677.507-2.032.845-4.402 1.86-6.264 4.232-8.974 11.34-13.545 21.156-13.884.507 0 1.184-.169 1.523-.508 1.692-1.523 3.554-2.539 5.585-3.047.17 0 .508-.17.677-.339.507-.846-.17-3.047-.846-3.555-6.6-4.233-10.493-10.328-11.509-18.117 0-.338-.338-.846-.846-1.015-1.692-.678-3.046-1.863-4.062-3.556-1.015-1.862-1.861-4.063-1.861-6.434-.17-5.079-.339-9.989-.17-15.068.508-12.021 8.801-22.011 20.479-25.058 1.353-.339 2.707-.508 3.892-.847h23.186c.169 0 .169.169.338.169 3.216 1.355 4.062 4.064 2.031 6.942-.677.847-1.185 1.863-1.861 2.709.846.169 1.692.508 2.369.677 5.585 1.693 11.847 6.942 11.508 15.408-.169 4.063 0 8.296 0 12.359 0 1.863-.338 3.725-.677 5.418-.677 2.878-2.031 5.418-5.077 6.773-.846.338-1.185.846-1.185 1.693-1.015 7.28-4.4 13.037-10.662 17.1-1.354 1.016-2.031 1.862-1.692 3.386v.17c.169.338.508.846.677.846 2.2.508 3.892 1.524 5.585 2.878.338.339.846.508 1.354.508 2.03.339 4.061.508 6.092.847 1.523.338 3.047 1.016 4.4 1.524 1.354-2.54 2.708-5.08 4.231-7.45 1.524-2.37 3.554-4.402 5.416-6.603h-.338c-1.524 0-2.37-.847-2.37-2.032s.846-1.862 2.539-1.862h3.215c-.169-.508-.338-.847-.507-1.355-1.523-3.555-3.047-6.941-4.57-10.497-1.184-2.878.508-5.587 3.723-5.756h3.893c2.2 0 3.385.846 4.062 2.878.169.846.677 1.016 1.354 1.016h7.615c2.201 0 3.724 1.185 4.062 3.217.169.846-.169 1.862-.508 2.708-1.015 2.54-2.03 5.08-3.215 7.619h3.892c1.185 0 1.862.847 1.862 1.863s-.677 1.862-1.862 1.862h-1.015c.338.339.508.508.677.847 5.246 5.248 8.8 11.344 10.493 18.455.507 2.201.846 4.402 1.184 6.603v3.894c0 .169-.169.338-.169.677-1.523 9.651-7.108 15.915-16.247 18.963-1.523 1.354-3.046 1.524-4.569 1.862zm-25.555-78.898v-2.54c0-1.185-.847-2.032-1.862-2.032-1.015 0-1.862.847-1.862 2.032v1.693c0 1.185-.846 2.032-1.861 2.201-1.185 0-2.031-.846-2.031-2.201v-3.217c0-1.354-.508-1.862-1.693-2.031-1.184-.17-2.2-.17-3.384-.339-4.739-.677-9.14-2.032-12.863-5.079-1.015-.847-1.523-.678-2.538.169-2.2 1.862-4.739 3.217-7.447 3.894-2.877.677-5.585 1.016-8.462 1.355-1.692.169-2.03.677-2.2 2.37v3.217c0 1.185-.846 2.032-1.861 2.032-1.016 0-1.862-.847-2.031-2.032v-1.863c0-1.185-.846-1.862-1.862-1.862-1.015 0-1.861.677-2.03 1.693-.17 3.386-.34 6.772 1.184 9.989.677 1.355 1.523 2.371 3.046 2.879s2.37 1.523 2.539 3.217c.17.846.17 1.862.338 2.708 1.862 10.159 11.847 17.609 22.17 16.254 9.817-1.185 16.925-8.635 17.94-18.624.169-1.862 1.015-3.047 2.708-3.555 1.354-.508 2.2-1.355 2.877-2.54 1.015-2.709 1.185-5.249 1.185-7.788zm24.201 75.004c4.739 0 9.477-2.032 13.37-6.095 4.231-4.402 5.923-9.82 5.077-15.915-1.185-7.958-4.4-15.069-10.154-20.825-2.539-2.54-5.585-4.064-9.478-3.894-2.708.169-4.908.846-6.939 2.37-1.184 1.016-2.538 2.201-3.554 3.386-4.4 5.249-7.108 11.344-8.292 18.116-2.031 12.191 6.938 22.857 19.97 22.857zm-24.201-83.47v-3.047c.169-5.249-2.37-8.635-6.939-10.836-2.708-1.355-5.416-1.524-8.462-1.524h-2.2c-1.185-.169-1.862-1.016-1.693-2.032 0-1.016.847-1.693 1.862-1.862h1.692c.847.169 1.354-.339 1.862-1.016.677-1.185 1.692-2.37 2.369-3.556l.508-1.015c-.338-.17-.677-.339-1.185-.339H88.417c-10.493 0-19.631 7.28-22.17 17.439-.677 2.54-.846 5.249-.677 7.619 1.692.169 3.216.339 4.908.508 1.523-1.524 2.37-2.032 4.57-2.201.846-.17 1.692-.17 2.538-.339 4.4-.508 8.462-1.524 11.847-4.571 2.03-1.693 4.738-1.524 6.939.169 1.353 1.016 2.707 2.032 4.4 2.54 2.708.846 5.585 1.524 8.293 2.031 2.03.339 4.231.508 5.754 2.371.169.169.338.169.507.169 1.354 0 2.708-.169 4.401-.508zm-66.004 83.47h25.555c-5.415-9.651-5.585-20.317-6.092-30.814h-.508c-8.8.169-16.924 6.603-18.278 15.407-.846 4.91-.508 10.159-.677 15.407zm67.527-28.613c-2.877-1.524-5.924-2.371-9.139-2.371-.508 10.667-.846 21.333-6.431 30.984h24.37c-9.985-7.45-12.185-17.1-8.8-28.613zm-23.186 28.613c-.846-5.418-1.692-10.666-2.708-15.915-.17-1.016 0-2.54-.677-3.048s-2.2-.169-3.215-.338c-1.016-.17-1.185.338-1.354 1.185-.677 3.894-1.354 7.788-1.862 11.682a534.617 534.617 0 00-1.015 6.434h10.831zm-20.986-24.719c.677 4.571 1.185 8.804 2.031 13.206.508 3.217 1.523 6.265 3.385 8.973.17.339.508.678 1.015 1.186.17-.339.17-.339.17-.508 1.015-5.588 1.861-11.344 2.877-16.931.169-1.355.338-2.371-.846-3.048-3.554 1.016-5.755-1.524-8.632-2.878zm24.54 22.857h.338c4.57-6.942 5.078-14.73 5.924-22.519-1.862.847-3.385 1.694-5.077 2.54-1.016.508-2.031.677-3.047-.169-1.015.846-1.353 1.524-1.015 2.878l2.031 11.682c.338 1.694.508 3.556.846 5.588zm31.817-62.137v.508l5.585 12.698c.169.339.677.508 1.015.508h5.585c.677 0 .846-.169 1.185-.847 1.185-2.709 2.2-5.417 3.385-7.957.169-.169.169-.508.169-.847h-7.447c0 .339.17.508.17.678.507 1.523 0 2.539-1.016 2.878-1.184.338-2.2-.169-2.708-1.863-.507-1.693-1.015-3.386-1.692-5.079-.169-.339-.508-.677-.677-.846-1.015.169-2.2.169-3.554.169zm-48.402 24.042c-.677 2.37 0 4.233 2.2 5.249 1.523.846 3.215 1.354 4.908 2.031.338.17.846.17 1.184 0 1.693-.677 3.385-1.185 4.908-2.031 2.031-1.016 2.708-2.879 2.2-5.249-5.246 1.693-10.323 1.693-15.4 0zm1.015 9.481c-1.015-.846-2.2-1.693-3.216-2.709-1.353-1.354-1.692-1.523-3.554-.677-.507.169-.846.508-1.354.847-.677.508-.846 1.016-.677 1.862.847 2.709 2.878 4.063 5.078 5.249 1.354-1.693 2.708-3.217 3.723-4.572zm16.755 4.402c2.031-1.015 4.061-2.37 4.908-4.74.507-1.016.338-1.863-.677-2.371a20.726 20.726 0 00-2.877-1.185c-.17 0-.677 0-.847.169-1.354 1.355-2.877 2.709-4.061 3.895 1.015 1.185 2.2 2.539 3.554 4.232zm-15.232-.169c1.354 4.063 4.739 3.217 7.447 2.878 1.015-.169 2.03-1.693 3.046-2.539-3.216-3.556-7.954-3.387-10.493-.339z" fill="#000"/><path d="M140.036 225.114c.338.169.846.677 1.353 1.185.677.677 1.524 1.016 2.539.508.846-.508 1.185-1.355.846-2.201-.338-1.016-1.184-1.355-2.031-1.355-2.707-.169-4.738-1.862-5.415-4.402-.677-2.539.507-5.079 2.708-6.433.507-.339.846-.508 1.015-1.186.169-1.016.846-1.523 1.862-1.523 1.015 0 1.692.677 1.861 1.693.17.338.339.677.677 1.016.677.677 1.523 1.185 2.2 1.862.847.846.508 2.032-.338 2.709-.846.677-1.862.508-2.708-.339-.338-.338-.846-.846-1.354-1.016-1.015-.338-2.031.508-2.2 1.524-.169 1.016.508 2.032 1.692 2.201.508 0 1.016 0 1.524.17 2.369.507 4.231 2.37 4.569 4.74.339 2.54-.846 4.741-3.046 5.926-.339.169-.677.677-.846 1.185-.339 1.016-1.016 1.524-1.862 1.524-.846 0-1.692-.508-1.862-1.354-.169-.678-.507-1.016-1.015-1.355-.677-.508-1.523-1.185-2.031-1.862-1.015-1.524 0-3.217 1.862-3.217zM292.013 130.3c2.2.677 4.061 1.862 4.569 4.402.169.677.169 1.524.169 2.201v35.725c-.169 1.015-.846 1.693-1.861 1.693-1.016 0-1.693-.678-1.862-1.693v-35.556c0-2.539-.508-3.047-3.046-3.047H214.67c-2.369 0-3.046.508-3.046 2.878v102.602c0 2.37.508 3.048 2.877 3.048h75.481c2.369 0 2.877-.508 2.877-2.879v-17.439c0-.507 0-1.015.169-1.523.169-.847.846-1.355 1.862-1.355 1.015 0 1.523.508 1.692 1.524.169.508.169 1.016.169 1.524 0 5.587-.169 11.005 0 16.592.17 3.725-1.015 6.265-4.738 7.619h-79.712c-2.539-.677-4.062-2.37-4.739-4.741V135.21c.677-2.54 2.37-4.063 4.739-4.741 26.74-.169 53.31-.169 79.712-.169z" fill="#000"/><path d="M324 160.437c-.508 1.186-1.016 2.371-1.693 3.556 1.185 1.016.846 2.37 0 3.555-1.523 2.371-2.877 4.91-4.231 7.45.508.339 1.016.677 1.523.847 3.047 1.862 3.893 5.079 2.2 8.126-2.369 4.403-5.077 8.805-7.446 13.037-.677 1.186-1.692 1.524-2.708 1.016-1.015-.508-1.185-1.693-.508-2.878 2.37-4.063 4.57-7.958 6.939-12.021 1.523-2.54 1.185-3.386-1.692-4.741-.169.339-.339.677-.677 1.016-4.57 8.127-9.308 16.085-13.878 24.211-1.861 3.217-4.062 5.926-6.431 8.805-1.692 2.201-3.385 4.402-4.908 6.603-1.523 2.201-3.385 3.386-6.092 3.047-.339 0-.847.17-1.185.508-1.354 1.524-2.539 3.217-3.723 4.741-2.2 2.709-5.585 2.201-6.939-1.016-.339-.847-.677-1.524-1.016-2.54-.169.339-.507.508-.507.678-1.185 1.693-2.708 2.539-4.401 2.031-1.861-.508-2.877-1.862-3.046-4.063-.169-2.201-.338-4.402-.846-6.603-.169.338-.339.677-.339 1.016-1.353 4.063-2.707 8.296-4.061 12.359-.508 1.524-1.862 2.032-3.047 1.185-.846-.507-1.015-1.354-.677-2.37 1.524-4.741 3.216-9.481 4.739-14.222.677-1.693 2.369-2.709 4.062-2.54a3.605 3.605 0 013.215 3.217c.339 2.54.508 5.08.677 7.789.339-.508.677-1.016 1.016-1.355 1.692-2.032 4.908-1.862 6.262.508.677 1.016 1.015 2.201 1.523 3.556 1.354-1.694 2.708-3.217 3.892-4.91.17-.17.17-.678 0-.847-1.015-2.032-1.015-4.063.17-6.095 2.369-4.064 3.723-8.804 5.415-13.206.339-.678.508-1.355 1.016-2.032l15.231-26.412c.169-.339.339-.678.677-1.016-2.538-1.863-3.046-2.54-2.369-3.725.677-1.185 1.523-1.185 4.231.169.169-.338.338-.508.508-.846 1.353-2.371 2.707-4.572 4.061-6.942.508-1.016 1.185-1.524 2.37-1.355.338 0 .846-.338 1.015-.677 1.016-1.693 2.2-3.047 4.231-3.555 3.046-.678 5.923 1.015 6.939 4.063 0 .169.169.508.338.677.17.847.17 1.524.17 2.201zm-17.94 12.021c-5.246 8.974-10.323 17.947-15.57 26.921 2.2 1.354 4.4 2.539 6.77 3.894 5.246-8.974 10.323-17.947 15.57-26.92-2.2-1.355-4.4-2.54-6.77-3.895zm5.924-9.989c-1.354 2.201-2.539 4.402-3.893 6.772 2.2 1.355 4.4 2.54 6.77 3.895 1.354-2.201 2.538-4.402 3.892-6.773-2.369-1.354-4.569-2.539-6.769-3.894zm-23.017 40.465c-1.015 2.54-1.862 4.91-2.708 7.281a45.604 45.604 0 003.893 2.201l5.077-6.096c-2.2-1.185-4.062-2.201-6.262-3.386zm29.955-40.973c.677-1.185 1.862-2.201.847-3.555-.339-.508-1.185-.847-1.862-.847-1.523 0-1.692 1.524-2.369 2.54 1.184.677 2.2 1.185 3.384 1.862zm-30.801 53.841c-1.185-.677-2.2-1.355-3.385-1.863-.677 1.186-1.692 2.201-.846 3.556.338.508 1.185 1.016 1.692 1.016 1.523-.17 1.693-1.693 2.539-2.709zm-58.897-70.095v3.894h47.218c.508 0 1.185 0 1.692.17 1.016.169 1.354.846 1.354 1.862s-.507 1.693-1.523 1.863c-.507 0-.846.169-1.354.169h-48.402c-2.369 0-2.877-.508-2.877-2.878v-5.926c0-2.201.508-2.879 2.877-2.879h49.249c1.353.17 2.2.847 2.2 2.032 0 1.016-.847 1.863-2.2 1.863h-46.711c-.677-.17-1.015-.17-1.523-.17zm2.877 60.105c3.385 0 6.601 1.016 9.308 3.048 1.185.847 1.354 1.862.847 2.878-.508 1.016-1.693 1.186-2.877.508-2.031-1.354-4.062-2.201-6.601-2.37-6.939-.508-12.862 4.571-13.539 11.513-.677 6.434 4.231 12.529 10.662 13.376 6.939 1.015 13.201-3.556 14.216-10.328.169-.678.17-1.186.17-1.863.169-1.354.846-2.201 2.03-2.201 1.185 0 1.862.847 1.862 2.201 0 9.312-8.631 17.101-17.939 16.085-8.293-.847-14.386-7.281-14.893-15.408-.339-9.312 7.277-17.439 16.754-17.439zm29.956-30.983h-21.663c-1.016-.169-1.523-.677-1.523-1.693s.338-1.693 1.184-1.863c.339-.169.847-.169 1.354-.169h41.125c.339 0 .677 0 1.185.169 1.016.17 1.523.847 1.523 2.032 0 1.016-.677 1.693-1.692 1.693h-1.185c-6.769-.169-13.539-.169-20.308-.169zm-19.463 11.682h-19.293c-1.185-.169-2.031-.847-2.031-1.862 0-1.016.677-1.863 2.031-1.863h38.756c1.185.169 1.862.847 1.862 2.032 0 1.016-.677 1.693-1.862 1.862h-1.185c-6.092-.169-12.185-.169-18.278-.169zm9.817-29.121h18.447c1.862 0 2.708.677 2.877 1.862 0 1.355-.846 2.032-2.877 2.032h-37.233c-1.692 0-2.538-.677-2.538-2.032 0-1.185.846-1.862 2.538-1.862h18.786zm-19.462 38.772h-9.478c-1.523 0-2.369-1.016-2.2-2.371.169-1.015 1.016-1.523 2.2-1.523h18.955c1.185.169 2.031.846 1.862 2.031 0 1.016-.847 1.863-2.031 1.863h-9.308z" fill="#000"/><path d="M231.424 224.098c2.2-2.201 4.231-4.402 6.431-6.434.508-.508 1.185-.847 1.862-.847.508 0 1.354.678 1.692 1.186.508.846.17 1.523-.507 2.201l-6.432 6.433s-.169.17-.338.17c-1.523 1.354-3.554 1.354-5.077 0a50.002 50.002 0 01-4.231-4.233c-.846-.847-.846-2.032 0-2.709.846-.847 1.861-.847 2.877.169 1.185 1.185 2.369 2.54 3.723 4.064zm45.187-37.587h-6.431c-1.523 0-2.2-.846-2.2-2.032 0-.846.508-1.523 1.354-1.693.508-.169 1.015-.169 1.523-.169h11.678c.338 0 .846 0 1.184.169 1.016.17 1.524.847 1.524 1.863s-.677 1.693-1.693 1.862c-1.692.169-3.385 0-5.077 0h-1.862zm-19.293 9.651h-6.431c-1.523 0-2.37-.678-2.37-1.863s.847-2.031 2.37-2.031h12.862c1.354 0 2.369.846 2.369 2.031s-.846 1.863-2.369 1.863h-6.431zm-74.127-24.72h-3.385v26.243h3.385v-26.243z" fill="#000"/><path d="M194.53 182.786h-26.232v3.386h26.232v-3.386z" fill="#000"/><defs><radialGradient id="paint0_radial_542_4" cx="0" cy="0" r="1" gradientUnits="userSpaceOnUse" gradientTransform="matrix(0 97 -97 0 147 167)"><stop stop-color="#007DE7"/><stop offset="1" stop-color="#007DE7" stop-opacity="0"/></radialGradient><filter id="filter0_d_542_4" x="5.904" y="14.033" width="373.681" height="368.62" filterUnits="userSpaceOnUse" color-interpolation-filters="sRGB"><feFlood flood-opacity="0" result="BackgroundImageFix"/><feColorMatrix in="SourceAlpha" values="0 0 0 0 0 0 0 0 0 0 0 0 0 0 0 0 0 0 127 0" result="hardAlpha"/><feOffset dy="10"/><feGaussianBlur stdDeviation="25"/><feComposite in2="hardAlpha" operator="out"/><feColorMatrix values="0 0 0 0 0.191111 0 0 0 0 0.2304 0 0 0 0 0.266667 0 0 0 0.15 0"/><feBlend in2="BackgroundImageFix" result="effect1_dropShadow_542_4"/><feBlend in="SourceGraphic" in2="effect1_dropShadow_542_4" result="shape"/></filter></defs></svg>