<svg width="277" height="184" viewBox="0 0 277 184" fill="none" xmlns="http://www.w3.org/2000/svg"><circle cx="193" cy="84" r="84" fill="url(#paint0_radial_542_7)" fill-opacity=".5"/><path d="M86.72 173.79h-4.113c-1.828-.457-3.503-.915-5.331-1.372-.152 0-.305 0-.457.153a6.748 6.748 0 00-1.675 1.219H3.398a4.76 4.76 0 01-2.437-2.438v-13.715c0-.153.152-.305.152-.61.457-1.829.762-3.962 1.676-5.638 3.808-8.077 10.206-12.192 19.04-12.496.457 0 1.067-.153 1.372-.458 1.523-1.371 3.198-2.285 5.026-2.743.153 0 .457-.152.61-.304.457-.762-.153-2.743-.762-3.2-5.94-3.81-9.444-9.296-10.358-16.306 0-.305-.305-.762-.762-.914-1.523-.61-2.742-1.677-3.656-3.201a13.561 13.561 0 01-1.828-5.79c-.152-4.572-.304-8.991-.152-13.563.457-10.82 7.921-19.81 18.431-22.554 1.22-.304 2.438-.457 3.504-.762h20.869c.152 0 .152.153.304.153 2.894 1.219 3.656 3.657 1.828 6.248-.61.762-1.066 1.676-1.675 2.438.761.152 1.523.457 2.132.61 5.027 1.523 10.663 6.248 10.358 13.867-.152 3.657 0 7.467 0 11.124 0 1.677-.304 3.353-.61 4.877-.608 2.59-1.827 4.876-4.569 6.095-.761.305-1.066.762-1.066 1.524-.914 6.553-3.96 11.734-9.597 15.392-1.218.914-1.828 1.676-1.523 3.047v.153c.152.305.457.762.61.762 1.98.457 3.503 1.371 5.026 2.59.305.305.762.457 1.219.457 1.828.305 3.656.458 5.483.762 1.371.305 2.742.915 3.961 1.372 1.219-2.286 2.437-4.572 3.808-6.705 1.371-2.134 3.199-3.962 4.874-5.943h-.304c-1.371 0-2.133-.762-2.133-1.829s.762-1.676 2.285-1.676h2.894c-.152-.457-.304-.762-.457-1.219-1.37-3.201-2.742-6.248-4.112-9.449-1.067-2.59.457-5.028 3.35-5.181h3.504c1.98 0 3.047.762 3.656 2.591.152.762.61.914 1.219.914h6.854c1.98 0 3.352 1.067 3.656 2.896.153.761-.152 1.676-.457 2.438-.914 2.286-1.828 4.571-2.894 6.857h3.504c1.066 0 1.675.762 1.675 1.677 0 .914-.61 1.676-1.675 1.676h-.915c.305.305.457.457.61.762 4.722 4.724 7.921 10.21 9.444 16.61.457 1.981.762 3.962 1.066 5.943v3.505c0 .153-.152.305-.152.61-1.371 8.686-6.398 14.324-14.623 17.068-1.371 1.219-2.742 1.371-3.96 1.676zm-23.153-71.014v-2.285c0-1.067-.762-1.83-1.676-1.83-.914 0-1.675.763-1.675 1.83v1.523c0 1.067-.762 1.829-1.676 1.982-1.066 0-1.828-.762-1.828-1.982v-2.895c0-1.219-.457-1.676-1.523-1.829-1.066-.152-1.98-.152-3.047-.304-4.265-.61-8.225-1.83-11.576-4.572-.914-.762-1.371-.61-2.285.152-1.98 1.677-4.265 2.896-6.703 3.505-2.59.61-5.026.915-7.616 1.22-1.523.152-1.828.609-1.98 2.133v2.895c0 1.067-.762 1.829-1.676 1.829-.914 0-1.675-.762-1.828-1.829v-1.676c0-1.067-.761-1.676-1.675-1.676s-1.676.61-1.828 1.524c-.152 3.047-.305 6.095 1.066 8.991.61 1.219 1.371 2.133 2.742 2.59 1.371.457 2.133 1.372 2.285 2.896.152.761.152 1.676.305 2.438 1.675 9.143 10.662 15.848 19.954 14.629 8.835-1.067 15.233-7.772 16.147-16.763.152-1.676.914-2.743 2.437-3.2 1.218-.457 1.98-1.219 2.59-2.286.913-2.438 1.066-4.724 1.066-7.01zm21.782 67.509c4.265 0 8.53-1.829 12.034-5.486 3.808-3.962 5.331-8.839 4.57-14.325-1.067-7.162-3.96-13.562-9.14-18.744-2.285-2.285-5.026-3.657-8.53-3.505-2.437.153-4.417.762-6.245 2.134-1.067.914-2.285 1.981-3.2 3.048-3.96 4.724-6.397 10.21-7.463 16.305-1.828 10.82 6.245 20.573 17.974 20.573zm-21.782-75.28v-2.743c.152-4.725-2.133-7.772-6.246-9.753-2.437-1.22-4.874-1.372-7.616-1.372h-1.98c-1.066-.152-1.676-.914-1.523-1.829 0-.914.761-1.523 1.675-1.676H49.4c.762.153 1.22-.305 1.676-.914.61-1.067 1.523-2.134 2.133-3.2l.457-.915c-.305-.152-.61-.304-1.067-.304H35.387c-9.445 0-17.67 6.552-19.955 15.696-.61 2.285-.762 4.724-.61 6.857 1.524.153 2.895.305 4.418.457 1.37-1.371 2.133-1.828 4.113-1.98.761-.153 1.523-.153 2.285-.305 3.96-.458 7.616-1.372 10.662-4.115 1.828-1.524 4.266-1.372 6.246.152 1.218.915 2.437 1.829 3.96 2.286 2.438.762 5.027 1.372 7.464 1.829 1.828.305 3.808.457 5.18 2.133.152.153.304.153.456.153 1.219.152 2.59-.153 3.96-.457zM4.16 170.132h23c-4.873-8.686-5.026-18.286-5.483-27.734h-.457c-7.92.152-15.232 5.943-16.45 13.867-.61 4.419-.458 9.143-.61 13.867zm60.778-25.601c-2.59-1.371-5.332-2.133-8.226-2.133-.457 9.6-.762 19.201-5.788 27.887h21.935c-8.988-6.858-10.968-15.544-7.921-25.754zm-20.869 25.601c-.762-4.876-1.523-9.6-2.437-14.324-.152-.914 0-2.286-.61-2.743-.609-.457-1.98-.153-2.894-.305-.914-.152-1.066.305-1.218 1.067-.61 3.505-1.219 7.01-1.676 10.515-.305 1.828-.61 3.809-.914 5.79h9.75zm-18.888-22.248c.609 4.114 1.066 7.924 1.828 11.886.457 2.895 1.37 5.638 3.046 8.077.152.304.457.609.914 1.066.152-.304.152-.304.152-.457.914-5.029 1.676-10.21 2.59-15.239.152-1.219.305-2.133-.762-2.743-3.198.915-5.179-1.371-7.768-2.59zm22.24 20.572h.304c4.113-6.248 4.57-13.258 5.331-20.268-1.675.762-3.046 1.524-4.57 2.286-.913.457-1.827.61-2.741-.152-.914.762-1.219 1.371-.914 2.59l1.828 10.515c.152 1.677.457 3.353.761 5.029zm28.636-55.774v.457l5.027 11.429c.153.305.61.457.914.457h5.027c.61 0 .761-.152 1.066-.762 1.066-2.438 1.98-4.876 3.047-7.162.152-.152.152-.457.152-.762h-6.702c0 .305.152.457.152.61.457 1.371 0 2.285-.914 2.59-1.066.305-1.98-.152-2.437-1.676-.457-1.524-.914-3.048-1.523-4.572-.153-.305-.457-.609-.61-.762-1.066.153-2.132.153-3.199.153zM32.34 134.169c-.61 2.133 0 3.809 1.98 4.724 1.371.762 2.894 1.219 4.418 1.828.304.153.761.153 1.066 0 1.523-.609 3.046-1.066 4.417-1.828 1.828-.915 2.438-2.591 1.98-4.724-4.721 1.523-9.291 1.523-13.861 0zm1.066 8.533c-.914-.762-1.98-1.524-2.894-2.438-1.218-1.219-1.523-1.371-3.199-.609-.457.152-.761.457-1.218.762-.61.457-.762.914-.61 1.676.762 2.438 2.59 3.657 4.57 4.724 1.219-1.524 2.285-2.895 3.351-4.115zm14.928 3.963c1.828-.915 3.656-2.134 4.418-4.267.457-.915.304-1.677-.61-2.134a18.622 18.622 0 00-2.59-1.067c-.151 0-.608 0-.76.153-1.22 1.219-2.59 2.438-3.657 3.505.914 1.067 1.98 2.438 3.2 3.81zm-13.71 0c1.22 3.657 4.266 2.895 6.703 2.59.914-.152 1.828-1.524 2.742-2.286-2.894-3.2-7.007-3.2-9.444-.304z" fill="#000"/><path d="M81.998 152.913c.305.152.761.609 1.218 1.066.61.61 1.371.915 2.285.457.762-.457 1.067-1.219.762-1.981-.305-.914-1.066-1.219-1.828-1.219-2.437-.152-4.265-1.676-4.874-3.962-.61-2.286.457-4.571 2.437-5.791.457-.304.762-.457.914-1.066.152-.915.761-1.372 1.675-1.372s1.524.61 1.676 1.524c.152.305.305.61.61.914.609.61 1.37 1.067 1.98 1.677.761.762.457 1.828-.305 2.438-.762.609-1.676.457-2.437-.305-.305-.305-.762-.762-1.219-.914-.914-.305-1.828.457-1.98 1.371-.152.915.457 1.829 1.523 1.981.457 0 .914 0 1.371.153 2.133.457 3.808 2.133 4.113 4.267.305 2.285-.762 4.267-2.742 5.333-.305.153-.61.61-.762 1.067-.304.914-.914 1.371-1.675 1.371-.762 0-1.523-.457-1.676-1.219-.152-.609-.457-.914-.914-1.219-.609-.457-1.37-1.066-1.828-1.676-.914-1.524-.152-2.895 1.676-2.895zm158.116 29.258l35.034-24.382-3.198-57.603 1.218-.914h-1.218v-.762l-.914.762-16.451-.762V87.385h-3.047v10.82l-12.948-.61V72.603h-3.046v24.84l-10.968-.61v-16h-3.046V96.68l-77.229-3.81h-.457l-41.128 22.097-1.219-.153v.762l-3.808 1.981 3.961.305 3.046 55.622 132.523 9.144V184l1.828-1.371 1.067.152v-.61zm-.153-3.657l-.609-22.706-.762-29.259 30.618-22.249 2.894 51.965-32.141 22.249zm-131.609-63.089l36.101-19.353 120.337 5.943-28.18 22.096-45.85-3.048-82.408-5.638zm18.736 19.201l20.412 1.371 1.371 36.879-20.412-1.372-1.371-36.878zm109.979 45.107l-85.15-5.943-1.523-40.84-26.505-1.677 1.524 40.688-17.975-1.219-2.894-52.574 34.273 2.286 96.575 6.552.761 30.174.914 22.553z" fill="#000"/><path d="M216.654 131.883l-38.081-1.676 2.285 40.383 37.015 1.676-1.219-40.383zm-34.882 1.524l13.405.609 1.37 34.288-12.947-.61-1.828-34.287zm17.822 35.049l-1.371-34.287 15.537.609.914 34.288-15.08-.61zm43.109-37.335l1.066 37.183 24.22-16.763-1.98-37.183-23.306 16.763zm3.96 31.544l-.761-30.02 17.365-12.649 1.675 30.021-18.279 12.648zm-36.1-70.86l-.457-3.048c-1.371.304-2.742-1.067-3.199-2.439-.609-1.828-.152-3.962.153-5.79l1.066-6.096c.457-2.286.762-4.572 1.98-6.4.914-1.524 2.742-2.896 4.722-2.438l1.067.152.457-1.067c.913-1.676 2.894-2.895 4.874-3.048h1.219l.152-1.219c.761-4.419 5.179-8.076 9.749-7.924 4.569 0 8.835 3.81 9.444 8.23l.152 1.37 1.371-.152c.457 0 .914.153 1.219.61.304.304.609.914.457 1.219l-.457 3.352 2.742-1.828c3.503-2.286 8.53-1.829 11.424 1.219 2.894 2.895 3.503 7.924 1.219 11.43l-.61.913.61.915c1.371 1.828 3.198 4.724 3.351 7.772.152 2.438-1.219 5.18-3.504 5.943l.914 2.895c3.961-1.219 5.789-5.486 5.636-8.99-.152-3.353-1.828-6.401-3.351-8.535 2.437-4.571 1.523-10.667-2.132-14.324-3.352-3.353-8.835-4.267-13.253-2.59a2.368 2.368 0 00-.914-1.22c-.609-.61-1.523-1.219-2.285-1.371-1.371-5.486-6.55-9.6-12.186-9.6-5.636-.153-10.967 3.961-12.49 9.295-2.285.457-4.418 1.676-5.636 3.657-2.895 0-5.332 1.829-6.703 3.962-1.523 2.439-1.98 5.181-2.437 7.62l-1.066 6.095c-.305 2.134-.762 4.724 0 7.163 1.066 2.438 3.656 4.876 6.702 4.267z" fill="#000"/><defs><radialGradient id="paint0_radial_542_7" cx="0" cy="0" r="1" gradientUnits="userSpaceOnUse" gradientTransform="matrix(0 84 -84 0 193 84)"><stop stop-color="#FED23D"/><stop offset="1" stop-color="#FED23D" stop-opacity="0"/></radialGradient></defs></svg>