<svg width="229" height="168" fill="none" xmlns="http://www.w3.org/2000/svg"><circle cx="145.001" cy="84" r="84" fill="url(#paint0_radial_542_5)" fill-opacity=".5"/><path d="M113.951 78.522c-.396-.089-.815-.089-1.256-.089h-31.68c0 .838 0 1.676-.023 2.492 7.474-.044 15.08-.022 22.421-.022h9.172c.441 0 .881 0 1.3-.067.618-.11.948-.485.97-1.102.089-.661-.242-1.08-.904-1.212z" fill="#000"/><path d="M185.095 17.784a211.13 211.13 0 00-7.474 0c-1.609.044-2.954 1.036-3.241 2.447-.308 1.411-1.168 1.5-2.028 1.455-.882-.044-1.808-.022-2.69-.022h-7.584l-.22-2.513-.397-4.541c-.198-2.205-.375-4.388-.573-6.592-.198-2.205-.375-4.388-.573-6.592-.044-.463-.199-1.257-.86-1.279l-1.279-.066c-1.565-.11-3.064-.198-4.519.375-5.732 2.27-11.464 4.563-17.196 6.834a9008.395 9008.395 0 00-32.585 12.963c-2.248.904-4.453 1.676-6.988 1.455-.353-.022-.97.243-1.213.552a243.127 243.127 0 00-6.481 8.333c-.243.309-.331 1.036-.177 1.345.133.286.728.595 1.257.705.573.11 1.19.088 1.83.066.264 0 .551-.022.838-.022h7.098l.045.375c.022.088.022.155.044.22.022.133.044.243.044.375v2.558c0 4.784 0 9.744-.022 14.638 0 .596-.375 1.19-.706 1.5a344.186 344.186 0 01-4.012 4.012c-2.337 2.337-4.762 4.74-7.077 7.165-1.521 1.587-2.998 2.205-4.916 2.05-.97-.066-1.72.133-2.227.596-.551.507-.838 1.322-.838 2.425v1.587c.353.242.596.64.596 1.19.022 1.147.066 2.315.088 3.462h44.004v3.571h-.441c-.375 0-.75 0-1.124-.022a26.736 26.736 0 00-2.668.044c-.529.044-1.102.265-1.367.53-.353.352-.331.815-.22 1.124.154.397.507.661.926.683 1.874.132 3.703.11 5.423-.066 1.058-.11 1.896-1.124 1.962-2.381.044-.97.044-1.962.022-3.064-.022-1.918-.97-2.91-2.888-3.02a5.034 5.034 0 00-.816 0h-.97V68.6c0-1.103-.308-1.963-.859-2.47-.508-.463-1.235-.66-2.183-.573-2.094.177-3.726-.485-5.401-2.27-2.403-2.536-4.917-5.027-7.364-7.452-1.256-1.235-2.535-2.535-3.814-3.792-.286-.287-.617-.794-.617-1.3a1778.72 1778.72 0 010-15.323v-1.984c0-.132.044-.243.088-.309.022-.022.022-.066.044-.11l.11-.287h17.836v7.959c0 3.087 1.499 4.564 4.563 4.586h11.464c3.021 0 4.476-1.477 4.476-4.52 0-2.425 0-4.85.022-7.275 0-.132.044-.22.066-.309.022-.022.022-.066.044-.11l.11-.308h9.877l-2.006 66.535h-3.373c-3.528.022-5.82 2.315-5.843 5.842v.684c0 1.036-.022 2.116 0 3.152.023.926.441 1.345 1.345 1.345 6.261.022 12.897.022 19.732 0 .441 0 .815-.132 1.058-.397.22-.22.331-.507.331-.816 0-.727-.596-1.212-1.5-1.212h-18.452v-.441c0-.331 0-.661-.022-.97-.022-.728-.044-1.411.044-2.094.176-1.588 1.477-2.646 3.241-2.668 2.711-.022 5.445 0 8.091 0h12.412c2.16 0 3.351 1.168 3.395 3.329.022.529 0 1.036 0 1.609v1.257h-1.301c-.132 0-.287 0-.419.022-.772.066-1.257.551-1.235 1.257.023.683.485 1.124 1.213 1.168.838.044 1.742.044 2.954 0 .551-.022 1.213-.22 1.213-1.124v-.485c.044-1.632.066-3.329-.11-4.961-.265-2.359-2.536-4.365-5.071-4.475a10.698 10.698 0 00-1.191 0h-1.058l-.022-.419-1.984-66.117h11.288l.066.353.066.397c.044.265.088.507.154.75.419 1.455 1.654 2.447 3.153 2.469 2.756.066 5.489.044 7.804 0 1.742-.022 2.624-1.257 3.307-2.58v-13.69c-.882-1.808-1.984-2.646-3.549-2.69zM154.45 20.65c.155-1.653.287-3.307.441-4.982.353-3.947.706-8.003 1.037-12.015.022-.31.088-.728.44-.97.397-.265.86-.133 1.301-.023l.287.089 1.631 18.893h-5.092l-.022-.419c0-.066 0-.132-.023-.176 0-.154-.022-.265 0-.397zm-54.365 34.877v9.965h-9.789l9.789-9.965zm2.557.022l9.921 9.921h-9.921v-9.92zm17.703 12.5v4.123h-37.5V68.05h37.5zm18.387-26.675c0 .44-.177 1.477-1.72 1.477h-12.125c-.596 0-1.037-.155-1.345-.463-.309-.309-.463-.75-.441-1.301v-8.333h15.631v2.733c0 1.94.022 3.924 0 5.887zM151.893 99.2v-7.672l.904-.22 6.305 7.892h-7.209zm8.863-40.742l-6.195-8.554 5.379-3.88.816.353V58.46zm.419 5.335l.396 13.338-.815.287-6.746-8.444 7.165-5.18zm-.926-23.633l-5.578-7.43h5.578v7.43zm-.706 3.13l-6.018 4.344v-10.89l.925-.199 5.093 6.747zm-5.578 9.966l6.041 8.355-7.275 5.291.397-13.426.837-.22zm-.551 18.96l7.121 8.906-8.443 6.107.44-14.86.882-.154zm7.893 25.837l-7.342-9.149 7.783-5.644.419 14.595-.86.198zm12.743-67.902H92.567l.55-.705c.354-.463.706-.882 1.037-1.323a67.786 67.786 0 002.293-2.998c.529-.728 1.146-1.015 2.094-1.015 10.097.022 20.371.022 30.292.022h3.792c.352 0 .661 0 .948-.066.463-.11.992-.419.926-1.234-.044-.662-.419-1.036-1.081-1.125-.242-.022-.507-.022-.793-.022h-23.281l-.11-.948 44.268-17.57-1.631 18.54h-11.684c-.507 0-.904.155-1.169.42-.198.198-.309.484-.309.815 0 .727.574 1.19 1.522 1.212h33.774v5.997h.045zm12.081 2.535c0 .397-.044.904-.397 1.257-.265.264-.661.375-1.19.375a153.398 153.398 0 00-6.372 0h-.066c-.529 0-.882-.133-1.146-.375-.353-.353-.397-.882-.375-1.257.022-1.278.022-2.557.022-3.814v-3.197c0-1.278.022-2.6-.022-3.901-.022-.552.11-.948.375-1.213.352-.353.881-.397 1.234-.397 2.205.022 4.255.022 6.261 0 .574 0 .97.11 1.257.397.375.375.419.926.419 1.3a886.451 886.451 0 000 10.825z" fill="#000"/><path d="M82.646 65.162c-3.902-.221-7.143-.397-7.253-.397-2.315-.11-4.63-.22-6.922-.353l-4.85-.243a285.542 285.542 0 01-4.344-.22l-4.056-.198c-2.006-.11-4.035-.199-6.04-.31l-5.6-.286c-2.426-.11-4.829-.242-7.254-.352l-.639-.022c-2.094-.11-4.255-.199-6.393-.287-.177 0-.53 0-.816.154a459.97 459.97 0 00-4.718 2.535l-5.27 2.822a2425.725 2425.725 0 01-13.315 7.143c-.154.089-.33.199-.485.287-.507.33-.992.64-1.653.463l-.353-.11.088.353c.044.242-.022.286-.309.44l-.044.022c-.419.199-.815.42-1.234.64-.177.088-.331.176-.507.264l-.11.088.11.397 2.226.177 1.852 33.995L60.292 116a15.391 15.391 0 012.733-2.028l-29.079-2.028-.705-18.85-.199-5.445c-.022-.574-.308-.706-.727-.728-2.976-.176-6.019-.375-8.95-.573l-2.713-.177c-1.256-.088-2.513-.154-3.77-.242h-.506l.925 24.846-10.538-.705-1.741-31.703 53.616 3.638c-.066-.485-.066-.97-.066-1.455 0-.243.066-.463.154-.662-3.968-.264-7.936-.55-11.905-.815l-1.08-.066c-2.315-.155-4.608-.331-6.922-.486l-11.685-.815-7.407-.53c-3.925-.286-7.849-.55-11.751-.837l.176-.088c.507-.287.992-.53 1.477-.794 5.071-2.712 10.142-5.445 15.234-8.18a794.3 794.3 0 004.277-2.292.634.634 0 01.353-.066c3.748.176 7.496.375 11.244.551l5.952.287 5.291.264c2.117.11 4.233.199 6.35.309 2.402.11 4.806.242 7.23.353 2.492.132 4.961.242 7.452.374l6.724.331c1.036.044 2.073.11 3.109.154-.022-.815-.044-1.609-.199-2.38zm-51.83 24.096l.816 22.09-12.038-.815-.816-22.09 12.038.815z" fill="#000"/><path d="M80.563 65.273L57.725 80.055l1.197 1.85 22.839-14.78-1.198-1.85z" fill="#000"/><path d="M60.327 80.944l-2.203.079 1.212 33.622 2.203-.079-1.212-33.623z" fill="#000"/><path d="M82.156 96.907l-22.393 16.808 1.323 1.763L83.48 98.671l-1.324-1.764z" fill="#000"/><path d="M82.284 66.178l-2.204.042.635 33.305 2.204-.042-.635-33.305z" fill="#000"/><defs><radialGradient id="paint0_radial_542_5" cx="0" cy="0" r="1" gradientUnits="userSpaceOnUse" gradientTransform="matrix(0 84 -84 0 145.001 84)"><stop stop-color="#FED23D"/><stop offset="1" stop-color="#FED23D" stop-opacity="0"/></radialGradient></defs></svg>