<svg width="268" height="231" fill="none" xmlns="http://www.w3.org/2000/svg"><circle cx="97" cy="134" r="97" fill="url(#paint0_radial_542_6)" fill-opacity=".5"/><path d="M267.492 142.944l-4.112-75.89 1.523-1.219-1.676-.152v-.914l-1.218.914-21.631-1.067v-14.63h-3.96v14.478l-17.06-.762V30.786h-3.961V63.55l-14.623-.762V41.606h-3.961v21.03l-101.905-5.03h-.61L40.071 86.713l-1.676-.153v1.067l-5.027 2.743 5.18.305 3.96 73.299 34.12 2.286c-.152-1.067-.304-2.134-.456-3.353v-1.676l-2.285-.152-1.828-48.765 26.81 1.676v.61c.608-.61 1.37-1.067 2.132-1.676-.153-.915-.457-1.829-.457-2.896l-32.598-2.133 1.98 53.641-23.61-1.676-3.808-69.338 45.24 3.048h.305a19.967 19.967 0 01-.914-4.114l-39.757-2.743L95.06 61.11l158.875 8.23-37.319 29.41-38.843-2.59c0 1.371 0 2.743-.153 3.962l37.625 2.591 1.066 39.926.762 29.411-33.207-2.286c-.457 1.371-1.067 2.743-1.828 3.962l35.187 2.438v1.829l2.437-1.676 1.523.152v-1.067l46.307-32.459zm-47.22-2.59l-1.067-38.707 40.367-29.411 3.808 68.575-42.195 29.411-.913-29.868z" fill="#000"/><path d="M187.675 157.878l-2.59-.152c.152 1.219.305 2.438.305 3.657v.457l6.397.305-1.523-53.184-14.014-.609c-.152 1.371-.457 2.743-.762 3.962l10.816.457 1.371 45.107zm37.014-49.983l1.371 49.069 31.836-22.249-2.741-49.069-30.466 22.249zm5.18 41.602l-1.067-39.621 22.849-16.61 2.133 39.468-23.915 16.763zm-47.527-93.415l-.761-3.962c-1.676.305-3.504-1.524-4.113-3.352-.762-2.286-.305-5.181.152-7.62l1.371-8.076c.457-3.048 1.067-6.096 2.59-8.534 1.218-1.981 3.656-3.81 6.093-3.2l1.523.304.762-1.371c1.218-2.286 3.808-3.962 6.397-3.962h1.676l.305-1.524c1.066-5.943 6.854-10.667 12.795-10.515 5.941.152 11.577 5.029 12.491 10.82l.304 1.828 1.828-.152c.61 0 1.219.152 1.676.762.457.457.761 1.067.609 1.676l-.609 4.267 3.656-2.438c4.569-3.048 11.272-2.286 15.08 1.524 3.96 3.81 4.57 10.515 1.675 15.086l-.761 1.22.761 1.066c1.828 2.438 4.266 6.248 4.418 10.21.152 3.048-1.523 6.858-4.57 7.772l1.066 3.81c5.179-1.524 7.769-7.315 7.464-11.886-.152-4.42-2.437-8.534-4.417-11.277 3.046-6.096 1.98-14.02-2.894-18.897-4.57-4.419-11.729-5.79-17.518-3.352a6.749 6.749 0 00-1.218-1.677c-.914-.914-1.981-1.523-3.047-1.828-1.828-7.162-8.682-12.648-16.146-12.8-7.464-.153-14.471 5.18-16.451 12.343-3.047.457-5.789 2.286-7.464 4.724-3.809 0-7.007 2.438-8.835 5.181-1.981 3.048-2.59 6.705-3.199 10.058l-1.371 8.076c-.457 2.743-1.066 6.248 0 9.448 1.066 3.658 4.57 6.858 8.682 6.248z" fill="#000"/><path d="M180.666 172.66H163.91c-.609-.609-1.371-1.219-.914-2.133.457-1.067 1.219-1.067 2.133-1.067h6.245v-.305c-.457-8.381-.914-16.915-1.371-25.296-.152-1.524-.152-3.048-.304-4.572 0-1.219.609-1.981 1.523-2.134.914 0 1.523.61 1.676 1.829v.762c.152 1.829.152 3.505.304 5.334 2.894-.305 5.484-.61 8.226-.915-.457-4.571-1.066-8.991-1.523-13.41-.457-4.876-3.809-7.467-8.074-8.077-.304 1.677-.609 3.505-1.066 5.182-1.371 4.876-5.179 6.705-9.901 4.571l-1.828-.914c-1.371-.914-2.59-1.676-3.808-2.591-1.219.762-2.437 1.829-3.656 2.439-1.219.762-2.59 1.219-3.96 1.828.152.457.304 1.067.304 1.524.153 2.438-1.066 4.267-3.656 5.334-.304.152-.914.457-.914.762-.761 3.505-2.742 6.248-5.788 8.229-.457.305-.457 1.219-.457 1.828 0 .153.457.458.914.61 1.98.61 3.96.914 5.941 1.524 3.046.914 5.179 2.895 5.788 6.248l.457 3.2c.305 2.286.457 4.572.762 6.858h4.874c.914 0 1.828.152 2.133 1.066.304 1.067-.305 1.677-.914 2.134h-52.553c-.761-.457-1.371-1.067-1.066-2.134.305-1.066 1.066-1.219 2.133-1.219h5.636c0-.305.152-.609.152-.914l.914-7.772c.305-3.962 2.437-6.553 6.245-7.619 1.981-.61 3.961-1.067 5.941-1.524.305-.153.762-.305.914-.458.152-.761.305-1.676-.762-2.285-2.742-1.677-4.569-4.267-5.331-7.315-.152-.762-.609-1.067-1.219-1.372-3.351-1.219-4.569-5.333-2.285-7.924.153-.152.305-.457.305-.609.152-1.981.305-4.115.305-6.096l-1.828 2.286c-1.371 1.676-3.351 1.829-5.027.457-.152-.152-.457-.305-.761-.609v6.857c0 .457 0 .914-.153 1.219-.152.914-.761 1.219-1.675 1.219-.762-.152-1.371-.609-1.371-1.371v-7.924c-.305.152-.305.152-.457.304-2.285 1.829-3.961 1.677-5.636-.609-1.371-1.677-2.742-3.505-4.113-5.181-.153-.305-.762-.458-1.219-.458-1.523.305-3.046.762-4.722 1.067-4.417 1.219-6.55 3.81-7.007 8.534-.152 1.676-.304 3.352-.61 5.029-.304 2.59-.608 5.181-.913 7.924 2.894.305 5.484.61 8.378.914 0-.609 0-1.066.152-1.524.153-1.523.153-3.047.305-4.571 0-1.219.761-1.829 1.675-1.829s1.524.762 1.524 1.829c0 .762 0 1.524-.153 2.133-.457 9.144-.914 18.134-1.37 27.278v.914h5.483c.914 0 1.828.153 2.133 1.067.304 1.067-.305 1.676-1.067 2.133H82.112c-1.22-.609-2.59-1.066-3.809-1.828-1.675-1.067-2.284-2.896-2.742-4.724v-3.048c0-.153.153-.457.153-.61 1.219-10.515 2.437-21.182 3.503-31.697.457-3.657 1.676-6.705 4.722-8.838 1.98-1.372 4.113-1.981 6.398-2.591 2.437-.609 4.722-1.219 7.007-2.286 1.371-.609 1.828-1.371 1.676-2.743-.153-.762 0-1.371-.914-1.828-5.484-3.201-8.53-8.229-8.987-14.477-.153-.915-.457-1.22-1.22-1.524-3.046-1.067-4.874-4.42-3.655-7.163.61-1.371.61-2.743.61-4.114v-2.438c.152-8.839 6.397-17.373 14.775-20.268 1.828-.61 3.656-.914 5.484-1.372h3.96c.305 0 .609.153.762.153 8.835.914 16.908 7.924 18.736 16.763.609 2.895.457 5.79.761 8.686 0 .457 0 1.067.305 1.371 1.828 2.743.609 6.858-3.351 8.23-.762.304-1.066.609-1.066 1.37-.457 5.944-2.895 10.668-7.921 13.868-1.676 1.067-1.981 2.286-1.828 3.962 0 .305.152.61.304.762 1.371.61 2.742 1.372 4.266 1.829.457.152 1.066 0 1.371-.305 1.98-1.524 4.112-2.895 6.702-3.2 1.828-.305 3.656-.305 5.484-.457 0-.305-.305-.762-.305-1.219-.152-2.134-.305-4.419-.457-6.553-.305-5.638-.762-11.43-1.066-17.068-.305-4.419 0-8.99 1.523-13.257 1.371-3.81 3.503-6.858 7.464-8.23a4.607 4.607 0 001.066-.761c1.828-2.286 4.113-3.81 6.702-4.724 1.676-.61 3.504-.915 5.18-1.372h4.417c1.066.152 2.133.305 3.199.61 6.397 1.676 11.272 5.486 14.623 11.276 1.371 2.286 2.133 4.724 2.59 7.315.152 1.067-.305 1.981-1.219 2.133-.914.305-1.676-.304-1.98-1.523-.153-.305-.153-.61-.153-.915-1.523-6.095-5.179-10.82-10.662-13.715-3.809-2.133-7.921-2.286-12.186-1.524-3.352.61-6.093 2.134-8.074 4.877-.457.61-1.218 1.219-1.98 1.371-2.285.762-3.808 2.286-4.874 4.267-1.676 3.048-2.133 6.4-2.285 9.753 0 3.505.152 6.858.457 10.363l.914 16.458c.152 1.219.304 1.524 1.675 1.524h8.988c0-.153.152-.153.152-.305l-1.371-.915c-5.027-3.2-8.073-7.771-8.53-13.867-.305-3.657-.153-7.315-.153-10.82 0-1.98.762-2.895 2.59-3.352 2.437-.61 4.57-1.981 6.398-3.81 1.523-1.676 3.198-1.524 4.569.152 2.59 3.048 5.636 5.182 9.14 6.858a28.44 28.44 0 0010.053 2.286c2.133.152 3.351 1.219 3.351 3.505v3.505c-.152 7.01-3.198 12.343-9.139 15.848-.305.153-.609.305-.914.61l.305.305h9.292c.761 0 1.066-.458 1.066-1.22.152-1.676.152-3.2.304-4.876.305-5.943.762-11.886.914-17.83.153-1.676.61-2.59 1.676-2.59 1.066 0 1.676.914 1.523 2.59-.457 7.468-.914 14.935-1.218 22.554-.153 3.048-1.828 4.572-4.875 4.724h-7.921c-.304 0-.761 0-1.066.153v.304c.305.153.609.153.914.305 3.503.914 7.159 1.676 10.663 2.895 3.96 1.22 6.55 3.963 7.616 8.077.457 1.829.609 3.505.762 5.334.914 7.467 1.675 14.934 2.589 22.553l.914 6.858v3.048c-.457 1.219-.914 2.438-1.523 3.505-.609 2.133-2.437 2.895-4.57 3.352zm-58.188-79.395h-.153V88.39c0-.305-.152-.914-.457-1.067-2.132-1.676-3.046-3.81-3.351-6.4 0-.915-.457-1.22-1.371-1.067-6.397 1.067-12.947.762-19.345 0-1.219-.152-1.37 0-1.523 1.22-.305 2.437-1.219 4.57-3.199 6.095-.305.152-.61.61-.61.762 0 3.657-.152 7.467.305 11.124.914 7.01 7.16 12.191 14.167 12.496 7.159.152 13.404-4.572 14.927-11.582.305-2.133.305-4.419.61-6.705zm26.2-10.514c-2.133 2.285-4.722 3.657-7.616 4.419-.153 0-.458.61-.458.762 0 2.59-.152 5.333 0 7.924.153 5.029 1.828 9.296 5.941 12.496 4.57 3.352 9.444 4.114 14.623 1.981 7.464-3.2 10.054-9.753 9.14-17.525-8.378-.457-15.689-3.505-21.63-10.058zm-22.392 2.438c1.066-6.553-2.742-14.172-8.835-17.982-6.702-4.115-14.928-3.962-21.173.61-6.246 4.419-8.683 11.733-7.769 17.372 3.199-.457 4.113-1.372 4.418-4.572 0-.305.152-.762.152-1.067.305-1.524 1.523-2.743 3.199-2.895a8.278 8.278 0 012.742 0c5.94.914 11.881.61 17.822-.153 2.742-.304 4.57 1.067 4.874 3.81.305 3.353 1.371 4.42 4.57 4.877zm21.782 84.119c-.304-2.286-.457-4.42-.761-6.706-.152-.914-.153-1.676-.305-2.59-.304-1.829-1.218-3.048-2.894-3.658-1.523-.609-3.199-.914-4.874-1.371-.305 0-.61.152-.762.305-4.265 3.809-9.597 3.809-13.862 0-.304-.153-.761-.305-1.066-.305-1.371.305-2.742.61-4.113 1.067-1.523.457-3.046 1.371-3.199 3.2-.609 3.2-.913 6.553-1.37 9.905h4.417c0-1.067.152-2.133.152-3.2.153-1.219.762-1.829 1.676-1.829 1.066 0 1.523.762 1.523 2.134 0 .914-.152 1.828-.152 2.895H140.3v-3.505c0-1.219 1.523-1.981 2.437-1.219.457.305.762 1.067.762 1.676.152.915.152 1.981.152 3.048 1.676.153 3.047.153 4.417.153zm-25.743-36.269c0 1.981-.152 3.962 0 5.943.305 4.724 4.418 8.534 8.988 8.534 5.026 0 9.139-3.81 9.444-8.534.152-1.981 0-4.114 0-6.095 0-.305-.152-.61-.305-.762-1.218-1.067-2.589-1.981-3.96-3.048-3.808 4.114-8.683 4.876-14.167 3.962zm-2.894-3.2c.762-.153 1.371-.305 1.981-.305.913 0 1.675.305 2.589.457 4.265.457 8.073-.305 10.51-4.267.914-1.524 3.047-1.524 3.961.153 1.066 1.828 2.59 3.2 4.874 3.809-.152-4.419-1.828-7.924-5.483-10.362-4.113-2.591-8.378-2.591-12.491-.152-3.96 2.438-5.788 6.095-5.941 10.667zm-31.226 39.469c.304-7.163.761-14.02 1.066-21.03-2.894-.305-5.636-.61-8.378-.914-.305 2.133-.457 4.114-.61 6.095-.456 3.657-.761 7.315-1.218 10.972-.305 2.743 1.371 4.877 3.808 5.029 1.676 0 3.504-.152 5.332-.152zm86.52 0c1.828 0 3.656.152 5.484 0 1.98-.153 3.199-1.372 3.656-3.353.152-.762.152-1.524.152-2.286l-1.371-11.886c-.152-1.524-.304-2.896-.609-4.419-2.894.304-5.636.609-8.378.914.305 7.01.762 14.02 1.066 21.03zm-23.915-55.165c-.152 1.524-.152 3.047-.457 4.419-.457 1.676-2.132 1.524-3.503 2.133 5.027 6.096 13.861 5.029 17.67-.152-4.418-.152-3.809-3.353-3.809-6.4-3.503.762-6.702.914-9.901 0zm-38.69 0c-3.199.914-6.398.762-9.749 0 .152 1.066 0 2.133.457 2.59 1.371 1.524 3.046 2.896 4.57 4.42 1.218-1.22 2.437-2.439 3.808-3.505 1.066-.915 1.371-1.981.914-3.505zm56.817 7.619c-.152-.152-.305-.152-.305-.305-.304.153-.761.153-.914.458-1.98 2.59-4.569 4.419-7.768 5.486l-.305.304c1.371.61 2.437 1.372 3.808 1.829 2.285.762 3.656.152 4.418-2.133.457-1.677.761-3.658 1.066-5.639zm-40.823 32.307c1.98 1.371 4.874 1.371 6.702 0a100.619 100.619 0 00-.914-3.353h-5.027c-.152 1.067-.457 2.134-.761 3.353zm-11.577-33.831c-.609-.305-1.218-.609-1.675-.762-.305-.152-.61 0-.914.153-1.371 1.219-2.742 2.59-4.113 3.809.761.762 1.523 1.524 2.437 2.286 1.219-1.828 2.742-3.657 4.265-5.486zm-11.577 3.353c0-.153 0-.153-.152-.305-.914-.914-1.98-1.829-2.894-2.743-1.523-1.524-1.523-1.524-3.656-.305 1.37 1.829 2.894 3.658 4.265 5.486.914-.762 1.676-1.524 2.437-2.133zm41.89 6.553c1.675-.762 3.199-1.524 4.722-2.286-1.98-1.067-3.808-1.981-5.484-2.896.305 1.524.457 3.2.762 5.182zm.609-13.258v-.305h-7.311c1.218 1.676 2.741 1.829 4.417 1.067.762-.305 1.523-.305 2.133-.61.152.152.456 0 .761-.152zm-58.34-23.773v-4.42c-1.067.458-1.828 1.067-1.828 2.134s.609 1.829 1.828 2.286zm36.405-4.42v4.572c1.067-.457 1.676-1.219 1.676-2.285.152-1.22-.457-1.83-1.676-2.286zm18.584 47.851c.152 0 .152.152.305.152.152-.457.609-1.066.609-1.524 0-.457-.457-.914-.609-1.371-.153 0-.153.152-.305.152v2.591zm-25.286-2.591c-1.371.762-1.219 1.981 0 2.743v-2.743z" fill="#000"/><defs><radialGradient id="paint0_radial_542_6" cx="0" cy="0" r="1" gradientUnits="userSpaceOnUse" gradientTransform="matrix(0 97 -97 0 97 134)"><stop stop-color="#007DE7"/><stop offset="1" stop-color="#007DE7" stop-opacity="0"/></radialGradient></defs></svg>