<svg width="280" height="277" fill="none" xmlns="http://www.w3.org/2000/svg"><g filter="url(#filter0_d_617_5)"><path d="M148.976 45.864c-47.512-12.605-49.79-.36-61.387 4.906-23.516 10.985-21.512 24.937-35.296 79.494-13.783 54.558 39.256 69.628 99.663 84.778 52.325 13.182 75.481-60.477 77.598-89.061 2.338-28.7-33.067-67.511-80.578-80.117z" fill="#fff"/></g><path d="M170.029 80c1.949.59 3.484 1.67 4.016 3.754.157.629.197 1.297.197 1.945.019 10.024 0 20.047 0 30.07 0 .295 0 .59-.04.884-.118.944-.728 1.514-1.614 1.514-.886 0-1.496-.531-1.653-1.494-.059-.393-.059-.786-.059-1.179V85.916c0-2.123-.453-2.575-2.618-2.575h-65.353c-2.067.02-2.559.492-2.559 2.555v88.832c0 2.084.473 2.575 2.54 2.575h65.45c2.087 0 2.559-.472 2.559-2.535v-15.035c0-.452.02-.924.138-1.356.217-.786.787-1.179 1.614-1.16.827.02 1.358.452 1.536 1.258.078.413.078.845.078 1.278 0 4.775-.098 9.571.04 14.347.098 3.183-.886 5.483-4.055 6.544h-69.093c-2.126-.629-3.503-2.005-4.133-4.127-.02-30.816-.02-61.593-.02-92.39.63-2.122 2.028-3.478 4.134-4.127h68.895z" fill="#000"/><path d="M197.784 106.139c-.472 1.002-.925 2.004-1.437 3.085 1.063.944.728 1.985.059 3.086-1.26 2.103-2.46 4.225-3.72 6.426.452.275.866.531 1.279.767 2.618 1.592 3.425 4.382 1.949 7.036-2.126 3.793-4.331 7.546-6.535 11.3-.61 1.022-1.536 1.337-2.382.865-.886-.491-1.083-1.454-.453-2.555 1.988-3.459 3.976-6.918 5.984-10.377 1.299-2.26 1.044-2.987-1.496-4.088-.177.295-.374.59-.551.885-4.016 6.977-8.11 13.914-12.047 20.93-1.555 2.771-3.582 5.149-5.531 7.606a101.227 101.227 0 00-4.213 5.778c-1.279 1.926-2.952 2.889-5.295 2.693-.334-.02-.807.196-1.023.471-1.122 1.337-2.166 2.712-3.248 4.069-1.949 2.378-4.882 1.945-6.083-.865-.295-.688-.571-1.376-.905-2.201-.217.275-.374.452-.512.648-1.004 1.494-2.401 2.142-3.838 1.769-1.536-.393-2.461-1.651-2.599-3.518-.138-1.887-.315-3.754-.669-5.699-.098.275-.236.55-.315.825-1.181 3.557-2.362 7.134-3.563 10.691-.453 1.356-1.535 1.789-2.579 1.081-.708-.491-.905-1.199-.649-1.985 1.358-4.127 2.716-8.254 4.134-12.362.531-1.513 2.027-2.338 3.582-2.161 1.417.157 2.638 1.316 2.835 2.849.256 2.162.413 4.344.63 6.702.374-.491.63-.884.925-1.238 1.496-1.789 4.252-1.592 5.393.452.532.924.886 1.965 1.359 3.027 1.181-1.455 2.342-2.831 3.444-4.246.138-.157.118-.55.02-.766-.925-1.788-.866-3.538.138-5.247 2.106-3.577 3.169-7.587 4.744-11.399.256-.61.512-1.199.826-1.769 4.39-7.625 8.799-15.251 13.209-22.876.177-.315.354-.629.512-.924-2.185-1.533-2.579-2.182-2.008-3.184.571-.983 1.299-.963 3.72.157.158-.255.354-.511.512-.786a911.657 911.657 0 003.523-6.014c.473-.805 1.063-1.257 2.067-1.179.276.02.729-.334.886-.609.846-1.494 1.929-2.653 3.661-3.046 2.618-.57 5.138.904 5.945 3.459.059.216.158.412.217.629.098.628.098 1.218.098 1.808zm-15.511 10.416a15871.88 15871.88 0 00-13.425 23.23c1.968 1.14 3.858 2.221 5.807 3.361 4.488-7.763 8.937-15.467 13.425-23.23-1.989-1.16-3.859-2.221-5.807-3.361zm5.019-8.707c-1.141 1.985-2.224 3.852-3.346 5.798a838.903 838.903 0 005.807 3.341c1.141-1.965 2.244-3.871 3.346-5.798-1.968-1.12-3.819-2.201-5.807-3.341zm-19.861 35.003c-.827 2.221-1.595 4.284-2.382 6.367 1.161.669 2.224 1.298 3.326 1.926 1.457-1.768 2.874-3.478 4.331-5.247-1.791-1.042-3.484-2.005-5.275-3.046zm25.924-35.396c.551-1.081 1.555-1.965.748-3.124-.295-.413-1.024-.767-1.555-.728-1.319.059-1.496 1.317-2.126 2.202a353.54 353.54 0 012.933 1.65zm-26.771 46.539c-1.023-.589-1.949-1.1-2.913-1.651-.551 1.022-1.496 1.887-.807 3.007.256.433.984.826 1.496.826 1.358.059 1.594-1.199 2.224-2.182zm-51.041-60.571v3.36h40.885c.492 0 .984.02 1.456.119.827.177 1.221.786 1.221 1.572 0 .825-.433 1.435-1.299 1.592-.374.079-.788.079-1.182.079h-42.026c-2.027 0-2.46-.453-2.46-2.496v-5.11c0-1.946.511-2.457 2.441-2.457h41.829c.295 0 .59-.02.886 0 1.161.079 1.889.786 1.85 1.75-.039.943-.748 1.572-1.89 1.591-4.192.02-8.405 0-12.598 0h-29.113zm2.578 52.022c2.973.04 5.67.924 8.11 2.594.965.669 1.241 1.592.729 2.437-.512.826-1.516 1.042-2.5.394-1.732-1.14-3.583-1.907-5.65-2.044-6.043-.413-11.102 3.911-11.692 10.023-.532 5.522 3.7 10.848 9.251 11.595 6.063.806 11.378-3.046 12.382-8.981.079-.511.118-1.042.157-1.553.099-1.179.748-1.887 1.733-1.867 1.004.02 1.614.766 1.614 1.946.02 8.057-7.5 14.779-15.531 13.894-7.185-.805-12.46-6.23-12.972-13.305-.571-8.176 6.122-15.211 14.369-15.133zm25.925-26.885h-17.598c-.394 0-.787.019-1.181-.059-.807-.138-1.28-.649-1.339-1.474-.059-.806.296-1.415 1.063-1.671.355-.118.768-.157 1.162-.157h35.688c.314 0 .649.02.964.098.886.197 1.339.786 1.319 1.69-.02.845-.61 1.435-1.496 1.533-.354.04-.728.04-1.083.04h-17.499zm-16.85 10.082h-15.728c-.335 0-.649.019-.984-.02-1.063-.098-1.693-.727-1.693-1.651 0-.923.63-1.552 1.713-1.67.236-.02.452-.02.689-.02h32.046c.295 0 .59 0 .886.039 1.003.138 1.574.787 1.555 1.691-.02.864-.591 1.474-1.555 1.591-.355.04-.729.04-1.083.04h-15.846zm8.524-25.137h15.924c1.634 0 2.422.531 2.441 1.632.02 1.14-.807 1.729-2.46 1.729h-32.243c-1.418-.02-2.205-.648-2.185-1.71 0-1.061.767-1.651 2.204-1.651 5.433-.019 10.866 0 16.319 0zm-16.851 33.509c-2.716 0-5.452.02-8.169 0-1.319 0-2.126-.904-1.87-2.044.177-.825.866-1.297 1.949-1.297 2.008-.02 3.996 0 6.004 0h9.645c.256 0 .532-.02.788.02 1.023.098 1.692.805 1.673 1.709-.02.924-.709 1.592-1.752 1.612-2.205.02-4.39.02-6.594.02-.571-.02-1.122-.02-1.674-.02z" fill="#000"/><path d="M117.531 161.168c1.949-1.966 3.74-3.813 5.571-5.582.413-.393 1.082-.786 1.594-.747.492.04 1.122.531 1.398.983.433.688.079 1.395-.473 1.946-1.87 1.867-3.74 3.753-5.629 5.62-.079.079-.158.138-.217.197-1.338 1.101-3.09 1.159-4.389 0-1.28-1.16-2.5-2.398-3.701-3.656-.728-.746-.689-1.729-.04-2.378.689-.687 1.654-.707 2.441.079 1.142 1.12 2.225 2.28 3.445 3.538zm39.073-32.526c-1.87 0-3.74.02-5.59 0-1.26-.02-1.969-.708-1.89-1.749.039-.767.453-1.297 1.201-1.474.413-.098.846-.118 1.26-.118h10.117c.355 0 .729.02 1.063.079.906.157 1.378.727 1.359 1.631-.02.904-.532 1.513-1.437 1.572-1.477.079-2.953.059-4.41.079-.551-.02-1.102-.02-1.673-.02zm-16.692 8.372h-5.61c-1.26 0-2.027-.648-2.027-1.651-.02-1.002.767-1.69 2.008-1.69 3.7-.02 7.401-.02 11.102 0 1.22 0 2.007.708 1.988 1.71-.02 1.002-.788 1.611-2.047 1.631h-5.414z" fill="#000"/><circle cx="112" cy="103" r="64" fill="url(#paint0_radial_617_5)" fill-opacity=".5"/><defs><radialGradient id="paint0_radial_617_5" cx="0" cy="0" r="1" gradientUnits="userSpaceOnUse" gradientTransform="matrix(0 64 -64 0 112 103)"><stop stop-color="#007DE7"/><stop offset="1" stop-color="#007DE7" stop-opacity="0"/></radialGradient><filter id="filter0_d_617_5" x=".091" y=".354" width="279.572" height="276.252" filterUnits="userSpaceOnUse" color-interpolation-filters="sRGB"><feFlood flood-opacity="0" result="BackgroundImageFix"/><feColorMatrix in="SourceAlpha" values="0 0 0 0 0 0 0 0 0 0 0 0 0 0 0 0 0 0 127 0" result="hardAlpha"/><feOffset dy="10"/><feGaussianBlur stdDeviation="25"/><feComposite in2="hardAlpha" operator="out"/><feColorMatrix values="0 0 0 0 0.191111 0 0 0 0 0.2304 0 0 0 0 0.266667 0 0 0 0.15 0"/><feBlend in2="BackgroundImageFix" result="effect1_dropShadow_617_5"/><feBlend in="SourceGraphic" in2="effect1_dropShadow_617_5" result="shape"/></filter></defs></svg>