<svg width="281" height="277" viewBox="0 0 281 277" fill="none" xmlns="http://www.w3.org/2000/svg"><g filter="url(#filter0_d_617_7)"><path d="M149.385 45.864c-47.512-12.605-49.79-.36-61.386 4.906-23.516 10.985-21.513 24.937-35.296 79.494-13.784 54.558 39.255 69.628 99.663 84.778 52.324 13.182 75.48-60.477 77.597-89.061 2.338-28.7-33.067-67.511-80.578-80.117z" fill="#fff"/></g><path d="M175.175 181.316h-3.941c-1.751-.438-3.357-.876-5.108-1.314-.146 0-.292 0-.438.146a6.482 6.482 0 00-1.606 1.168H95.335A4.559 4.559 0 0193 178.98v-13.142c0-.146.146-.292.146-.584.438-1.752.73-3.797 1.605-5.403 3.65-7.739 9.78-11.681 18.245-11.973.438 0 1.022-.147 1.314-.439 1.46-1.314 3.065-2.19 4.817-2.628.146 0 .438-.146.584-.292.437-.73-.146-2.628-.73-3.066-5.693-3.651-9.05-8.908-9.925-15.625 0-.292-.292-.73-.73-.876-1.46-.584-2.628-1.606-3.503-3.066-.876-1.606-1.606-3.505-1.606-5.549-.146-4.381-.292-8.615-.146-12.996.438-10.367 7.59-18.982 17.661-21.61 1.168-.293 2.336-.439 3.357-.73h19.997c.146 0 .146.145.292.145 2.773 1.168 3.503 3.505 1.751 5.987-.584.73-1.021 1.606-1.605 2.336.729.146 1.459.438 2.043.584 4.817 1.46 10.217 5.987 9.925 13.288-.146 3.505 0 7.155 0 10.66 0 1.606-.292 3.212-.583 4.672-.584 2.483-1.752 4.673-4.379 5.841-.73.292-1.022.73-1.022 1.46-.876 6.279-3.795 11.244-9.195 14.749-1.168.876-1.752 1.606-1.46 2.92v.146c.146.292.438.73.584.73 1.897.438 3.357 1.314 4.816 2.482.292.292.73.438 1.168.438 1.752.292 3.503.439 5.255.731 1.313.292 2.627.876 3.795 1.314 1.167-2.191 2.335-4.381 3.649-6.425 1.313-2.044 3.065-3.797 4.67-5.695h-.292c-1.313 0-2.043-.73-2.043-1.752s.73-1.606 2.189-1.606h2.774c-.146-.438-.292-.731-.438-1.169-1.314-3.066-2.628-5.986-3.941-9.053-1.022-2.482.438-4.819 3.211-4.965h3.357c1.897 0 2.919.731 3.503 2.483.146.73.584.876 1.168.876h6.568c1.897 0 3.211 1.022 3.503 2.774.146.73-.146 1.607-.438 2.337-.876 2.19-1.751 4.38-2.773 6.571h3.357c1.022 0 1.605.73 1.605 1.606 0 .876-.583 1.606-1.605 1.606h-.876c.292.292.438.438.584.73 4.525 4.527 7.59 9.783 9.049 15.916.438 1.899.73 3.797 1.022 5.695v3.359c0 .146-.146.292-.146.584-1.313 8.323-6.13 13.726-14.012 16.354-1.314 1.168-2.627 1.314-3.941 1.606zm-22.04-68.045v-2.191c0-1.022-.73-1.752-1.605-1.752-.876 0-1.606.73-1.606 1.752v1.461c0 1.022-.73 1.752-1.605 1.898-1.022 0-1.752-.73-1.752-1.898v-2.775c0-1.168-.438-1.606-1.459-1.752-1.022-.146-1.898-.146-2.92-.292-4.087-.584-7.881-1.752-11.093-4.381-.875-.73-1.313-.584-2.189.146-1.897 1.607-4.087 2.775-6.422 3.359-2.482.584-4.817.876-7.298 1.168-1.46.146-1.752.584-1.898 2.044v2.775c0 1.022-.729 1.752-1.605 1.752s-1.606-.73-1.752-1.752v-1.607c0-1.022-.73-1.606-1.605-1.606-.876 0-1.606.584-1.752 1.46-.146 2.921-.292 5.841 1.022 8.616.584 1.168 1.314 2.044 2.627 2.482 1.314.438 2.044 1.314 2.19 2.774.146.73.146 1.607.292 2.337 1.605 8.761 10.217 15.186 19.12 14.018 8.466-1.023 14.596-7.447 15.472-16.063.146-1.606.876-2.628 2.335-3.066 1.168-.438 1.898-1.168 2.482-2.19.875-2.337 1.021-4.527 1.021-6.717zm20.872 64.687c4.087 0 8.174-1.752 11.531-5.257 3.649-3.797 5.109-8.469 4.379-13.726-1.022-6.863-3.795-12.996-8.757-17.96-2.19-2.191-4.817-3.505-8.174-3.359-2.336.146-4.233.73-5.985 2.044-1.021.876-2.189 1.899-3.065 2.921-3.795 4.526-6.13 9.783-7.152 15.624-1.751 10.513 5.985 19.713 17.223 19.713zm-20.872-71.988v-2.629c.146-4.526-2.043-7.447-5.984-9.345-2.335-1.168-4.671-1.314-7.298-1.314h-1.897c-1.022-.146-1.606-.876-1.46-1.752 0-.877.73-1.46 1.605-1.607h1.46c.73.146 1.168-.292 1.606-.876.583-1.022 1.459-2.044 2.043-3.066l.438-.876c-.292-.146-.584-.292-1.022-.292h-16.493c-9.05 0-16.932 6.279-19.121 15.04-.584 2.19-.73 4.526-.584 6.571 1.46.146 2.773.292 4.233.438 1.314-1.315 2.044-1.753 3.941-1.899.73-.146 1.46-.146 2.189-.292 3.795-.438 7.298-1.314 10.218-3.942 1.751-1.46 4.086-1.314 5.984.146 1.168.876 2.335 1.752 3.795 2.19 2.335.73 4.816 1.314 7.152 1.752 1.751.292 3.649.438 4.962 2.045.146.146.292.146.438.146 1.168 0 2.336-.146 3.795-.438zm-56.924 71.988h22.04c-4.671-8.323-4.817-17.523-5.255-26.576h-.437c-7.59.146-14.596 5.695-15.764 13.288-.73 4.234-.438 8.761-.584 13.288zm58.238-24.678c-2.481-1.314-5.109-2.044-7.882-2.044-.438 9.199-.73 18.399-5.546 26.722h21.018c-8.612-6.425-10.509-14.748-7.59-24.678zm-19.997 24.678c-.729-4.673-1.459-9.2-2.335-13.726-.146-.876 0-2.19-.584-2.629-.584-.438-1.897-.146-2.773-.292-.876-.146-1.022.292-1.168 1.023-.583 3.358-1.167 6.716-1.605 10.075-.292 1.752-.584 3.65-.876 5.549h9.341zm-18.098-21.319c.583 3.942 1.021 7.593 1.751 11.389.438 2.775 1.314 5.403 2.919 7.739.146.292.438.585.876 1.023.146-.292.146-.292.146-.438.876-4.819 1.605-9.784 2.481-14.603.146-1.168.292-2.044-.73-2.628-3.065.876-4.962-1.314-7.443-2.482zm21.164 19.713h.292c3.94-5.987 4.378-12.704 5.108-19.421-1.605.73-2.919 1.46-4.379 2.19-.875.438-1.751.584-2.627-.146-.876.73-1.168 1.314-.876 2.482l1.752 10.076c.292 1.46.438 3.066.73 4.819zm27.44-53.59v.438l4.817 10.952c.146.292.584.438.875.438h4.817c.584 0 .73-.146 1.022-.73 1.022-2.337 1.897-4.673 2.919-6.863.146-.146.146-.438.146-.731h-6.422c0 .293.146.439.146.585.438 1.314 0 2.19-.876 2.482-1.022.292-1.898-.146-2.335-1.606-.438-1.461-.876-2.921-1.46-4.381-.146-.292-.438-.584-.584-.73-.876.146-1.897.146-3.065.146zm-41.744 20.735c-.584 2.044 0 3.65 1.897 4.527 1.314.73 2.773 1.168 4.233 1.752.292.146.73.146 1.022 0 1.459-.584 2.919-1.022 4.232-1.752 1.752-.877 2.336-2.483 1.898-4.527-4.525 1.46-8.904 1.46-13.282 0zm.875 8.177c-.875-.73-1.897-1.46-2.773-2.336-1.168-1.168-1.459-1.314-3.065-.584-.438.146-.73.438-1.168.73-.584.438-.729.876-.584 1.606.73 2.336 2.482 3.504 4.379 4.527 1.168-1.461 2.336-2.775 3.211-3.943zm14.45 3.797c1.752-.877 3.503-2.045 4.233-4.089.438-.876.292-1.606-.584-2.044a17.75 17.75 0 00-2.481-1.022c-.146 0-.584 0-.73.146-1.167 1.168-2.481 2.336-3.503 3.358.876 1.022 1.898 2.19 3.065 3.651zm-13.136-.146c1.168 3.504 4.087 2.774 6.422 2.482.876-.146 1.752-1.46 2.627-2.19-2.773-3.067-6.86-2.921-9.049-.292z" fill="#000"/><path d="M170.651 161.311c.292.146.729.585 1.167 1.023.584.584 1.314.876 2.19.438.729-.438 1.021-1.169.729-1.899-.291-.876-1.021-1.168-1.751-1.168-2.335-.146-4.087-1.606-4.671-3.796-.584-2.191.438-4.381 2.336-5.549.438-.292.729-.438.875-1.022.146-.876.73-1.314 1.606-1.314.876 0 1.46.584 1.605 1.46.146.292.292.584.584.876.584.584 1.314 1.022 1.898 1.606.73.73.438 1.752-.292 2.336-.73.585-1.606.439-2.335-.292-.292-.292-.73-.73-1.168-.876-.876-.292-1.752.438-1.898 1.314-.146.877.438 1.753 1.46 1.899.438 0 .876 0 1.314.146 2.043.438 3.649 2.044 3.941 4.088.291 2.191-.73 4.089-2.628 5.111-.292.146-.584.584-.73 1.022-.291.876-.875 1.314-1.605 1.314s-1.46-.438-1.606-1.168c-.146-.584-.438-.876-.875-1.168-.584-.438-1.314-1.022-1.752-1.606-.876-1.314 0-2.775 1.606-2.775z" fill="#000"/><circle cx="151" cy="115" r="84" fill="url(#paint0_radial_617_7)" fill-opacity=".5"/><defs><radialGradient id="paint0_radial_617_7" cx="0" cy="0" r="1" gradientUnits="userSpaceOnUse" gradientTransform="matrix(0 84 -84 0 151 115)"><stop stop-color="#FED23D"/><stop offset="1" stop-color="#FED23D" stop-opacity="0"/></radialGradient><filter id="filter0_d_617_7" x=".5" y=".354" width="279.572" height="276.252" filterUnits="userSpaceOnUse" color-interpolation-filters="sRGB"><feFlood flood-opacity="0" result="BackgroundImageFix"/><feColorMatrix in="SourceAlpha" values="0 0 0 0 0 0 0 0 0 0 0 0 0 0 0 0 0 0 127 0" result="hardAlpha"/><feOffset dy="10"/><feGaussianBlur stdDeviation="25"/><feComposite in2="hardAlpha" operator="out"/><feColorMatrix values="0 0 0 0 0.191111 0 0 0 0 0.2304 0 0 0 0 0.266667 0 0 0 0.15 0"/><feBlend in2="BackgroundImageFix" result="effect1_dropShadow_617_7"/><feBlend in="SourceGraphic" in2="effect1_dropShadow_617_7" result="shape"/></filter></defs></svg>