<svg width="281" height="277" fill="none" xmlns="http://www.w3.org/2000/svg"><g filter="url(#filter0_d_617_8)"><path d="M149.385 45.864c-47.512-12.605-49.79-.36-61.386 4.906-23.516 10.985-21.513 24.937-35.296 79.494-13.784 54.558 39.255 69.628 99.663 84.778 52.324 13.182 75.48-60.477 77.597-89.061 2.338-28.7-33.067-67.511-80.578-80.117z" fill="#fff"/></g><circle cx="168" cy="155" r="64" fill="url(#paint0_radial_617_8)" fill-opacity=".5"/><path d="M126.014 81.376c1.516.51 3.012 1.041 4.527 1.513 12.677 3.872 25.374 7.724 38.05 11.576a5.765 5.765 0 001.634.236c3.347.02 6.693-.02 10.039.039 2.343.04 4.291 1.847 4.587 4.088.315 2.358-1.063 4.638-3.327 5.267-.905.255-1.87.196-2.815.275-.295.019-.571 0-.964 0v10.789c0 1.376-.355 1.789-1.713 2.025-1.063.177-1.791 1.061-1.732 2.044.079.982.886 1.788 1.87 1.847 1.004.059 1.85-.668 2.027-1.749.02-.138.02-.256.04-.393.177-.826.846-1.356 1.614-1.278.787.079 1.299.688 1.319 1.573.039 2.26-1.693 4.264-4.075 4.716-2.264.433-4.586-.904-5.413-3.124-.827-2.241.039-4.815 2.145-5.916.808-.413 1.024-.884 1.004-1.71-.039-2.869-.019-5.758-.019-8.805h-17.716c-.355 0-.729.02-1.083-.058-.768-.177-1.22-.708-1.161-1.494.039-.806.531-1.317 1.378-1.395.295-.02.59-.02.885-.02h22.244c.413 0 .866-.02 1.26-.118.905-.256 1.397-1.022 1.318-1.926a1.828 1.828 0 00-1.653-1.67c-.295-.04-.591-.02-.886-.02h-45.176c.217 1.297.414 2.476.63 3.754h13.799c.295 0 .591-.02.886.019.748.079 1.201.511 1.299 1.258.098.786-.256 1.356-1.024 1.572-.374.118-.767.098-1.161.098h-12.893c-.295 1.081-.295 2.28-.886 2.929-.61.668-1.811.766-2.913 1.179v63.539h2.067c1.003 0 1.692.471 1.988 1.434.63 2.005 1.24 3.99 1.811 6.014.334 1.179.059 1.71-1.181 2.575h-22.638c-.925-.649-1.476-1.454-1.102-2.653.61-1.966 1.201-3.951 1.811-5.916.315-1.002 1.004-1.494 2.067-1.474h2.027v-63.499c-1.082-.433-2.263-.551-2.834-1.199-.591-.668-.591-1.848-.886-2.929h-5.59c-.158 0-.315.04-.492.059v5.189c.885 0 1.692-.02 2.5 0 1.496.059 2.401.904 2.44 2.398.059 1.67.059 3.341 0 5.011-.039 1.435-.925 2.339-2.362 2.359-2.716.058-5.452.058-8.169 0-1.555-.02-2.382-.944-2.401-2.496-.02-1.573-.02-3.145 0-4.717.019-1.671.866-2.516 2.559-2.555.767-.02 1.555 0 2.342 0v-5.248c-.886 0-1.712.02-2.519 0-1.555-.039-2.363-.825-2.382-2.378-.02-1.513 0-3.007 0-4.52 0-2.083.669-2.79 2.775-2.732 1.004.02 1.811-.235 2.638-.805 1.752-1.258 3.583-2.437 5.354-3.656 4.331-3.007 8.701-5.955 13.051-8.922h1.181zm7.677 13.305h24.842c.019-.06.019-.118.039-.177-10.551-3.204-21.102-6.427-31.751-9.67v5.936c.197.078.256.118.315.118 1.22.02 2.421 0 3.642.04 1.574.038 2.322.667 2.637 2.22.099.472.177.963.276 1.533zm-1.201 10.436c-.61-3.558-1.22-7.056-1.811-10.574-.098-.609-.433-.688-.945-.688-2.657.02-5.314 0-7.952 0-1.457 0-1.457 0-1.732 1.474-.079.413-.158.826-.237 1.258-.492 2.83-.964 5.641-1.476 8.51 4.744.02 9.429.02 14.153.02zm-16.377 73.896h18.523c-.414-1.376-.827-2.713-1.24-4.088-5.236 0-10.413 0-15.59.019-.197 0-.532.197-.571.354a105.068 105.068 0 00-1.122 3.715zm.492-81.286h-12.579v3.636h11.949c.216-1.219.413-2.398.63-3.636zm.512-3.066c.098-.452.177-.806.236-1.16.315-1.965 1.023-2.574 2.992-2.594h3.445V85.68c-4.41 2.987-8.721 5.896-13.012 8.804.04.06.079.118.099.177h6.24zm-13.13 21.776h5.394c1.889-.02 1.614.216 1.614-1.612.019-2.299 0-2.299-2.303-2.299h-4.705v3.911zm24.881-2.417v-5.837h-5.295c1.791 1.985 3.484 3.832 5.295 5.837zm.02 55.559v-5.699h-5.157c1.732 1.926 3.366 3.714 5.157 5.699zm0-27.888h-5.157c1.752 1.926 3.366 3.715 5.157 5.68v-5.68zm-5.157-22.247c1.752 1.926 3.385 3.734 5.137 5.68v-5.68h-5.137zm-.02 33.332c1.752 1.945 3.405 3.753 5.177 5.699v-5.699h-5.177zm5.157-16.548v-5.641h-5.118c1.733 1.907 3.347 3.695 5.118 5.641zm-1.83 13.501c-1.772-1.945-3.406-3.753-5.158-5.679v5.679h5.158zm-5.158-22.247h5.138a1629.261 1629.261 0 01-5.138-5.68v5.68zm0 44.436h5.158c-1.752-1.926-3.386-3.715-5.158-5.66v5.66zm0-55.579h5.099c-1.733-1.907-3.347-3.695-5.099-5.621v5.621zm5.158 22.267c-1.772-1.966-3.386-3.734-5.138-5.66v5.66h5.138zm-.02 22.208c-1.791-1.966-3.386-3.734-5.118-5.641v5.641h5.118z" fill="#000"/><path d="M143.73 182c-.61-.472-1.201-1.002-.886-1.867.591-1.671 2.126-.845 3.366-1.179v-15.546c0-.354-.019-.727.059-1.081.158-.727.689-1.238 1.378-1.1.512.098 1.024.569 1.378 1.002.197.255.118.747.118 1.14v15.604h10.118v-10.082c0-1.454.709-2.162 2.185-2.181 2.716-.02 5.453-.02 8.169 0 1.575 0 2.244.707 2.244 2.319v9.964h10.118V148.57h-11.102c-1.89 0-2.638-.747-2.658-2.614v-1.887h-19.093v10.927c0 .394 0 .787-.099 1.16-.197.727-.768 1.199-1.457 1.002-.511-.137-.944-.668-1.299-1.1-.177-.216-.078-.629-.078-.963 0-3.695.019-7.41-.02-11.104 0-1.121.216-2.044 1.24-2.712.256-.158.335-.728.335-1.101.019-6.151.019-12.323.019-18.474 0-.334-.019-.649.02-.983.079-.884.65-1.434 1.437-1.434s1.378.53 1.457 1.415c.039.412 0 .845 0 1.336h13.326c.02-.314.059-.609.059-.924.039-1.198.531-1.827 1.457-1.827.944 0 1.496.648 1.496 1.906.019 2.103 0 4.186 0 6.289v6.309h13.385v-2.339c.02-1.278.492-1.926 1.437-1.946.984-.019 1.496.668 1.516 1.985 0 4.383.019 8.785 0 13.168 0 .629.078 1.081.689 1.454.826.511.945 1.415.945 2.339v30.58c.511 0 .964.02 1.397 0 .847-.039 1.614.118 1.929 1.003.315.904-.197 1.493-.925 1.945-14.527.02-29.094.02-43.66.02zm20.334-56.857h-13.267v8.667h13.267v-8.667zm16.299 20.42v-8.687h-13.209v4.265c3.721-.668 4.39 1.474 4.016 4.442 3.169-.02 6.122-.02 9.193-.02zm-11.496 33.45v-9.277h-6.575v9.277h6.575zm-18.07-38.029h13.228v-4.108h-13.228v4.108z" fill="#000"/><path d="M152.804 157.237c0-.983-.019-1.965 0-2.948.04-1.297.689-2.044 1.989-2.083 2.027-.059 4.055-.04 6.102 0 1.319.019 2.008.727 2.027 2.024.04 2.024.04 4.049 0 6.092-.019 1.298-.767 1.966-2.067 1.985-2.007.02-3.996.04-6.003 0-1.28-.019-1.988-.766-2.048-2.024v-3.046zm7.107 2.083v-4.088h-4.095v4.088h4.095zm18.444-2.024c0 .983.02 1.965 0 2.948-.019 1.336-.748 2.064-2.086 2.083-2.008.02-3.996.04-6.004 0-1.26-.019-1.988-.707-2.008-1.945a169.038 169.038 0 010-6.289c.02-1.121.65-1.809 1.772-1.848a89.641 89.641 0 016.476 0c1.181.039 1.811.806 1.831 2.005.039 1.002.019 2.024.019 3.046zm-7.106 2.005h4.114v-4.069h-4.114v4.069z" fill="#000"/><defs><radialGradient id="paint0_radial_617_8" cx="0" cy="0" r="1" gradientUnits="userSpaceOnUse" gradientTransform="matrix(0 64 -64 0 168 155)"><stop stop-color="#007DE7"/><stop offset="1" stop-color="#007DE7" stop-opacity="0"/></radialGradient><filter id="filter0_d_617_8" x=".5" y=".354" width="279.572" height="276.252" filterUnits="userSpaceOnUse" color-interpolation-filters="sRGB"><feFlood flood-opacity="0" result="BackgroundImageFix"/><feColorMatrix in="SourceAlpha" values="0 0 0 0 0 0 0 0 0 0 0 0 0 0 0 0 0 0 127 0" result="hardAlpha"/><feOffset dy="10"/><feGaussianBlur stdDeviation="25"/><feComposite in2="hardAlpha" operator="out"/><feColorMatrix values="0 0 0 0 0.191111 0 0 0 0 0.2304 0 0 0 0 0.266667 0 0 0 0.15 0"/><feBlend in2="BackgroundImageFix" result="effect1_dropShadow_617_8"/><feBlend in="SourceGraphic" in2="effect1_dropShadow_617_8" result="shape"/></filter></defs></svg>