<svg width="24" height="24" viewBox="0 0 24 24" fill="none" xmlns="http://www.w3.org/2000/svg">
<path d="M15.3242 12L23.2928 4.03147C24.2122 3.11202 24.2122 1.62675 23.2928 0.707304C22.3733 -0.235722 20.8881 -0.235722 19.9686 0.683728L12 8.65229L4.03147 0.683728C3.11202 -0.235722 1.60318 -0.235722 0.683728 0.683728C-0.235722 1.60318 -0.235722 3.11202 0.683728 4.03147L8.65229 12L0.683728 19.9686C-0.235722 20.8881 -0.235722 22.3733 0.683728 23.2928C1.15524 23.7643 1.74463 23.9765 2.3576 23.9765C2.97056 23.9765 3.55996 23.7407 4.03147 23.2928L12 15.3242L19.9686 23.2928C20.4401 23.7643 21.0295 23.9765 21.6425 23.9765C22.2554 23.9765 22.8448 23.7407 23.3163 23.2928C24.2358 22.3733 24.2358 20.8881 23.3163 19.9686L15.3242 12Z" fill="black"/>
</svg>
