<svg width="280" height="277" viewBox="0 0 280 277" fill="none" xmlns="http://www.w3.org/2000/svg">
<g filter="url(#filter0_d_667_2)">
<path d="M148.976 45.8646C101.464 33.2591 99.1853 45.5045 87.5894 50.7702C64.0735 61.7557 66.0767 75.7072 52.2934 130.265C38.5101 184.822 91.549 199.893 151.956 215.042C204.281 228.224 227.437 154.566 229.554 125.982C231.892 97.2821 196.487 58.4701 148.976 45.8646Z" fill="white"/>
</g>
<circle cx="112" cy="103" r="64" fill="url(#paint0_radial_667_2)" fill-opacity="0.5"/>
<path d="M148.714 168.68C147.73 168.495 146.747 168.357 145.779 168.142C142.92 167.481 140.416 166.021 137.911 164.607C121.914 155.602 110.035 142.694 101.844 126.328C100.937 124.499 100.369 122.578 100.138 120.55C100.123 120.412 100.046 120.258 100 120.12C100 118.998 100 117.861 100 116.739C100.169 115.863 100.307 114.987 100.522 114.111C101.306 110.945 102.828 108.164 105.087 105.797C106.178 104.645 107.315 103.523 108.452 102.417C110.342 100.573 112.955 100.573 114.829 102.447C118.886 106.474 122.912 110.515 126.939 114.557C128.798 116.431 128.783 119.044 126.939 120.934C125.356 122.548 123.758 124.13 122.159 125.713C120.607 127.265 120.454 128.556 121.668 130.354C122.375 131.414 123.128 132.459 123.865 133.504C124.511 134.411 124.434 135.333 123.665 135.871C122.943 136.378 122.021 136.178 121.406 135.333C120.531 134.104 119.639 132.89 118.825 131.614C117.211 129.125 117.534 126.082 119.624 123.931C121.253 122.256 122.912 120.627 124.557 118.982C125.494 118.045 125.494 117.446 124.557 116.508C120.669 112.605 116.781 108.717 112.878 104.829C111.94 103.892 111.326 103.876 110.404 104.814C108.974 106.289 107.392 107.641 106.193 109.27C102.582 114.219 101.982 119.582 104.702 125.114C109.604 135.072 116.182 143.8 124.449 151.223C130.243 156.417 136.62 160.735 143.643 164.085C149.267 166.79 155.921 165.714 160.485 161.457C161.668 160.351 162.79 159.198 163.912 158.046C164.65 157.293 164.65 156.586 163.897 155.833C159.917 151.837 155.936 147.857 151.941 143.877C151.173 143.109 150.481 143.14 149.682 143.923C148.068 145.537 146.47 147.15 144.841 148.749C142.459 151.1 139.447 151.422 136.681 149.548C134.96 148.38 133.316 147.135 131.656 145.89C130.765 145.229 130.596 144.292 131.149 143.57C131.718 142.817 132.609 142.786 133.516 143.462C135.145 144.661 136.758 145.86 138.418 147.027C139.878 148.042 141.307 147.903 142.582 146.659C144.242 145.03 145.871 143.37 147.531 141.726C149.528 139.743 152.125 139.743 154.138 141.741C158.119 145.706 162.083 149.671 166.033 153.635C168.03 155.633 168.03 158.23 166.048 160.243C164.803 161.503 163.574 162.779 162.268 163.962C159.348 166.59 155.906 168.096 151.987 168.511C151.818 168.526 151.649 168.588 151.465 168.634C150.558 168.68 149.636 168.68 148.714 168.68Z" fill="black"/>
<path d="M147.023 90C148.391 90.1998 149.743 90.3688 151.111 90.5993C164.004 92.9044 174.93 103.323 177.758 116.078C178.126 117.753 178.296 119.459 178.557 121.149C178.587 121.318 178.649 121.487 178.68 121.656C178.68 122.578 178.68 123.5 178.68 124.422C178.618 124.499 178.541 124.561 178.48 124.638C178.05 125.298 177.45 125.56 176.697 125.344C175.944 125.129 175.668 124.545 175.591 123.777C175.33 121.364 175.284 118.89 174.653 116.57C171.411 104.553 163.666 96.946 151.587 93.8725C149.574 93.3654 147.438 93.2886 145.364 93.1042C144.503 93.0273 143.704 92.9812 143.351 92.0438C143.074 91.3216 143.351 90.7223 144.257 90C145.179 90 146.101 90 147.023 90Z" fill="black"/>
<path d="M145.44 99.2357C157.427 99.5123 167.523 108.564 169.182 120.519C169.321 121.533 169.398 122.563 169.428 123.577C169.474 124.684 168.844 125.391 167.907 125.406C166.97 125.421 166.386 124.745 166.355 123.608C166.048 113.681 159.593 105.413 150.158 103.016C148.529 102.601 146.839 102.417 145.164 102.34C143.765 102.278 143.227 101.449 143.258 100.711C143.289 99.7582 144.011 99.2203 145.21 99.2357C145.287 99.2357 145.363 99.2357 145.44 99.2357Z" fill="black"/>
<path d="M145.763 108.517C152.51 108.901 158.411 113.849 159.84 120.719C160.04 121.687 160.132 122.686 160.178 123.684C160.224 124.729 159.563 125.421 158.641 125.421C157.765 125.421 157.151 124.791 157.12 123.761C156.951 117.43 152.51 113.02 147.638 111.929C146.747 111.729 145.825 111.652 144.903 111.575C143.889 111.483 143.243 110.914 143.243 110.038C143.243 109.116 143.935 108.502 144.98 108.502C145.256 108.486 145.502 108.502 145.763 108.517Z" fill="black"/>
<path d="M145.071 117.753C148.268 117.891 150.803 120.442 150.926 123.639C150.957 124.653 150.419 125.344 149.528 125.406C148.667 125.467 148.037 124.914 147.883 123.946C147.576 121.871 146.808 121.088 144.764 120.796C143.75 120.657 143.181 120.012 143.258 119.121C143.365 118.229 144.042 117.707 145.071 117.753Z" fill="black"/>
<path d="M127.262 138.376C128.122 138.376 128.768 139.006 128.783 139.866C128.798 140.742 128.091 141.449 127.246 141.434C126.416 141.418 125.74 140.727 125.74 139.897C125.74 139.052 126.416 138.391 127.262 138.376Z" fill="black"/>
<defs>
<filter id="filter0_d_667_2" x="0.0909424" y="0.354492" width="279.572" height="276.252" filterUnits="userSpaceOnUse" color-interpolation-filters="sRGB">
<feFlood flood-opacity="0" result="BackgroundImageFix"/>
<feColorMatrix in="SourceAlpha" type="matrix" values="0 0 0 0 0 0 0 0 0 0 0 0 0 0 0 0 0 0 127 0" result="hardAlpha"/>
<feOffset dy="10"/>
<feGaussianBlur stdDeviation="25"/>
<feComposite in2="hardAlpha" operator="out"/>
<feColorMatrix type="matrix" values="0 0 0 0 0.191111 0 0 0 0 0.2304 0 0 0 0 0.266667 0 0 0 0.15 0"/>
<feBlend mode="normal" in2="BackgroundImageFix" result="effect1_dropShadow_667_2"/>
<feBlend mode="normal" in="SourceGraphic" in2="effect1_dropShadow_667_2" result="shape"/>
</filter>
<radialGradient id="paint0_radial_667_2" cx="0" cy="0" r="1" gradientUnits="userSpaceOnUse" gradientTransform="translate(112 103) rotate(90) scale(64)">
<stop stop-color="#007DE7"/>
<stop offset="1" stop-color="#007DE7" stop-opacity="0"/>
</radialGradient>
</defs>
</svg>
