<svg width="281" height="277" viewBox="0 0 281 277" fill="none" xmlns="http://www.w3.org/2000/svg">
<g filter="url(#filter0_d_667_4)">
<path d="M149.385 45.8641C101.873 33.2587 99.5945 45.504 87.9986 50.7697C64.4827 61.7552 66.4858 75.7067 52.7026 130.264C38.9193 184.822 91.9581 199.893 152.366 215.042C204.69 228.224 227.846 154.565 229.963 125.982C232.301 97.2816 196.896 58.4696 149.385 45.8641Z" fill="white"/>
</g>
<circle cx="168" cy="155" r="64" fill="url(#paint0_radial_667_4)" fill-opacity="0.5"/>
<path d="M137.897 92.1516C139.541 92.1516 141.17 92.1516 142.814 92.1516C143.014 92.1977 143.198 92.2592 143.398 92.2745C150.098 92.7817 156.245 94.887 161.854 98.5443C162.346 98.8671 162.822 99.1898 163.283 99.4971C166.249 97.7299 169.215 97.9297 171.474 100.02C173.794 102.171 174.102 105.045 172.35 108.579C172.411 108.671 172.473 108.794 172.549 108.886C175.93 113.712 178.158 119.029 179.111 124.853C179.342 126.282 179.495 127.727 179.68 129.171C179.68 130.754 179.68 132.352 179.68 133.935C179.634 134.135 179.588 134.334 179.557 134.534C179.296 136.348 179.127 138.192 178.742 139.99C175.577 155.249 162.545 167.727 147.194 170.217C145.734 170.447 144.259 170.616 142.799 170.816C141.216 170.816 139.618 170.816 138.035 170.816C137.804 170.77 137.589 170.708 137.359 170.693C130.828 170.217 124.804 168.204 119.287 164.7C118.641 164.285 118.011 163.87 117.397 163.455C114.431 165.222 111.465 165.023 109.206 162.933C106.886 160.781 106.578 157.892 108.33 154.373C108.223 154.22 108.115 154.035 108.007 153.866C104.719 149.102 102.537 143.893 101.584 138.176C101.353 136.762 101.184 135.349 101 133.935C101 132.291 101 130.662 101 129.017C101.046 128.772 101.123 128.526 101.138 128.264C101.676 121.549 103.828 115.387 107.546 109.762C108.13 108.871 109.006 108.641 109.775 109.132C110.528 109.624 110.666 110.515 110.128 111.422C109.606 112.298 109.037 113.159 108.545 114.05C107.977 115.095 107.485 116.17 106.916 117.323C111.941 117.323 116.813 117.323 121.684 117.308C121.869 117.308 122.145 117.046 122.222 116.847C123.129 114.449 124.819 112.959 127.355 112.513C127.846 112.421 127.969 112.19 128.046 111.775C128.231 110.853 128.43 109.916 128.646 109.009C129.767 104.384 131.212 99.8967 134.009 95.9627C134.024 95.9319 133.993 95.8705 133.963 95.7936C133.717 95.8397 133.471 95.8705 133.225 95.9166C128.292 96.9001 123.759 98.8517 119.625 101.71C118.749 102.325 117.842 102.186 117.32 101.433C116.797 100.68 116.997 99.7891 117.873 99.1898C122.606 95.9012 127.8 93.7191 133.486 92.7509C134.961 92.5204 136.437 92.3514 137.897 92.1516ZM174.901 142.541C177.19 135.164 177.19 127.819 174.931 120.489C167.924 120.489 160.978 120.489 154.001 120.489C154.124 122.302 154.309 124.069 154.339 125.836C154.385 129.647 154.355 133.459 154.339 137.27C154.339 137.761 154.462 138.007 154.923 138.253C155.63 138.637 156.383 139.068 156.89 139.667C157.597 140.497 158.12 141.511 158.765 142.541C163.99 142.541 169.399 142.541 174.901 142.541ZM105.81 120.427C103.52 127.834 103.52 135.18 105.795 142.51C112.817 142.51 119.748 142.51 126.725 142.51C126.602 140.681 126.417 138.898 126.387 137.116C126.34 133.336 126.371 129.54 126.387 125.76C126.387 125.268 126.31 124.991 125.803 124.776C124.081 124.054 122.914 122.778 122.299 121.026C122.13 120.55 121.915 120.412 121.438 120.412C117.673 120.427 113.908 120.427 110.143 120.427C108.714 120.427 107.285 120.427 105.81 120.427ZM145.949 142.541C146.733 140.051 148.3 138.437 150.805 137.823C151.281 137.7 151.266 137.439 151.266 137.101C151.266 133.182 151.297 129.279 151.235 125.36C151.204 123.731 151.005 122.102 150.882 120.519C150.743 120.473 150.697 120.443 150.636 120.443C145.442 120.443 140.248 120.427 135.054 120.458C134.854 120.458 134.562 120.765 134.485 120.98C133.932 122.44 133.041 123.639 131.673 124.407C130.997 124.791 130.244 125.037 129.475 125.375C129.122 131.061 129.26 136.793 129.86 142.541C135.269 142.541 140.586 142.541 145.949 142.541ZM150.528 117.323C150.252 115.756 150.021 114.25 149.729 112.744C148.884 108.472 147.778 104.276 145.78 100.373C144.981 98.821 144.059 97.3303 142.691 96.2085C141.093 94.9023 139.556 94.8255 138.066 96.2393C136.99 97.2535 136.037 98.4829 135.284 99.7737C132.994 103.738 131.919 108.149 131.027 112.605C130.997 112.79 131.258 113.128 131.473 113.251C132.871 114.081 133.901 115.218 134.424 116.754C134.593 117.262 134.823 117.4 135.346 117.4C140.156 117.384 144.965 117.384 149.791 117.384C150.006 117.354 150.236 117.338 150.528 117.323ZM130.213 145.66C130.382 146.705 130.52 147.673 130.689 148.626C131.488 153.144 132.564 157.585 134.516 161.765C135.407 163.655 136.406 165.453 138.05 166.805C139.618 168.096 141.139 168.173 142.614 166.79C143.705 165.76 144.689 164.516 145.442 163.209C147.716 159.26 148.776 154.88 149.683 150.47C149.714 150.301 149.591 149.994 149.453 149.932C147.67 149.025 146.533 147.581 145.964 145.66C140.709 145.66 135.499 145.66 130.213 145.66ZM146.856 167.159C152.034 166.237 156.875 164.208 161.27 161.089C166.848 157.124 170.967 151.991 173.733 145.66C168.6 145.66 163.575 145.66 158.535 145.66C158.504 145.737 158.458 145.814 158.442 145.875C157.597 148.395 155.891 149.963 153.264 150.439C152.726 150.531 152.757 150.916 152.664 151.269C151.788 154.419 151.051 157.616 149.96 160.689C149.161 162.933 147.901 165.007 146.856 167.159ZM153.617 117.308C160.317 117.308 166.987 117.308 173.917 117.308C172.58 114.941 171.335 112.713 170.091 110.5C167.309 111.653 164.881 111.407 162.807 109.516C160.486 107.396 160.117 104.768 161.27 101.91C158.15 99.2512 149.176 95.5631 146.733 95.9166C151.02 102.386 152.434 109.778 153.617 117.308ZM119.441 161.058C122.714 163.763 131.704 167.451 133.993 167.051C129.69 160.582 128.277 153.159 127.093 145.675C120.378 145.675 113.724 145.675 106.809 145.675C108.13 148.027 109.375 150.239 110.62 152.468C113.601 151.269 116.198 151.607 118.319 153.835C120.27 155.925 120.532 158.399 119.441 161.058ZM124.988 118.86C124.973 120.704 126.479 122.24 128.323 122.271C130.167 122.302 131.719 120.796 131.75 118.967C131.78 117.077 130.259 115.525 128.384 115.525C126.525 115.51 125.003 117.016 124.988 118.86ZM163.713 104.722C163.698 106.566 165.204 108.103 167.048 108.118C168.923 108.133 170.475 106.612 170.475 104.722C170.475 102.878 168.954 101.357 167.094 101.357C165.25 101.372 163.729 102.878 163.713 104.722ZM110.236 158.215C110.236 160.059 111.742 161.596 113.586 161.611C115.43 161.627 116.966 160.121 116.997 158.276C117.028 156.402 115.491 154.85 113.616 154.85C111.757 154.85 110.251 156.371 110.236 158.215ZM155.599 144.169C155.63 142.295 154.186 140.758 152.326 140.712C150.451 140.666 148.869 142.172 148.853 144.046C148.823 145.875 150.344 147.443 152.188 147.458C154.047 147.504 155.569 146.029 155.599 144.169Z" fill="black"/>
<path d="M114.846 105.045C114.862 105.905 114.17 106.597 113.31 106.597C112.495 106.597 111.804 105.905 111.788 105.091C111.773 104.261 112.495 103.523 113.34 103.539C114.155 103.539 114.831 104.23 114.846 105.045Z" fill="black"/>
<defs>
<filter id="filter0_d_667_4" x="0.500122" y="0.354004" width="279.572" height="276.252" filterUnits="userSpaceOnUse" color-interpolation-filters="sRGB">
<feFlood flood-opacity="0" result="BackgroundImageFix"/>
<feColorMatrix in="SourceAlpha" type="matrix" values="0 0 0 0 0 0 0 0 0 0 0 0 0 0 0 0 0 0 127 0" result="hardAlpha"/>
<feOffset dy="10"/>
<feGaussianBlur stdDeviation="25"/>
<feComposite in2="hardAlpha" operator="out"/>
<feColorMatrix type="matrix" values="0 0 0 0 0.191111 0 0 0 0 0.2304 0 0 0 0 0.266667 0 0 0 0.15 0"/>
<feBlend mode="normal" in2="BackgroundImageFix" result="effect1_dropShadow_667_4"/>
<feBlend mode="normal" in="SourceGraphic" in2="effect1_dropShadow_667_4" result="shape"/>
</filter>
<radialGradient id="paint0_radial_667_4" cx="0" cy="0" r="1" gradientUnits="userSpaceOnUse" gradientTransform="translate(168 155) rotate(90) scale(64)">
<stop stop-color="#007DE7"/>
<stop offset="1" stop-color="#007DE7" stop-opacity="0"/>
</radialGradient>
</defs>
</svg>
