<svg width="281" height="277" viewBox="0 0 281 277" fill="none" xmlns="http://www.w3.org/2000/svg">
<g filter="url(#filter0_d_667_3)">
<path d="M149.385 45.8641C101.873 33.2587 99.5945 45.504 87.9986 50.7697C64.4827 61.7552 66.4858 75.7067 52.7026 130.264C38.9193 184.822 91.9581 199.893 152.366 215.042C204.69 228.224 227.846 154.565 229.963 125.982C232.301 97.2816 196.896 58.4696 149.385 45.8641Z" fill="white"/>
</g>
<circle cx="151" cy="115" r="84" fill="url(#paint0_radial_667_3)" fill-opacity="0.5"/>
<path d="M178.68 107.979C178.68 122.225 178.68 136.455 178.68 150.7C178.265 152.344 177.558 153.835 176.083 154.757C175.284 155.264 174.346 155.541 173.455 155.925C150.712 155.925 127.968 155.925 105.225 155.925C104.364 155.556 103.458 155.295 102.659 154.803C101.137 153.881 100.43 152.36 100 150.7C100 136.455 100 122.225 100 107.979C100.43 106.32 101.153 104.798 102.659 103.876C103.442 103.4 104.364 103.123 105.225 102.755C108.406 102.755 111.571 102.755 114.752 102.755C115.659 103.369 115.982 103.953 115.767 104.676C115.536 105.459 114.952 105.813 113.83 105.813C112.709 105.813 111.571 105.813 110.45 105.813C109.005 105.813 107.545 105.813 105.947 105.813C106.224 106.105 106.377 106.289 106.546 106.458C115.844 115.771 125.156 125.068 134.469 134.38C137.358 137.269 141.307 137.254 144.227 134.349C151.08 127.511 157.919 120.657 164.757 113.819C164.926 113.65 165.08 113.466 165.341 113.174C164.911 113.174 164.65 113.174 164.373 113.174C159.271 113.174 154.185 113.174 149.083 113.174C148.821 113.174 148.576 113.189 148.314 113.158C147.5 113.081 146.885 112.39 146.885 111.621C146.901 110.838 147.515 110.192 148.345 110.115C148.606 110.1 148.852 110.1 149.113 110.1C155.337 110.1 161.561 110.1 167.785 110.1C168.061 110.1 168.415 110.115 168.584 109.962C169.951 108.64 171.288 107.273 172.748 105.797C172.287 105.797 171.995 105.797 171.688 105.797C157.35 105.797 143.013 105.797 128.675 105.797C128.398 105.797 128.107 105.813 127.83 105.782C127.154 105.69 126.693 105.321 126.508 104.66C126.324 103.999 126.554 103.462 127.077 103.031C127.215 102.924 127.369 102.831 127.507 102.724C142.828 102.724 158.134 102.724 173.455 102.724C174.269 103.062 175.145 103.308 175.898 103.753C177.466 104.722 178.234 106.258 178.68 107.979ZM127.077 131.338C119.885 138.529 112.77 145.66 105.655 152.759C128.091 152.759 150.619 152.759 173.009 152.759C165.894 145.644 158.749 138.499 151.588 131.338C149.928 132.997 148.207 134.734 146.455 136.47C142.244 140.681 136.405 140.665 132.179 136.455C130.458 134.718 128.721 132.982 127.077 131.338ZM124.48 129.048C117.457 122.025 110.373 114.941 103.073 107.641C103.058 121.979 103.073 136.178 103.073 150.47C110.342 143.186 117.472 136.055 124.48 129.048ZM175.545 150.408C175.56 150.085 175.606 149.809 175.606 149.548C175.606 136.055 175.606 122.563 175.606 109.071C175.606 108.625 175.499 108.195 175.437 107.764C168.292 114.91 161.207 121.994 154.169 129.032C161.207 136.086 168.338 143.201 175.545 150.408Z" fill="black"/>
<path d="M121.668 102.754C121.807 102.862 121.93 102.97 122.068 103.077C122.76 103.646 122.852 104.66 122.268 105.305C121.653 105.997 120.593 105.981 119.978 105.29C119.394 104.629 119.486 103.646 120.193 103.062C120.332 102.954 120.47 102.847 120.593 102.739C120.946 102.754 121.315 102.754 121.668 102.754Z" fill="black"/>
<path d="M143.504 111.652C143.52 112.528 142.828 113.22 141.967 113.204C141.153 113.189 140.446 112.513 140.431 111.698C140.415 110.853 141.153 110.131 141.998 110.146C142.843 110.146 143.504 110.807 143.504 111.652Z" fill="black"/>
<defs>
<filter id="filter0_d_667_3" x="0.500122" y="0.354004" width="279.572" height="276.252" filterUnits="userSpaceOnUse" color-interpolation-filters="sRGB">
<feFlood flood-opacity="0" result="BackgroundImageFix"/>
<feColorMatrix in="SourceAlpha" type="matrix" values="0 0 0 0 0 0 0 0 0 0 0 0 0 0 0 0 0 0 127 0" result="hardAlpha"/>
<feOffset dy="10"/>
<feGaussianBlur stdDeviation="25"/>
<feComposite in2="hardAlpha" operator="out"/>
<feColorMatrix type="matrix" values="0 0 0 0 0.191111 0 0 0 0 0.2304 0 0 0 0 0.266667 0 0 0 0.15 0"/>
<feBlend mode="normal" in2="BackgroundImageFix" result="effect1_dropShadow_667_3"/>
<feBlend mode="normal" in="SourceGraphic" in2="effect1_dropShadow_667_3" result="shape"/>
</filter>
<radialGradient id="paint0_radial_667_3" cx="0" cy="0" r="1" gradientUnits="userSpaceOnUse" gradientTransform="translate(151 115) rotate(90) scale(84)">
<stop stop-color="#FED23D"/>
<stop offset="1" stop-color="#FED23D" stop-opacity="0"/>
</radialGradient>
</defs>
</svg>
