<svg width="20" height="20" viewBox="0 0 20 20" fill="none" xmlns="http://www.w3.org/2000/svg">
<path d="M14.9995 0.00416129L12.406 0C9.49221 0 7.60923 1.93188 7.60923 4.92198V7.19134H5.00156C4.77622 7.19134 4.59375 7.37402 4.59375 7.59935V10.8874C4.59375 11.1127 4.77643 11.2952 5.00156 11.2952H7.60923V19.592C7.60923 19.8173 7.7917 19.9998 8.01704 19.9998H11.4193C11.6446 19.9998 11.8271 19.8171 11.8271 19.592V11.2952H14.8761C15.1014 11.2952 15.2839 11.1127 15.2839 10.8874L15.2851 7.59935C15.2851 7.49116 15.2421 7.38754 15.1657 7.31097C15.0894 7.23441 14.9853 7.19134 14.8771 7.19134H11.8271V5.26757C11.8271 4.34293 12.0475 3.87354 13.2519 3.87354L14.9991 3.87291C15.2242 3.87291 15.4067 3.69023 15.4067 3.46511V0.411968C15.4067 0.18705 15.2244 0.00457742 14.9995 0.00416129Z" fill="#007DE7"/>
</svg>
