<svg width="32" height="32" viewBox="0 0 32 32" fill="none" xmlns="http://www.w3.org/2000/svg">
<circle cx="16" cy="16" r="15" stroke="#007DE7" stroke-width="2"/>
<path d="M14.4322 13.24H17.5522V24H14.4322V13.24ZM15.9922 11.74C15.4189 11.74 14.9522 11.5733 14.5922 11.24C14.2322 10.9067 14.0522 10.4933 14.0522 10C14.0522 9.50667 14.2322 9.09333 14.5922 8.76C14.9522 8.42667 15.4189 8.26 15.9922 8.26C16.5655 8.26 17.0322 8.42 17.3922 8.74C17.7522 9.06 17.9322 9.46 17.9322 9.94C17.9322 10.46 17.7522 10.8933 17.3922 11.24C17.0322 11.5733 16.5655 11.74 15.9922 11.74Z" fill="#007DE7"/>
</svg>
