<svg width="20" height="20" viewBox="0 0 20 20" fill="none" xmlns="http://www.w3.org/2000/svg">
<g clip-path="url(#clip0_1_536)">
<path d="M10 5.87891C7.72766 5.87891 5.87891 7.72766 5.87891 10C5.87891 12.2723 7.72766 14.1211 10 14.1211C12.2723 14.1211 14.1211 12.2723 14.1211 10C14.1211 7.72766 12.2725 5.87891 10 5.87891Z" fill="#007DE7"/>
<path d="M17.9848 2.01523C16.6852 0.715637 14.964 0 13.1381 0H6.86188C5.03601 0 3.31467 0.715637 2.01523 2.01523C0.715637 3.31467 0 5.03601 0 6.86188V13.138C0 14.964 0.715637 16.6853 2.01523 17.9848C3.31467 19.2844 5.03601 20 6.86188 20H13.1381C14.964 20 16.6853 19.2844 17.9848 17.9848C19.2842 16.6853 20 14.964 20 13.138V6.86188C20 5.03601 19.2842 3.31467 17.9848 2.01523ZM10 15.293C7.08145 15.293 4.70703 12.9185 4.70703 10C4.70703 7.08145 7.08145 4.70703 10 4.70703C12.9185 4.70703 15.293 7.08145 15.293 10C15.293 12.9185 12.9185 15.293 10 15.293ZM15.8636 4.96506C15.7547 5.07401 15.6035 5.13657 15.4494 5.13657C15.2951 5.13657 15.1442 5.07401 15.0352 4.96506C14.9258 4.85596 14.8634 4.7049 14.8634 4.55063C14.8634 4.39636 14.9258 4.24515 15.0352 4.1362C15.1442 4.0271 15.295 3.96469 15.4494 3.96469C15.6035 3.96469 15.7547 4.0271 15.8636 4.1362C15.9727 4.24515 16.0353 4.39636 16.0353 4.55063C16.0353 4.70474 15.9727 4.85596 15.8636 4.96506Z" fill="#007DE7"/>
</g>
<defs>
<clipPath id="clip0_1_536">
<rect width="20" height="20" fill="white"/>
</clipPath>
</defs>
</svg>
