<svg width="179" height="22" viewBox="0 0 179 22" fill="none" xmlns="http://www.w3.org/2000/svg">
<g clip-path="url(#clip0_1_544)">
<path d="M158.52 13.4977C156.971 14.6543 155.68 15.614 154.402 16.5737C153.664 17.1274 152.841 17.5704 151.956 17.7796C150.222 18.1733 148.661 16.8321 149.141 15.1834C150.493 10.5324 152.066 5.95518 154.697 1.82095C154.795 1.661 155.029 1.57487 155.189 1.45182C155.668 1.85786 155.336 2.19008 155.164 2.5469C153.246 6.38583 151.82 10.4093 150.64 14.5312C150.468 15.1588 150.161 15.8355 150.689 16.2907C151.28 16.7952 152.103 16.623 152.644 16.1554C155.582 13.6207 159.172 11.7505 160.671 7.7639C161.434 5.74601 162.331 3.72811 163.671 1.98091C164.101 1.41491 164.495 0.836611 165.134 0.492092C165.81 0.122965 166.498 -0.307684 167.285 0.270616C168.109 0.885828 167.543 1.59947 167.334 2.17777C166.351 4.93393 164.544 7.1733 162.749 9.44959C160.204 12.6979 159.43 16.4507 160.192 20.4988C160.29 21.0156 160.819 21.5939 159.995 21.9015C159.147 22.2214 158.95 21.5078 158.692 20.9171C158.127 19.6498 158.237 18.2963 158.237 16.9675C158.25 15.9339 158.397 14.8881 158.52 13.4977ZM164.114 5.00775C165.048 3.91267 165.97 2.78068 166.166 1.25496C165.048 2.2516 164.323 3.46972 164.114 5.00775Z" fill="#3C4044"/>
<path d="M175.227 10.5572C173.702 12.772 171.994 14.2116 170.113 15.4666C169.019 16.2049 167.826 16.8693 166.609 15.9588C165.466 15.0975 165.786 13.7809 166.167 12.6367C167.199 9.43755 168.896 6.63218 171.281 4.23285C172.08 3.42077 173.002 2.78095 174.022 2.28878C175.374 1.63665 176.813 1.42748 177.956 2.55947C179.013 3.60533 178.583 4.9465 178.103 6.1154C177.144 8.47782 176.653 10.951 176.358 13.461C176.173 15.0852 176.309 16.5986 178.386 17.0047C178.681 17.0662 179.148 17.1892 178.952 17.6814C178.841 17.9521 178.521 17.9644 178.226 17.9767C176.284 18.0382 174.993 16.5986 175.042 14.3469C175.067 13.215 175.509 12.1322 175.227 10.5572ZM177.673 4.57737C177.698 3.13777 177.046 2.87938 176.284 2.90399C174.784 2.9409 173.592 3.71607 172.584 4.72502C170.162 7.13665 168.355 9.94202 167.261 13.2027C167.015 13.9286 166.548 14.7038 167.322 15.319C168.195 16.008 168.92 15.2821 169.584 14.8022C172.535 12.6736 174.71 9.8805 176.431 6.73061C176.899 5.88162 177.673 5.15567 177.673 4.57737Z" fill="#3C4044"/>
<path d="M4.86807 11.7505H2.97493V17.9888H0V2.41162H4.6345C8.7527 2.41162 10.8056 3.93735 10.8056 6.9888C10.8056 8.02236 10.5475 8.88366 10.0435 9.56039C9.52716 10.2371 8.7404 10.7908 7.65861 11.2092L11.7399 17.9888H8.31014L4.86807 11.7505ZM2.97493 9.60961H4.8189C5.76547 9.60961 6.47847 9.40043 6.97019 8.99439C7.46192 8.57605 7.70778 7.91162 7.70778 7.00111C7.70778 6.16442 7.46192 5.5492 6.9579 5.16777C6.45388 4.78634 5.66712 4.58947 4.58533 4.58947H2.98723V9.60961H2.97493Z" fill="#3C4044"/>
<path d="M22.7914 2.41162L22.4718 4.62639H16.7309V8.98209H21.7342V11.1969H16.7309V15.774H22.8775V18.0011H13.756V2.41162H22.7914Z" fill="#3C4044"/>
<path d="M28.6676 2.41162V15.5526H34.9002L34.5683 17.9888H25.6926V2.41162H28.6676Z" fill="#3C4044"/>
<path d="M45.7177 3.02702C46.738 3.65453 47.5248 4.57735 48.0657 5.79547C48.6189 7.01359 48.8893 8.4778 48.8893 10.1881C48.8893 11.8861 48.6066 13.338 48.0534 14.5561C47.5002 15.7742 46.7134 16.7093 45.6931 17.3492C44.6728 17.989 43.4681 18.3212 42.0912 18.3212C40.6898 18.3212 39.4851 18.0013 38.4648 17.3738C37.4444 16.7463 36.6577 15.8234 36.1045 14.6053C35.5513 13.3872 35.2686 11.923 35.2686 10.2127C35.2686 8.52702 35.5513 7.07511 36.1045 5.85699C36.6577 4.62657 37.4567 3.69145 38.4771 3.05163C39.5097 2.4118 40.7144 2.07959 42.0912 2.07959C43.4804 2.07959 44.6974 2.3995 45.7177 3.02702ZM39.3376 5.75856C38.7106 6.69368 38.391 8.1825 38.391 10.2127C38.391 14.1008 39.6203 16.0449 42.0789 16.0449C43.2837 16.0449 44.1934 15.5774 44.8203 14.6422C45.4473 13.7071 45.7546 12.2183 45.7546 10.1758C45.7546 8.14558 45.4473 6.66907 44.8203 5.73395C44.1934 4.79883 43.2837 4.33127 42.0789 4.33127C40.8865 4.35588 39.9768 4.82344 39.3376 5.75856Z" fill="#3C4044"/>
<path d="M60.1014 2.48581C60.8021 2.75651 61.5029 3.17485 62.179 3.72854L60.6669 5.48805C59.7449 4.7498 58.7861 4.38067 57.7903 4.38067C56.6348 4.38067 55.7128 4.84823 55.0121 5.78335C54.3114 6.71848 53.9672 8.18268 53.9672 10.176C53.9672 12.1323 54.3114 13.5842 54.9998 14.5317C55.6882 15.4791 56.6225 15.9467 57.7903 15.9467C58.405 15.9467 58.9582 15.8359 59.4376 15.6144C59.917 15.393 60.4334 15.0854 60.9742 14.6793L62.3757 16.4388C61.8471 16.9802 61.1832 17.4355 60.3842 17.7923C59.5851 18.1491 58.6877 18.3337 57.692 18.3337C56.3397 18.3337 55.1473 18.0138 54.1147 17.3863C53.0821 16.7587 52.2707 15.8236 51.7052 14.6055C51.1398 13.3751 50.8447 11.8986 50.8447 10.176C50.8447 8.47798 51.1398 7.02608 51.7298 5.80796C52.3199 4.58984 53.1312 3.66702 54.1639 3.03951C55.1965 2.41199 56.352 2.09208 57.6428 2.09208C58.5771 2.07977 59.4007 2.21512 60.1014 2.48581Z" fill="#3C4044"/>
<path d="M72.7134 17.9888L71.7423 14.3837H66.5792L65.608 17.9888H62.5225L67.3659 2.41162H71.0539L75.8728 17.9888H72.7134ZM67.1815 12.132H71.1399L69.1607 4.68791L67.1815 12.132Z" fill="#3C4044"/>
<path d="M86.4702 2.41162L86.1505 4.77404H82.0938V17.9888H79.0943V4.78634H74.9023V2.41162H86.4702Z" fill="#3C4044"/>
<path d="M91.387 2.41162V17.9888H88.4121V2.41162H91.387Z" fill="#3C4044"/>
<path d="M104.627 3.02702C105.647 3.65453 106.434 4.57735 106.975 5.79547C107.528 7.01359 107.798 8.4778 107.798 10.1881C107.798 11.8861 107.516 13.338 106.962 14.5561C106.409 15.7742 105.622 16.7093 104.602 17.3492C103.582 17.989 102.377 18.3212 101 18.3212C99.5988 18.3212 98.394 18.0013 97.3737 17.3738C96.3534 16.7463 95.5666 15.8234 95.0134 14.6053C94.4602 13.3872 94.1775 11.923 94.1775 10.2127C94.1775 8.52702 94.4602 7.07511 95.0134 5.85699C95.5666 4.62657 96.3657 3.69145 97.386 3.05163C98.4186 2.4118 99.6233 2.07959 101 2.07959C102.402 2.07959 103.606 2.3995 104.627 3.02702ZM98.2588 5.75856C97.6319 6.69368 97.3122 8.1825 97.3122 10.2127C97.3122 14.1008 98.5415 16.0449 101 16.0449C102.205 16.0449 103.115 15.5774 103.742 14.6422C104.368 13.7071 104.676 12.2183 104.676 10.1758C104.676 8.14558 104.368 6.66907 103.742 5.73395C103.115 4.79883 102.205 4.33127 101 4.33127C99.7954 4.35588 98.8858 4.82344 98.2588 5.75856Z" fill="#3C4044"/>
<path d="M122.083 17.9888H118.235L112.888 5.38925C113.023 6.49663 113.121 7.50558 113.195 8.40379C113.256 9.302 113.293 10.3848 113.293 11.6275V17.9888H110.589V2.41162H114.351L119.772 15.0358C119.686 14.4329 119.587 13.6454 119.501 12.6611C119.415 11.6767 119.366 10.6924 119.366 9.72035V2.41162H122.071V17.9888H122.083Z" fill="#3C4044"/>
<path d="M136.281 0.110912C134.929 -0.319737 132.68 0.959905 131.573 3.11315C130.467 5.26639 131.008 5.50017 131.143 6.11539C131.413 7.35812 132.114 7.43194 134.573 8.68697C137.031 9.94201 138.334 7.56729 139.711 4.82344C140.904 2.44872 137.634 0.529256 136.281 0.110912Z" fill="#007DE7"/>
<path d="M136.81 13.4115C135.028 11.775 134.646 12.2549 134.019 12.218C132.741 12.1564 132.507 12.8086 130.651 14.8634C128.795 16.9182 130.762 18.7884 133.048 20.8309C135.028 22.6027 137.732 19.9327 138.482 18.7392C139.244 17.5457 138.593 15.0479 136.81 13.4115Z" fill="#FED23D"/>
</g>
<defs>
<clipPath id="clip0_1_544">
<rect width="179" height="22" fill="white"/>
</clipPath>
</defs>
</svg>
