<svg width="782" height="96" viewBox="0 0 782 96" fill="none" xmlns="http://www.w3.org/2000/svg">
<g clip-path="url(#clip0_1_509)">
<path d="M692.527 58.8993C685.76 63.9463 680.121 68.1342 674.536 72.3222C671.314 74.7383 667.716 76.6712 663.849 77.5839C656.276 79.302 649.456 73.4497 651.55 66.2551C657.458 45.9597 664.332 25.9866 675.825 7.94632C676.255 7.24834 677.275 6.8725 677.973 6.33559C680.068 8.1074 678.618 9.55706 677.866 11.1141C669.488 27.8658 663.258 45.4228 658.102 63.4094C657.35 66.1477 656.008 69.1007 658.317 71.0873C660.895 73.2886 664.493 72.5369 666.856 70.4967C679.692 59.4363 695.374 51.2752 701.926 33.8792C705.255 25.0738 709.176 16.2685 715.03 8.64431C716.909 6.17451 718.628 3.65102 721.421 2.14767C724.374 0.536928 727.382 -1.34227 730.819 1.18122C734.417 3.86579 731.947 6.97988 731.034 9.50337C726.737 21.5302 718.843 31.302 711.002 41.2349C699.885 55.4094 696.501 71.7852 699.831 89.4497C700.261 91.7047 702.57 94.2282 698.972 95.5705C695.266 96.9665 694.407 93.8524 693.279 91.2752C690.809 85.745 691.292 79.8389 691.292 74.0403C691.346 69.5302 691.99 64.9665 692.527 58.8993ZM716.963 21.8524C721.045 17.0738 725.073 12.1342 725.932 5.47653C721.045 9.82552 717.876 15.141 716.963 21.8524Z" fill="#3C4044"/>
<path d="M765.513 46.0673C758.853 55.7317 751.388 62.0136 743.171 67.4901C738.391 70.7115 733.182 73.6109 727.865 69.6377C722.871 65.8793 724.267 60.1344 725.932 55.1411C730.443 41.1813 737.854 28.9397 748.273 18.4699C751.764 14.9263 755.792 12.1344 760.249 9.98671C766.157 7.14107 772.44 6.22832 777.435 11.1679C782.054 15.7317 780.174 21.584 778.08 26.6847C773.891 36.9934 771.742 47.7854 770.453 58.7384C769.648 65.8256 770.239 72.4297 779.315 74.2015C780.604 74.4699 782.644 75.0069 781.785 77.1545C781.302 78.3357 779.906 78.3894 778.617 78.4431C770.131 78.7116 764.492 72.4297 764.707 62.6042C764.814 57.6646 766.748 52.9397 765.513 46.0673ZM776.2 19.9733C776.307 13.6914 773.461 12.5639 770.131 12.6713C763.579 12.8324 758.37 16.2149 753.966 20.6176C743.386 31.1411 735.491 43.3827 730.712 57.6109C729.638 60.7787 727.597 64.1612 730.98 66.8458C734.793 69.8525 737.962 66.6847 740.862 64.5907C753.751 55.3022 763.257 43.1142 770.776 29.3693C772.816 25.6646 776.2 22.4968 776.2 19.9733Z" fill="#3C4044"/>
<path d="M21.2672 51.2751H12.9966V78.4966H0V10.5234H20.2468C38.238 10.5234 47.2068 17.1812 47.2068 30.4966C47.2068 35.0067 46.079 38.765 43.8771 41.7181C41.6215 44.6711 38.1843 47.0872 33.4583 48.9127L51.2884 78.4966H36.3046L21.2672 51.2751ZM12.9966 41.9328H21.0524C25.1877 41.9328 28.3026 41.0201 30.4508 39.2483C32.599 37.4228 33.6731 34.5234 33.6731 30.5503C33.6731 26.8993 32.599 24.2147 30.3971 22.5503C28.1952 20.8859 24.7581 20.0268 20.032 20.0268H13.0503V41.9328H12.9966Z" fill="#3C4044"/>
<path d="M99.5689 10.5234L98.1726 20.1879H73.0923V39.1946H94.9503V48.859H73.0923V68.8322H99.9449V78.5503H60.0957V10.5234H99.5689Z" fill="#3C4044"/>
<path d="M125.241 10.5234V67.8657H152.469L151.019 78.4966H112.244V10.5234H125.241Z" fill="#3C4044"/>
<path d="M199.729 13.208C204.187 15.9462 207.624 19.9731 209.987 25.2885C212.404 30.6039 213.585 36.9932 213.585 44.4563C213.585 51.8657 212.35 58.2012 209.933 63.5167C207.517 68.8321 204.079 72.9126 199.622 75.7046C195.164 78.4965 189.901 79.9462 183.886 79.9462C177.764 79.9462 172.501 78.5502 168.043 75.812C163.586 73.0737 160.149 69.0469 157.732 63.7314C155.315 58.416 154.08 52.0267 154.08 44.5637C154.08 37.208 155.315 30.8724 157.732 25.5569C160.149 20.1878 163.639 16.1073 168.097 13.3153C172.608 10.5234 177.871 9.07373 183.886 9.07373C189.955 9.07373 195.272 10.4697 199.729 13.208ZM171.856 25.1274C169.117 29.208 167.721 35.7046 167.721 44.5637C167.721 61.5301 173.092 70.0133 183.833 70.0133C189.096 70.0133 193.07 67.973 195.809 63.8925C198.548 59.812 199.89 53.3153 199.89 44.4026C199.89 35.5435 198.548 29.1006 195.809 25.02C193.07 20.9395 189.096 18.8992 183.833 18.8992C178.623 19.0066 174.649 21.0469 171.856 25.1274Z" fill="#3C4044"/>
<path d="M262.564 10.8455C265.625 12.0267 268.686 13.8522 271.64 16.2683L265.034 23.9462C261.007 20.7247 256.818 19.114 252.467 19.114C247.419 19.114 243.391 21.1542 240.33 25.2348C237.269 29.3153 235.765 35.7046 235.765 44.4025C235.765 52.9395 237.269 59.275 240.276 63.4093C243.284 67.5435 247.365 69.5838 252.467 69.5838C255.153 69.5838 257.569 69.1005 259.664 68.1341C261.758 67.1677 264.014 65.8254 266.377 64.0536L272.499 71.7314C270.19 74.0938 267.29 76.0804 263.799 77.6375C260.308 79.1945 256.388 79.9999 252.038 79.9999C246.13 79.9999 240.921 78.6039 236.41 75.8656C231.898 73.1274 228.354 69.0468 225.883 63.7314C223.413 58.3623 222.124 51.9193 222.124 44.4025C222.124 36.9932 223.413 30.6576 225.991 25.3421C228.569 20.0267 232.113 15.9999 236.624 13.2616C241.136 10.5234 246.184 9.12738 251.823 9.12738C255.905 9.07369 259.503 9.6643 262.564 10.8455Z" fill="#3C4044"/>
<path d="M317.666 78.4966L313.423 62.765H290.867L286.625 78.4966H273.145L294.304 10.5234H310.416L331.468 78.4966H317.666ZM293.499 52.9395H310.792L302.145 20.4563L293.499 52.9395Z" fill="#3C4044"/>
<path d="M377.762 10.5234L376.366 20.8322H358.643V78.4966H345.539V20.8859H327.226V10.5234H377.762Z" fill="#3C4044"/>
<path d="M399.244 10.5234V78.4966H386.247V10.5234H399.244Z" fill="#3C4044"/>
<path d="M457.084 13.208C461.542 15.9462 464.979 19.9731 467.342 25.2885C469.758 30.6039 470.94 36.9932 470.94 44.4563C470.94 51.8657 469.705 58.2012 467.288 63.5167C464.871 68.8321 461.434 72.9126 456.977 75.7046C452.519 78.4965 447.256 79.9462 441.241 79.9462C435.119 79.9462 429.856 78.5502 425.398 75.812C420.94 73.0737 417.503 69.0469 415.087 63.7314C412.67 58.416 411.435 52.0267 411.435 44.5637C411.435 37.208 412.67 30.8724 415.087 25.5569C417.503 20.1878 420.994 16.1073 425.452 13.3153C429.963 10.5234 435.226 9.07373 441.241 9.07373C447.363 9.07373 452.627 10.4697 457.084 13.208ZM429.265 25.1274C426.526 29.208 425.129 35.7046 425.129 44.5637C425.129 61.5301 430.5 70.0133 441.241 70.0133C446.504 70.0133 450.478 67.973 453.217 63.8925C455.956 59.812 457.299 53.3153 457.299 44.4026C457.299 35.5435 455.956 29.1006 453.217 25.02C450.478 20.9395 446.504 18.8992 441.241 18.8992C435.978 19.0066 432.004 21.0469 429.265 25.1274Z" fill="#3C4044"/>
<path d="M533.345 78.4966H516.536L493.174 23.5167C493.765 28.3489 494.194 32.7516 494.517 36.6711C494.785 40.5906 494.946 45.3154 494.946 50.7382V78.4966H483.131V10.5234H499.565L523.249 65.6107C522.873 62.9798 522.443 59.5436 522.067 55.2483C521.691 50.953 521.476 46.6577 521.476 42.4161V10.5234H533.292V78.4966H533.345Z" fill="#3C4044"/>
<path d="M595.375 0.483134C589.467 -1.39606 579.639 4.18783 574.806 13.5838C569.973 22.9798 572.336 23.9999 572.926 26.6845C574.108 32.1073 577.169 32.4294 587.91 37.9059C598.651 43.3825 604.344 33.02 610.359 21.0469C615.568 10.6845 601.283 2.30864 595.375 0.483134Z" fill="#007DE7"/>
<path d="M597.685 58.5235C589.897 51.3826 588.232 53.4765 585.493 53.3154C579.908 53.047 578.888 55.8926 570.778 64.8591C562.669 73.8255 571.262 81.9866 581.251 90.8993C589.897 98.6309 601.712 86.9799 604.988 81.7718C608.318 76.5638 605.472 65.6644 597.685 58.5235Z" fill="#FED23D"/>
</g>
<defs>
<clipPath id="clip0_1_509">
<rect width="782" height="96" fill="white"/>
</clipPath>
</defs>
</svg>
