<svg width="281" height="277" viewBox="0 0 281 277" fill="none" xmlns="http://www.w3.org/2000/svg">
<g filter="url(#filter0_d_1_1149)">
<path d="M149.494 45.9166C101.944 33.3009 99.6635 45.5561 88.0583 50.8261C64.5234 61.8205 66.5282 75.7832 52.7338 130.385C38.9394 184.986 92.021 200.069 152.477 215.231C204.844 228.423 228.018 154.705 230.137 126.099C232.477 97.3755 197.044 58.5322 149.494 45.9166Z" fill="white"/>
</g>
<ellipse cx="111.5" cy="98" rx="63.5" ry="64" fill="url(#paint0_radial_1_1149)" fill-opacity="0.5"/>
<ellipse cx="169" cy="170.5" rx="53" ry="53.5" fill="url(#paint1_radial_1_1149)" fill-opacity="0.5"/>
<g clip-path="url(#clip0_1_1149)">
<path d="M140.437 92C141.885 92.198 143.347 92.3656 144.795 92.5941C160.059 95.0926 172.932 107.417 176.071 122.56C176.436 124.343 176.604 126.171 176.878 127.968C176.909 128.166 176.97 128.364 177 128.562C177 130.193 177 131.807 177 133.438C176.802 134.87 176.634 136.302 176.406 137.718C175.918 140.78 174.989 143.736 173.755 146.585C173.374 147.468 172.795 147.788 172.125 147.499C171.439 147.194 171.272 146.585 171.653 145.701C173.846 140.613 174.974 135.296 174.669 129.766C173.892 115.75 167.28 105.3 155.017 98.5051C149.258 95.3059 142.966 94.0414 136.385 94.3461C127.641 94.7574 119.978 97.9109 113.427 103.746C113.214 103.929 113.016 104.127 112.802 104.309C112.178 104.843 111.507 104.843 111.05 104.325C110.593 103.807 110.639 103.167 111.248 102.649C112.68 101.43 114.082 100.181 115.605 99.0992C121.166 95.1535 127.366 92.9141 134.13 92.1828C134.664 92.1219 135.182 92.0609 135.715 92C137.284 92 138.868 92 140.437 92Z" fill="black"/>
<path d="M135.562 170C134.085 169.802 132.592 169.665 131.129 169.375C118.972 167.014 109.847 160.402 103.738 149.632C103.311 148.87 103.464 148.184 104.088 147.864C104.728 147.529 105.307 147.758 105.764 148.565C108.948 154.339 113.336 158.955 118.972 162.383C135.959 172.712 158.201 167.547 168.911 150.774C169.017 150.607 169.124 150.424 169.246 150.256C169.703 149.601 170.312 149.434 170.876 149.784C171.455 150.134 171.592 150.835 171.15 151.521C170.51 152.496 169.886 153.486 169.17 154.4C162.558 162.992 153.874 168.065 143.149 169.634C142.25 169.771 141.352 169.863 140.437 169.969C138.807 170 137.193 170 135.562 170Z" fill="black"/>
<path d="M99 128.715C99.198 127.237 99.3504 125.744 99.6094 124.282C100.752 117.761 103.387 111.911 107.501 106.716C108.095 105.955 108.735 105.817 109.314 106.29C109.862 106.747 109.862 107.417 109.268 108.164C105.444 113.023 102.961 118.492 101.879 124.571C100.721 131 101.285 137.292 103.464 143.446C103.875 144.604 103.723 145.244 102.946 145.488C102.199 145.732 101.712 145.366 101.3 144.239C100.127 140.902 99.3656 137.475 99.1219 133.94C99.1066 133.727 99.0457 133.498 99 133.285C99 131.762 99 130.238 99 128.715Z" fill="black"/>
<path d="M137.909 151.627C131.419 151.551 125.538 147.56 123.131 141.527C122.796 140.689 122.979 140.08 123.619 139.79C124.289 139.486 124.868 139.806 125.249 140.689C127.214 145.244 130.611 148.047 135.471 149.022C141.504 150.226 147.857 146.874 150.34 141.207C150.416 141.024 150.507 140.841 150.584 140.643C150.949 139.806 151.513 139.501 152.168 139.775C152.823 140.049 153.036 140.689 152.701 141.497C150.964 145.686 148.024 148.687 143.82 150.409C142.936 150.774 141.991 151.048 141.062 151.231C140.041 151.429 138.96 151.49 137.909 151.627Z" fill="black"/>
<path d="M126.62 120.153C126.635 122.194 125.02 123.84 122.979 123.84C120.968 123.855 119.292 122.179 119.307 120.168C119.323 118.173 120.937 116.543 122.933 116.527C124.975 116.497 126.62 118.112 126.62 120.153Z" fill="black"/>
<path d="M149.38 120.199C149.365 118.173 150.949 116.543 152.96 116.527C155.002 116.497 156.677 118.112 156.693 120.138C156.708 122.149 155.032 123.84 153.021 123.825C151.01 123.825 149.395 122.21 149.38 120.199Z" fill="black"/>
</g>
<defs>
<filter id="filter0_d_1_1149" x="0.529541" y="0.401855" width="279.717" height="276.394" filterUnits="userSpaceOnUse" color-interpolation-filters="sRGB">
<feFlood flood-opacity="0" result="BackgroundImageFix"/>
<feColorMatrix in="SourceAlpha" type="matrix" values="0 0 0 0 0 0 0 0 0 0 0 0 0 0 0 0 0 0 127 0" result="hardAlpha"/>
<feOffset dy="10"/>
<feGaussianBlur stdDeviation="25"/>
<feComposite in2="hardAlpha" operator="out"/>
<feColorMatrix type="matrix" values="0 0 0 0 0.191111 0 0 0 0 0.2304 0 0 0 0 0.266667 0 0 0 0.15 0"/>
<feBlend mode="normal" in2="BackgroundImageFix" result="effect1_dropShadow_1_1149"/>
<feBlend mode="normal" in="SourceGraphic" in2="effect1_dropShadow_1_1149" result="shape"/>
</filter>
<radialGradient id="paint0_radial_1_1149" cx="0" cy="0" r="1" gradientUnits="userSpaceOnUse" gradientTransform="translate(111.5 98) rotate(90) scale(64 63.5)">
<stop stop-color="#007DE7"/>
<stop offset="1" stop-color="#007DE7" stop-opacity="0"/>
</radialGradient>
<radialGradient id="paint1_radial_1_1149" cx="0" cy="0" r="1" gradientUnits="userSpaceOnUse" gradientTransform="translate(169 170.5) rotate(90) scale(53.5 53)">
<stop stop-color="#FED23D"/>
<stop offset="1" stop-color="#FED23D" stop-opacity="0"/>
</radialGradient>
<clipPath id="clip0_1_1149">
<rect width="78" height="78" fill="white" transform="translate(99 92)"/>
</clipPath>
</defs>
</svg>
