<svg width="272" height="46" viewBox="0 0 272 46" fill="none" xmlns="http://www.w3.org/2000/svg">
<path d="M39.606 0.0123291C39.606 0.912356 39.5937 1.81238 39.5937 2.72474C39.5937 14.8196 39.5937 26.9145 39.606 39.0094C39.606 39.5395 39.5076 39.7245 38.9174 39.7245C32.9415 39.6998 26.9534 39.6998 20.9775 39.7245C20.4365 39.7245 20.2889 39.6012 20.3012 39.0587C20.3381 37.3573 20.375 35.6435 20.2889 33.9421C20.0922 30.4776 19.3176 27.1734 17.1043 24.387C15.3459 22.1801 12.9974 20.8362 10.3046 20.1088C8.32492 19.5787 6.30838 19.3321 4.26724 19.3567C2.8532 19.3691 1.43916 19.3567 0.025116 19.3567C0.025116 13.0689 0.025116 6.78102 0.01282 0.493165C0.000524001 0.0863039 0.086596 0 0.50466 0C13.5384 0.0123291 26.5722 0.0123291 39.606 0.0123291ZM19.7971 8.27285C16.1083 8.27285 12.4195 8.28518 8.74298 8.26052C8.30033 8.26052 8.079 8.32217 8.11589 8.83999C8.16507 9.55508 8.14048 10.2825 8.12818 10.9976C8.11589 11.3305 8.22655 11.4414 8.57084 11.4908C9.65289 11.6634 10.7349 11.836 11.7924 12.1072C16.1944 13.2292 20.0307 15.3005 23.0186 18.8143C26.0312 22.3527 27.5436 26.52 28.1584 31.0694C28.2076 31.4763 28.3182 31.5996 28.7117 31.5872C29.4126 31.5626 30.1011 31.5503 30.802 31.5872C31.2816 31.6119 31.4168 31.4763 31.4168 30.9831C31.4045 23.6103 31.4045 16.2375 31.4168 8.86465C31.4168 8.38381 31.2939 8.24819 30.8143 8.26052C27.1255 8.27285 23.4613 8.27285 19.7971 8.27285Z" fill="#3CB43B"/>
<path d="M72.3133 45.9999C72.3133 38.3558 72.3133 30.7118 72.301 23.0677C72.301 22.5499 72.424 22.4142 72.9404 22.4266C74.4774 22.4636 76.0144 22.4512 77.5514 22.4266C77.9941 22.4142 78.1293 22.5499 78.0801 22.9814C78.0433 23.3266 78.0433 23.6841 78.0556 24.0294C78.0556 24.165 77.908 24.3253 78.0679 24.4239C78.2523 24.5225 78.363 24.3376 78.4736 24.2266C79.2606 23.4252 80.1828 22.8581 81.2156 22.4512C84.4126 21.1813 89.3925 21.7115 91.9009 24.5102C93.069 25.8048 93.7453 27.3336 94.0404 29.0227C94.3847 31.0323 94.274 33.005 93.5116 34.916C92.5403 37.3325 90.8065 38.9476 88.335 39.7367C85.4578 40.6614 82.6543 40.5381 79.9614 39.0832C79.445 38.7997 78.9901 38.4175 78.4736 37.949C78.4736 40.686 78.4736 43.3368 78.4736 45.9999C76.4079 45.9999 74.3668 45.9999 72.3133 45.9999ZM87.8063 31.3282C87.8186 30.0583 87.6956 29.109 87.3513 28.2089C86.5767 26.1993 85.0274 25.213 82.8264 25.2623C80.7853 25.3116 79.3466 26.2363 78.6089 28.1596C78.117 29.4172 78.0801 30.7241 78.2031 32.068C78.449 34.8297 80.0352 37.0736 83.3428 36.8763C84.6462 36.8023 85.7774 36.3462 86.6013 35.2365C87.5235 33.979 87.7571 32.5365 87.8063 31.3282Z" fill="#3CB43B"/>
<path d="M0.0128174 24.1775C0.234146 24.1898 0.455474 24.2145 0.689098 24.2145C5.39847 24.2145 10.1078 24.2268 14.8172 24.2021C15.3705 24.2021 15.4935 24.3501 15.4812 24.8803C15.4566 29.627 15.4566 34.3614 15.4812 39.1081C15.4812 39.5889 15.3705 39.7245 14.8787 39.7245C9.9234 39.6999 4.96811 39.7122 0.0128174 39.7122C0.0128174 34.534 0.0128174 29.3557 0.0128174 24.1775Z" fill="#1B1A1A"/>
<path d="M272 39.7122C269.91 39.6999 267.819 39.6752 265.729 39.7122C265.077 39.7245 264.684 39.4903 264.278 39.0341C262.286 36.7409 260.27 34.46 258.241 32.1544C257.995 32.3517 258.093 32.5859 258.093 32.7955C258.081 34.9161 258.081 37.0244 258.093 39.145C258.093 39.5519 258.007 39.7122 257.565 39.7122C255.868 39.6875 254.159 39.6875 252.462 39.7122C252.068 39.7122 251.945 39.6135 251.945 39.2067C251.958 33.7819 251.958 28.357 251.945 22.9446C251.945 22.5747 252.031 22.4514 252.425 22.4637C254.146 22.4884 255.868 22.4884 257.589 22.4637C257.983 22.4637 258.106 22.5624 258.106 22.9692C258.081 25.0775 258.093 27.1981 258.093 29.2817C258.917 28.505 259.778 27.7529 260.565 26.9392C261.942 25.5337 263.27 24.0912 264.623 22.661C264.721 22.5624 264.819 22.4637 264.979 22.4637C267.155 22.4637 269.344 22.4637 271.644 22.4637C270.586 23.487 269.615 24.4117 268.643 25.3364C267.131 26.7789 265.618 28.2091 264.106 29.6516C263.172 30.5516 263.172 30.5393 264.094 31.4886C266.565 34.0038 269.024 36.5313 271.496 39.0464C271.644 39.2067 271.754 39.4286 272 39.4656C272 39.5519 272 39.6259 272 39.7122Z" fill="#3CB43B"/>
<path d="M181.035 27.7899C181.035 24.0296 181.047 20.2692 181.022 16.5088C181.022 16.028 181.133 15.8923 181.625 15.8923C188.609 15.9047 195.593 15.9047 202.577 15.8923C203.045 15.8923 203.155 16.0156 203.143 16.4718C203.106 17.6061 203.094 18.728 203.143 19.8623C203.167 20.4048 202.971 20.4788 202.491 20.4788C197.819 20.4664 193.146 20.4788 188.474 20.4541C187.908 20.4541 187.687 20.5404 187.724 21.1692C187.785 22.1925 187.761 23.2282 187.724 24.2515C187.711 24.6953 187.847 24.794 188.277 24.794C190.822 24.7693 193.355 24.7447 195.901 24.794C198.237 24.8433 200.499 25.3118 202.491 26.6433C204.274 27.8269 205.135 29.5407 205.344 31.649C205.528 33.4983 205.172 35.1874 203.967 36.6176C202.848 37.9368 201.323 38.6149 199.688 39.0588C198.089 39.5026 196.442 39.6506 194.794 39.6629C190.392 39.6876 185.99 39.6629 181.576 39.6876C181.059 39.6876 180.985 39.5026 180.985 39.0588C181.047 35.3107 181.035 31.5503 181.035 27.7899ZM191.437 35.0518C191.966 35.0518 192.507 35.0518 193.036 35.0518C194.191 35.0518 195.36 35.0518 196.478 34.6573C198.384 33.9792 198.852 31.8092 197.388 30.4037C196.515 29.5777 195.396 29.4051 194.29 29.3681C192.261 29.3064 190.232 29.3557 188.203 29.3434C187.859 29.3434 187.748 29.4297 187.748 29.7873C187.773 31.3901 187.773 32.9928 187.748 34.5956C187.748 35.0025 187.896 35.0641 188.24 35.0641C189.31 35.0395 190.38 35.0518 191.437 35.0518Z" fill="#3CB43B"/>
<path d="M56.9428 15.9169C60.73 15.9169 64.5295 15.9292 68.3167 15.9045C68.8208 15.9045 69.0052 15.9662 69.0052 16.558C68.9806 24.0541 68.9806 31.5625 69.0052 39.0586C69.0052 39.5518 68.9069 39.7244 68.3781 39.7121C66.5706 39.6751 64.7754 39.6751 62.9679 39.7121C62.4392 39.7244 62.3408 39.5518 62.3408 39.0586C62.3531 33.116 62.3408 27.1857 62.3654 21.243C62.3654 20.5896 62.1809 20.4663 61.5661 20.4663C58.4307 20.5033 55.2952 20.491 52.1597 20.4663C51.6433 20.4663 51.508 20.6143 51.508 21.1198C51.5203 27.0747 51.508 33.042 51.5326 38.997C51.5326 39.5641 51.3973 39.7121 50.8317 39.6998C49.0119 39.6628 47.1798 39.6751 45.36 39.6998C44.9911 39.6998 44.8682 39.6135 44.8682 39.2189C44.8805 31.5995 44.8805 23.9678 44.8682 16.3484C44.8682 15.8306 45.1387 15.9045 45.4461 15.9045C49.2824 15.9169 53.1188 15.9169 56.9428 15.9169Z" fill="#3CB43B"/>
<path d="M133.338 30.7488C133.818 30.8598 134.31 30.9461 134.789 31.094C136.252 31.5502 137.58 32.179 138.023 33.8188C138.404 35.2119 138.343 36.5928 137.408 37.7764C136.683 38.7011 135.613 39.0833 134.506 39.3299C133.388 39.5765 132.244 39.6751 131.113 39.6751C127.055 39.6998 122.997 39.6751 118.952 39.6998C118.522 39.6998 118.399 39.5888 118.411 39.1573C118.423 33.7571 118.423 28.3569 118.411 22.9568C118.411 22.5623 118.497 22.439 118.915 22.439C123.256 22.4513 127.596 22.4266 131.937 22.4636C133.092 22.476 134.236 22.6732 135.318 23.1787C136.658 23.8075 137.396 24.8431 137.482 26.3226C137.58 27.9501 136.855 29.146 135.453 29.9474C134.789 30.305 134.076 30.5392 133.338 30.7488ZM127.338 32.4256C126.44 32.4256 125.703 32.4379 124.965 32.4256C124.694 32.4256 124.547 32.4626 124.559 32.7831C124.571 33.8311 124.571 34.8791 124.559 35.927C124.559 36.1983 124.657 36.2846 124.916 36.2723C126.563 36.2229 128.223 36.3832 129.871 36.1366C130.682 36.0133 131.506 35.8284 131.814 34.916C132.183 33.8064 131.482 32.8324 130.166 32.5735C129.182 32.3516 128.174 32.4626 127.338 32.4256ZM127.092 25.9035C126.317 25.9035 125.69 25.9281 125.051 25.8911C124.633 25.8665 124.534 26.0267 124.559 26.4089C124.584 27.1857 124.584 27.9624 124.559 28.7515C124.547 29.109 124.62 29.257 125.026 29.2446C126.453 29.1953 127.891 29.331 129.305 29.109C129.945 29.0104 130.596 28.8748 130.977 28.2583C131.531 27.346 130.916 26.298 129.699 26.0391C128.801 25.8295 127.879 25.9281 127.092 25.9035Z" fill="#3CB43B"/>
<path d="M226.628 30.4899C226.628 32.7215 226.628 34.9654 226.628 37.197C226.628 37.6161 226.727 37.9983 226.825 38.3929C226.923 38.8244 227.218 39.0956 227.6 39.2929C227.723 39.3546 227.907 39.3546 227.858 39.5641C227.821 39.7368 227.673 39.6874 227.563 39.6874C225.62 39.6874 223.677 39.6751 221.722 39.6998C221.402 39.6998 221.378 39.5148 221.292 39.3052C221.12 38.8737 221.156 38.1956 220.788 38.06C220.431 37.9244 220.136 38.5655 219.755 38.7997C218.353 39.6505 216.841 40.0573 215.218 40.2299C213.385 40.4272 211.602 40.3039 209.869 39.6998C207.951 39.034 206.758 37.6655 206.659 35.5942C206.561 33.6215 207.348 32.105 209.598 31.1187C211.393 30.3296 213.336 30.0707 215.267 29.8488C216.558 29.7008 217.861 29.6515 219.14 29.4049C219.865 29.2693 220.505 29.0227 220.615 28.1967C220.738 27.235 220.603 26.2857 219.656 25.8048C217.972 24.9541 216.238 25.0281 214.578 25.9281C213.914 26.2857 213.594 26.9514 213.508 27.7035C213.484 27.9871 213.373 28.0364 213.139 28.0241C211.418 28.0118 209.697 28.0118 207.975 28.0241C207.655 28.0241 207.606 27.9131 207.643 27.6295C207.951 25.1761 209.365 23.5979 211.602 22.7349C213.189 22.1184 214.849 21.8718 216.545 21.8472C218.685 21.8225 220.824 21.8718 222.866 22.5993C224.636 23.228 226.026 24.2637 226.554 26.1747C226.677 26.6309 226.776 27.0871 226.763 27.5556C226.751 28.5419 226.763 29.5282 226.763 30.5146C226.714 30.4899 226.665 30.4899 226.628 30.4899ZM220.615 31.4516C219.3 31.9817 217.984 32.179 216.656 32.3393C215.66 32.4626 214.676 32.6475 213.779 33.227C212.746 33.8927 212.562 35.8408 213.988 36.4325C214.443 36.6175 214.898 36.7778 215.377 36.8271C217.136 37.012 218.673 36.5805 219.841 35.1503C220.726 34.0777 220.64 32.8078 220.615 31.4516Z" fill="#3CB43B"/>
<path d="M157.131 39.6873C156.209 39.6873 155.286 39.675 154.364 39.6873C154.044 39.6873 153.885 39.601 153.811 39.2681C153.712 38.8366 153.651 38.1585 153.393 38.0599C153.036 37.9242 152.717 38.516 152.348 38.7503C151.02 39.5887 149.556 40.0079 147.995 40.2051C146.347 40.4147 144.724 40.3531 143.138 39.9216C141.257 39.4161 139.757 38.4421 139.314 36.3461C138.859 34.2378 139.707 32.3391 141.601 31.3528C142.953 30.6501 144.404 30.3418 145.892 30.0829C147.81 29.75 149.778 29.713 151.696 29.3802C152.507 29.2322 153.085 28.8747 153.171 28.0116C153.258 27.1856 153.073 26.4335 152.372 25.891C151.991 25.6074 151.561 25.4225 151.093 25.3609C149.815 25.1883 148.548 25.1389 147.343 25.7431C146.593 26.1253 146.138 26.7171 146.089 27.5554C146.064 27.9746 145.868 27.9993 145.536 27.987C143.913 27.9746 142.302 27.9623 140.679 27.9993C140.199 28.0116 140.125 27.8144 140.187 27.4198C140.507 25.3115 141.662 23.8444 143.556 22.9443C145.241 22.143 147.036 21.8471 148.88 21.8101C150.958 21.7731 153.036 21.7854 155.053 22.4389C156.504 22.895 157.782 23.6101 158.606 24.954C159.172 25.891 159.369 26.939 159.332 27.9993C159.221 30.7857 159.27 33.5844 159.221 36.3708C159.209 37.0489 159.16 37.727 159.369 38.3804C159.492 38.7626 159.688 39.0709 160.07 39.2558C160.18 39.3051 160.402 39.3051 160.352 39.5147C160.303 39.749 160.094 39.675 159.947 39.675C159.024 39.6996 158.078 39.6873 157.131 39.6873ZM153.196 31.4515C151.88 31.9816 150.528 32.1789 149.163 32.3515C148.241 32.4624 147.319 32.6227 146.507 33.1282C145.868 33.5227 145.499 34.1022 145.486 34.8296C145.474 35.5447 145.88 36.0502 146.495 36.3831C148.118 37.2585 150.602 36.9009 151.942 35.6557C153.184 34.5091 153.294 33.0542 153.196 31.4515Z" fill="#3CB43B"/>
<path d="M229.457 31.0816C229.457 28.3939 229.469 25.6938 229.444 23.006C229.444 22.5375 229.567 22.4266 230.022 22.4389C231.707 22.4635 233.379 22.4759 235.064 22.4389C235.555 22.4266 235.629 22.5992 235.617 23.0307C235.592 24.7938 235.617 26.5691 235.592 28.3322C235.592 28.7637 235.666 28.9363 236.158 28.924C238.285 28.8994 240.425 28.8994 242.552 28.924C243.031 28.924 243.13 28.7637 243.117 28.3199C243.093 26.5322 243.117 24.7444 243.105 22.9567C243.105 22.5745 243.179 22.4266 243.609 22.4389C245.331 22.4635 247.052 22.4635 248.774 22.4389C249.155 22.4389 249.253 22.5375 249.253 22.9197C249.241 28.3445 249.241 33.7694 249.253 39.1942C249.253 39.6134 249.118 39.712 248.724 39.6997C247.028 39.675 245.318 39.675 243.622 39.6997C243.228 39.6997 243.105 39.601 243.105 39.1942C243.13 37.1229 243.105 35.0393 243.13 32.968C243.13 32.5118 243.031 32.3638 242.552 32.3762C240.425 32.4008 238.285 32.4008 236.158 32.3762C235.666 32.3638 235.605 32.5611 235.605 32.9803C235.629 35.0393 235.592 37.0859 235.629 39.1449C235.642 39.6257 235.494 39.7243 235.039 39.712C233.354 39.6873 231.682 39.6873 229.998 39.712C229.567 39.7243 229.457 39.5887 229.457 39.1695C229.469 36.4694 229.457 33.7694 229.457 31.0816Z" fill="#3CB43B"/>
<path d="M109.57 37.5793C108.39 38.6273 107.197 39.441 105.758 39.8725C103.754 40.4643 101.738 40.5136 99.7457 39.9095C97.5816 39.2561 96.3766 37.6903 95.9216 35.4957C95.7741 34.7929 95.7126 34.0778 95.7126 33.3627C95.7003 29.9106 95.7126 26.4584 95.7003 23.0063C95.7003 22.5501 95.811 22.4145 96.2782 22.4268C97.9751 22.4514 99.6842 22.4514 101.381 22.4268C101.824 22.4145 101.922 22.5501 101.922 22.9816C101.91 26.0639 101.91 29.1462 101.922 32.2284C101.922 32.9189 101.922 33.6093 102.07 34.2997C102.34 35.6559 103.029 36.556 104.467 36.7902C106.299 37.0861 107.984 36.6176 108.919 35.0148C109.41 34.1765 109.583 33.2271 109.595 32.2654C109.607 29.1832 109.607 26.1009 109.595 23.0186C109.595 22.5747 109.681 22.4268 110.16 22.4391C111.857 22.4761 113.566 22.4638 115.263 22.4391C115.669 22.4391 115.767 22.5501 115.767 22.9569C115.755 28.3571 115.755 33.7573 115.767 39.1574C115.767 39.5889 115.657 39.7122 115.226 39.6999C113.53 39.6752 111.82 39.6752 110.124 39.6999C109.73 39.6999 109.57 39.6136 109.607 39.1944C109.595 38.6889 109.57 38.1834 109.57 37.5793Z" fill="#3CB43B"/>
<path d="M169.943 22.4513C173.054 22.4513 176.165 22.4636 179.276 22.439C179.768 22.439 179.903 22.5746 179.878 23.0554C179.841 23.8322 179.841 24.6212 179.878 25.398C179.891 25.8048 179.768 25.9158 179.362 25.9158C177.481 25.8911 175.599 25.9281 173.706 25.8911C173.177 25.8788 172.993 25.9898 172.993 26.5816C173.017 30.7241 172.993 34.8791 173.029 39.0217C173.029 39.6134 172.857 39.7244 172.316 39.7121C170.693 39.6751 169.082 39.6751 167.459 39.7121C166.968 39.7244 166.845 39.5888 166.857 39.108C166.881 34.916 166.857 30.7365 166.881 26.5446C166.881 26.0391 166.771 25.8911 166.254 25.9035C164.349 25.9404 162.443 25.9035 160.537 25.9281C160.143 25.9281 159.996 25.8418 160.008 25.4226C160.045 24.5966 160.045 23.7828 160.008 22.9568C159.983 22.5253 160.168 22.4636 160.537 22.4636C163.672 22.4513 166.808 22.4513 169.943 22.4513Z" fill="#3CB43B"/>
</svg>
