<svg width="280" height="80" viewBox="0 0 280 80" fill="none" xmlns="http://www.w3.org/2000/svg">
<path d="M280 39.6186C277.103 39.5738 273.759 40.4262 271.441 39.2148C269.257 38.0931 268.142 34.8626 266.493 32.5294C265.601 31.2731 264.665 30.0617 263.863 28.94C260.297 30.645 259.94 33.7409 260.341 37.0611C260.564 38.9007 260.118 39.7084 258.023 39.6186C252.807 39.484 252.807 39.5737 252.807 34.369C252.807 23.6007 252.852 12.8772 252.763 2.10881C252.763 0.448682 253.119 0 254.813 0C260.341 0.179473 260.341 0.0897363 260.341 5.60852C260.341 11.3965 260.341 17.2294 260.341 23.6455C263.239 20.2804 265.735 17.3191 268.321 14.4027C269.257 13.3259 269.881 11.4863 271.263 11.3068C273.804 10.9478 276.434 11.0376 279.02 11.2619C280.312 11.3965 279.287 12.249 278.975 12.6528C276.434 15.6141 273.804 18.5306 271.218 21.5367C268.767 24.4083 268.811 23.7801 270.995 26.6068C274.027 30.5104 276.657 34.6831 280 38.3174C280 38.7213 280 39.1699 280 39.6186Z" fill="#070707"/>
<path d="M5.394 79.9999C4.23495 78.7436 2.36264 78.7436 1.24817 77.2629C0.534903 76.3207 0.0445353 75.4233 0.0445353 74.2567C0.0445353 69.5456 0.0891142 64.8344 -4.36078e-05 60.1233C-0.0446225 58.7324 0.445745 58.3285 1.78311 58.3285C3.0759 58.3285 3.61085 58.6426 3.61085 60.0784C3.52169 63.9819 3.56627 67.8406 3.65543 71.7441C3.7 74.6606 5.34942 76.545 7.7121 76.7245C10.2085 76.904 11.9471 75.4682 12.482 72.462C13.1062 68.5585 12.6158 64.5652 12.7495 60.6168C12.7941 58.5529 13.6857 57.8799 15.6917 58.4183C16.2713 58.5977 16.6279 58.867 16.5833 59.4951C16.4941 63.9819 16.8508 68.4688 16.405 72.9107C16.0484 75.7374 14.711 77.8462 12.0363 78.9679C11.5905 79.1474 10.8326 79.282 10.7435 80.0447C8.96031 79.9999 7.17716 79.9999 5.394 79.9999Z" fill="#616161"/>
<path d="M161.866 80.0002C161.152 79.2823 160.305 78.699 159.726 77.8914C158.032 75.5134 158.923 72.1483 161.776 70.7574C163.292 69.9946 164.986 69.6356 166.591 69.0524C167.037 68.8729 167.75 69.0075 167.795 68.3793C167.839 67.7512 167.349 67.3025 166.858 66.9884C165.477 66.0911 164.139 66.6295 162.802 67.0782C161.955 67.3922 161.108 68.0204 160.573 66.8089C160.038 65.5526 161.197 65.2834 161.91 64.9245C164.362 63.6233 166.948 63.7579 169.399 64.745C171.406 65.5975 171.985 67.4371 172.03 69.501C172.074 72.4623 171.807 75.4685 172.297 78.4298C172.386 78.9234 172.431 79.4169 171.807 79.4169C170.692 79.4169 169.043 80.0899 168.508 78.9682C167.616 77.0838 166.948 78.2055 166.056 78.699C165.254 79.1477 164.451 79.5964 163.604 80.0002C163.069 80.0002 162.445 80.0002 161.866 80.0002ZM168.018 72.3726C167.884 71.9239 168.374 70.7125 167.126 71.0266C165.878 71.3406 164.496 71.565 163.649 72.7764C162.713 74.0776 162.445 75.6031 163.738 76.5902C165.12 77.6222 166.368 76.5902 167.171 75.289C167.661 74.4365 168.107 73.584 168.018 72.3726Z" fill="#616161"/>
<path d="M111.492 80.0002C111.314 79.7759 111.136 79.5515 110.957 79.372C107.302 76.7248 107.703 72.4623 111.804 70.5779C113.32 69.86 114.969 69.3216 116.619 68.9178C117.822 68.6037 117.644 68.155 117.065 67.482C116.128 66.4051 114.925 66.2257 113.632 66.6743C112.919 66.8987 112.25 67.2128 111.537 67.4371C110.868 67.7063 110.467 67.3922 110.11 66.7641C109.709 66.0462 110.021 65.8218 110.601 65.418C113.231 63.5336 117.644 63.5336 119.962 65.3732C120.854 66.0911 121.3 66.8987 121.478 67.9755C122.102 71.5201 121.21 75.1544 122.057 78.6542C122.147 79.1028 121.834 79.5066 121.478 79.372C120.185 78.9682 118.268 80.6732 117.644 78.1606C117.466 77.4427 116.931 77.8914 116.619 78.0709C115.638 78.699 114.702 79.372 113.721 80.0002C112.963 80.0002 112.25 80.0002 111.492 80.0002ZM117.51 70.8471C116.128 70.9817 114.88 71.565 113.766 72.238C112.607 72.911 112.384 74.1673 112.607 75.3788C112.74 76.0967 112.963 76.8594 113.944 76.9043C115.192 76.994 115.95 76.4107 116.663 75.3788C117.599 73.9879 117.822 72.5521 117.51 70.8471Z" fill="#616161"/>
<path d="M70.4792 80C70.4347 79.1027 69.5877 79.1027 69.0527 78.8335C66.1551 77.1733 64.9514 74.7056 65.0406 71.4302C65.0852 68.3792 66.4226 66.2255 69.0973 64.7897C73.6889 62.3668 78.9492 65.373 79.3059 70.5777C79.395 71.8789 78.8601 72.3276 77.6564 72.2827C75.4275 72.2378 73.1985 72.3276 70.9696 72.2827C69.3648 72.2378 69.231 72.9557 69.7214 74.2569C70.7021 76.7695 73.1985 77.8015 76.2299 76.6798C77.3444 76.276 78.1468 76.1414 78.548 77.2631C79.0384 78.6091 77.701 78.4745 77.0323 78.9681C76.2745 79.5514 75.0709 79.1027 74.4913 80.0449C73.154 80 71.8166 80 70.4792 80ZM72.619 66.2704C71.1033 66.2704 69.3648 67.7959 69.5431 69.1868C69.8106 71.0264 71.3262 69.815 72.2178 70.0842C72.8419 70.2636 73.5552 70.129 74.2239 70.129C74.848 70.129 75.16 69.8598 75.2492 69.2317C75.4275 67.6164 74.1793 66.2704 72.619 66.2704Z" fill="#616161"/>
<path d="M97.6728 79.9999C97.4053 79.0577 96.4246 79.0577 95.8005 78.609C95.3101 78.2501 94.7752 78.0257 95.2655 77.2181C95.6667 76.59 96.0234 76.0964 96.8258 76.5002C97.9848 77.0835 99.0993 77.6219 100.392 76.9938C101.507 76.5002 101.819 75.8272 101.105 74.7055C100.437 73.5838 99.3668 72.9108 98.2969 72.2377C96.4692 71.0263 95.0426 69.6354 95.7113 67.1228C96.2017 65.328 98.074 64.0269 100.57 64.0269C101.729 64.0269 102.889 64.3409 104.048 64.6101C104.583 64.7447 105.117 65.1934 104.761 65.9562C104.449 66.5843 104.092 67.1676 103.245 66.7638C102.978 66.6292 102.71 66.5395 102.398 66.4497C101.417 66.1805 100.392 66.0459 99.8572 67.1228C99.3222 68.1996 100.08 68.9624 100.838 69.5905C101.685 70.3084 102.71 70.802 103.468 71.5647C106.544 74.4363 105.875 77.8463 102.042 79.4166C101.729 79.5513 101.284 79.5064 101.195 79.9999C100.035 79.9999 98.8764 79.9999 97.6728 79.9999Z" fill="#616161"/>
<path d="M6.91012 14.4028C8.91617 12.6081 11.0114 11.2172 13.597 10.6788C17.6536 9.82629 21.1308 10.4096 23.4489 14.2682C24.2067 15.5245 24.6525 14.6721 25.232 14.1336C28.5309 10.8134 32.4092 9.51221 37.0009 10.7685C39.8985 11.5313 41.6817 13.4606 41.9937 16.377C42.7516 23.6906 42.172 31.0041 42.3503 38.3176C42.3503 39.2598 41.9046 39.5739 41.013 39.6636C34.7274 40.2469 34.7719 40.2469 34.7719 34.0551C34.7719 30.017 34.7719 25.9788 34.7719 21.9407C34.7274 18.5307 33.3008 16.9603 30.4478 17.0052C27.1935 17.0949 24.6971 19.2935 24.6971 22.165C24.6971 27.3249 24.6525 32.4847 24.7417 37.6446C24.7863 39.215 24.2959 39.6636 22.7356 39.6636C17.0741 39.6636 17.0741 39.7534 17.0741 34.1448C17.0741 30.1067 17.1187 26.0686 17.0741 22.0304C17.0295 19.0243 16.0488 17.5436 13.909 17.1398C11.5909 16.6911 7.8017 18.3961 7.04386 20.3254C6.82097 20.8639 6.91012 21.492 6.91012 22.0753C6.91012 27.3249 6.86555 32.5296 6.9547 37.7792C6.9547 39.215 6.59807 39.6636 5.12697 39.6636C0.22329 39.6636 0.22329 39.7085 0.22329 34.8627C0.22329 27.5941 0.267869 20.3703 0.178711 13.1017C0.178711 11.5313 0.579921 10.9031 2.14018 11.1723C2.63055 11.2621 3.1655 11.1723 3.70044 11.1723C6.64265 11.1723 6.64265 11.1723 6.91012 14.4028Z" fill="#070707"/>
<path d="M159.28 14.7168C161.153 12.608 162.936 11.3966 165.12 10.7235C169.712 9.33264 176.087 11.3517 178.583 16.3321C181.659 22.3893 181.926 28.5362 178.494 34.4588C174.615 41.1891 166.502 42.3556 160.618 37.3304C160.261 37.0163 159.949 36.6125 159.503 36.8817C159.28 37.0163 159.236 37.5547 159.28 37.8688C159.548 39.5289 158.656 39.6187 157.319 39.6635C151.702 39.6635 151.702 39.7084 151.702 34.1447C151.702 23.511 151.747 12.9221 151.657 2.28833C151.657 0.448732 152.192 -0.0448181 153.886 0.134655C155.58 0.314128 157.854 -0.403764 158.835 0.448732C159.994 1.4807 159.147 3.81385 159.191 5.56371C159.325 8.3904 159.28 11.2171 159.28 14.7168ZM159.28 25.7544C159.592 27.235 158.522 29.3439 159.771 30.8245C163.471 35.1318 169.801 34.6383 172.119 29.6579C173.635 26.3825 173.367 23.152 171.54 20.101C170.068 17.6333 166.859 16.4667 163.961 17.3192C160.35 18.3511 159.28 19.7869 159.28 23.4213C159.28 24.0494 159.28 24.7224 159.28 25.7544Z" fill="#070707"/>
<path d="M130.973 40.2915C122.547 40.6953 115.86 33.7408 116.039 25.3504C116.217 16.6011 122.458 10.2747 131.106 10.3196C140.022 10.3644 146.219 16.646 146.308 25.485C146.352 33.2024 140.334 40.7402 130.973 40.2915ZM123.929 25.0812C123.84 31.0038 127.852 34.7279 132.89 33.4267C135.832 32.6639 137.972 30.0616 138.328 26.8311C138.774 22.7929 137.214 19.1137 134.494 17.7677C129.279 15.2102 124.018 18.8445 123.929 25.0812Z" fill="#070707"/>
<path d="M203.413 37.1509C200.293 39.7533 196.994 40.5609 193.383 40.2468C188.39 39.7981 184.779 36.119 184.601 31.3181C184.467 26.2031 187.454 22.6136 192.714 21.8509C196.504 21.2676 200.025 22.0752 203.146 24.543C204.751 19.069 201.318 15.4796 195.657 16.6013C193.784 16.9602 191.912 17.5435 190.441 18.8896C189.371 19.8767 188.747 19.4729 188.078 18.3512C185.938 14.5822 185.805 14.4476 189.906 12.4285C194.899 9.9608 200.159 9.51212 205.375 11.6209C209.209 13.1464 210.992 16.4218 211.126 20.4151C211.304 26.3826 211.215 32.35 211.259 38.3624C211.259 39.3495 210.903 39.7084 209.966 39.7084C208.272 39.7084 206.534 39.6635 204.84 39.7084C203.324 39.7084 203.636 38.4521 203.413 37.1509ZM197.796 35.1767C198.376 35.1319 199 35.1767 199.58 35.087C202.433 34.6383 203.636 33.3371 203.592 30.8245C203.547 28.5362 202.21 27.2799 199.401 26.9658C198.153 26.8312 196.905 26.6966 195.657 27.0107C193.561 27.5491 192.18 29.1644 192.224 31.0937C192.269 32.9333 193.784 34.6832 195.79 35.0421C196.459 35.1767 197.128 35.1319 197.796 35.1767Z" fill="#070707"/>
<path d="M62.9008 40.2915C54.3416 40.6953 47.7885 33.7856 47.8331 25.4402C47.8777 16.7357 54.1633 10.3644 62.8116 10.3196C71.5491 10.2747 77.9684 16.6011 78.1022 25.1261C78.1913 33.2921 72.084 40.6953 62.9008 40.2915ZM62.8562 17.0049C58.6212 17.0498 55.6344 20.5495 55.679 25.485C55.7236 30.2411 58.7995 33.7856 62.9008 33.7408C67.1804 33.6959 70.3454 29.9718 70.3009 25.1261C70.2117 20.4149 67.0466 16.9601 62.8562 17.0049Z" fill="#070707"/>
<path d="M91.2525 14.4476C95.1309 10.9927 99.3659 9.51206 104.314 10.7684C107.836 11.6657 110.154 14.1335 110.243 17.8575C110.377 24.6326 110.332 31.4526 110.377 38.2726C110.377 39.3045 110.065 39.6635 108.995 39.7084C102.932 40.0673 102.932 40.1122 102.932 33.9652C102.932 30.4655 102.932 26.9209 102.932 23.4212C102.932 21.2227 102.977 18.9344 100.703 17.7229C98.1623 16.3769 95.6658 17.005 93.3032 18.396C91.7429 19.3382 90.9405 20.5496 91.0296 22.5687C91.2079 27.6388 91.0296 32.7089 91.1188 37.8239C91.1634 39.3045 90.673 39.7084 89.2465 39.7084C83.6295 39.7084 83.6295 39.7532 83.6295 34.1896C83.6295 27.235 83.6741 20.2804 83.585 13.3259C83.585 11.7106 83.8524 10.903 85.6356 11.1722C86.3043 11.2619 86.973 11.1722 87.6416 11.1722C90.8513 11.1722 90.8513 11.1722 91.2525 14.4476Z" fill="#070707"/>
<path d="M218.66 25.4405C218.66 21.4023 218.749 17.3642 218.615 13.3261C218.526 11.4865 219.195 10.9481 220.889 11.1724C221.825 11.307 222.806 11.2173 223.786 11.1724C225.213 11.0827 226.372 11.0378 226.194 13.1915C226.06 14.6272 226.862 13.9542 227.531 13.4607C231.409 10.4994 235.644 9.37767 240.414 11.1275C243.936 12.4287 245.229 15.1657 245.318 18.5756C245.496 25.1264 245.363 31.722 245.452 38.3177C245.452 39.4394 245.006 39.6637 243.981 39.7086C238.007 40.0226 238.007 40.0675 238.007 34.1449C238.007 30.4657 237.962 26.8314 238.007 23.1522C238.052 21.0434 237.74 18.8897 235.823 17.8578C233.415 16.5566 230.83 16.8707 228.423 18.3513C226.684 19.4281 225.971 20.8191 226.06 22.9727C226.238 27.9082 226.06 32.8437 226.149 37.7792C226.149 39.1702 225.882 39.7534 224.321 39.7534C218.66 39.8432 218.66 39.888 218.66 34.2347C218.66 31.2733 218.66 28.3569 218.66 25.4405Z" fill="#070707"/>
<path d="M151.167 67.8407C151.925 68.9175 153.173 68.7381 153.931 69.5008C156.739 72.2827 156.026 76.5451 152.371 78.3847C148.849 80.1795 145.06 79.2372 141.404 79.4167C140.423 79.4616 140.513 78.6091 140.513 77.9361C140.513 71.9686 140.513 66.0011 140.513 59.9888C140.513 58.8222 140.958 58.4184 142.117 58.4184C144.213 58.4633 146.263 58.3287 148.358 58.4633C150.766 58.5979 153.218 59.0465 154.198 61.6489C155.001 63.8026 153.975 65.7768 151.167 67.8407ZM146.531 76.8143C149.74 76.8592 151.345 75.4234 151.167 72.9108C150.989 70.8469 149.339 69.77 146.62 69.7252C144.123 69.6803 145.104 71.5199 144.926 72.6865C144.837 73.4044 144.97 74.1671 144.881 74.885C144.792 76.3208 145.104 77.1733 146.531 76.8143ZM144.881 64.1166C145.461 65.014 143.722 67.1228 146.397 67.078C148.581 67.078 150.409 65.5076 150.231 63.6231C150.052 61.5143 148.626 61.1105 146.798 60.9759C144.168 60.8413 145.06 62.7257 144.881 64.1166Z" fill="#616161"/>
<path d="M199.713 72.3725C199.713 74.2569 199.669 76.0965 199.713 77.981C199.758 79.8654 198.421 79.3719 197.395 79.4616C196.236 79.5514 195.612 79.2822 195.657 77.8913C195.701 71.6097 195.746 65.3282 195.657 59.0466C195.657 57.4762 196.37 57.3416 197.529 57.4313C198.644 57.4762 199.803 57.1621 199.758 59.0017C199.669 62.5015 199.713 65.9563 199.713 69.815C201.541 68.783 202.433 67.3472 203.458 66.0909C204.394 64.9692 205.197 63.6232 207.024 63.9821C207.426 64.0718 207.961 63.8475 208.183 64.3859C208.362 64.8346 208.094 65.1936 207.782 65.5525C206.579 66.9434 205.464 68.4241 204.127 69.7252C203.146 70.6675 203.414 71.2508 204.171 72.1481C205.821 74.0775 207.336 76.0516 208.941 78.0258C209.209 78.3399 209.699 78.6091 209.432 79.1476C209.209 79.5514 208.808 79.4168 208.451 79.4616C206.534 79.686 204.929 79.4168 203.859 77.3528C202.879 75.5132 201.407 73.898 200.115 72.193C200.026 72.2379 199.847 72.3276 199.713 72.3725Z" fill="#616161"/>
<path d="M21.4424 71.8788C21.4424 70.0841 21.3978 68.2894 21.4424 66.4946C21.487 65.7767 20.9966 64.5653 22.1557 64.4756C23.2256 64.3858 24.6521 63.6679 25.3208 65.014C25.8557 66.0908 26.2569 65.3729 26.6136 65.1037C27.7281 64.2512 29.0654 64.0717 30.4028 63.982C33.657 63.7577 35.7077 65.4178 35.886 68.6483C36.0643 71.7891 35.9751 74.9298 36.0197 78.0258C36.0643 79.7756 34.8161 79.3269 33.8354 79.3718C32.81 79.4167 31.9185 79.4615 32.0076 77.936C32.0968 75.4234 32.0522 72.8659 32.0076 70.3084C31.963 67.8407 31.0269 66.719 29.0208 66.6741C26.7919 66.6292 25.5437 67.8407 25.4991 70.3084C25.4099 72.7762 25.4099 75.2439 25.4991 77.7117C25.5883 79.2372 24.7858 79.4167 23.5822 79.3718C22.5123 79.2821 21.2641 79.6859 21.3533 77.8014C21.487 75.8721 21.4424 73.853 21.4424 71.8788Z" fill="#616161"/>
<path d="M176.532 71.7889C176.532 70.0839 176.487 68.3341 176.577 66.6291C176.621 65.8663 176.086 64.6997 177.067 64.4754C178.137 64.2062 179.653 63.8024 180.366 64.7895C181.124 65.8663 181.48 65.2382 182.06 64.8792C184.735 63.3537 187.855 63.7126 189.861 65.5522C191.288 66.8534 190.976 68.6033 191.109 70.1288C191.332 72.6414 191.109 75.1989 191.198 77.7564C191.288 79.5062 190.218 79.3716 189.014 79.4165C187.677 79.4614 186.963 79.1922 187.053 77.5769C187.186 75.3335 187.097 73.0901 187.053 70.8467C187.008 67.9302 186.161 66.7637 184.155 66.6739C181.926 66.5842 180.678 67.9302 180.544 70.8018C180.455 73.0452 180.41 75.2886 180.544 77.532C180.633 79.3268 179.697 79.3716 178.36 79.4165C176.933 79.4614 176.354 79.0576 176.487 77.532C176.621 75.6924 176.532 73.7631 176.532 71.7889Z" fill="#616161"/>
<path d="M55.5007 74.6606C56.7935 71.3852 57.9525 68.738 58.8441 66.0011C59.379 64.2063 60.5381 64.2063 61.92 64.2961C62.767 64.3409 63.1683 64.5653 62.767 65.5075C60.8056 69.8597 58.8441 74.1671 56.9272 78.5193C56.4814 79.5064 55.679 79.3718 54.8766 79.3718C54.0296 79.3718 53.5392 79.0577 53.1826 78.2501C51.4886 74.1222 49.7946 70.0392 47.9668 65.9562C47.3873 64.6999 47.5211 64.3409 48.9922 64.2063C51.0874 63.982 52.0681 64.7896 52.6476 66.7638C53.3163 69.3213 54.3862 71.6993 55.5007 74.6606Z" fill="#616161"/>
<path d="M130.171 68.3792C130.171 71.52 130.081 74.6607 130.215 77.8015C130.26 79.327 129.546 79.5514 128.343 79.4616C127.273 79.3719 126.069 79.7757 126.069 77.9361C126.114 71.5648 126.114 65.2384 126.069 58.8671C126.069 56.9378 127.451 57.566 128.432 57.4762C129.546 57.3416 130.215 57.6108 130.215 59.0017C130.126 62.0976 130.171 65.2384 130.171 68.3792Z" fill="#616161"/>
<path d="M87.4188 66.1358C88.8007 64.7 89.9152 63.3539 91.8321 64.3859C92.5899 64.7449 93.1694 65.2384 92.6791 66.0909C92.3224 66.8088 92.367 67.8408 90.9851 67.7062C88.2658 67.5267 87.4188 68.2446 87.1959 70.9815C87.0176 73.1352 86.973 75.3337 87.1067 77.4874C87.2405 79.4168 86.1706 79.4168 84.7886 79.4616C83.3175 79.5065 82.8717 79.0578 82.9163 77.5772C83.0055 73.9877 82.9163 70.3982 83.0055 66.8088C83.0055 66.0012 82.2922 64.5654 83.7187 64.3859C85.0115 64.2962 86.9284 63.5334 87.4188 66.1358Z" fill="#616161"/>
<path d="M40.7448 71.6993C40.7448 69.77 40.834 67.8407 40.7002 65.9113C40.6111 64.2961 41.5472 64.3409 42.6617 64.3409C43.7762 64.3858 44.8906 64.1166 44.8461 65.9113C44.7569 69.9495 44.7569 73.9427 44.8461 77.9809C44.8906 79.6859 43.7762 79.4167 42.7954 79.4167C41.7255 79.4167 40.6556 79.5961 40.7448 77.936C40.7894 75.8721 40.7448 73.8081 40.7448 71.6993Z" fill="#616161"/>
<path d="M45.2029 59.8093C45.0246 61.2451 44.4451 62.3668 42.9294 62.4117C41.3246 62.5014 40.3884 61.3348 40.3884 59.8991C40.3438 58.6428 41.1908 57.6108 42.6173 57.5659C44.0439 57.5659 44.8909 58.4184 45.2029 59.8093Z" fill="#616161"/>
</svg>
