<?xml version="1.0" encoding="utf-8"?>
<!-- Generator: Adobe Illustrator 25.0.1, SVG Export Plug-In . SVG Version: 6.00 Build 0)  -->
<svg version="1.0" id="katman_1" xmlns="http://www.w3.org/2000/svg" xmlns:xlink="http://www.w3.org/1999/xlink" x="0px" y="0px"
	 viewBox="0 0 560 400" style="enable-background:new 0 0 560 400;" xml:space="preserve">
<style type="text/css">
	.st0{fill-rule:evenodd;clip-rule:evenodd;}
</style>
<g>
	<path class="st0" d="M164.1,178.4h-27.3c0-4.8-0.5-8.1-1.6-9.7c-1.6-2.4-6.1-3.7-13.4-3.7c-7.1,0-11.8,0.7-14.1,2.1
		c-2.3,1.4-3.5,4.5-3.5,9.2c0,4.3,1,7.1,3.1,8.4c1.5,1,3.4,1.5,5.8,1.7l5.5,0.4c11.8,0.8,19.2,1.4,22.1,1.8c9.3,1,16.1,3.7,20.3,8
		c3.3,3.4,5.3,7.8,5.9,13.2c0.4,3.3,0.6,7,0.6,11.1c0,9.5-0.8,16.4-2.5,20.8c-3,8.1-9.9,13.1-20.5,15.3c-4.5,0.9-11.3,1.4-20.4,1.4
		c-15.3,0-25.9-1-31.9-3c-7.4-2.4-12.2-7.3-14.6-14.7c-1.3-4.1-2-10.9-2-20.5h27.3v2.4c0,5.1,1.4,8.4,4.1,9.8c1.9,1,4.2,1.5,6.8,1.6
		h10c5.1,0,8.4-0.3,9.8-0.9c2.5-1.1,4.2-2.8,4.9-5.1c0.4-1.5,0.6-3.3,0.6-5.6c0-5.2-1.8-8.3-5.2-9.4c-1.3-0.4-7.4-1.1-18.2-1.9
		c-8.7-0.7-14.8-1.3-18.2-1.9c-8.9-1.8-14.9-5.5-17.8-11.1c-2.6-4.8-3.9-12-3.9-21.7c0-7.4,0.7-13.3,2.1-17.7
		c1.4-4.4,3.7-7.8,6.8-10.1c4.6-3.5,10.5-5.6,17.6-6.2c6.6-0.6,13.2-0.9,19.8-0.8c11.4,0,19.6,0.7,24.5,2.1
		c11.9,3.4,17.8,13.1,17.8,28.9C164.3,173.9,164.2,175.8,164.1,178.4L164.1,178.4z M319.7,199.9h18.7c5.9-0.2,9.6-0.7,10.9-1.4
		c1.8-1,3-3,3.6-6c0.4-2,0.6-5,0.6-8.9c0-4.8-0.4-8.4-1.1-10.8c-1.1-3.3-3.7-5.3-7.8-6c-0.8-0.1-2.8-0.2-5.8-0.2h-19L319.7,199.9
		L319.7,199.9z M289.6,255.9V141.6h56c7.7,0,13.5,0.6,17.6,1.9c9.2,3,15.4,9,18.6,18.1c1.6,4.8,2.4,12,2.4,21.7
		c0,11.6-0.9,19.9-2.7,25c-3.6,10-11,15.8-22.2,17.3c-1.3,0.2-6.9,0.4-16.8,0.6l-5,0.2h-17.9v29.5L289.6,255.9L289.6,255.9z
		 M442.3,213.9l-14.1-49.6l-13.7,49.6H442.3L442.3,213.9z M448.3,236.2h-40.2l-5.4,19.8h-31.1l33.6-114.3h45.3l34,114.3h-30.4
		L448.3,236.2L448.3,236.2z M246.2,156.8c12.7,0,24,5.9,31.5,15.2l6.6-14.4c-10.8-10.3-25.1-16.1-40.1-16c-24.2,0-45,14.8-53.5,35.8
		h-12.9l-7.6,16.6h16.6c-0.1,1.5-0.2,3.1-0.2,4.6c0,1.9,0.1,3.8,0.3,5.6h-8.4l-7.6,16.6h20.3c8.8,20.4,29.2,34.8,53.1,34.8
		c12,0,23.2-3.6,32.4-9.9v-20.3c-7.4,8.6-18.3,14-30.5,14c-14.2,0-26.7-7.4-33.9-18.6h42.4l7.6-16.6H206c-0.5-3.4-0.6-6.9-0.2-10.3
		H267l7.6-16.6h-63.6C218.1,165.1,231.2,156.8,246.2,156.8z"/>
</g>
</svg>
