<svg width="380" height="383" viewBox="0 0 380 383" fill="none" xmlns="http://www.w3.org/2000/svg">
<g filter="url(#filter0_d_542_4)">
<path d="M206.611 62.4313C134.2 43.2198 130.727 61.8825 113.054 69.9078C77.2145 86.6505 80.2674 107.913 59.2607 191.063C38.2541 274.212 119.089 297.181 211.154 320.269C290.9 340.36 326.191 228.099 329.418 184.536C332.981 140.795 279.022 81.6429 206.611 62.4313Z" fill="white"/>
</g>
<circle cx="147" cy="167" r="97" fill="url(#paint0_radial_542_4)" fill-opacity="0.5"/>
<path d="M145.282 248.309C143.759 248.309 142.235 248.309 140.712 248.309C138.681 247.801 136.82 247.293 134.789 246.785C134.62 246.785 134.45 246.785 134.281 246.955C133.604 247.293 132.927 247.801 132.42 248.309C105.849 248.309 79.2784 248.309 52.7078 248.309C51.5232 247.801 50.5077 246.785 50 245.6C50 240.521 50 235.442 50 230.362C50 230.193 50.1692 230.024 50.1692 229.685C50.677 227.653 51.0154 225.283 52.0309 223.421C56.2619 214.447 63.3699 209.876 73.1858 209.537C73.6935 209.537 74.3705 209.368 74.709 209.029C76.4013 207.506 78.263 206.49 80.2938 205.982C80.4631 205.982 80.8016 205.812 80.9708 205.643C81.4785 204.797 80.8016 202.596 80.1246 202.088C73.5243 197.855 69.6318 191.76 68.6163 183.971C68.6163 183.633 68.2779 183.125 67.7701 182.956C66.0777 182.278 64.7238 181.093 63.7084 179.4C62.693 177.538 61.8468 175.337 61.8468 172.966C61.6775 167.887 61.5083 162.977 61.6775 157.898C62.1852 145.877 70.478 135.887 82.1555 132.84C83.5094 132.501 84.8633 132.332 86.048 131.993C93.833 131.993 101.449 131.993 109.234 131.993C109.403 131.993 109.403 132.162 109.572 132.162C112.788 133.517 113.634 136.226 111.603 139.104C110.926 139.951 110.418 140.967 109.742 141.813C110.588 141.982 111.434 142.321 112.111 142.49C117.696 144.183 123.958 149.432 123.619 157.898C123.45 161.961 123.619 166.194 123.619 170.257C123.619 172.12 123.281 173.982 122.942 175.675C122.265 178.553 120.911 181.093 117.865 182.448C117.019 182.786 116.68 183.294 116.68 184.141C115.665 191.421 112.28 197.178 106.018 201.241C104.664 202.257 103.987 203.103 104.326 204.627V204.797C104.495 205.135 104.834 205.643 105.003 205.643C107.203 206.151 108.895 207.167 110.588 208.521C110.926 208.86 111.434 209.029 111.942 209.029C113.972 209.368 116.003 209.537 118.034 209.876C119.557 210.214 121.081 210.892 122.434 211.4C123.788 208.86 125.142 206.32 126.665 203.95C128.189 201.58 130.219 199.548 132.081 197.347C131.912 197.347 131.912 197.347 131.743 197.347C130.219 197.347 129.373 196.5 129.373 195.315C129.373 194.13 130.219 193.453 131.912 193.453C132.927 193.453 133.943 193.453 135.127 193.453C134.958 192.945 134.789 192.606 134.62 192.098C133.097 188.543 131.573 185.157 130.05 181.601C128.866 178.723 130.558 176.014 133.773 175.845C135.127 175.845 136.312 175.845 137.666 175.845C139.866 175.845 141.051 176.691 141.728 178.723C141.897 179.569 142.405 179.739 143.082 179.739C145.62 179.739 148.159 179.739 150.697 179.739C152.898 179.739 154.421 180.924 154.759 182.956C154.928 183.802 154.59 184.818 154.251 185.664C153.236 188.204 152.221 190.744 151.036 193.283C152.39 193.283 153.744 193.283 154.928 193.283C156.113 193.283 156.79 194.13 156.79 195.146C156.79 196.162 156.113 197.008 154.928 197.008C154.59 197.008 154.421 197.008 153.913 197.008C154.251 197.347 154.421 197.516 154.59 197.855C159.836 203.103 163.39 209.199 165.083 216.31C165.59 218.511 165.929 220.712 166.267 222.913C166.267 224.267 166.267 225.452 166.267 226.807C166.267 226.976 166.098 227.145 166.098 227.484C164.575 237.135 158.99 243.399 149.851 246.447C148.328 247.801 146.805 247.971 145.282 248.309ZM119.727 169.411C119.727 168.564 119.727 167.718 119.727 166.871C119.727 165.686 118.88 164.839 117.865 164.839C116.85 164.839 116.003 165.686 116.003 166.871C116.003 167.379 116.003 168.056 116.003 168.564C116.003 169.749 115.157 170.596 114.142 170.765C112.957 170.765 112.111 169.919 112.111 168.564C112.111 167.548 112.111 166.363 112.111 165.347C112.111 163.993 111.603 163.485 110.418 163.316C109.234 163.146 108.218 163.146 107.034 162.977C102.295 162.3 97.8947 160.945 94.1715 157.898C93.156 157.051 92.6483 157.22 91.6329 158.067C89.4328 159.929 86.8942 161.284 84.1864 161.961C81.3093 162.638 78.6015 162.977 75.7244 163.316C74.032 163.485 73.6935 163.993 73.5243 165.686C73.5243 166.702 73.5243 167.887 73.5243 168.903C73.5243 170.088 72.6781 170.935 71.6626 170.935C70.6472 170.935 69.801 170.088 69.6318 168.903C69.6318 168.226 69.6318 167.548 69.6318 167.04C69.6318 165.855 68.7856 165.178 67.7701 165.178C66.7547 165.178 65.9085 165.855 65.7393 166.871C65.57 170.257 65.4008 173.643 66.9239 176.86C67.6009 178.215 68.4471 179.231 69.9702 179.739C71.4934 180.247 72.3396 181.262 72.5088 182.956C72.6781 183.802 72.6781 184.818 72.8473 185.664C74.709 195.823 84.6941 203.273 95.0177 201.918C104.834 200.733 111.942 193.283 112.957 183.294C113.126 181.432 113.972 180.247 115.665 179.739C117.019 179.231 117.865 178.384 118.542 177.199C119.557 174.49 119.727 171.95 119.727 169.411ZM143.928 244.415C148.667 244.415 153.405 242.383 157.298 238.32C161.529 233.918 163.221 228.5 162.375 222.405C161.19 214.447 157.975 207.336 152.221 201.58C149.682 199.04 146.636 197.516 142.743 197.686C140.035 197.855 137.835 198.532 135.804 200.056C134.62 201.072 133.266 202.257 132.25 203.442C127.85 208.691 125.142 214.786 123.958 221.558C121.927 233.749 130.896 244.415 143.928 244.415ZM119.727 160.945C119.727 160.268 119.727 159.083 119.727 157.898C119.896 152.649 117.357 149.263 112.788 147.062C110.08 145.707 107.372 145.538 104.326 145.538C103.649 145.538 102.803 145.538 102.126 145.538C100.941 145.369 100.264 144.522 100.433 143.506C100.433 142.49 101.28 141.813 102.295 141.644C102.803 141.644 103.48 141.644 103.987 141.644C104.834 141.813 105.341 141.305 105.849 140.628C106.526 139.443 107.541 138.258 108.218 137.072C108.388 136.734 108.557 136.395 108.726 136.057C108.388 135.887 108.049 135.718 107.541 135.718C101.11 135.718 94.6792 135.718 88.4173 135.718C77.9245 135.718 68.7856 142.998 66.247 153.157C65.57 155.697 65.4008 158.406 65.57 160.776C67.2624 160.945 68.7856 161.115 70.478 161.284C72.0011 159.76 72.8473 159.252 75.0474 159.083C75.8936 158.913 76.7398 158.913 77.586 158.744C81.9862 158.236 86.048 157.22 89.4328 154.173C91.4636 152.48 94.1715 152.649 96.3716 154.342C97.7255 155.358 99.0794 156.374 100.772 156.882C103.48 157.728 106.357 158.406 109.065 158.913C111.095 159.252 113.296 159.421 114.819 161.284C114.988 161.453 115.157 161.453 115.326 161.453C116.68 161.453 118.034 161.284 119.727 160.945ZM53.7233 244.415C62.5237 244.415 70.9857 244.415 79.2784 244.415C73.8628 234.764 73.6935 224.098 73.1858 213.601C73.0166 213.601 72.8473 213.601 72.6781 213.601C63.8776 213.77 55.7541 220.204 54.4002 229.008C53.554 233.918 53.8925 239.167 53.7233 244.415ZM121.25 215.802C118.373 214.278 115.326 213.431 112.111 213.431C111.603 224.098 111.265 234.764 105.68 244.415C113.803 244.415 121.757 244.415 130.05 244.415C120.065 236.965 117.865 227.315 121.25 215.802ZM98.064 244.415C97.2178 238.997 96.3716 233.749 95.3562 228.5C95.1869 227.484 95.3562 225.96 94.6792 225.452C94.0022 224.944 92.4791 225.283 91.4636 225.114C90.4482 224.944 90.279 225.452 90.1097 226.299C89.4328 230.193 88.7558 234.087 88.2481 237.981C87.9096 240.013 87.5711 242.214 87.2327 244.415C90.7867 244.415 94.3407 244.415 98.064 244.415ZM77.0783 219.696C77.7553 224.267 78.263 228.5 79.1092 232.902C79.6169 236.119 80.6323 239.167 82.494 241.875C82.6632 242.214 83.0017 242.553 83.5094 243.061C83.6786 242.722 83.6786 242.722 83.6786 242.553C84.6941 236.965 85.5403 231.209 86.5557 225.622C86.7249 224.267 86.8942 223.251 85.7095 222.574C82.1555 223.59 79.9554 221.05 77.0783 219.696ZM101.618 242.553C101.787 242.553 101.787 242.553 101.956 242.553C106.526 235.611 107.034 227.823 107.88 220.034C106.018 220.881 104.495 221.728 102.803 222.574C101.787 223.082 100.772 223.251 99.7564 222.405C98.7409 223.251 98.4025 223.929 98.7409 225.283C99.4179 229.177 100.095 233.071 100.772 236.965C101.11 238.659 101.28 240.521 101.618 242.553ZM133.435 180.416C133.435 180.585 133.435 180.755 133.435 180.924C135.297 185.157 137.158 189.389 139.02 193.622C139.189 193.961 139.697 194.13 140.035 194.13C141.897 194.13 143.759 194.13 145.62 194.13C146.297 194.13 146.466 193.961 146.805 193.283C147.99 190.574 149.005 187.866 150.19 185.326C150.359 185.157 150.359 184.818 150.359 184.479C147.82 184.479 145.451 184.479 142.912 184.479C142.912 184.818 143.082 184.987 143.082 185.157C143.589 186.68 143.082 187.696 142.066 188.035C140.882 188.373 139.866 187.866 139.358 186.172C138.851 184.479 138.343 182.786 137.666 181.093C137.497 180.754 137.158 180.416 136.989 180.247C135.974 180.416 134.789 180.416 133.435 180.416ZM85.0326 204.458C84.3556 206.828 85.0326 208.691 87.2327 209.707C88.7558 210.553 90.4482 211.061 92.1406 211.738C92.4791 211.908 92.9868 211.908 93.3253 211.738C95.0177 211.061 96.7101 210.553 98.2332 209.707C100.264 208.691 100.941 206.828 100.433 204.458C95.1869 206.151 90.1097 206.151 85.0326 204.458ZM86.048 213.939C85.0326 213.093 83.8479 212.246 82.8324 211.23C81.4785 209.876 81.14 209.707 79.2784 210.553C78.7707 210.722 78.4322 211.061 77.9245 211.4C77.2475 211.908 77.0783 212.416 77.2475 213.262C78.0937 215.971 80.1246 217.325 82.3247 218.511C83.6786 216.818 85.0326 215.294 86.048 213.939ZM102.803 218.341C104.834 217.326 106.864 215.971 107.711 213.601C108.218 212.585 108.049 211.738 107.034 211.23C106.018 210.722 105.172 210.384 104.157 210.045C103.987 210.045 103.48 210.045 103.31 210.214C101.956 211.569 100.433 212.923 99.2487 214.109C100.264 215.294 101.449 216.648 102.803 218.341ZM87.5711 218.172C88.9251 222.235 92.3098 221.389 95.0177 221.05C96.0331 220.881 97.0485 219.357 98.064 218.511C94.8484 214.955 90.1097 215.124 87.5711 218.172Z" fill="black"/>
<path d="M140.036 225.114C140.374 225.283 140.882 225.791 141.389 226.299C142.066 226.976 142.913 227.315 143.928 226.807C144.774 226.299 145.113 225.452 144.774 224.606C144.436 223.59 143.59 223.251 142.743 223.251C140.036 223.082 138.005 221.389 137.328 218.849C136.651 216.31 137.835 213.77 140.036 212.416C140.543 212.077 140.882 211.908 141.051 211.23C141.22 210.214 141.897 209.707 142.913 209.707C143.928 209.707 144.605 210.384 144.774 211.4C144.944 211.738 145.113 212.077 145.451 212.416C146.128 213.093 146.974 213.601 147.651 214.278C148.498 215.124 148.159 216.31 147.313 216.987C146.467 217.664 145.451 217.495 144.605 216.648C144.267 216.31 143.759 215.802 143.251 215.632C142.236 215.294 141.22 216.14 141.051 217.156C140.882 218.172 141.559 219.188 142.743 219.357C143.251 219.357 143.759 219.357 144.267 219.527C146.636 220.034 148.498 221.897 148.836 224.267C149.175 226.807 147.99 229.008 145.79 230.193C145.451 230.362 145.113 230.87 144.944 231.378C144.605 232.394 143.928 232.902 143.082 232.902C142.236 232.902 141.39 232.394 141.22 231.548C141.051 230.87 140.713 230.532 140.205 230.193C139.528 229.685 138.682 229.008 138.174 228.331C137.159 226.807 138.174 225.114 140.036 225.114Z" fill="black"/>
<path d="M292.013 130.3C294.213 130.977 296.074 132.162 296.582 134.702C296.751 135.379 296.751 136.226 296.751 136.903C296.751 148.416 296.751 160.099 296.751 171.612C296.751 171.95 296.751 172.289 296.751 172.628C296.582 173.643 295.905 174.321 294.89 174.321C293.874 174.321 293.197 173.643 293.028 172.628C293.028 172.12 293.028 171.781 293.028 171.273C293.028 159.929 293.028 148.416 293.028 137.072C293.028 134.533 292.52 134.025 289.982 134.025C264.934 134.025 239.718 134.025 214.67 134.025C212.301 134.025 211.624 134.533 211.624 136.903C211.624 171.104 211.624 205.304 211.624 239.505C211.624 241.875 212.132 242.553 214.501 242.553C239.718 242.553 264.765 242.553 289.982 242.553C292.351 242.553 292.859 242.045 292.859 239.674C292.859 233.918 292.859 228.161 292.859 222.235C292.859 221.728 292.859 221.22 293.028 220.712C293.197 219.865 293.874 219.357 294.89 219.357C295.905 219.357 296.413 219.865 296.582 220.881C296.751 221.389 296.751 221.897 296.751 222.405C296.751 227.992 296.582 233.41 296.751 238.997C296.921 242.722 295.736 245.262 292.013 246.616C265.442 246.616 238.872 246.616 212.301 246.616C209.762 245.939 208.239 244.246 207.562 241.875C207.562 206.32 207.562 170.765 207.562 135.21C208.239 132.67 209.932 131.147 212.301 130.469C239.041 130.3 265.611 130.3 292.013 130.3Z" fill="black"/>
<path d="M324 160.437C323.492 161.623 322.984 162.808 322.307 163.993C323.492 165.009 323.153 166.363 322.307 167.548C320.784 169.919 319.43 172.458 318.076 174.998C318.584 175.337 319.092 175.675 319.599 175.845C322.646 177.707 323.492 180.924 321.799 183.971C319.43 188.374 316.722 192.776 314.353 197.008C313.676 198.194 312.661 198.532 311.645 198.024C310.63 197.516 310.46 196.331 311.137 195.146C313.507 191.083 315.707 187.188 318.076 183.125C319.599 180.585 319.261 179.739 316.384 178.384C316.215 178.723 316.045 179.061 315.707 179.4C311.137 187.527 306.399 195.485 301.829 203.611C299.968 206.828 297.767 209.537 295.398 212.416C293.706 214.617 292.013 216.818 290.49 219.019C288.967 221.22 287.105 222.405 284.398 222.066C284.059 222.066 283.551 222.236 283.213 222.574C281.859 224.098 280.674 225.791 279.49 227.315C277.29 230.024 273.905 229.516 272.551 226.299C272.212 225.452 271.874 224.775 271.535 223.759C271.366 224.098 271.028 224.267 271.028 224.437C269.843 226.13 268.32 226.976 266.627 226.468C264.766 225.96 263.75 224.606 263.581 222.405C263.412 220.204 263.243 218.003 262.735 215.802C262.566 216.14 262.396 216.479 262.396 216.818C261.043 220.881 259.689 225.114 258.335 229.177C257.827 230.701 256.473 231.209 255.288 230.362C254.442 229.855 254.273 229.008 254.611 227.992C256.135 223.251 257.827 218.511 259.35 213.77C260.027 212.077 261.719 211.061 263.412 211.23C265.104 211.4 266.458 212.754 266.627 214.447C266.966 216.987 267.135 219.527 267.304 222.236C267.643 221.728 267.981 221.22 268.32 220.881C270.012 218.849 273.228 219.019 274.582 221.389C275.259 222.405 275.597 223.59 276.105 224.945C277.459 223.251 278.813 221.728 279.997 220.035C280.167 219.865 280.167 219.357 279.997 219.188C278.982 217.156 278.982 215.125 280.167 213.093C282.536 209.029 283.89 204.289 285.582 199.887C285.921 199.209 286.09 198.532 286.598 197.855C291.675 189.051 296.752 180.247 301.829 171.443C301.998 171.104 302.168 170.765 302.506 170.427C299.968 168.564 299.46 167.887 300.137 166.702C300.814 165.517 301.66 165.517 304.368 166.871C304.537 166.533 304.706 166.363 304.876 166.025C306.229 163.654 307.583 161.453 308.937 159.083C309.445 158.067 310.122 157.559 311.307 157.728C311.645 157.728 312.153 157.39 312.322 157.051C313.338 155.358 314.522 154.004 316.553 153.496C319.599 152.818 322.476 154.511 323.492 157.559C323.492 157.728 323.661 158.067 323.83 158.236C324 159.083 324 159.76 324 160.437ZM306.06 172.458C300.814 181.432 295.737 190.405 290.49 199.379C292.69 200.733 294.89 201.918 297.26 203.273C302.506 194.299 307.583 185.326 312.83 176.353C310.63 174.998 308.43 173.813 306.06 172.458ZM311.984 162.469C310.63 164.67 309.445 166.871 308.091 169.241C310.291 170.596 312.491 171.781 314.861 173.136C316.215 170.935 317.399 168.734 318.753 166.363C316.384 165.009 314.184 163.824 311.984 162.469ZM288.967 202.934C287.952 205.474 287.105 207.844 286.259 210.215C287.613 211.061 288.798 211.738 290.152 212.416C291.844 210.384 293.536 208.352 295.229 206.32C293.029 205.135 291.167 204.119 288.967 202.934ZM318.922 161.961C319.599 160.776 320.784 159.76 319.769 158.406C319.43 157.898 318.584 157.559 317.907 157.559C316.384 157.559 316.215 159.083 315.538 160.099C316.722 160.776 317.738 161.284 318.922 161.961ZM288.121 215.802C286.936 215.125 285.921 214.447 284.736 213.939C284.059 215.125 283.044 216.14 283.89 217.495C284.228 218.003 285.075 218.511 285.582 218.511C287.105 218.341 287.275 216.818 288.121 215.802Z" fill="black"/>
<path d="M229.224 145.707C229.224 147.062 229.224 148.247 229.224 149.601C229.732 149.601 230.24 149.601 230.747 149.601C245.979 149.601 261.211 149.601 276.442 149.601C276.95 149.601 277.627 149.601 278.134 149.771C279.15 149.94 279.488 150.617 279.488 151.633C279.488 152.649 278.981 153.326 277.965 153.496C277.458 153.496 277.119 153.665 276.611 153.665C260.534 153.665 244.287 153.665 228.209 153.665C225.84 153.665 225.332 153.157 225.332 150.787C225.332 148.755 225.332 146.892 225.332 144.861C225.332 142.66 225.84 141.982 228.209 141.982C237.009 141.982 245.641 141.982 254.441 141.982C261.718 141.982 269.165 141.982 276.442 141.982C276.781 141.982 277.119 141.982 277.458 141.982C278.811 142.152 279.658 142.829 279.658 144.014C279.658 145.03 278.811 145.877 277.458 145.877C272.55 145.877 267.811 145.877 262.903 145.877C252.241 145.877 241.41 145.877 230.747 145.877C230.07 145.707 229.732 145.707 229.224 145.707Z" fill="black"/>
<path d="M232.101 205.812C235.486 205.812 238.702 206.828 241.409 208.86C242.594 209.707 242.763 210.722 242.256 211.738C241.748 212.754 240.563 212.924 239.379 212.246C237.348 210.892 235.317 210.045 232.778 209.876C225.839 209.368 219.916 214.447 219.239 221.389C218.562 227.823 223.47 233.918 229.901 234.765C236.84 235.78 243.102 231.209 244.117 224.437C244.286 223.759 244.287 223.251 244.287 222.574C244.456 221.22 245.133 220.373 246.317 220.373C247.502 220.373 248.179 221.22 248.179 222.574C248.179 231.886 239.548 239.675 230.24 238.659C221.947 237.812 215.854 231.378 215.347 223.251C215.008 213.939 222.624 205.812 232.101 205.812Z" fill="black"/>
<path d="M262.057 174.829C255.287 174.829 248.517 174.829 241.748 174.829C241.24 174.829 240.902 174.829 240.394 174.829C239.378 174.66 238.871 174.152 238.871 173.136C238.871 172.12 239.209 171.443 240.055 171.273C240.394 171.104 240.902 171.104 241.409 171.104C255.118 171.104 268.826 171.104 282.534 171.104C282.873 171.104 283.211 171.104 283.719 171.273C284.735 171.443 285.242 172.12 285.242 173.305C285.242 174.321 284.565 174.998 283.55 174.998C283.211 174.998 282.704 174.998 282.365 174.998C275.596 174.829 268.826 174.829 262.057 174.829Z" fill="black"/>
<path d="M242.594 186.511C236.502 186.511 230.578 186.511 224.486 186.511C224.147 186.511 223.809 186.511 223.301 186.511C222.116 186.342 221.27 185.664 221.27 184.649C221.27 183.633 221.947 182.786 223.301 182.786C223.64 182.786 223.809 182.786 224.147 182.786C236.502 182.786 248.856 182.786 261.042 182.786C261.38 182.786 261.718 182.786 262.057 182.786C263.242 182.955 263.919 183.633 263.919 184.818C263.919 185.834 263.242 186.511 262.057 186.68C261.718 186.68 261.211 186.68 260.872 186.68C254.78 186.511 248.687 186.511 242.594 186.511Z" fill="black"/>
<path d="M252.411 157.39C258.503 157.39 264.596 157.39 270.858 157.39C272.72 157.39 273.566 158.067 273.735 159.252C273.735 160.607 272.889 161.284 270.858 161.284C258.503 161.284 246.318 161.284 233.964 161.284C233.794 161.284 233.795 161.284 233.625 161.284C231.933 161.284 231.087 160.607 231.087 159.252C231.087 158.067 231.933 157.39 233.625 157.39C239.887 157.39 246.149 157.39 252.411 157.39Z" fill="black"/>
<path d="M232.949 196.162C229.733 196.162 226.687 196.162 223.471 196.162C221.948 196.162 221.102 195.146 221.271 193.791C221.44 192.776 222.287 192.268 223.471 192.268C225.841 192.268 228.041 192.268 230.41 192.268C234.133 192.268 237.857 192.268 241.58 192.268C241.918 192.268 242.257 192.268 242.426 192.268C243.611 192.437 244.457 193.114 244.288 194.299C244.288 195.315 243.441 196.162 242.257 196.162C239.718 196.162 237.18 196.162 234.641 196.162C234.303 196.162 233.626 196.162 232.949 196.162Z" fill="black"/>
<path d="M231.424 224.098C233.624 221.897 235.655 219.696 237.855 217.664C238.363 217.156 239.04 216.817 239.717 216.817C240.225 216.817 241.071 217.495 241.409 218.003C241.917 218.849 241.579 219.526 240.902 220.204C238.701 222.405 236.501 224.606 234.47 226.637C234.47 226.637 234.301 226.807 234.132 226.807C232.609 228.161 230.578 228.161 229.055 226.807C227.532 225.452 226.178 224.098 224.824 222.574C223.978 221.727 223.978 220.542 224.824 219.865C225.67 219.018 226.685 219.018 227.701 220.034C228.886 221.219 230.07 222.574 231.424 224.098Z" fill="black"/>
<path d="M276.611 186.511C274.411 186.511 272.38 186.511 270.18 186.511C268.657 186.511 267.98 185.665 267.98 184.479C267.98 183.633 268.488 182.956 269.334 182.786C269.842 182.617 270.349 182.617 270.857 182.617C274.75 182.617 278.642 182.617 282.535 182.617C282.873 182.617 283.381 182.617 283.719 182.786C284.735 182.956 285.243 183.633 285.243 184.649C285.243 185.665 284.566 186.342 283.55 186.511C281.858 186.68 280.165 186.511 278.473 186.511C277.796 186.511 277.119 186.511 276.611 186.511Z" fill="black"/>
<path d="M257.318 196.162C255.118 196.162 253.087 196.162 250.887 196.162C249.364 196.162 248.517 195.484 248.517 194.299C248.517 193.114 249.364 192.268 250.887 192.268C255.118 192.268 259.349 192.268 263.749 192.268C265.103 192.268 266.118 193.114 266.118 194.299C266.118 195.484 265.272 196.162 263.749 196.162C261.38 196.162 259.349 196.162 257.318 196.162Z" fill="black"/>
<path d="M183.191 171.442H179.806V197.685H183.191V171.442Z" fill="black"/>
<path d="M194.53 182.786H168.298V186.172H194.53V182.786Z" fill="black"/>
<defs>
<filter id="filter0_d_542_4" x="5.90405" y="14.0334" width="373.681" height="368.62" filterUnits="userSpaceOnUse" color-interpolation-filters="sRGB">
<feFlood flood-opacity="0" result="BackgroundImageFix"/>
<feColorMatrix in="SourceAlpha" type="matrix" values="0 0 0 0 0 0 0 0 0 0 0 0 0 0 0 0 0 0 127 0" result="hardAlpha"/>
<feOffset dy="10"/>
<feGaussianBlur stdDeviation="25"/>
<feComposite in2="hardAlpha" operator="out"/>
<feColorMatrix type="matrix" values="0 0 0 0 0.191111 0 0 0 0 0.2304 0 0 0 0 0.266667 0 0 0 0.15 0"/>
<feBlend mode="normal" in2="BackgroundImageFix" result="effect1_dropShadow_542_4"/>
<feBlend mode="normal" in="SourceGraphic" in2="effect1_dropShadow_542_4" result="shape"/>
</filter>
<radialGradient id="paint0_radial_542_4" cx="0" cy="0" r="1" gradientUnits="userSpaceOnUse" gradientTransform="translate(147 167) rotate(90) scale(97)">
<stop stop-color="#007DE7"/>
<stop offset="1" stop-color="#007DE7" stop-opacity="0"/>
</radialGradient>
</defs>
</svg>
