<svg width="229" height="168" viewBox="0 0 229 168" fill="none" xmlns="http://www.w3.org/2000/svg">
<circle cx="145.001" cy="84" r="84" fill="url(#paint0_radial_542_5)" fill-opacity="0.5"/>
<path d="M113.951 78.5215C113.555 78.4333 113.136 78.4333 112.695 78.4333H112.607C103.722 78.4333 94.8595 78.4333 85.9749 78.4333H81.0145C81.0145 79.2711 81.0145 80.1089 80.9924 80.9246C88.4661 80.8805 96.072 80.9025 103.413 80.9025C106.456 80.9025 109.498 80.9025 112.541 80.9025H112.585C113.026 80.9025 113.466 80.9025 113.885 80.8364C114.503 80.7262 114.833 80.3514 114.855 79.7341C114.944 79.0727 114.613 78.6538 113.951 78.5215Z" fill="black"/>
<path d="M185.095 17.7841C182.626 17.74 180.112 17.74 177.621 17.7841C176.012 17.8282 174.667 18.8203 174.38 20.2313C174.072 21.6422 173.212 21.7304 172.352 21.6863C171.47 21.6422 170.544 21.6643 169.662 21.6643C169.288 21.6643 168.891 21.6643 168.516 21.6643H162.078L161.858 19.151C161.726 17.6298 161.593 16.1086 161.461 14.6095C161.263 12.4049 161.086 10.2223 160.888 8.01767C160.69 5.81305 160.513 3.63047 160.315 1.42585C160.271 0.962883 160.116 0.16922 159.455 0.147173C159.014 0.125127 158.595 0.103081 158.176 0.0810348C156.611 -0.0291962 155.112 -0.117381 153.657 0.45582C147.925 2.72658 142.193 5.01938 136.461 7.29014C125.768 11.523 114.723 15.9102 103.876 20.2533C101.628 21.1572 99.4232 21.9288 96.8878 21.7084C96.5351 21.6863 95.9178 21.9509 95.6753 22.2595C93.3384 25.1476 91.1999 27.8813 89.1937 30.593C88.9512 30.9016 88.863 31.6291 89.0174 31.9378C89.1496 32.2244 89.7449 32.533 90.274 32.6433C90.8472 32.7535 91.4645 32.7315 92.1038 32.7094C92.3684 32.7094 92.655 32.6874 92.9416 32.6874H100.04L100.085 33.0621C100.107 33.1503 100.107 33.2165 100.129 33.2826C100.151 33.4149 100.173 33.5251 100.173 33.6574V36.2148C100.173 40.9988 100.173 45.9592 100.151 50.8534C100.151 51.4487 99.7759 52.0439 99.4452 52.3526C98.1224 53.6974 96.7556 55.0643 95.4328 56.365C93.0959 58.7019 90.6708 61.1049 88.356 63.53C86.8348 65.1173 85.3577 65.7346 83.4397 65.5803C82.4696 65.5141 81.7201 65.7126 81.213 66.1755C80.6618 66.6826 80.3752 67.4983 80.3752 68.6006C80.3752 69.1297 80.3752 69.6588 80.3752 70.1879C80.728 70.4305 80.9705 70.8273 80.9705 71.3784C80.9925 72.5248 81.0366 73.6933 81.0587 74.8397H125.063V78.4112H124.622C124.247 78.4112 123.872 78.4112 123.498 78.3891C122.572 78.3671 121.712 78.3671 120.83 78.4332C120.301 78.4773 119.728 78.6978 119.463 78.9623C119.11 79.3151 119.132 79.778 119.243 80.0867C119.397 80.4835 119.75 80.7481 120.169 80.7701C122.043 80.9024 123.872 80.8803 125.592 80.704C126.65 80.5938 127.488 79.5796 127.554 78.323C127.598 77.353 127.598 76.3609 127.576 75.2586C127.554 73.3405 126.606 72.3485 124.688 72.2382C124.446 72.2162 124.181 72.2162 123.872 72.2382C123.718 72.2382 123.542 72.2382 123.343 72.2382H122.902V70.7611C122.902 70.0336 122.902 69.3061 122.902 68.6006C122.902 67.4983 122.594 66.6385 122.043 66.1314C121.535 65.6685 120.808 65.4701 119.86 65.5582C117.766 65.7346 116.134 65.0732 114.459 63.2875C112.056 60.7522 109.542 58.2609 107.095 55.8359C105.839 54.6013 104.56 53.3006 103.281 52.0439C102.995 51.7573 102.664 51.2503 102.664 50.7432C102.642 45.6285 102.642 40.4476 102.664 35.4211V33.4369C102.664 33.3047 102.708 33.1944 102.752 33.1283C102.774 33.1062 102.774 33.0621 102.796 33.0181L102.906 32.7315H120.742V35.4872C120.742 37.2289 120.742 38.9485 120.742 40.6901C120.742 43.7766 122.241 45.2537 125.305 45.2757C129.119 45.2757 132.955 45.2757 136.769 45.2757C139.79 45.2757 141.245 43.7986 141.245 40.7563C141.245 38.3312 141.245 35.9061 141.267 33.481C141.267 33.3487 141.311 33.2606 141.333 33.1724C141.355 33.1503 141.355 33.1062 141.377 33.0621L141.487 32.7535H151.364L149.358 99.2889H147.969C147.285 99.2889 146.646 99.2889 145.985 99.2889C142.457 99.311 140.165 101.604 140.142 105.131V105.815C140.142 106.851 140.12 107.931 140.142 108.967C140.165 109.893 140.583 110.312 141.487 110.312C147.748 110.334 154.384 110.334 161.219 110.312C161.66 110.312 162.034 110.18 162.277 109.915C162.497 109.695 162.608 109.408 162.608 109.099C162.608 108.372 162.012 107.887 161.108 107.887C157.008 107.887 152.841 107.887 148.807 107.887H142.656V107.446C142.656 107.115 142.656 106.785 142.634 106.476C142.612 105.748 142.59 105.065 142.678 104.382C142.854 102.794 144.155 101.736 145.919 101.714C148.63 101.692 151.364 101.714 154.01 101.714C155.09 101.714 156.17 101.714 157.272 101.714C158.176 101.714 159.08 101.714 159.962 101.714C162.078 101.714 164.261 101.714 166.422 101.714C168.582 101.714 169.773 102.882 169.817 105.043C169.839 105.572 169.817 106.079 169.817 106.652C169.817 106.917 169.817 107.181 169.817 107.468V107.909H169.376C169.199 107.909 169.045 107.909 168.891 107.909C168.758 107.909 168.626 107.909 168.516 107.909C168.384 107.909 168.229 107.909 168.097 107.931C167.325 107.997 166.84 108.482 166.862 109.188C166.885 109.871 167.347 110.312 168.075 110.356C168.913 110.4 169.817 110.4 171.029 110.356C171.58 110.334 172.242 110.136 172.242 109.232V108.747C172.286 107.115 172.308 105.418 172.132 103.786C171.867 101.427 169.596 99.4212 167.061 99.311C166.686 99.2889 166.289 99.2889 165.87 99.311C165.672 99.311 165.452 99.311 165.231 99.311H164.812L164.79 98.8921L162.806 32.7755H174.094L174.16 33.1283C174.182 33.2606 174.204 33.3928 174.226 33.5251C174.27 33.7897 174.314 34.0322 174.38 34.2747C174.799 35.7297 176.034 36.7218 177.533 36.7439C180.289 36.81 183.022 36.788 185.337 36.7439C187.079 36.7218 187.961 35.4872 188.644 34.1645V20.4738C187.762 18.666 186.66 17.8282 185.095 17.7841ZM154.45 20.6501C154.605 18.9967 154.737 17.3432 154.891 15.6677C155.244 11.7214 155.597 7.66493 155.928 3.65252C155.95 3.34387 156.016 2.92499 156.368 2.68249C156.765 2.41793 157.228 2.55021 157.669 2.66044L157.956 2.74862L159.587 21.6422H154.495L154.473 21.2233C154.473 21.1572 154.473 21.0911 154.45 21.047C154.45 20.8926 154.428 20.7824 154.45 20.6501ZM100.085 55.5272V65.4921H90.296L100.085 55.5272ZM102.642 55.5493L112.563 65.4701H102.642V55.5493ZM120.345 68.0495V72.1721H82.8444V68.0495H120.345ZM138.732 41.3736C138.732 41.8145 138.555 42.8507 137.012 42.8507H134.631C131.39 42.8507 128.149 42.8507 124.887 42.8507C124.291 42.8507 123.85 42.6963 123.542 42.3877C123.233 42.079 123.079 41.6381 123.101 41.087C123.101 40.3594 123.101 39.6319 123.101 38.9044V32.7535H138.732V33.1944C138.732 33.966 138.732 34.7377 138.732 35.4872C138.732 37.4273 138.754 39.4115 138.732 41.3736ZM151.893 99.2007V91.5287L152.797 91.3082L159.102 99.2007H151.893ZM160.756 58.4594L154.561 49.9054L159.94 46.0253L160.756 46.3781V58.4594ZM161.175 63.7945L161.571 77.1325L160.756 77.4191L154.01 68.9754L161.175 63.7945ZM160.249 40.161L154.671 32.7315H160.249V40.161ZM159.543 43.2916L153.525 47.6347V36.7439L154.45 36.5454L159.543 43.2916ZM153.965 53.2565L160.006 61.612L152.731 66.9031L153.128 53.4769L153.965 53.2565ZM153.414 72.2162L160.535 81.1229L152.092 87.2297L152.532 72.3705L153.414 72.2162ZM161.307 98.0543L153.965 88.9052L161.748 83.2613L162.167 97.8559L161.307 98.0543ZM174.05 30.152H92.5668L93.1179 29.4466C93.4707 28.9836 93.8234 28.5647 94.1541 28.1238C94.9698 27.1097 95.7194 26.1396 96.4469 25.1255C96.976 24.398 97.5933 24.1114 98.5413 24.1114C108.638 24.1334 118.912 24.1334 128.833 24.1334H132.382C132.47 24.1334 132.559 24.1334 132.625 24.1334C132.977 24.1334 133.286 24.1334 133.573 24.0673C134.036 23.9571 134.565 23.6484 134.499 22.8327C134.455 22.1713 134.08 21.7965 133.418 21.7084C133.176 21.6863 132.911 21.6863 132.625 21.6863C132.537 21.6863 132.448 21.6863 132.36 21.6863C126.43 21.6863 120.499 21.6863 114.569 21.6863H109.344L109.234 20.7383L153.502 3.1675L151.871 21.7084H150.107C149.181 21.7084 148.233 21.7084 147.307 21.7084C144.971 21.7084 142.568 21.7084 140.187 21.7084C139.68 21.7084 139.283 21.8627 139.018 22.1272C138.82 22.3256 138.709 22.6122 138.709 22.9429C138.709 23.6705 139.283 24.1334 140.231 24.1555C140.429 24.1555 140.628 24.1555 140.826 24.1555H141.09H174.005V30.152H174.05ZM186.131 32.6874C186.131 33.0842 186.087 33.5913 185.734 33.944C185.469 34.2085 185.073 34.3188 184.544 34.3188C182.339 34.2747 180.2 34.2747 178.172 34.3188C178.15 34.3188 178.128 34.3188 178.106 34.3188C177.577 34.3188 177.224 34.1865 176.96 33.944C176.607 33.5913 176.563 33.0621 176.585 32.6874C176.607 31.4087 176.607 30.13 176.607 28.8734C176.607 28.3443 176.607 27.8152 176.607 27.286C176.607 26.7569 176.607 26.2058 176.607 25.6767C176.607 24.398 176.629 23.0752 176.585 21.7745C176.563 21.2233 176.695 20.8265 176.96 20.562C177.312 20.2092 177.841 20.1651 178.194 20.1651C180.399 20.1872 182.449 20.1872 184.455 20.1651C185.029 20.1651 185.425 20.2754 185.712 20.562C186.087 20.9367 186.131 21.4879 186.131 21.8627C186.109 25.2357 186.109 28.7631 186.131 32.6874Z" fill="black"/>
<path d="M82.6464 65.1615C78.7442 64.941 75.5034 64.7647 75.3932 64.7647C73.0783 64.6544 70.7635 64.5442 68.4706 64.4119L63.6205 64.1694C62.1654 64.1033 60.7324 64.0371 59.2774 63.9489C57.9326 63.8828 56.5877 63.8167 55.2209 63.7505C53.2147 63.6403 51.1864 63.5521 49.1802 63.4419L43.5805 63.1553C41.1554 63.0451 38.7524 62.9128 36.3273 62.8025L35.688 62.7805C33.5936 62.6703 31.433 62.5821 29.2946 62.4939C29.1182 62.4939 28.7654 62.4939 28.4788 62.6482C26.8915 63.486 25.3042 64.3458 23.761 65.1835L18.4919 68.0054C14.1268 70.3644 9.6073 72.7895 5.17601 75.1484C5.02169 75.2366 4.84532 75.3468 4.691 75.435C4.18394 75.7657 3.69892 76.0744 3.03753 75.898L2.68479 75.7878L2.77298 76.1405C2.81707 76.383 2.75093 76.4271 2.46433 76.5814L2.42024 76.6035C2.00136 76.8019 1.60453 77.0223 1.18565 77.2428C1.00928 77.331 0.85496 77.4192 0.67859 77.5074L0.568359 77.5955L0.67859 77.9924L2.90526 78.1687L4.75714 112.164L60.2915 116C61.1293 115.228 62.0332 114.545 63.0252 113.972L33.9463 111.944L33.2408 93.094C33.1747 91.3083 33.1085 89.4784 33.0424 87.6486C33.0204 87.0754 32.7338 86.9431 32.3149 86.9211C29.3386 86.7447 26.2963 86.5463 23.3641 86.3479L20.6524 86.1715C19.3958 86.0833 18.1392 86.0172 16.8825 85.929C16.8385 85.929 16.7723 85.929 16.7062 85.929H16.3755L17.3014 110.775L6.76334 110.07L5.02169 78.3672L58.638 82.0048C58.5719 81.5198 58.5719 81.0347 58.5719 80.5497C58.5719 80.3072 58.638 80.0868 58.7262 79.8883C54.7579 79.6238 50.7896 79.3372 46.8213 79.0726L45.741 79.0065C43.4262 78.8522 41.1334 78.6758 38.8185 78.5215L27.134 77.7058C24.6649 77.5294 22.1957 77.353 19.7265 77.1767C15.8023 76.8901 11.8781 76.6255 7.97588 76.3389L8.15225 76.2507C8.65931 75.9641 9.14433 75.7216 9.62935 75.4571C14.7 72.7454 19.7706 70.0117 24.8633 67.2779C26.2742 66.5284 27.7072 65.7567 29.1402 64.9851C29.2284 64.941 29.3827 64.8969 29.493 64.919C33.2408 65.0953 36.9887 65.2938 40.7365 65.4701L46.689 65.7567C48.4527 65.8449 50.2164 65.9331 51.9801 66.0213C54.0965 66.1315 56.213 66.2197 58.3294 66.3299C60.7324 66.4402 63.1355 66.5724 65.5605 66.6827C68.0518 66.815 70.521 66.9252 73.0122 67.0575C75.2609 67.1677 77.4875 67.2779 79.7363 67.3882C80.7724 67.4322 81.8086 67.4984 82.8448 67.5425C82.8227 66.7268 82.8007 65.9331 82.6464 65.1615ZM30.8157 89.258L31.6315 111.348L19.5942 110.533L18.7785 88.4423L30.8157 89.258Z" fill="black"/>
<path d="M80.5632 65.2735L57.7246 80.054L58.9224 81.9047L81.761 67.1243L80.5632 65.2735Z" fill="black"/>
<path d="M60.3268 80.9435L58.1235 81.0229L59.3361 114.645L61.5394 114.566L60.3268 80.9435Z" fill="black"/>
<path d="M82.1563 96.9072L59.7629 113.715L61.0864 115.478L83.4797 98.6705L82.1563 96.9072Z" fill="black"/>
<path d="M82.2843 66.1782L80.0801 66.2202L80.715 99.5254L82.9192 99.4833L82.2843 66.1782Z" fill="black"/>
<defs>
<radialGradient id="paint0_radial_542_5" cx="0" cy="0" r="1" gradientUnits="userSpaceOnUse" gradientTransform="translate(145.001 84) rotate(90) scale(84)">
<stop stop-color="#FED23D"/>
<stop offset="1" stop-color="#FED23D" stop-opacity="0"/>
</radialGradient>
</defs>
</svg>
