<svg width="277" height="184" viewBox="0 0 277 184" fill="none" xmlns="http://www.w3.org/2000/svg">
<circle cx="193" cy="84" r="84" fill="url(#paint0_radial_542_7)" fill-opacity="0.5"/>
<path d="M86.7202 173.79C85.3493 173.79 83.9783 173.79 82.6074 173.79C80.7795 173.333 79.1039 172.875 77.276 172.418C77.1237 172.418 76.9714 172.418 76.8191 172.571C76.2098 172.875 75.6005 173.333 75.1435 173.79C51.2284 173.79 27.3133 173.79 3.39815 173.79C2.33188 173.333 1.41791 172.418 0.960938 171.352C0.960938 166.78 0.960938 162.208 0.960938 157.637C0.960938 157.484 1.11327 157.332 1.11327 157.027C1.57025 155.198 1.87491 153.065 2.78886 151.389C6.597 143.312 12.9947 139.197 21.8296 138.893C22.2865 138.893 22.8958 138.74 23.2005 138.435C24.7237 137.064 26.3993 136.15 28.2272 135.692C28.3796 135.692 28.6842 135.54 28.8365 135.388C29.2935 134.626 28.6842 132.645 28.0749 132.188C22.1342 128.378 18.6307 122.892 17.7167 115.882C17.7167 115.577 17.4121 115.12 16.9551 114.968C15.4319 114.358 14.2133 113.291 13.2993 111.767C12.233 109.939 11.6238 107.958 11.4714 105.977C11.3191 101.405 11.1668 96.9856 11.3191 92.4139C11.7761 81.5943 19.24 72.6033 29.7505 69.8603C30.9691 69.5556 32.1877 69.4032 33.254 69.0984C40.2609 69.0984 47.1156 69.0984 54.1226 69.0984C54.2749 69.0984 54.2749 69.2508 54.4272 69.2508C57.3214 70.4699 58.083 72.9081 56.2551 75.4987C55.6458 76.2607 55.1888 77.175 54.5795 77.937C55.3412 78.0894 56.1028 78.3941 56.7121 78.5465C61.7388 80.0704 67.3749 84.7945 67.0702 92.4139C66.9179 96.0713 67.0702 99.881 67.0702 103.538C67.0702 105.215 66.7656 106.891 66.4609 108.415C65.8516 111.005 64.633 113.291 61.8911 114.51C61.1295 114.815 60.8249 115.272 60.8249 116.034C59.9109 122.587 56.8644 127.768 51.2284 131.426C50.0098 132.34 49.4005 133.102 49.7051 134.473V134.626C49.8574 134.931 50.1621 135.388 50.3144 135.388C52.2947 135.845 53.8179 136.759 55.3412 137.978C55.6458 138.283 56.1028 138.435 56.5597 138.435C58.3877 138.74 60.2156 138.893 62.0435 139.197C63.4144 139.502 64.7853 140.112 66.004 140.569C67.2226 138.283 68.4412 135.997 69.8121 133.864C71.183 131.73 73.0109 129.902 74.6865 127.921C74.5342 127.921 74.5342 127.921 74.3819 127.921C73.0109 127.921 72.2493 127.159 72.2493 126.092C72.2493 125.025 73.0109 124.416 74.5342 124.416C75.4481 124.416 76.3621 124.416 77.4284 124.416C77.276 123.959 77.1237 123.654 76.9714 123.197C75.6005 119.996 74.2295 116.949 72.8586 113.748C71.7923 111.158 73.3156 108.72 76.2098 108.567C77.4284 108.567 78.4946 108.567 79.7132 108.567C81.6935 108.567 82.7597 109.329 83.369 111.158C83.5214 111.92 83.9784 112.072 84.5877 112.072C86.8726 112.072 89.1574 112.072 91.4423 112.072C93.4226 112.072 94.7935 113.139 95.0981 114.968C95.2505 115.729 94.9458 116.644 94.6411 117.406C93.7272 119.692 92.8132 121.977 91.7469 124.263C92.9656 124.263 94.1842 124.263 95.2505 124.263C96.3167 124.263 96.926 125.025 96.926 125.94C96.926 126.854 96.3167 127.616 95.2505 127.616C94.9458 127.616 94.7935 127.616 94.3365 127.616C94.6412 127.921 94.7935 128.073 94.9458 128.378C99.6679 133.102 102.867 138.588 104.39 144.988C104.847 146.969 105.152 148.95 105.456 150.931C105.456 152.151 105.456 153.217 105.456 154.436C105.456 154.589 105.304 154.741 105.304 155.046C103.933 163.732 98.9063 169.37 90.6807 172.114C89.3098 173.333 87.9388 173.485 86.7202 173.79ZM63.5667 102.776C63.5667 102.014 63.5667 101.253 63.5667 100.491C63.5667 99.4238 62.8051 98.6619 61.8911 98.6619C60.9772 98.6619 60.2156 99.4238 60.2156 100.491C60.2156 100.948 60.2156 101.557 60.2156 102.014C60.2156 103.081 59.454 103.843 58.54 103.996C57.4737 103.996 56.7121 103.234 56.7121 102.014C56.7121 101.1 56.7121 100.033 56.7121 99.1191C56.7121 97.9 56.2551 97.4428 55.1888 97.2904C54.1226 97.138 53.2086 97.138 52.1423 96.9856C47.8772 96.3761 43.9167 95.1569 40.5656 92.4139C39.6516 91.652 39.1946 91.8044 38.2807 92.5663C36.3005 94.2426 34.0156 95.4617 31.5784 96.0713C28.9888 96.6808 26.5516 96.9856 23.9621 97.2904C22.4388 97.4428 22.1342 97.9 21.9819 99.4238C21.9819 100.338 21.9819 101.405 21.9819 102.319C21.9819 103.386 21.2202 104.148 20.3063 104.148C19.3923 104.148 18.6307 103.386 18.4784 102.319C18.4784 101.71 18.4784 101.1 18.4784 100.643C18.4784 99.5762 17.7168 98.9667 16.8028 98.9667C15.8889 98.9667 15.1272 99.5762 14.9749 100.491C14.8226 103.538 14.6703 106.586 16.0412 109.482C16.6505 110.701 17.4121 111.615 18.783 112.072C20.154 112.529 20.9156 113.444 21.0679 114.968C21.2202 115.729 21.2203 116.644 21.3726 117.406C23.0482 126.549 32.0353 133.254 41.3272 132.035C50.1621 130.968 56.5598 124.263 57.4737 115.272C57.626 113.596 58.3877 112.529 59.9109 112.072C61.1295 111.615 61.8912 110.853 62.5005 109.786C63.4144 107.348 63.5667 105.062 63.5667 102.776ZM85.3493 170.285C89.6144 170.285 93.8795 168.456 97.383 164.799C101.191 160.837 102.714 155.96 101.953 150.474C100.886 143.312 97.9923 136.912 92.8132 131.73C90.5284 129.445 87.7865 128.073 84.283 128.225C81.8458 128.378 79.8656 128.987 78.0377 130.359C76.9714 131.273 75.7528 132.34 74.8388 133.407C70.8783 138.131 68.4411 143.617 67.3749 149.712C65.547 160.532 73.6202 170.285 85.3493 170.285ZM63.5667 95.0046C63.5667 94.395 63.5667 93.3283 63.5667 92.2616C63.7191 87.5375 61.4342 84.4897 57.3214 82.5086C54.8842 81.2895 52.447 81.1371 49.7051 81.1371C49.0958 81.1371 48.3342 81.1371 47.7249 81.1371C46.6586 80.9847 46.0493 80.2228 46.2016 79.3085C46.2016 78.3941 46.9633 77.7846 47.8772 77.6322C48.3342 77.6322 48.9435 77.6322 49.4005 77.6322C50.1621 77.7846 50.6191 77.3274 51.0761 76.7179C51.6854 75.6511 52.5993 74.5844 53.2086 73.5177C53.3609 73.2129 53.5132 72.9081 53.6656 72.6033C53.3609 72.451 53.0563 72.2986 52.5993 72.2986C46.811 72.2986 41.0226 72.2986 35.3865 72.2986C25.9423 72.2986 17.7167 78.8513 15.4319 87.9947C14.8226 90.2805 14.6702 92.7187 14.8226 94.8522C16.3458 95.0046 17.7167 95.1569 19.24 95.3093C20.6109 93.9378 21.3726 93.4807 23.3528 93.3283C24.1144 93.1759 24.8761 93.1759 25.6377 93.0235C29.5982 92.5663 33.254 91.652 36.3005 88.909C38.1284 87.3851 40.5656 87.5375 42.5458 89.0614C43.7644 89.9757 44.983 90.89 46.5063 91.3472C48.9435 92.1092 51.533 92.7187 53.9702 93.1759C55.7981 93.4807 57.7784 93.6331 59.1493 95.3093C59.3016 95.4617 59.4539 95.4617 59.6063 95.4617C60.8249 95.6141 62.1958 95.3093 63.5667 95.0046ZM4.15978 170.132C12.0807 170.132 19.697 170.132 27.1609 170.132C22.2865 161.446 22.1342 151.846 21.6772 142.398C21.5249 142.398 21.3726 142.398 21.2203 142.398C13.2993 142.55 5.98768 148.341 4.76908 156.265C4.15977 160.684 4.31211 165.408 4.15978 170.132ZM64.9377 144.531C62.3481 143.16 59.6063 142.398 56.7121 142.398C56.2551 151.998 55.9505 161.599 50.9237 170.285C58.2354 170.285 65.3946 170.285 72.8586 170.285C63.8714 163.427 61.8911 154.741 64.9377 144.531ZM44.0691 170.132C43.3075 165.256 42.5458 160.532 41.6319 155.808C41.4795 154.894 41.6319 153.522 41.0226 153.065C40.4133 152.608 39.0424 152.912 38.1284 152.76C37.2144 152.608 37.0621 153.065 36.9098 153.827C36.3005 157.332 35.6912 160.837 35.2342 164.342C34.9295 166.17 34.6249 168.151 34.3203 170.132C37.6714 170.132 40.7179 170.132 44.0691 170.132ZM25.1807 147.884C25.79 151.998 26.247 155.808 27.0086 159.77C27.4656 162.665 28.3795 165.408 30.0551 167.847C30.2074 168.151 30.5121 168.456 30.9691 168.913C31.1214 168.609 31.1214 168.609 31.1214 168.456C32.0354 163.427 32.797 158.246 33.7109 153.217C33.8632 151.998 34.0156 151.084 32.9493 150.474C29.7505 151.389 27.7703 149.103 25.1807 147.884ZM47.4202 168.456C47.5725 168.456 47.5726 168.456 47.7249 168.456C51.8377 162.208 52.2947 155.198 53.0563 148.188C51.3807 148.95 50.0098 149.712 48.4865 150.474C47.5726 150.931 46.6586 151.084 45.7447 150.322C44.8307 151.084 44.5261 151.693 44.8307 152.912C45.44 156.417 46.0493 159.922 46.6586 163.427C46.8109 165.104 47.1156 166.78 47.4202 168.456ZM76.0574 112.682C76.0574 112.834 76.0574 112.986 76.0574 113.139C77.733 116.949 79.4086 120.758 81.0842 124.568C81.2365 124.873 81.6935 125.025 81.9981 125.025C83.6737 125.025 85.3493 125.025 87.0248 125.025C87.6342 125.025 87.7865 124.873 88.0911 124.263C89.1574 121.825 90.0714 119.387 91.1377 117.101C91.29 116.949 91.29 116.644 91.29 116.339C89.0051 116.339 86.8726 116.339 84.5877 116.339C84.5877 116.644 84.74 116.796 84.74 116.949C85.1969 118.32 84.74 119.234 83.826 119.539C82.7598 119.844 81.8458 119.387 81.3888 117.863C80.9319 116.339 80.4749 114.815 79.8656 113.291C79.7133 112.986 79.4086 112.682 79.2563 112.529C78.19 112.682 77.1237 112.682 76.0574 112.682ZM32.34 134.169C31.7307 136.302 32.34 137.978 34.3203 138.893C35.6912 139.655 37.2144 140.112 38.7377 140.721C39.0423 140.874 39.4993 140.874 39.8039 140.721C41.3272 140.112 42.8505 139.655 44.2214 138.893C46.0493 137.978 46.6586 136.302 46.2016 134.169C41.4795 135.692 36.9098 135.692 32.34 134.169ZM33.4063 142.702C32.4923 141.94 31.4261 141.178 30.5121 140.264C29.2935 139.045 28.9889 138.893 27.3133 139.655C26.8563 139.807 26.5516 140.112 26.0946 140.417C25.4853 140.874 25.333 141.331 25.4854 142.093C26.247 144.531 28.0749 145.75 30.0551 146.817C31.2737 145.293 32.34 143.922 33.4063 142.702ZM48.3342 146.665C50.1621 145.75 51.99 144.531 52.7516 142.398C53.2086 141.483 53.0563 140.721 52.1423 140.264C51.2284 139.807 50.4668 139.502 49.5528 139.197C49.4005 139.197 48.9435 139.197 48.7912 139.35C47.5726 140.569 46.2016 141.788 45.1353 142.855C46.0493 143.922 47.1156 145.293 48.3342 146.665ZM34.6249 146.665C35.8435 150.322 38.89 149.56 41.3272 149.255C42.2411 149.103 43.1551 147.731 44.0691 146.969C41.1749 143.769 37.0621 143.769 34.6249 146.665Z" fill="black"/>
<path d="M81.9979 152.913C82.3026 153.065 82.7595 153.522 83.2165 153.979C83.8258 154.589 84.5874 154.894 85.5014 154.436C86.263 153.979 86.5677 153.217 86.263 152.455C85.9584 151.541 85.1968 151.236 84.4351 151.236C81.9979 151.084 80.17 149.56 79.5607 147.274C78.9514 144.988 80.0177 142.703 81.9979 141.483C82.4549 141.179 82.7596 141.026 82.9119 140.417C83.0642 139.502 83.6735 139.045 84.5875 139.045C85.5014 139.045 86.1107 139.655 86.263 140.569C86.4153 140.874 86.5677 141.179 86.8724 141.483C87.4817 142.093 88.2433 142.55 88.8526 143.16C89.6142 143.922 89.3095 144.988 88.5479 145.598C87.7863 146.207 86.8724 146.055 86.1107 145.293C85.8061 144.988 85.3491 144.531 84.8921 144.379C83.9781 144.074 83.0642 144.836 82.9119 145.75C82.7596 146.665 83.3689 147.579 84.4351 147.731C84.8921 147.731 85.3491 147.731 85.8061 147.884C87.9386 148.341 89.6142 150.017 89.9189 152.151C90.2235 154.436 89.1572 156.418 87.177 157.484C86.8723 157.637 86.5677 158.094 86.4154 158.551C86.1107 159.465 85.5014 159.922 84.7398 159.922C83.9781 159.922 83.2165 159.465 83.0642 158.703C82.9119 158.094 82.6072 157.789 82.1503 157.484C81.541 157.027 80.7793 156.418 80.3223 155.808C79.4084 154.284 80.17 152.913 81.9979 152.913Z" fill="black"/>
<path d="M240.114 182.171L275.148 157.789L271.95 100.186L273.168 99.2716H271.95V98.5097L271.036 99.2716L254.585 98.5097V87.3853H251.538V98.2049L238.59 97.5954V72.6035H235.544V97.443L224.576 96.8334V80.8325H221.53V96.681L144.301 92.8713H143.844L102.716 114.968L101.497 114.815V115.577L97.6893 117.558L101.65 117.863L104.696 173.485L237.219 182.629V184L239.047 182.629L240.114 182.781V182.171ZM239.961 178.514L239.352 155.808L238.59 126.549L269.208 104.3L272.102 156.265L239.961 178.514ZM108.352 115.425L144.453 96.0715L264.79 102.015L236.61 124.111L190.76 121.063L108.352 115.425ZM127.088 134.626L147.5 135.997L148.871 172.876L128.459 171.504L127.088 134.626ZM237.067 179.733L151.917 173.79L150.394 132.95L123.889 131.273L125.413 171.961L107.438 170.742L104.544 118.168L138.817 120.454L235.392 127.006L236.153 157.18L237.067 179.733Z" fill="black"/>
<path d="M216.654 131.883L178.573 130.207L180.858 170.59L217.873 172.266L216.654 131.883ZM181.772 133.407L195.177 134.016L196.547 168.304L183.6 167.694L181.772 133.407ZM199.594 168.456L198.223 134.169L213.76 134.778L214.674 169.066L199.594 168.456Z" fill="black"/>
<path d="M242.703 131.121L243.769 168.304L267.989 151.541L266.009 114.358L242.703 131.121ZM246.663 162.665L245.902 132.645L263.267 119.996L264.942 150.017L246.663 162.665Z" fill="black"/>
<path d="M210.563 91.8045L210.106 88.7567C208.735 89.0615 207.364 87.69 206.907 86.3185C206.298 84.4898 206.755 82.3564 207.06 80.5277L208.126 74.4321C208.583 72.1463 208.888 69.8604 210.106 68.0318C211.02 66.5079 212.848 65.1364 214.828 65.5935L215.895 65.7459L216.352 64.6792C217.265 63.0029 219.246 61.7838 221.226 61.6314H222.445L222.597 60.4123C223.358 55.993 227.776 52.3357 232.346 52.4881C236.915 52.4881 241.181 56.2978 241.79 60.7171L241.942 62.0886L243.313 61.9362C243.77 61.9362 244.227 62.0886 244.532 62.5458C244.836 62.8505 245.141 63.4601 244.989 63.7649L244.532 67.1174L247.274 65.2888C250.777 63.0029 255.804 63.4601 258.698 66.5079C261.592 69.4033 262.201 74.4321 259.917 77.9371L259.307 78.8514L259.917 79.7657C261.288 81.5944 263.115 84.4898 263.268 87.5376C263.42 89.9758 262.049 92.7188 259.764 93.4808L260.678 96.3762C264.639 95.1571 266.467 90.8902 266.314 87.3852C266.162 84.0326 264.486 80.9849 262.963 78.8514C265.4 74.2797 264.486 68.1842 260.831 64.5268C257.479 61.1743 251.996 60.2599 247.578 61.9362C247.426 61.479 247.121 61.0219 246.664 60.7171C246.055 60.1075 245.141 59.498 244.379 59.3456C243.008 53.8596 237.829 49.7451 232.193 49.7451C226.557 49.5927 221.226 53.7072 219.703 59.0408C217.418 59.498 215.285 60.7171 214.067 62.6981C211.172 62.6981 208.735 64.5268 207.364 66.6603C205.841 69.0985 205.384 71.8415 204.927 74.2797L203.861 80.3753C203.556 82.5087 203.099 85.0994 203.861 87.5376C204.927 89.9758 207.517 92.414 210.563 91.8045Z" fill="black"/>
<defs>
<radialGradient id="paint0_radial_542_7" cx="0" cy="0" r="1" gradientUnits="userSpaceOnUse" gradientTransform="translate(193 84) rotate(90) scale(84)">
<stop stop-color="#FED23D"/>
<stop offset="1" stop-color="#FED23D" stop-opacity="0"/>
</radialGradient>
</defs>
</svg>
