<svg width="268" height="231" viewBox="0 0 268 231" fill="none" xmlns="http://www.w3.org/2000/svg">
<circle cx="97" cy="134" r="97" fill="url(#paint0_radial_542_6)" fill-opacity="0.5"/>
<path d="M267.492 142.944L263.38 67.0545L264.903 65.8354L263.227 65.683V64.7687L262.009 65.683L240.378 64.6163V49.9869H236.418V64.4639L219.358 63.702V30.7859H215.397V63.5496L200.774 62.7876V41.6055H196.813V62.6353L94.9077 57.6064H94.2984L40.0705 86.7127L38.3949 86.5604V87.6271L33.3682 90.3701L38.5472 90.6749L42.5077 163.974L76.6286 166.26C76.4763 165.193 76.3239 164.126 76.1716 162.907C76.1716 162.298 76.1716 161.841 76.1716 161.231L73.8867 161.079L72.0588 112.314L98.8681 113.99V114.6C99.4774 113.99 100.239 113.533 101.001 112.924C100.848 112.009 100.544 111.095 100.544 110.028L67.946 107.895L69.9263 161.536L46.3158 159.86L42.5077 90.5225L87.7483 93.5702H88.053C87.596 92.1987 87.2914 90.8272 87.139 89.4557L47.3821 86.7127L95.06 61.1114L253.935 69.3404L216.616 98.7515L177.773 96.1609C177.773 97.5324 177.773 98.9039 177.62 100.123L215.245 102.714L216.311 142.64L217.073 172.051L183.866 169.765C183.409 171.136 182.799 172.508 182.038 173.727L217.225 176.165V177.994L219.662 176.318L221.185 176.47V175.403L267.492 142.944ZM220.272 140.354L219.205 101.647L259.572 72.2358L263.38 140.811L221.185 170.222L220.272 140.354Z" fill="black"/>
<path d="M187.675 157.878L185.085 157.726C185.237 158.945 185.39 160.164 185.39 161.383C185.39 161.536 185.39 161.688 185.39 161.84L191.787 162.145L190.264 108.961L176.25 108.352C176.098 109.723 175.793 111.095 175.488 112.314L186.304 112.771L187.675 157.878Z" fill="black"/>
<path d="M224.689 107.895L226.06 156.964L257.896 134.715L255.155 85.646L224.689 107.895ZM229.869 149.497L228.802 109.876L251.651 93.2655L253.784 132.734L229.869 149.497Z" fill="black"/>
<path d="M182.342 56.0824L181.581 52.1203C179.905 52.4251 178.077 50.5964 177.468 48.7677C176.706 46.4819 177.163 43.5865 177.62 41.1483L178.991 33.0716C179.448 30.0239 180.058 26.9761 181.581 24.5378C182.799 22.5568 185.237 20.7281 187.674 21.3377L189.197 21.6425L189.959 20.271C191.177 17.9851 193.767 16.3088 196.356 16.3088H198.032L198.337 14.7849C199.403 8.84175 205.191 4.1177 211.132 4.27009C217.073 4.42248 222.709 9.29893 223.623 15.0897L223.927 16.9184L225.755 16.766C226.365 16.766 226.974 16.9184 227.431 17.5279C227.888 17.9851 228.192 18.5947 228.04 19.2042L227.431 23.4711L231.087 21.0329C235.656 17.9851 242.359 18.7471 246.167 22.5568C250.127 26.3665 250.737 33.0716 247.842 37.6433L247.081 38.8624L247.842 39.9292C249.67 42.3674 252.108 46.1771 252.26 50.1392C252.412 53.187 250.737 56.9968 247.69 57.9111L248.756 61.7208C253.935 60.1969 256.525 54.4061 256.22 49.8345C256.068 45.4152 253.783 41.3007 251.803 38.5577C254.849 32.4621 253.783 24.5379 248.909 19.6614C244.339 15.2421 237.18 13.8706 231.391 16.3088C231.087 15.6993 230.63 15.0897 230.173 14.6325C229.259 13.7182 228.192 13.1087 227.126 12.8039C225.298 5.64159 218.444 0.155574 210.98 0.00318464C203.516 -0.149205 196.509 5.18442 194.529 12.3467C191.482 12.8039 188.74 14.6325 187.065 17.0708C183.256 17.0708 180.058 19.509 178.23 22.252C176.249 25.2998 175.64 28.9571 175.031 32.3097L173.66 40.3863C173.203 43.1293 172.594 46.6343 173.66 49.8345C174.726 53.4918 178.23 56.692 182.342 56.0824Z" fill="black"/>
<path d="M180.666 172.66C175.03 172.66 169.546 172.66 163.91 172.66C163.301 172.051 162.539 171.441 162.996 170.527C163.453 169.46 164.215 169.46 165.129 169.46C165.586 169.46 166.043 169.46 166.5 169.46C168.175 169.46 169.851 169.46 171.374 169.46C171.374 169.308 171.374 169.155 171.374 169.155C170.917 160.774 170.46 152.24 170.003 143.859C169.851 142.335 169.851 140.811 169.699 139.287C169.699 138.068 170.308 137.306 171.222 137.153C172.136 137.153 172.745 137.763 172.898 138.982C172.898 139.287 172.898 139.439 172.898 139.744C173.05 141.573 173.05 143.249 173.202 145.078C176.096 144.773 178.686 144.468 181.428 144.163C180.971 139.592 180.362 135.172 179.905 130.753C179.448 125.877 176.096 123.286 171.831 122.676C171.527 124.353 171.222 126.181 170.765 127.858C169.394 132.734 165.586 134.563 160.864 132.429C160.255 132.125 159.645 131.82 159.036 131.515C157.665 130.601 156.446 129.839 155.228 128.924C154.009 129.686 152.791 130.753 151.572 131.363C150.353 132.125 148.982 132.582 147.612 133.191C147.764 133.648 147.916 134.258 147.916 134.715C148.069 137.153 146.85 138.982 144.26 140.049C143.956 140.201 143.346 140.506 143.346 140.811C142.585 144.316 140.604 147.059 137.558 149.04C137.101 149.345 137.101 150.259 137.101 150.868C137.101 151.021 137.558 151.326 138.015 151.478C139.995 152.088 141.975 152.392 143.956 153.002C147.002 153.916 149.135 155.897 149.744 159.25C149.896 160.317 150.049 161.383 150.201 162.45C150.506 164.736 150.658 167.022 150.963 169.308C152.638 169.308 154.161 169.308 155.837 169.308C156.751 169.308 157.665 169.46 157.97 170.374C158.274 171.441 157.665 172.051 157.056 172.508C139.538 172.508 122.021 172.508 104.503 172.508C103.742 172.051 103.132 171.441 103.437 170.374C103.742 169.308 104.503 169.155 105.57 169.155C107.398 169.155 109.225 169.155 111.206 169.155C111.206 168.85 111.358 168.546 111.358 168.241C111.663 165.65 111.967 163.06 112.272 160.469C112.577 156.507 114.709 153.916 118.517 152.85C120.498 152.24 122.478 151.783 124.458 151.326C124.763 151.173 125.22 151.021 125.372 150.868C125.524 150.107 125.677 149.192 124.61 148.583C121.868 146.906 120.041 144.316 119.279 141.268C119.127 140.506 118.67 140.201 118.06 139.896C114.709 138.677 113.491 134.563 115.775 131.972C115.928 131.82 116.08 131.515 116.08 131.363C116.232 129.382 116.385 127.248 116.385 125.267C115.775 126.029 115.166 126.791 114.557 127.553C113.186 129.229 111.206 129.382 109.53 128.01C109.378 127.858 109.073 127.705 108.769 127.401C108.769 129.839 108.769 131.972 108.769 134.258C108.769 134.715 108.769 135.172 108.616 135.477C108.464 136.391 107.855 136.696 106.941 136.696C106.179 136.544 105.57 136.087 105.57 135.325C105.57 133.953 105.57 132.734 105.57 131.363C105.57 130.144 105.57 128.772 105.57 127.401C105.265 127.553 105.265 127.553 105.113 127.705C102.828 129.534 101.152 129.382 99.4766 127.096C98.1057 125.419 96.7348 123.591 95.3638 121.915C95.2115 121.61 94.6022 121.457 94.1453 121.457C92.622 121.762 91.0987 122.219 89.4232 122.524C85.0057 123.743 82.8731 126.334 82.4162 131.058C82.2638 132.734 82.1115 134.41 81.8069 136.087C81.5022 138.677 81.1976 141.268 80.8929 144.011C83.7871 144.316 86.3766 144.621 89.2708 144.925C89.2708 144.316 89.2708 143.859 89.4232 143.401C89.5755 141.878 89.5755 140.354 89.7278 138.83C89.7278 137.611 90.4894 137.001 91.4034 137.001C92.3173 137.001 92.9266 137.763 92.9266 138.83C92.9266 139.592 92.9267 140.354 92.7743 140.963C92.3174 150.107 91.8603 159.097 91.4034 168.241C91.4034 168.546 91.4034 168.85 91.4034 169.155C93.2313 169.155 95.0592 169.155 96.8871 169.155C97.801 169.155 98.715 169.308 99.0196 170.222C99.3243 171.289 98.715 171.898 97.9534 172.355C92.622 172.355 87.2906 172.355 82.1115 172.355C80.8929 171.746 79.522 171.289 78.3034 170.527C76.6278 169.46 76.0185 167.631 75.5615 165.803C75.5615 164.736 75.5615 163.822 75.5615 162.755C75.5615 162.602 75.7139 162.298 75.7139 162.145C76.9325 151.63 78.151 140.963 79.2173 130.448C79.6743 126.791 80.8929 123.743 83.9394 121.61C85.9197 120.238 88.0522 119.629 90.3371 119.019C92.7743 118.41 95.0592 117.8 97.3441 116.733C98.715 116.124 99.172 115.362 99.0196 113.99C98.8673 113.228 99.0197 112.619 98.1057 112.162C92.622 108.961 89.5755 103.933 89.1185 97.6846C88.9662 96.7703 88.6615 96.4655 87.8999 96.1608C84.8534 95.094 83.0255 91.7414 84.2441 88.9984C84.8534 87.6269 84.8534 86.2554 84.8534 84.8839C84.8534 84.122 84.8534 83.3601 84.8534 82.4457C85.0057 73.6071 91.2511 65.0733 99.629 62.1779C101.457 61.5684 103.285 61.2636 105.113 60.8064C106.484 60.8064 107.702 60.8064 109.073 60.8064C109.378 60.8064 109.682 60.9588 109.835 60.9588C118.67 61.8732 126.743 68.8831 128.571 77.7216C129.18 80.617 129.028 83.5124 129.332 86.4078C129.332 86.865 129.332 87.4746 129.637 87.7793C131.465 90.5223 130.246 94.6368 126.286 96.0084C125.524 96.3131 125.22 96.6179 125.22 97.3798C124.763 103.323 122.325 108.047 117.299 111.247C115.623 112.314 115.318 113.533 115.471 115.209C115.471 115.514 115.623 115.819 115.775 115.971C117.146 116.581 118.517 117.343 120.041 117.8C120.498 117.952 121.107 117.8 121.412 117.495C123.392 115.971 125.524 114.6 128.114 114.295C129.942 113.99 131.77 113.99 133.598 113.838C133.598 113.533 133.293 113.076 133.293 112.619C133.141 110.485 132.988 108.2 132.836 106.066C132.531 100.428 132.074 94.6368 131.77 88.9984C131.465 84.5791 131.77 80.0075 133.293 75.7406C134.664 71.9308 136.796 68.8831 140.757 67.5116C141.062 67.3592 141.519 67.0544 141.823 66.7496C143.651 64.4638 145.936 62.9399 148.525 62.0255C150.201 61.416 152.029 61.1112 153.705 60.6541C155.228 60.6541 156.599 60.6541 158.122 60.6541C159.188 60.8064 160.255 60.9588 161.321 61.2636C167.718 62.9399 172.593 66.7496 175.944 72.5404C177.315 74.8263 178.077 77.2645 178.534 79.8551C178.686 80.9218 178.229 81.8362 177.315 81.9885C176.401 82.2933 175.639 81.6838 175.335 80.4647C175.182 80.1599 175.182 79.8551 175.182 79.5503C173.659 73.4547 170.003 68.7307 164.52 65.8353C160.711 63.7018 156.599 63.5494 152.334 64.3114C148.982 64.9209 146.241 66.4448 144.26 69.1878C143.803 69.7974 143.042 70.407 142.28 70.5594C139.995 71.3213 138.472 72.8452 137.406 74.8263C135.73 77.874 135.273 81.2266 135.121 84.5792C135.121 88.0841 135.273 91.4367 135.578 94.9416C135.882 100.428 136.187 105.914 136.492 111.4C136.644 112.619 136.796 112.924 138.167 112.924C140.909 112.924 143.651 112.924 146.393 112.924C146.698 112.924 147.002 112.924 147.155 112.924C147.155 112.771 147.307 112.771 147.307 112.619C146.85 112.314 146.393 112.009 145.936 111.704C140.909 108.504 137.863 103.933 137.406 97.837C137.101 94.1797 137.253 90.5223 137.253 87.0174C137.253 85.0363 138.015 84.122 139.843 83.6648C142.28 83.0553 144.413 81.6838 146.241 79.8551C147.764 78.1788 149.439 78.3312 150.81 80.0075C153.4 83.0553 156.446 85.1887 159.95 86.865C163.149 88.2365 166.5 88.9984 170.003 89.1508C172.136 89.3032 173.354 90.37 173.354 92.6558C173.354 93.8749 173.354 94.9416 173.354 96.1608C173.202 103.171 170.156 108.504 164.215 112.009C163.91 112.162 163.606 112.314 163.301 112.619C163.453 112.771 163.606 112.924 163.606 112.924C166.652 112.924 169.699 112.924 172.898 112.924C173.659 112.924 173.964 112.466 173.964 111.704C174.116 110.028 174.116 108.504 174.268 106.828C174.573 100.885 175.03 94.9416 175.182 88.9984C175.335 87.3222 175.792 86.4078 176.858 86.4078C177.924 86.4078 178.534 87.3222 178.381 88.9984C177.924 96.4655 177.467 103.933 177.163 111.552C177.01 114.6 175.335 116.124 172.288 116.276C169.699 116.276 166.957 116.276 164.367 116.276C164.063 116.276 163.606 116.276 163.301 116.429C163.301 116.581 163.301 116.581 163.301 116.733C163.606 116.886 163.91 116.886 164.215 117.038C167.718 117.952 171.374 118.714 174.878 119.933C178.838 121.153 181.428 123.896 182.494 128.01C182.951 129.839 183.103 131.515 183.256 133.344C184.17 140.811 184.931 148.278 185.845 155.897C186.15 158.183 186.455 160.469 186.759 162.755C186.759 163.822 186.759 164.736 186.759 165.803C186.302 167.022 185.845 168.241 185.236 169.308C184.627 171.441 182.799 172.203 180.666 172.66ZM122.478 93.2653H122.325C122.325 91.5891 122.325 90.0652 122.325 88.3889C122.325 88.0841 122.173 87.4746 121.868 87.3222C119.736 85.6459 118.822 83.5124 118.517 80.9218C118.517 80.0075 118.06 79.7027 117.146 79.8551C110.749 80.9218 104.199 80.617 97.8011 79.8551C96.5825 79.7027 96.4301 79.8551 96.2778 81.0742C95.9732 83.5124 95.0592 85.6459 93.079 87.1698C92.7743 87.3222 92.4697 87.7793 92.4697 87.9317C92.4697 91.5891 92.3174 95.3988 92.7743 99.0561C93.6883 106.066 99.9336 111.247 106.941 111.552C114.1 111.704 120.345 106.98 121.868 99.9705C122.173 97.837 122.173 95.5512 122.478 93.2653ZM148.678 82.7505C146.545 85.0363 143.956 86.4078 141.062 87.1698C140.909 87.1698 140.604 87.7793 140.604 87.9317C140.604 90.5223 140.452 93.2653 140.604 95.856C140.757 100.885 142.432 105.152 146.545 108.352C151.115 111.704 155.989 112.466 161.168 110.333C168.632 107.133 171.222 100.58 170.308 92.8082C161.93 92.351 154.619 89.3032 148.678 82.7505ZM126.286 85.1887C127.352 78.636 123.544 71.0165 117.451 67.2068C110.749 63.0923 102.523 63.2447 96.2778 67.8163C90.0325 72.2356 87.5952 79.5503 88.5092 85.1887C91.708 84.7315 92.622 83.8172 92.9266 80.617C92.9266 80.3123 93.079 79.8551 93.079 79.5503C93.3836 78.0264 94.6022 76.8073 96.2778 76.6549C97.1918 76.5025 98.1057 76.5025 99.0196 76.6549C104.96 77.5693 110.901 77.2645 116.842 76.5025C119.584 76.1977 121.412 77.5693 121.716 80.3123C122.021 83.6648 123.087 84.7315 126.286 85.1887ZM148.068 169.308C147.764 167.022 147.611 164.888 147.307 162.602C147.155 161.688 147.154 160.926 147.002 160.012C146.698 158.183 145.784 156.964 144.108 156.354C142.585 155.745 140.909 155.44 139.234 154.983C138.929 154.983 138.624 155.135 138.472 155.288C134.207 159.097 128.875 159.097 124.61 155.288C124.306 155.135 123.849 154.983 123.544 154.983C122.173 155.288 120.802 155.593 119.431 156.05C117.908 156.507 116.385 157.421 116.232 159.25C115.623 162.45 115.319 165.803 114.862 169.155C116.385 169.155 117.908 169.155 119.279 169.155C119.279 168.088 119.431 167.022 119.431 165.955C119.584 164.736 120.193 164.126 121.107 164.126C122.173 164.126 122.63 164.888 122.63 166.26C122.63 167.174 122.478 168.088 122.478 169.155C128.571 169.155 134.359 169.155 140.3 169.155C140.3 167.936 140.3 166.869 140.3 165.65C140.3 164.431 141.823 163.669 142.737 164.431C143.194 164.736 143.499 165.498 143.499 166.107C143.651 167.022 143.651 168.088 143.651 169.155C145.327 169.308 146.698 169.308 148.068 169.308ZM122.325 133.039C122.325 135.02 122.173 137.001 122.325 138.982C122.63 143.706 126.743 147.516 131.313 147.516C136.339 147.516 140.452 143.706 140.757 138.982C140.909 137.001 140.757 134.868 140.757 132.887C140.757 132.582 140.605 132.277 140.452 132.125C139.234 131.058 137.863 130.144 136.492 129.077C132.684 133.191 127.809 133.953 122.325 133.039ZM119.431 129.839C120.193 129.686 120.802 129.534 121.412 129.534C122.325 129.534 123.087 129.839 124.001 129.991C128.266 130.448 132.074 129.686 134.511 125.724C135.425 124.2 137.558 124.2 138.472 125.877C139.538 127.705 141.062 129.077 143.346 129.686C143.194 125.267 141.518 121.762 137.863 119.324C133.75 116.733 129.485 116.733 125.372 119.172C121.412 121.61 119.584 125.267 119.431 129.839ZM88.2046 169.308C88.5092 162.145 88.9662 155.288 89.2708 148.278C86.3766 147.973 83.6348 147.668 80.8929 147.364C80.5883 149.497 80.4359 151.478 80.2836 153.459C79.8266 157.116 79.522 160.774 79.065 164.431C78.7604 167.174 80.436 169.308 82.8732 169.46C84.5488 169.46 86.3767 169.308 88.2046 169.308ZM174.725 169.308C176.553 169.308 178.381 169.46 180.209 169.308C182.189 169.155 183.408 167.936 183.865 165.955C184.017 165.193 184.017 164.431 184.017 163.669C183.56 159.707 183.103 155.745 182.646 151.783C182.494 150.259 182.342 148.887 182.037 147.364C179.143 147.668 176.401 147.973 173.659 148.278C173.964 155.288 174.421 162.298 174.725 169.308ZM150.81 114.143C150.658 115.667 150.658 117.19 150.353 118.562C149.896 120.238 148.221 120.086 146.85 120.695C151.877 126.791 160.711 125.724 164.52 120.543C160.102 120.391 160.711 117.19 160.711 114.143C157.208 114.905 154.009 115.057 150.81 114.143ZM112.12 114.143C108.921 115.057 105.722 114.905 102.371 114.143C102.523 115.209 102.371 116.276 102.828 116.733C104.199 118.257 105.874 119.629 107.398 121.153C108.616 119.933 109.835 118.714 111.206 117.648C112.272 116.733 112.577 115.667 112.12 114.143ZM168.937 121.762C168.785 121.61 168.632 121.61 168.632 121.457C168.328 121.61 167.871 121.61 167.718 121.915C165.738 124.505 163.149 126.334 159.95 127.401C159.95 127.401 159.797 127.553 159.645 127.705C161.016 128.315 162.082 129.077 163.453 129.534C165.738 130.296 167.109 129.686 167.871 127.401C168.328 125.724 168.632 123.743 168.937 121.762ZM128.114 154.069C130.094 155.44 132.988 155.44 134.816 154.069C134.511 152.85 134.207 151.783 133.902 150.716C132.227 150.716 130.551 150.716 128.875 150.716C128.723 151.783 128.418 152.85 128.114 154.069ZM116.537 120.238C115.928 119.933 115.319 119.629 114.862 119.476C114.557 119.324 114.252 119.476 113.948 119.629C112.577 120.848 111.206 122.219 109.835 123.438C110.596 124.2 111.358 124.962 112.272 125.724C113.491 123.896 115.014 122.067 116.537 120.238ZM104.96 123.591C104.96 123.438 104.96 123.438 104.808 123.286C103.894 122.372 102.828 121.457 101.914 120.543C100.391 119.019 100.391 119.019 98.258 120.238C99.6289 122.067 101.152 123.896 102.523 125.724C103.437 124.962 104.199 124.2 104.96 123.591ZM146.85 130.144C148.525 129.382 150.049 128.62 151.572 127.858C149.592 126.791 147.764 125.877 146.088 124.962C146.393 126.486 146.545 128.162 146.85 130.144ZM147.459 116.886C147.459 116.733 147.459 116.733 147.459 116.581C145.022 116.581 142.585 116.581 140.148 116.581C141.366 118.257 142.889 118.41 144.565 117.648C145.327 117.343 146.088 117.343 146.698 117.038C146.85 117.19 147.154 117.038 147.459 116.886ZM89.1185 93.113C89.1185 91.5891 89.1185 90.0652 89.1185 88.6937C88.0522 89.1508 87.2906 89.7604 87.2906 90.8271C87.2906 91.8939 87.8999 92.6558 89.1185 93.113ZM125.524 88.6937C125.524 90.2176 125.524 91.5891 125.524 93.2653C126.591 92.8082 127.2 92.0462 127.2 90.9795C127.352 89.7604 126.743 89.1508 125.524 88.6937ZM144.108 136.544C144.26 136.544 144.26 136.696 144.413 136.696C144.565 136.239 145.022 135.63 145.022 135.172C145.022 134.715 144.565 134.258 144.413 133.801C144.26 133.801 144.26 133.953 144.108 133.953C144.108 134.868 144.108 135.63 144.108 136.544ZM118.822 133.953C117.451 134.715 117.603 135.934 118.822 136.696C118.822 135.63 118.822 134.868 118.822 133.953Z" fill="black"/>
<defs>
<radialGradient id="paint0_radial_542_6" cx="0" cy="0" r="1" gradientUnits="userSpaceOnUse" gradientTransform="translate(97 134) rotate(90) scale(97)">
<stop stop-color="#007DE7"/>
<stop offset="1" stop-color="#007DE7" stop-opacity="0"/>
</radialGradient>
</defs>
</svg>
