<svg width="280" height="277" viewBox="0 0 280 277" fill="none" xmlns="http://www.w3.org/2000/svg">
<g filter="url(#filter0_d_617_5)">
<path d="M148.976 45.864C101.464 33.2585 99.1853 45.5039 87.5894 50.7696C64.0735 61.7551 66.0767 75.7066 52.2934 130.264C38.5101 184.822 91.549 199.892 151.956 215.042C204.281 228.224 227.437 154.565 229.554 125.981C231.892 97.2815 196.487 58.4695 148.976 45.864Z" fill="white"/>
</g>
<path d="M170.029 80.0001C171.978 80.5897 173.513 81.6706 174.045 83.7539C174.202 84.3828 174.242 85.051 174.242 85.6995C174.261 95.7227 174.242 105.746 174.242 115.769C174.242 116.064 174.242 116.359 174.202 116.653C174.084 117.597 173.474 118.167 172.588 118.167C171.702 118.167 171.092 117.636 170.935 116.673C170.876 116.28 170.876 115.887 170.876 115.494C170.876 105.628 170.876 95.7816 170.876 85.9157C170.876 83.7932 170.423 83.3412 168.258 83.3412C146.467 83.3412 124.696 83.3412 102.905 83.3412C100.838 83.3608 100.346 83.8325 100.346 85.8961C100.346 115.513 100.346 145.111 100.346 174.728C100.346 176.812 100.819 177.303 102.886 177.303C124.696 177.303 146.506 177.303 168.336 177.303C170.423 177.303 170.895 176.831 170.895 174.768C170.895 169.756 170.895 164.745 170.895 159.733C170.895 159.281 170.915 158.809 171.033 158.377C171.25 157.591 171.82 157.198 172.647 157.217C173.474 157.237 174.005 157.669 174.183 158.475C174.261 158.888 174.261 159.32 174.261 159.753C174.261 164.528 174.163 169.324 174.301 174.1C174.399 177.283 173.415 179.583 170.246 180.644C147.215 180.644 124.184 180.644 101.153 180.644C99.0275 180.015 97.6496 178.639 97.0197 176.517C97 145.701 97 114.924 97 84.1273C97.6299 82.0047 99.0275 80.6487 101.134 80.0001C124.105 80.0001 147.057 80.0001 170.029 80.0001Z" fill="black"/>
<path d="M197.784 106.139C197.312 107.141 196.859 108.143 196.347 109.224C197.41 110.168 197.075 111.209 196.406 112.31C195.146 114.413 193.946 116.535 192.686 118.736C193.138 119.011 193.552 119.267 193.965 119.503C196.583 121.095 197.39 123.885 195.914 126.539C193.788 130.332 191.583 134.085 189.379 137.839C188.769 138.861 187.843 139.176 186.997 138.704C186.111 138.213 185.914 137.25 186.544 136.149C188.532 132.69 190.52 129.231 192.528 125.772C193.827 123.512 193.572 122.785 191.032 121.684C190.855 121.979 190.658 122.274 190.481 122.569C186.465 129.546 182.371 136.483 178.434 143.499C176.879 146.27 174.852 148.648 172.903 151.105C171.427 152.972 170.029 154.918 168.69 156.883C167.411 158.809 165.738 159.772 163.395 159.576C163.061 159.556 162.588 159.772 162.372 160.047C161.25 161.384 160.206 162.759 159.124 164.116C157.175 166.494 154.242 166.061 153.041 163.251C152.746 162.563 152.47 161.875 152.136 161.05C151.919 161.325 151.762 161.502 151.624 161.698C150.62 163.192 149.223 163.84 147.786 163.467C146.25 163.074 145.325 161.816 145.187 159.949C145.049 158.062 144.872 156.195 144.518 154.25C144.42 154.525 144.282 154.8 144.203 155.075C143.022 158.632 141.841 162.209 140.64 165.766C140.187 167.122 139.105 167.555 138.061 166.847C137.353 166.356 137.156 165.648 137.412 164.862C138.77 160.735 140.128 156.608 141.546 152.5C142.077 150.987 143.573 150.162 145.128 150.339C146.545 150.496 147.766 151.655 147.963 153.188C148.219 155.35 148.376 157.532 148.593 159.89C148.967 159.399 149.223 159.006 149.518 158.652C151.014 156.863 153.77 157.06 154.911 159.104C155.443 160.028 155.797 161.069 156.27 162.131C157.451 160.676 158.612 159.3 159.714 157.885C159.852 157.728 159.832 157.335 159.734 157.119C158.809 155.331 158.868 153.581 159.872 151.872C161.978 148.295 163.041 144.285 164.616 140.473C164.872 139.863 165.128 139.274 165.442 138.704C169.832 131.079 174.241 123.453 178.651 115.828C178.828 115.513 179.005 115.199 179.163 114.904C176.978 113.371 176.584 112.722 177.155 111.72C177.726 110.737 178.454 110.757 180.875 111.877C181.033 111.622 181.229 111.366 181.387 111.091C182.568 109.087 183.749 107.082 184.91 105.077C185.383 104.272 185.973 103.82 186.977 103.898C187.253 103.918 187.706 103.564 187.863 103.289C188.709 101.795 189.792 100.636 191.524 100.243C194.142 99.6727 196.662 101.147 197.469 103.702C197.528 103.918 197.627 104.114 197.686 104.331C197.784 104.959 197.784 105.549 197.784 106.139ZM182.273 116.555C177.765 124.337 173.316 132.042 168.848 139.785C170.816 140.925 172.706 142.006 174.655 143.146C179.143 135.383 183.592 127.679 188.08 119.916C186.091 118.756 184.221 117.695 182.273 116.555ZM187.292 107.848C186.151 109.833 185.068 111.7 183.946 113.646C185.914 114.786 187.784 115.867 189.753 116.987C190.894 115.022 191.997 113.116 193.099 111.189C191.131 110.069 189.28 108.988 187.292 107.848ZM167.431 142.851C166.604 145.072 165.836 147.135 165.049 149.218C166.21 149.887 167.273 150.516 168.375 151.144C169.832 149.376 171.249 147.666 172.706 145.897C170.915 144.855 169.222 143.892 167.431 142.851ZM193.355 107.455C193.906 106.374 194.91 105.49 194.103 104.331C193.808 103.918 193.079 103.564 192.548 103.603C191.229 103.662 191.052 104.92 190.422 105.805C191.446 106.374 192.351 106.885 193.355 107.455ZM166.584 153.994C165.561 153.405 164.635 152.894 163.671 152.343C163.12 153.365 162.175 154.23 162.864 155.35C163.12 155.783 163.848 156.176 164.36 156.176C165.718 156.235 165.954 154.977 166.584 153.994Z" fill="black"/>
<path d="M115.543 93.4231C115.543 94.6023 115.543 95.6439 115.543 96.7838C116.016 96.7838 116.429 96.7838 116.862 96.7838C130.051 96.7838 143.239 96.7838 156.428 96.7838C156.92 96.7838 157.412 96.8035 157.884 96.9018C158.711 97.0786 159.105 97.6879 159.105 98.474C159.105 99.2994 158.672 99.9087 157.806 100.066C157.432 100.145 157.018 100.145 156.624 100.145C142.609 100.145 128.614 100.145 114.598 100.145C112.571 100.145 112.138 99.6925 112.138 97.6486C112.138 95.9387 112.138 94.2486 112.138 92.5387C112.138 90.5931 112.649 90.0821 114.579 90.0821C122.157 90.0821 129.736 90.0821 137.314 90.0821C143.672 90.0821 150.05 90.0821 156.408 90.0821C156.703 90.0821 156.998 90.0624 157.294 90.0821C158.455 90.1607 159.183 90.8682 159.144 91.8312C159.105 92.7746 158.396 93.4035 157.254 93.4231C153.062 93.4428 148.849 93.4231 144.656 93.4231C135.346 93.4231 126.015 93.4231 116.704 93.4231C116.33 93.4231 115.976 93.4231 115.543 93.4231Z" fill="black"/>
<path d="M118.121 145.445C121.094 145.485 123.791 146.369 126.231 148.039C127.196 148.708 127.472 149.631 126.96 150.476C126.448 151.302 125.444 151.518 124.46 150.87C122.728 149.73 120.877 148.963 118.81 148.826C112.767 148.413 107.708 152.737 107.118 158.849C106.586 164.371 110.818 169.697 116.369 170.444C122.432 171.25 127.747 167.398 128.751 161.463C128.83 160.952 128.869 160.421 128.908 159.91C129.007 158.731 129.656 158.023 130.641 158.043C131.645 158.063 132.255 158.809 132.255 159.989C132.275 168.046 124.755 174.768 116.724 173.883C109.539 173.078 104.264 167.653 103.752 160.578C103.181 152.402 109.874 145.367 118.121 145.445Z" fill="black"/>
<path d="M144.046 118.56C138.18 118.56 132.314 118.56 126.448 118.56C126.054 118.56 125.661 118.579 125.267 118.501C124.46 118.363 123.987 117.852 123.928 117.027C123.869 116.221 124.224 115.612 124.991 115.356C125.346 115.238 125.759 115.199 126.153 115.199C138.042 115.199 149.951 115.199 161.841 115.199C162.155 115.199 162.49 115.219 162.805 115.297C163.691 115.494 164.144 116.083 164.124 116.987C164.104 117.832 163.514 118.422 162.628 118.52C162.274 118.56 161.9 118.56 161.545 118.56C155.719 118.56 149.892 118.56 144.046 118.56Z" fill="black"/>
<path d="M127.196 128.642C121.96 128.642 116.704 128.642 111.468 128.642C111.133 128.642 110.819 128.661 110.484 128.622C109.421 128.524 108.791 127.895 108.791 126.971C108.791 126.048 109.421 125.419 110.504 125.301C110.74 125.281 110.956 125.281 111.193 125.281C121.881 125.281 132.55 125.281 143.239 125.281C143.534 125.281 143.829 125.281 144.125 125.32C145.128 125.458 145.699 126.107 145.68 127.011C145.66 127.875 145.089 128.485 144.125 128.602C143.77 128.642 143.396 128.642 143.042 128.642C137.747 128.642 132.471 128.642 127.196 128.642Z" fill="black"/>
<path d="M135.72 103.505C141.034 103.505 146.33 103.505 151.644 103.505C153.278 103.505 154.066 104.036 154.085 105.137C154.105 106.277 153.278 106.866 151.625 106.866C140.975 106.866 130.326 106.866 119.677 106.866C119.578 106.866 119.48 106.866 119.382 106.866C117.964 106.846 117.177 106.218 117.197 105.156C117.197 104.095 117.964 103.505 119.401 103.505C124.834 103.486 130.267 103.505 135.72 103.505Z" fill="black"/>
<path d="M118.869 137.014C116.153 137.014 113.417 137.034 110.7 137.014C109.381 137.014 108.574 136.11 108.83 134.97C109.007 134.145 109.696 133.673 110.779 133.673C112.787 133.653 114.775 133.673 116.783 133.673C119.991 133.673 123.22 133.673 126.428 133.673C126.684 133.673 126.96 133.653 127.216 133.693C128.239 133.791 128.908 134.498 128.889 135.402C128.869 136.326 128.18 136.994 127.137 137.014C124.932 137.034 122.747 137.034 120.543 137.034C119.972 137.014 119.421 137.014 118.869 137.014Z" fill="black"/>
<path d="M117.531 161.168C119.48 159.202 121.271 157.355 123.102 155.586C123.515 155.193 124.184 154.8 124.696 154.839C125.188 154.879 125.818 155.37 126.094 155.822C126.527 156.51 126.173 157.217 125.621 157.768C123.751 159.635 121.881 161.521 119.992 163.388C119.913 163.467 119.834 163.526 119.775 163.585C118.437 164.686 116.685 164.744 115.386 163.585C114.106 162.425 112.886 161.187 111.685 159.929C110.957 159.183 110.996 158.2 111.645 157.551C112.334 156.864 113.299 156.844 114.086 157.63C115.228 158.75 116.311 159.91 117.531 161.168Z" fill="black"/>
<path d="M156.604 128.642C154.734 128.642 152.864 128.662 151.014 128.642C149.754 128.622 149.045 127.934 149.124 126.893C149.163 126.126 149.577 125.596 150.325 125.419C150.738 125.321 151.171 125.301 151.585 125.301C154.951 125.301 158.336 125.301 161.702 125.301C162.057 125.301 162.431 125.321 162.765 125.38C163.671 125.537 164.143 126.107 164.124 127.011C164.104 127.915 163.592 128.524 162.687 128.583C161.21 128.662 159.734 128.642 158.277 128.662C157.726 128.642 157.175 128.642 156.604 128.642Z" fill="black"/>
<path d="M139.912 137.014C138.042 137.014 136.172 137.014 134.302 137.014C133.042 137.014 132.275 136.366 132.275 135.363C132.255 134.361 133.042 133.673 134.283 133.673C137.983 133.653 141.684 133.653 145.385 133.673C146.605 133.673 147.392 134.381 147.373 135.383C147.353 136.385 146.585 136.994 145.326 137.014C143.515 137.014 141.723 137.014 139.912 137.014Z" fill="black"/>
<circle cx="112" cy="103" r="64" fill="url(#paint0_radial_617_5)" fill-opacity="0.5"/>
<defs>
<filter id="filter0_d_617_5" x="0.0909424" y="0.353821" width="279.572" height="276.252" filterUnits="userSpaceOnUse" color-interpolation-filters="sRGB">
<feFlood flood-opacity="0" result="BackgroundImageFix"/>
<feColorMatrix in="SourceAlpha" type="matrix" values="0 0 0 0 0 0 0 0 0 0 0 0 0 0 0 0 0 0 127 0" result="hardAlpha"/>
<feOffset dy="10"/>
<feGaussianBlur stdDeviation="25"/>
<feComposite in2="hardAlpha" operator="out"/>
<feColorMatrix type="matrix" values="0 0 0 0 0.191111 0 0 0 0 0.2304 0 0 0 0 0.266667 0 0 0 0.15 0"/>
<feBlend mode="normal" in2="BackgroundImageFix" result="effect1_dropShadow_617_5"/>
<feBlend mode="normal" in="SourceGraphic" in2="effect1_dropShadow_617_5" result="shape"/>
</filter>
<radialGradient id="paint0_radial_617_5" cx="0" cy="0" r="1" gradientUnits="userSpaceOnUse" gradientTransform="translate(112 103) rotate(90) scale(64)">
<stop stop-color="#007DE7"/>
<stop offset="1" stop-color="#007DE7" stop-opacity="0"/>
</radialGradient>
</defs>
</svg>
