<svg width="281" height="277" viewBox="0 0 281 277" fill="none" xmlns="http://www.w3.org/2000/svg">
<g filter="url(#filter0_d_617_7)">
<path d="M149.385 45.864C101.873 33.2585 99.5945 45.5039 87.9986 50.7696C64.4827 61.7551 66.4858 75.7066 52.7026 130.264C38.9193 184.822 91.9581 199.892 152.366 215.042C204.69 228.224 227.846 154.565 229.963 125.981C232.301 97.2815 196.896 58.4695 149.385 45.864Z" fill="white"/>
</g>
<path d="M175.175 181.316C173.862 181.316 172.548 181.316 171.234 181.316C169.483 180.878 167.877 180.44 166.126 180.002C165.98 180.002 165.834 180.002 165.688 180.148C165.104 180.44 164.52 180.878 164.082 181.316C141.167 181.316 118.251 181.316 95.3354 181.316C94.3136 180.878 93.4379 180.002 93 178.98C93 174.599 93 170.219 93 165.838C93 165.692 93.146 165.546 93.146 165.254C93.5838 163.502 93.8758 161.457 94.7515 159.851C98.4005 152.112 104.531 148.17 112.996 147.878C113.434 147.878 114.018 147.731 114.31 147.439C115.77 146.125 117.375 145.249 119.127 144.811C119.273 144.811 119.565 144.665 119.711 144.519C120.148 143.789 119.565 141.891 118.981 141.453C113.288 137.802 109.931 132.545 109.056 125.828C109.056 125.536 108.764 125.098 108.326 124.952C106.866 124.368 105.698 123.346 104.823 121.886C103.947 120.28 103.217 118.381 103.217 116.337C103.071 111.956 102.925 107.722 103.071 103.341C103.509 92.9738 110.661 84.3586 120.732 81.7302C121.9 81.4382 123.068 81.2922 124.089 81.0001C130.803 81.0001 137.372 81.0001 144.086 81.0001C144.232 81.0001 144.232 81.1461 144.378 81.1461C147.151 82.3143 147.881 84.6506 146.129 87.133C145.545 87.8631 145.108 88.7392 144.524 89.4693C145.253 89.6153 145.983 89.9074 146.567 90.0534C151.384 91.5136 156.784 96.0402 156.492 103.341C156.346 106.846 156.492 110.496 156.492 114.001C156.492 115.607 156.2 117.213 155.909 118.673C155.325 121.156 154.157 123.346 151.53 124.514C150.8 124.806 150.508 125.244 150.508 125.974C149.632 132.253 146.713 137.218 141.313 140.723C140.145 141.599 139.561 142.329 139.853 143.643V143.789C139.999 144.081 140.291 144.519 140.437 144.519C142.334 144.957 143.794 145.833 145.253 147.001C145.545 147.293 145.983 147.439 146.421 147.439C148.173 147.731 149.924 147.878 151.676 148.17C152.989 148.462 154.303 149.046 155.471 149.484C156.638 147.293 157.806 145.103 159.12 143.059C160.433 141.015 162.185 139.262 163.79 137.364C163.644 137.364 163.644 137.364 163.498 137.364C162.185 137.364 161.455 136.634 161.455 135.612C161.455 134.59 162.185 134.006 163.644 134.006C164.52 134.006 165.396 134.006 166.418 134.006C166.272 133.568 166.126 133.275 165.98 132.837C164.666 129.771 163.352 126.851 162.039 123.784C161.017 121.302 162.477 118.965 165.25 118.819C166.418 118.819 167.439 118.819 168.607 118.819C170.504 118.819 171.526 119.55 172.11 121.302C172.256 122.032 172.694 122.178 173.278 122.178C175.467 122.178 177.656 122.178 179.846 122.178C181.743 122.178 183.057 123.2 183.349 124.952C183.495 125.682 183.203 126.559 182.911 127.289C182.035 129.479 181.16 131.669 180.138 133.86C181.305 133.86 182.473 133.86 183.495 133.86C184.517 133.86 185.1 134.59 185.1 135.466C185.1 136.342 184.517 137.072 183.495 137.072C183.203 137.072 183.057 137.072 182.619 137.072C182.911 137.364 183.057 137.51 183.203 137.802C187.728 142.329 190.793 147.585 192.252 153.718C192.69 155.617 192.982 157.515 193.274 159.413C193.274 160.581 193.274 161.603 193.274 162.772C193.274 162.918 193.128 163.064 193.128 163.356C191.815 171.679 186.998 177.082 179.116 179.71C177.802 180.878 176.489 181.024 175.175 181.316ZM153.135 113.271C153.135 112.541 153.135 111.81 153.135 111.08C153.135 110.058 152.405 109.328 151.53 109.328C150.654 109.328 149.924 110.058 149.924 111.08C149.924 111.518 149.924 112.102 149.924 112.541C149.924 113.563 149.194 114.293 148.319 114.439C147.297 114.439 146.567 113.709 146.567 112.541C146.567 111.664 146.567 110.642 146.567 109.766C146.567 108.598 146.129 108.16 145.108 108.014C144.086 107.868 143.21 107.868 142.188 107.722C138.101 107.138 134.307 105.97 131.095 103.341C130.22 102.611 129.782 102.757 128.906 103.487C127.009 105.094 124.819 106.262 122.484 106.846C120.002 107.43 117.667 107.722 115.186 108.014C113.726 108.16 113.434 108.598 113.288 110.058C113.288 110.934 113.288 111.956 113.288 112.833C113.288 113.855 112.559 114.585 111.683 114.585C110.807 114.585 110.077 113.855 109.931 112.833C109.931 112.249 109.931 111.664 109.931 111.226C109.931 110.204 109.201 109.62 108.326 109.62C107.45 109.62 106.72 110.204 106.574 111.08C106.428 114.001 106.282 116.921 107.596 119.696C108.18 120.864 108.91 121.74 110.223 122.178C111.537 122.616 112.267 123.492 112.413 124.952C112.559 125.682 112.559 126.559 112.705 127.289C114.31 136.05 122.922 142.475 131.825 141.307C140.291 140.284 146.421 133.86 147.297 125.244C147.443 123.638 148.173 122.616 149.632 122.178C150.8 121.74 151.53 121.01 152.114 119.988C152.989 117.651 153.135 115.461 153.135 113.271ZM174.007 177.958C178.094 177.958 182.181 176.206 185.538 172.701C189.187 168.904 190.647 164.232 189.917 158.975C188.895 152.112 186.122 145.979 181.16 141.015C178.97 138.824 176.343 137.51 172.986 137.656C170.65 137.802 168.753 138.386 167.001 139.7C165.98 140.576 164.812 141.599 163.936 142.621C160.141 147.147 157.806 152.404 156.784 158.245C155.033 168.758 162.769 177.958 174.007 177.958ZM153.135 105.97C153.135 105.386 153.135 104.363 153.135 103.341C153.281 98.8146 151.092 95.8942 147.151 93.996C144.816 92.8278 142.48 92.6818 139.853 92.6818C139.269 92.6818 138.539 92.6818 137.956 92.6818C136.934 92.5357 136.35 91.8056 136.496 90.9295C136.496 90.0534 137.226 89.4693 138.101 89.3233C138.539 89.3233 139.123 89.3233 139.561 89.3233C140.291 89.4693 140.729 89.0312 141.167 88.4472C141.75 87.425 142.626 86.4029 143.21 85.3807C143.356 85.0887 143.502 84.7967 143.648 84.5046C143.356 84.3586 143.064 84.2126 142.626 84.2126C137.08 84.2126 131.533 84.2126 126.133 84.2126C117.083 84.2126 109.201 90.4915 107.012 99.2527C106.428 101.443 106.282 103.779 106.428 105.824C107.888 105.97 109.201 106.116 110.661 106.262C111.975 104.947 112.705 104.509 114.602 104.363C115.332 104.217 116.062 104.217 116.791 104.071C120.586 103.633 124.089 102.757 127.009 100.129C128.76 98.6686 131.095 98.8146 132.993 100.275C134.161 101.151 135.328 102.027 136.788 102.465C139.123 103.195 141.604 103.779 143.94 104.217C145.691 104.509 147.589 104.655 148.902 106.262C149.048 106.408 149.194 106.408 149.34 106.408C150.508 106.408 151.676 106.262 153.135 105.97ZM96.2111 177.958C103.801 177.958 111.099 177.958 118.251 177.958C113.58 169.635 113.434 160.435 112.996 151.382C112.85 151.382 112.705 151.382 112.559 151.382C104.969 151.528 97.9626 157.077 96.7949 164.67C96.0651 168.904 96.3571 173.431 96.2111 177.958ZM154.449 153.28C151.968 151.966 149.34 151.236 146.567 151.236C146.129 160.435 145.837 169.635 141.021 177.958C148.027 177.958 154.887 177.958 162.039 177.958C153.427 171.533 151.53 163.21 154.449 153.28ZM134.452 177.958C133.723 173.285 132.993 168.758 132.117 164.232C131.971 163.356 132.117 162.042 131.533 161.603C130.949 161.165 129.636 161.457 128.76 161.311C127.884 161.165 127.738 161.603 127.592 162.334C127.009 165.692 126.425 169.05 125.987 172.409C125.695 174.161 125.403 176.059 125.111 177.958C128.176 177.958 131.241 177.958 134.452 177.958ZM116.354 156.639C116.937 160.581 117.375 164.232 118.105 168.028C118.543 170.803 119.419 173.431 121.024 175.767C121.17 176.059 121.462 176.352 121.9 176.79C122.046 176.498 122.046 176.498 122.046 176.352C122.922 171.533 123.651 166.568 124.527 161.749C124.673 160.581 124.819 159.705 123.797 159.121C120.732 159.997 118.835 157.807 116.354 156.639ZM137.518 176.352C137.664 176.352 137.664 176.352 137.81 176.352C141.75 170.365 142.188 163.648 142.918 156.931C141.313 157.661 139.999 158.391 138.539 159.121C137.664 159.559 136.788 159.705 135.912 158.975C135.036 159.705 134.744 160.289 135.036 161.457C135.62 164.816 136.204 168.174 136.788 171.533C137.08 172.993 137.226 174.599 137.518 176.352ZM164.958 122.762C164.958 122.908 164.958 123.054 164.958 123.2C166.564 126.851 168.169 130.501 169.775 134.152C169.921 134.444 170.359 134.59 170.65 134.59C172.256 134.59 173.862 134.59 175.467 134.59C176.051 134.59 176.197 134.444 176.489 133.86C177.511 131.523 178.386 129.187 179.408 126.997C179.554 126.851 179.554 126.559 179.554 126.266C177.365 126.266 175.321 126.266 173.132 126.266C173.132 126.559 173.278 126.705 173.278 126.851C173.716 128.165 173.278 129.041 172.402 129.333C171.38 129.625 170.504 129.187 170.067 127.727C169.629 126.266 169.191 124.806 168.607 123.346C168.461 123.054 168.169 122.762 168.023 122.616C167.147 122.762 166.126 122.762 164.958 122.762ZM123.214 143.497C122.63 145.541 123.214 147.147 125.111 148.024C126.425 148.754 127.884 149.192 129.344 149.776C129.636 149.922 130.074 149.922 130.366 149.776C131.825 149.192 133.285 148.754 134.598 148.024C136.35 147.147 136.934 145.541 136.496 143.497C131.971 144.957 127.592 144.957 123.214 143.497ZM124.089 151.674C123.214 150.944 122.192 150.214 121.316 149.338C120.148 148.17 119.857 148.024 118.251 148.754C117.813 148.9 117.521 149.192 117.083 149.484C116.499 149.922 116.354 150.36 116.499 151.09C117.229 153.426 118.981 154.594 120.878 155.617C122.046 154.156 123.214 152.842 124.089 151.674ZM138.539 155.471C140.291 154.594 142.042 153.426 142.772 151.382C143.21 150.506 143.064 149.776 142.188 149.338C141.313 148.9 140.583 148.608 139.707 148.316C139.561 148.316 139.123 148.316 138.977 148.462C137.81 149.63 136.496 150.798 135.474 151.82C136.35 152.842 137.372 154.01 138.539 155.471ZM125.403 155.325C126.571 158.829 129.49 158.099 131.825 157.807C132.701 157.661 133.577 156.347 134.452 155.617C131.679 152.55 127.592 152.696 125.403 155.325Z" fill="black"/>
<path d="M170.651 161.311C170.943 161.457 171.38 161.896 171.818 162.334C172.402 162.918 173.132 163.21 174.008 162.772C174.737 162.334 175.029 161.603 174.737 160.873C174.446 159.997 173.716 159.705 172.986 159.705C170.651 159.559 168.899 158.099 168.315 155.909C167.731 153.718 168.753 151.528 170.651 150.36C171.089 150.068 171.38 149.922 171.526 149.338C171.672 148.462 172.256 148.024 173.132 148.024C174.008 148.024 174.592 148.608 174.737 149.484C174.883 149.776 175.029 150.068 175.321 150.36C175.905 150.944 176.635 151.382 177.219 151.966C177.949 152.696 177.657 153.718 176.927 154.302C176.197 154.887 175.321 154.741 174.592 154.01C174.3 153.718 173.862 153.28 173.424 153.134C172.548 152.842 171.672 153.572 171.526 154.448C171.38 155.325 171.964 156.201 172.986 156.347C173.424 156.347 173.862 156.347 174.3 156.493C176.343 156.931 177.949 158.537 178.241 160.581C178.532 162.772 177.511 164.67 175.613 165.692C175.321 165.838 175.029 166.276 174.883 166.714C174.592 167.59 174.008 168.028 173.278 168.028C172.548 168.028 171.818 167.59 171.672 166.86C171.526 166.276 171.234 165.984 170.797 165.692C170.213 165.254 169.483 164.67 169.045 164.086C168.169 162.772 169.045 161.311 170.651 161.311Z" fill="black"/>
<circle cx="151" cy="115" r="84" fill="url(#paint0_radial_617_7)" fill-opacity="0.5"/>
<defs>
<filter id="filter0_d_617_7" x="0.500122" y="0.353821" width="279.572" height="276.252" filterUnits="userSpaceOnUse" color-interpolation-filters="sRGB">
<feFlood flood-opacity="0" result="BackgroundImageFix"/>
<feColorMatrix in="SourceAlpha" type="matrix" values="0 0 0 0 0 0 0 0 0 0 0 0 0 0 0 0 0 0 127 0" result="hardAlpha"/>
<feOffset dy="10"/>
<feGaussianBlur stdDeviation="25"/>
<feComposite in2="hardAlpha" operator="out"/>
<feColorMatrix type="matrix" values="0 0 0 0 0.191111 0 0 0 0 0.2304 0 0 0 0 0.266667 0 0 0 0.15 0"/>
<feBlend mode="normal" in2="BackgroundImageFix" result="effect1_dropShadow_617_7"/>
<feBlend mode="normal" in="SourceGraphic" in2="effect1_dropShadow_617_7" result="shape"/>
</filter>
<radialGradient id="paint0_radial_617_7" cx="0" cy="0" r="1" gradientUnits="userSpaceOnUse" gradientTransform="translate(151 115) rotate(90) scale(84)">
<stop stop-color="#FED23D"/>
<stop offset="1" stop-color="#FED23D" stop-opacity="0"/>
</radialGradient>
</defs>
</svg>
