<svg width="281" height="277" viewBox="0 0 281 277" fill="none" xmlns="http://www.w3.org/2000/svg">
<g filter="url(#filter0_d_617_8)">
<path d="M149.385 45.864C101.873 33.2585 99.5945 45.5039 87.9986 50.7696C64.4827 61.7551 66.4858 75.7066 52.7026 130.264C38.9193 184.822 91.9581 199.892 152.366 215.042C204.69 228.224 227.846 154.565 229.963 125.981C232.301 97.2815 196.896 58.4695 149.385 45.864Z" fill="white"/>
</g>
<circle cx="168" cy="155" r="64" fill="url(#paint0_radial_617_8)" fill-opacity="0.5"/>
<path d="M126.014 81.3756C127.53 81.8866 129.026 82.4172 130.541 82.8889C143.218 86.7606 155.915 90.6126 168.591 94.4646C169.123 94.6219 169.674 94.7005 170.225 94.7005C173.572 94.7201 176.918 94.6808 180.264 94.7398C182.607 94.7791 184.555 96.5872 184.851 98.8276C185.166 101.186 183.788 103.466 181.524 104.095C180.619 104.35 179.654 104.291 178.709 104.37C178.414 104.389 178.138 104.37 177.745 104.37C177.745 104.881 177.745 105.313 177.745 105.726C177.745 108.87 177.745 112.015 177.745 115.159C177.745 116.535 177.39 116.948 176.032 117.184C174.969 117.361 174.241 118.245 174.3 119.228C174.379 120.21 175.186 121.016 176.17 121.075C177.174 121.134 178.02 120.407 178.197 119.326C178.217 119.188 178.217 119.07 178.237 118.933C178.414 118.107 179.083 117.577 179.851 117.655C180.638 117.734 181.15 118.343 181.17 119.228C181.209 121.488 179.477 123.492 177.095 123.944C174.831 124.377 172.509 123.04 171.682 120.82C170.855 118.579 171.721 116.005 173.827 114.904C174.635 114.491 174.851 114.02 174.831 113.194C174.792 110.325 174.812 107.436 174.812 104.389C174.379 104.389 174.005 104.389 173.631 104.389C168.119 104.389 162.607 104.389 157.096 104.389C156.741 104.389 156.367 104.409 156.013 104.331C155.245 104.154 154.793 103.623 154.852 102.837C154.891 102.031 155.383 101.52 156.23 101.442C156.525 101.422 156.82 101.422 157.115 101.422C164.536 101.422 171.938 101.422 179.359 101.422C179.772 101.422 180.225 101.402 180.619 101.304C181.524 101.048 182.016 100.282 181.937 99.3779C181.859 98.4935 181.189 97.8057 180.284 97.7074C179.989 97.6681 179.693 97.6877 179.398 97.6877C164.694 97.6877 150.009 97.6877 135.305 97.6877C134.99 97.6877 134.655 97.6877 134.222 97.6877C134.439 98.9849 134.636 100.164 134.852 101.442C135.266 101.442 135.62 101.442 135.955 101.442C140.187 101.442 144.419 101.442 148.651 101.442C148.946 101.442 149.242 101.422 149.537 101.461C150.285 101.54 150.738 101.972 150.836 102.719C150.934 103.505 150.58 104.075 149.812 104.291C149.438 104.409 149.045 104.389 148.651 104.389C144.301 104.389 139.931 104.389 135.758 104.389C135.463 105.47 135.463 106.669 134.872 107.318C134.262 107.986 133.061 108.084 131.959 108.497C131.959 129.467 131.959 150.692 131.959 172.036C132.667 172.036 133.356 172.036 134.026 172.036C135.029 172.036 135.718 172.507 136.014 173.47C136.644 175.475 137.254 177.46 137.825 179.484C138.159 180.663 137.884 181.194 136.644 182.059C129.104 182.059 121.546 182.059 114.006 182.059C113.081 181.41 112.53 180.605 112.904 179.406C113.514 177.44 114.105 175.455 114.715 173.49C115.03 172.488 115.719 171.996 116.782 172.016C117.451 172.016 118.14 172.016 118.809 172.016C118.809 150.653 118.809 129.428 118.809 108.517C117.727 108.084 116.546 107.966 115.975 107.318C115.384 106.65 115.384 105.47 115.089 104.389C113.357 104.389 111.428 104.389 109.499 104.389C109.341 104.389 109.184 104.429 109.007 104.448C109.007 106.178 109.007 107.848 109.007 109.637C109.892 109.637 110.699 109.617 111.507 109.637C113.003 109.696 113.908 110.541 113.947 112.035C114.006 113.705 114.006 115.376 113.947 117.046C113.908 118.481 113.022 119.385 111.585 119.405C108.869 119.463 106.133 119.463 103.416 119.405C101.861 119.385 101.034 118.461 101.015 116.909C100.995 115.336 100.995 113.764 101.015 112.192C101.034 110.521 101.881 109.676 103.574 109.637C104.341 109.617 105.129 109.637 105.916 109.637C105.916 107.829 105.916 106.139 105.916 104.389C105.03 104.389 104.204 104.409 103.397 104.389C101.842 104.35 101.034 103.564 101.015 102.011C100.995 100.498 101.015 99.0045 101.015 97.4912C101.015 95.408 101.684 94.7005 103.79 94.7594C104.794 94.7791 105.601 94.5236 106.428 93.9536C108.18 92.6958 110.011 91.5167 111.782 90.2982C116.113 87.2912 120.483 84.3432 124.833 81.3756C125.227 81.3756 125.62 81.3756 126.014 81.3756ZM133.691 94.6808C142.037 94.6808 150.285 94.6808 158.533 94.6808C158.552 94.6219 158.552 94.5629 158.572 94.5039C148.021 91.3005 137.47 88.0773 126.821 84.8346C126.821 85.9745 126.821 86.9375 126.821 87.9201C126.821 88.8831 126.821 89.8658 126.821 90.7698C127.018 90.8484 127.077 90.8877 127.136 90.8877C128.356 90.9074 129.557 90.8877 130.778 90.9271C132.352 90.9664 133.1 91.5953 133.415 93.1479C133.514 93.6195 133.592 94.1109 133.691 94.6808ZM132.49 105.117C131.88 101.559 131.27 98.0612 130.679 94.5432C130.581 93.934 130.246 93.8554 129.734 93.8554C127.077 93.875 124.42 93.8554 121.782 93.8554C120.325 93.8554 120.325 93.8554 120.05 95.3294C119.971 95.7421 119.892 96.1548 119.813 96.5872C119.321 99.4172 118.849 102.228 118.337 105.097C123.081 105.117 127.766 105.117 132.49 105.117ZM116.113 179.013C122.333 179.013 128.435 179.013 134.636 179.013C134.222 177.637 133.809 176.3 133.396 174.925C128.16 174.925 122.983 174.925 117.806 174.944C117.609 174.944 117.274 175.141 117.235 175.298C116.841 176.497 116.487 177.715 116.113 179.013ZM116.605 97.7271C112.353 97.7271 108.18 97.7271 104.026 97.7271C104.026 98.9849 104.026 100.164 104.026 101.363C108.042 101.363 111.959 101.363 115.975 101.363C116.191 100.144 116.388 98.9652 116.605 97.7271ZM117.117 94.6612C117.215 94.2091 117.294 93.8554 117.353 93.5016C117.668 91.5363 118.376 90.9271 120.345 90.9074C121.487 90.9074 122.628 90.9074 123.79 90.9074C123.79 89.1386 123.79 87.4681 123.79 85.6797C119.38 88.6669 115.069 91.5756 110.778 94.4843C110.818 94.5432 110.857 94.6022 110.877 94.6612C112.944 94.6612 114.991 94.6612 117.117 94.6612ZM103.987 116.437C105.857 116.437 107.629 116.437 109.381 116.437C111.27 116.417 110.995 116.653 110.995 114.825C111.014 112.526 110.995 112.526 108.692 112.526C107.137 112.526 105.582 112.526 103.987 112.526C103.987 113.902 103.987 115.1 103.987 116.437ZM128.868 114.02C128.868 111.877 128.868 110.03 128.868 108.183C127.097 108.183 125.404 108.183 123.573 108.183C125.364 110.168 127.057 112.015 128.868 114.02ZM128.888 169.579C128.888 167.496 128.888 165.727 128.888 163.88C127.195 163.88 125.542 163.88 123.731 163.88C125.463 165.806 127.097 167.594 128.888 169.579ZM128.888 141.691C127.195 141.691 125.561 141.691 123.731 141.691C125.483 143.617 127.097 145.406 128.888 147.371C128.888 145.288 128.888 143.499 128.888 141.691ZM123.731 119.444C125.483 121.37 127.116 123.178 128.868 125.124C128.868 123.08 128.868 121.291 128.868 119.444C127.175 119.444 125.561 119.444 123.731 119.444ZM123.711 152.776C125.463 154.721 127.116 156.529 128.888 158.475C128.888 156.411 128.888 154.623 128.888 152.776C127.215 152.776 125.581 152.776 123.711 152.776ZM128.868 136.228C128.868 134.164 128.868 132.356 128.868 130.587C127.156 130.587 125.522 130.587 123.75 130.587C125.483 132.494 127.097 134.282 128.868 136.228ZM127.038 149.729C125.266 147.784 123.632 145.976 121.88 144.05C121.88 146.094 121.88 147.882 121.88 149.729C123.593 149.729 125.207 149.729 127.038 149.729ZM121.88 127.482C123.612 127.482 125.227 127.482 127.018 127.482C125.266 125.556 123.652 123.768 121.88 121.802C121.88 123.866 121.88 125.654 121.88 127.482ZM121.88 171.918C123.573 171.918 125.207 171.918 127.038 171.918C125.286 169.992 123.652 168.203 121.88 166.258C121.88 168.302 121.88 170.09 121.88 171.918ZM121.88 116.339C123.612 116.339 125.207 116.339 126.979 116.339C125.246 114.432 123.632 112.644 121.88 110.718C121.88 112.762 121.88 114.531 121.88 116.339ZM127.038 138.606C125.266 136.64 123.652 134.872 121.9 132.946C121.9 134.989 121.9 136.778 121.9 138.606C123.573 138.606 125.168 138.606 127.038 138.606ZM127.018 160.814C125.227 158.848 123.632 157.08 121.9 155.173C121.9 157.198 121.9 158.986 121.9 160.814C123.573 160.814 125.148 160.814 127.018 160.814Z" fill="black"/>
<path d="M143.73 182C143.12 181.528 142.529 180.998 142.844 180.133C143.435 178.462 144.97 179.288 146.21 178.954C146.21 178.6 146.21 178.227 146.21 177.853C146.21 173.038 146.21 168.223 146.21 163.408C146.21 163.054 146.191 162.681 146.269 162.327C146.427 161.6 146.958 161.089 147.647 161.227C148.159 161.325 148.671 161.796 149.025 162.229C149.222 162.484 149.143 162.976 149.143 163.369C149.143 168.144 149.143 172.94 149.143 177.716C149.143 178.109 149.143 178.502 149.143 178.973C152.509 178.973 155.836 178.973 159.261 178.973C159.261 178.62 159.261 178.285 159.261 177.932C159.261 174.925 159.261 171.898 159.261 168.891C159.261 167.437 159.97 166.729 161.446 166.71C164.162 166.69 166.899 166.69 169.615 166.71C171.19 166.71 171.859 167.417 171.859 169.029C171.859 171.977 171.859 174.925 171.859 177.873C171.859 178.227 171.859 178.58 171.859 178.993C175.264 178.993 178.591 178.993 181.977 178.993C181.977 168.891 181.977 158.79 181.977 148.57C181.603 148.57 181.268 148.57 180.914 148.57C177.568 148.57 174.221 148.57 170.875 148.57C168.985 148.57 168.237 147.823 168.217 145.956C168.217 145.347 168.217 144.737 168.217 144.069C161.8 144.069 155.521 144.069 149.124 144.069C149.124 144.462 149.124 144.816 149.124 145.17C149.124 148.452 149.124 151.714 149.124 154.996C149.124 155.39 149.124 155.783 149.025 156.156C148.828 156.883 148.257 157.355 147.568 157.158C147.057 157.021 146.624 156.49 146.269 156.058C146.092 155.842 146.191 155.429 146.191 155.095C146.191 151.4 146.21 147.685 146.171 143.991C146.171 142.87 146.387 141.947 147.411 141.279C147.667 141.121 147.746 140.551 147.746 140.178C147.765 134.027 147.765 127.855 147.765 121.704C147.765 121.37 147.746 121.055 147.785 120.721C147.864 119.837 148.435 119.287 149.222 119.287C150.009 119.287 150.6 119.817 150.679 120.702C150.718 121.114 150.679 121.547 150.679 122.038C155.147 122.038 159.517 122.038 164.005 122.038C164.025 121.724 164.064 121.429 164.064 121.114C164.103 119.916 164.595 119.287 165.521 119.287C166.465 119.287 167.017 119.935 167.017 121.193C167.036 123.296 167.017 125.379 167.017 127.482C167.017 129.565 167.017 131.648 167.017 133.791C171.505 133.791 175.894 133.791 180.402 133.791C180.402 133.005 180.402 132.218 180.402 131.452C180.422 130.174 180.894 129.526 181.839 129.506C182.823 129.487 183.335 130.174 183.355 131.491C183.355 135.874 183.374 140.276 183.355 144.659C183.355 145.288 183.433 145.74 184.044 146.113C184.87 146.624 184.989 147.528 184.989 148.452C184.989 156.117 184.989 163.781 184.989 171.446C184.989 173.922 184.989 176.418 184.989 179.032C185.5 179.032 185.953 179.052 186.386 179.032C187.233 178.993 188 179.15 188.315 180.035C188.63 180.939 188.118 181.528 187.39 181.98C172.863 182 158.296 182 143.73 182ZM164.064 125.143C159.596 125.143 155.226 125.143 150.797 125.143C150.797 128.052 150.797 130.921 150.797 133.81C155.245 133.81 159.615 133.81 164.064 133.81C164.064 130.941 164.064 128.091 164.064 125.143ZM180.363 145.563C180.363 142.615 180.363 139.726 180.363 136.876C175.894 136.876 171.524 136.876 167.154 136.876C167.154 138.291 167.154 139.647 167.154 141.141C170.875 140.473 171.544 142.615 171.17 145.583C174.339 145.563 177.292 145.563 180.363 145.563ZM168.867 179.013C168.867 175.868 168.867 172.822 168.867 169.736C166.643 169.736 164.477 169.736 162.292 169.736C162.292 172.861 162.292 175.927 162.292 179.013C164.497 179.013 166.643 179.013 168.867 179.013ZM150.797 140.984C155.245 140.984 159.655 140.984 164.025 140.984C164.025 139.549 164.025 138.193 164.025 136.876C159.556 136.876 155.186 136.876 150.797 136.876C150.797 138.291 150.797 139.628 150.797 140.984Z" fill="black"/>
<path d="M152.804 157.237C152.804 156.254 152.785 155.272 152.804 154.289C152.844 152.992 153.493 152.245 154.793 152.206C156.82 152.147 158.848 152.166 160.895 152.206C162.214 152.225 162.903 152.933 162.922 154.23C162.962 156.254 162.962 158.279 162.922 160.322C162.903 161.62 162.155 162.288 160.855 162.307C158.848 162.327 156.859 162.347 154.852 162.307C153.572 162.288 152.864 161.541 152.804 160.283C152.804 160.224 152.804 160.146 152.804 160.087C152.804 159.143 152.804 158.18 152.804 157.237ZM159.911 159.32C159.911 157.944 159.911 156.588 159.911 155.232C158.493 155.232 157.174 155.232 155.816 155.232C155.816 156.628 155.816 157.944 155.816 159.32C157.194 159.32 158.533 159.32 159.911 159.32Z" fill="black"/>
<path d="M178.355 157.296C178.355 158.279 178.375 159.261 178.355 160.244C178.336 161.58 177.607 162.308 176.269 162.327C174.261 162.347 172.273 162.367 170.265 162.327C169.005 162.308 168.277 161.62 168.257 160.382C168.218 158.279 168.218 156.195 168.257 154.093C168.277 152.972 168.907 152.284 170.029 152.245C172.194 152.167 174.359 152.167 176.505 152.245C177.686 152.284 178.316 153.051 178.336 154.25C178.375 155.252 178.355 156.274 178.355 157.296ZM171.249 159.301C172.686 159.301 174.005 159.301 175.363 159.301C175.363 157.905 175.363 156.588 175.363 155.232C173.966 155.232 172.627 155.232 171.249 155.232C171.249 156.628 171.249 157.925 171.249 159.301Z" fill="black"/>
<defs>
<filter id="filter0_d_617_8" x="0.500122" y="0.353821" width="279.572" height="276.252" filterUnits="userSpaceOnUse" color-interpolation-filters="sRGB">
<feFlood flood-opacity="0" result="BackgroundImageFix"/>
<feColorMatrix in="SourceAlpha" type="matrix" values="0 0 0 0 0 0 0 0 0 0 0 0 0 0 0 0 0 0 127 0" result="hardAlpha"/>
<feOffset dy="10"/>
<feGaussianBlur stdDeviation="25"/>
<feComposite in2="hardAlpha" operator="out"/>
<feColorMatrix type="matrix" values="0 0 0 0 0.191111 0 0 0 0 0.2304 0 0 0 0 0.266667 0 0 0 0.15 0"/>
<feBlend mode="normal" in2="BackgroundImageFix" result="effect1_dropShadow_617_8"/>
<feBlend mode="normal" in="SourceGraphic" in2="effect1_dropShadow_617_8" result="shape"/>
</filter>
<radialGradient id="paint0_radial_617_8" cx="0" cy="0" r="1" gradientUnits="userSpaceOnUse" gradientTransform="translate(168 155) rotate(90) scale(64)">
<stop stop-color="#007DE7"/>
<stop offset="1" stop-color="#007DE7" stop-opacity="0"/>
</radialGradient>
</defs>
</svg>
